<?xml version="1.0" encoding="UTF-8"?>
<!-- Generator: Adobe Illustrator 15.0.0, SVG Export Plug-In . SVG Version: 6.00 Build 0)  -->
<!DOCTYPE svg PUBLIC "-//W3C//DTD SVG 1.1//EN" "http://www.w3.org/Graphics/SVG/1.1/DTD/svg11.dtd">
<svg version="1.1" id="Ebene_1" xmlns="http://www.w3.org/2000/svg" xmlns:xlink="http://www.w3.org/1999/xlink" x="0px" y="0px" width="483.869px" height="483.883px" viewBox="0 0 483.869 483.883" enable-background="new 0 0 483.869 483.883" xml:space="preserve">
<g>
	<rect x="0.005" y="0.014" width="483.854" height="483.859"/>
	<polygon fill="#58585A" points="0.005,99.032 7.856,93.118 0.005,82.715  "/>
	<g>
		<defs>
			<rect id="SVGID_1_" x="0.005" y="0.014" width="483.863" height="483.869"/>
		</defs>
		<clipPath id="SVGID_2_">
			<use xlink:href="#SVGID_1_" overflow="visible"/>
		</clipPath>
		<path clip-path="url(#SVGID_2_)" fill="#58585A" d="M28.094,77.868l-31.46-41.751L9.021,26.78    c8.927-6.715,15.851-7.199,23.162,2.51c7.278,9.648,6.258,15.25-3.833,22.859l-1.914,1.439l12.27,16.27L28.094,77.868z     M20.569,45.798c3.548-2.673,4.643-4.503,1.136-9.146c-2.985-3.949-4.628-4.084-8.764-0.973L20.569,45.798z"/>
		<polygon clip-path="url(#SVGID_2_)" fill="#58585A" points="57.324,55.833 25.859,14.101 49.733,-3.893 56.215,4.717     43.363,14.408 48.7,21.49 59.326,13.49 66.087,22.436 55.461,30.445 61.584,38.589 75.098,28.405 81.85,37.36   "/>
		<path clip-path="url(#SVGID_2_)" fill="#58585A" d="M87.885,15.12c1.877,2.51,3.805,2.603,5.523,1.327    c1.695-1.29,2.133-3.167,0.247-5.676l-3.11-4.126l-2.757,2.068l-5.863-7.781l13.77-10.375l17.48,23.19l-5.644,4.247l-3.246-1.01    c-0.801,3.707-2.584,6.51-5.863,8.992c-10.957,8.238-16.908,4.703-29.309-11.749c-11.87-15.758-12.442-24.433-1.821-32.447    c5.895-4.442,12.866-6.235,18.71-2.44c1.825,1.192,3.595,3.129,6.142,6.505L81.124-5.858l-1.839-2.445    c-1.881-2.486-3.809-2.584-5.504-1.294c-1.718,1.276-2.147,3.157-0.27,5.644L87.885,15.12z"/>
		<polygon clip-path="url(#SVGID_2_)" fill="#58585A" points="119.583,8.922 88.118,-32.82 99.145,-41.118 130.586,0.624   "/>
		<path clip-path="url(#SVGID_2_)" fill="#58585A" d="M9.23,180.532l-31.46-41.742l12.387-9.341    c8.917-6.724,15.851-7.199,23.176,2.505c7.265,9.658,6.245,15.255-3.855,22.864l-1.905,1.444l12.275,16.261L9.23,180.532z     M1.705,148.467c3.548-2.673,4.647-4.498,1.136-9.146c-2.976-3.949-4.624-4.088-8.754-0.978L1.705,148.467z"/>
	</g>
	<polygon fill="#58585A" points="38.46,158.497 6.995,116.76 30.86,98.776 37.342,107.377 24.499,117.067 29.85,124.159    40.471,116.159 47.224,125.1 36.597,133.109 42.721,141.258 56.225,131.079 62.977,140.029  "/>
	<g>
		<defs>
			<rect id="SVGID_3_" x="0.005" y="0.014" width="484.506" height="485.302"/>
		</defs>
		<clipPath id="SVGID_4_">
			<use xlink:href="#SVGID_3_" overflow="visible"/>
		</clipPath>
		<path clip-path="url(#SVGID_4_)" fill="#58585A" d="M69.021,117.789c1.891,2.505,3.805,2.599,5.523,1.332    c1.695-1.295,2.137-3.181,0.247-5.681l-3.12-4.126l-2.743,2.068l-5.867-7.781l13.77-10.375l17.481,23.19l-5.644,4.251    l-3.241-1.015c-0.801,3.697-2.584,6.51-5.867,8.987c-10.957,8.242-16.908,4.712-29.304-11.744    C38.38,101.137,37.808,92.462,48.43,84.448c5.895-4.442,12.866-6.235,18.724-2.44c1.812,1.192,3.585,3.129,6.133,6.505    l-11.018,8.298l-1.849-2.445c-1.881-2.486-3.795-2.594-5.504-1.304c-1.709,1.276-2.146,3.167-0.256,5.653L69.021,117.789z"/>
		<polygon clip-path="url(#SVGID_4_)" fill="#58585A" points="100.719,111.591 69.254,69.84 80.281,61.542 111.722,103.293   "/>
		<path clip-path="url(#SVGID_4_)" fill="#58585A" d="M131.974,88.038l-31.451-41.751l12.387-9.336    c8.927-6.715,15.851-7.199,23.176,2.52c7.264,9.648,6.245,15.246-3.855,22.859l-1.905,1.429l12.27,16.271L131.974,88.038z     M124.458,55.968c3.548-2.664,4.633-4.503,1.127-9.146c-2.976-3.949-4.615-4.084-8.745-0.973L124.458,55.968z"/>
	</g>
	<g>
		<defs>
			<rect id="SVGID_5_" x="0.005" y="0.014" width="483.863" height="483.869"/>
		</defs>
		<clipPath id="SVGID_6_">
			<use xlink:href="#SVGID_5_" overflow="visible"/>
		</clipPath>
		<polygon clip-path="url(#SVGID_6_)" fill="#58585A" points="161.199,66.012 129.748,24.271 153.608,6.272 160.095,14.887     147.238,24.573 152.588,31.661 163.215,23.67 169.967,32.615 159.341,40.615 165.473,48.76 178.978,38.576 185.729,47.54   "/>
		<path clip-path="url(#SVGID_6_)" fill="#58585A" d="M191.774,25.29c1.886,2.51,3.804,2.603,5.509,1.327    c1.709-1.29,2.146-3.167,0.261-5.676l-3.12-4.13l-2.747,2.082l-5.863-7.781l13.76-10.379l17.481,23.194l-5.644,4.247l-3.236-1.024    c-0.801,3.711-2.594,6.514-5.872,8.996c-10.948,8.247-16.899,4.699-29.3-11.739c-11.874-15.767-12.452-24.442-1.83-32.447    c5.905-4.452,12.876-6.235,18.72-2.44c1.821,1.183,3.585,3.129,6.133,6.496l-11.003,8.307l-1.854-2.454    c-1.876-2.487-3.804-2.584-5.509-1.295c-1.7,1.267-2.137,3.157-0.251,5.644L191.774,25.29z"/>
		<polygon clip-path="url(#SVGID_6_)" fill="#58585A" points="223.471,19.092 192.007,-22.664 203.034,-30.957 234.475,10.794   "/>
		<path clip-path="url(#SVGID_6_)" fill="#58585A" d="M-9.634,283.201l-31.46-41.751l12.387-9.342    c8.927-6.724,15.851-7.189,23.176,2.515c7.269,9.648,6.245,15.256-3.851,22.855l-1.909,1.443l12.284,16.27L-9.634,283.201z     M-17.154,251.126c3.544-2.663,4.643-4.498,1.132-9.146c-2.976-3.948-4.624-4.079-8.754-0.968L-17.154,251.126z"/>
		<polygon clip-path="url(#SVGID_6_)" fill="#58585A" points="19.596,261.166 -11.864,219.424 11.996,201.44 18.478,210.037     5.635,219.731 10.986,226.819 21.607,218.81 28.359,227.769 17.738,235.778 23.871,243.918 37.375,233.729 44.127,242.688   "/>
	</g>
	<g>
		<defs>
			<rect id="SVGID_7_" x="0.005" y="0.014" width="484.506" height="485.302"/>
		</defs>
		<clipPath id="SVGID_8_">
			<use xlink:href="#SVGID_7_" overflow="visible"/>
		</clipPath>
		<path clip-path="url(#SVGID_8_)" fill="#58585A" d="M50.157,220.449c1.891,2.505,3.804,2.607,5.513,1.322s2.147-3.167,0.256-5.662    l-3.115-4.135l-2.748,2.067l-5.867-7.776l13.765-10.384l17.49,23.199l-5.648,4.247l-3.231-1.015    c-0.811,3.707-2.594,6.519-5.877,8.987c-10.957,8.251-16.908,4.712-29.304-11.744c-11.875-15.749-12.447-24.438-1.83-32.438    c5.9-4.442,12.871-6.24,18.729-2.431c1.811,1.173,3.585,3.129,6.132,6.5l-11.027,8.289l-1.839-2.44    c-1.876-2.496-3.804-2.598-5.513-1.304c-1.705,1.267-2.133,3.148-0.247,5.644L50.157,220.449z"/>
		
			<rect x="45.502" y="182.336" transform="matrix(0.6018, 0.7987, -0.7987, 0.6018, 179.657, 18.137)" clip-path="url(#SVGID_8_)" fill="#58585A" width="52.277" height="13.79"/>
		<path clip-path="url(#SVGID_8_)" fill="#58585A" d="M113.119,190.702L81.654,148.96l12.391-9.341    c8.927-6.724,15.852-7.199,23.171,2.505c7.269,9.648,6.25,15.255-3.841,22.864l-1.919,1.444l12.284,16.261L113.119,190.702z     M105.594,158.637c3.548-2.682,4.643-4.498,1.136-9.146c-2.976-3.958-4.629-4.088-8.754-0.978L105.594,158.637z"/>
		<polygon clip-path="url(#SVGID_8_)" fill="#58585A" points="142.349,168.667 110.884,126.925 134.758,108.941 141.24,117.547     128.383,127.233 133.734,134.329 144.36,126.32 151.112,135.27 140.486,143.279 146.619,151.419 160.123,141.23 166.875,150.199       "/>
		<path clip-path="url(#SVGID_8_)" fill="#58585A" d="M172.91,127.959c1.886,2.505,3.804,2.599,5.522,1.313    c1.695-1.285,2.147-3.167,0.247-5.663l-3.111-4.135l-2.757,2.077l-5.862-7.781l13.76-10.38l17.49,23.199l-5.635,4.238    l-3.241-1.015c-0.815,3.707-2.594,6.519-5.877,8.997c-10.957,8.242-16.908,4.703-29.304-11.744    c-11.875-15.758-12.447-24.447-1.826-32.447c5.896-4.442,12.866-6.235,18.724-2.44c1.812,1.183,3.586,3.129,6.128,6.505    l-11.022,8.293l-1.83-2.44c-1.891-2.496-3.804-2.593-5.513-1.304c-1.709,1.276-2.147,3.153-0.256,5.653L172.91,127.959z"/>
		<polygon clip-path="url(#SVGID_8_)" fill="#58585A" points="204.607,121.766 173.147,80.01 184.169,71.712 215.621,113.463   "/>
		<path clip-path="url(#SVGID_8_)" fill="#58585A" d="M235.863,98.208l-31.456-41.751l12.391-9.336    c8.927-6.715,15.847-7.204,23.162,2.514c7.278,9.653,6.258,15.241-3.851,22.85l-1.9,1.439l12.275,16.27L235.863,98.208z     M228.337,66.133c3.558-2.659,4.633-4.498,1.132-9.146c-2.976-3.949-4.615-4.079-8.745-0.973L228.337,66.133z"/>
	</g>
	<g>
		<defs>
			<rect id="SVGID_9_" x="0.005" y="0.014" width="483.863" height="483.869"/>
		</defs>
		<clipPath id="SVGID_10_">
			<use xlink:href="#SVGID_9_" overflow="visible"/>
		</clipPath>
		<polygon clip-path="url(#SVGID_10_)" fill="#58585A" points="265.097,76.182 233.627,34.436 257.497,16.443 263.984,25.053     251.127,34.743 256.478,41.831 267.099,33.826 273.851,42.78 263.23,50.785 269.372,58.92 282.867,48.741 289.619,57.709   "/>
		<path clip-path="url(#SVGID_10_)" fill="#58585A" d="M295.663,35.46c1.886,2.505,3.795,2.594,5.5,1.322    c1.718-1.285,2.155-3.167,0.261-5.672l-3.12-4.13l-2.738,2.077l-5.872-7.791l13.77-10.375l17.49,23.204l-5.657,4.242l-3.232-1.029    c-0.81,3.72-2.584,6.524-5.871,8.992c-10.953,8.251-16.899,4.712-29.3-11.739c-11.874-15.753-12.456-24.433-1.83-32.442    c5.896-4.442,12.866-6.24,18.71-2.44c1.83,1.192,3.586,3.134,6.143,6.501l-11.022,8.307l-1.835-2.449    c-1.886-2.5-3.813-2.584-5.518-1.299c-1.7,1.271-2.128,3.157-0.242,5.648L295.663,35.46z"/>
		<polygon clip-path="url(#SVGID_10_)" fill="#58585A" points="327.356,29.258 295.886,-12.494 306.909,-20.787 338.374,20.964       "/>
		<path clip-path="url(#SVGID_10_)" fill="#58585A" d="M358.621,5.705l-31.47-41.751l12.396-9.336    c8.918-6.71,15.842-7.199,23.177,2.52c7.255,9.653,6.234,15.241-3.865,22.85l-1.904,1.439l12.293,16.28L358.621,5.705z     M351.095-26.366c3.539-2.659,4.638-4.503,1.136-9.146c-2.984-3.949-4.633-4.084-8.754-0.973L351.095-26.366z"/>
		<polygon clip-path="url(#SVGID_10_)" fill="#58585A" points="0.732,363.835 -30.719,322.093 -6.858,304.109 -0.372,312.705     -13.229,322.4 -7.878,329.488 2.748,321.497 9.496,330.438 -1.126,338.447 5.007,346.587 18.511,336.407 25.263,345.357   "/>
	</g>
	<g>
		<defs>
			<rect id="SVGID_11_" x="0.005" y="0.014" width="484.506" height="485.302"/>
		</defs>
		<clipPath id="SVGID_12_">
			<use xlink:href="#SVGID_11_" overflow="visible"/>
		</clipPath>
		<path clip-path="url(#SVGID_12_)" fill="#58585A" d="M31.307,323.117c1.876,2.506,3.795,2.608,5.509,1.332    c1.7-1.285,2.146-3.176,0.251-5.672l-3.111-4.135L31.2,316.71l-5.863-7.776l13.77-10.375l17.481,23.189l-5.648,4.247l-3.232-1.015    c-0.81,3.706-2.594,6.519-5.872,8.996c-10.948,8.233-16.899,4.703-29.299-11.753c-11.884-15.749-12.452-24.429-1.83-32.438    c5.895-4.442,12.866-6.239,18.719-2.449c1.821,1.192,3.586,3.13,6.133,6.51l-11.022,8.299l-1.835-2.44    c-1.886-2.496-3.804-2.599-5.509-1.304c-1.709,1.267-2.137,3.166-0.261,5.644L31.307,323.117z"/>
		<polygon clip-path="url(#SVGID_12_)" fill="#58585A" points="62.991,316.924 31.54,275.173 42.567,266.875 74.008,308.626   "/>
		<path clip-path="url(#SVGID_12_)" fill="#58585A" d="M94.255,293.371L62.805,251.62l12.386-9.341    c8.917-6.725,15.851-7.19,23.167,2.514c7.273,9.649,6.253,15.246-3.847,22.855l-1.904,1.443l12.274,16.27L94.255,293.371z     M86.739,261.297c3.548-2.664,4.638-4.499,1.127-9.146c-2.976-3.948-4.624-4.079-8.754-0.968L86.739,261.297z"/>
		<polygon clip-path="url(#SVGID_12_)" fill="#58585A" points="123.485,271.336 92.034,229.595 115.895,211.601 122.376,220.207     109.524,229.893 114.875,236.989 125.497,228.998 132.249,237.938 121.627,245.948 127.759,254.088 141.259,243.908     148.002,252.858   "/>
		<path clip-path="url(#SVGID_12_)" fill="#58585A" d="M154.055,230.619c1.881,2.505,3.805,2.607,5.514,1.331    c1.704-1.294,2.146-3.175,0.247-5.671l-3.101-4.135l-2.761,2.068l-5.868-7.777l13.779-10.375l17.471,23.19l-5.634,4.247    l-3.241-1.015c-0.81,3.707-2.594,6.52-5.876,8.996c-10.948,8.233-16.899,4.694-29.295-11.753    c-11.883-15.758-12.456-24.429-1.834-32.447c5.904-4.433,12.866-6.23,18.724-2.44c1.821,1.192,3.585,3.129,6.128,6.51    l-11.013,8.298l-1.839-2.44c-1.891-2.496-3.804-2.598-5.504-1.304c-1.718,1.267-2.147,3.167-0.266,5.644L154.055,230.619z"/>
		
			<rect x="149.389" y="192.506" transform="matrix(0.6017, 0.7987, -0.7987, 0.6017, 229.183, -60.7729)" clip-path="url(#SVGID_12_)" fill="#58585A" width="52.271" height="13.789"/>
		<path clip-path="url(#SVGID_12_)" fill="#58585A" d="M217.008,200.872l-31.46-41.742l12.396-9.341    c8.908-6.715,15.851-7.199,23.167,2.515c7.265,9.658,6.245,15.246-3.846,22.864l-1.904,1.434l12.261,16.251L217.008,200.872z     M209.492,168.797c3.539-2.654,4.633-4.489,1.127-9.146c-2.976-3.939-4.628-4.079-8.754-0.968L209.492,168.797z"/>
		<polygon clip-path="url(#SVGID_12_)" fill="#58585A" points="246.233,178.856 214.773,137.114 238.633,119.111 245.12,127.726     232.263,137.412 237.614,144.5 248.24,136.509 254.987,145.458 244.366,153.449 250.489,161.589 264.002,151.419 270.746,160.378       "/>
		<path clip-path="url(#SVGID_12_)" fill="#58585A" d="M276.799,138.129c1.886,2.505,3.813,2.599,5.518,1.323    c1.7-1.285,2.138-3.157,0.242-5.672l-3.102-4.135l-2.757,2.086l-5.871-7.786l13.778-10.384l17.481,23.199l-5.658,4.247    l-3.231-1.024c-0.811,3.716-2.585,6.52-5.872,8.997c-10.948,8.251-16.899,4.703-29.3-11.735    c-11.874-15.767-12.456-24.447-1.83-32.447c5.895-4.452,12.866-6.235,18.729-2.44c1.812,1.183,3.585,3.129,6.123,6.492    l-11.022,8.307l-1.834-2.449c-1.887-2.491-3.796-2.584-5.509-1.299c-1.709,1.271-2.138,3.157-0.252,5.648L276.799,138.129z"/>
		
			<rect x="272.136" y="100.01" transform="matrix(0.6017, 0.7987, -0.7987, 0.6017, 204.176, -195.654)" clip-path="url(#SVGID_12_)" fill="#58585A" width="52.274" height="13.785"/>
		<path clip-path="url(#SVGID_12_)" fill="#58585A" d="M339.761,108.374l-31.475-41.751l12.4-9.336    c8.923-6.71,15.856-7.199,23.172,2.52c7.278,9.653,6.239,15.25-3.852,22.859l-1.899,1.43l12.274,16.271L339.761,108.374z     M332.236,76.303c3.534-2.659,4.634-4.503,1.132-9.146c-2.985-3.949-4.634-4.084-8.755-0.973L332.236,76.303z"/>
		<polygon clip-path="url(#SVGID_12_)" fill="#58585A" points="368.976,86.348 337.526,44.606 361.396,26.613 367.877,35.223     355.025,44.913 360.375,52 370.998,44.005 377.75,52.951 367.127,60.955 373.251,69.1 386.765,58.911 393.522,67.875   "/>
	</g>
	<g>
		<defs>
			<rect id="SVGID_13_" x="0.005" y="0.014" width="483.863" height="483.869"/>
		</defs>
		<clipPath id="SVGID_14_">
			<use xlink:href="#SVGID_13_" overflow="visible"/>
		</clipPath>
		<path clip-path="url(#SVGID_14_)" fill="#58585A" d="M399.556,45.625c1.872,2.51,3.8,2.608,5.505,1.327    c1.704-1.285,2.15-3.167,0.261-5.671l-3.12-4.131l-2.757,2.077l-5.858-7.781l13.766-10.375l17.48,23.195l-5.644,4.242l-3.223-1.02    c-0.819,3.711-2.607,6.515-5.877,8.992c-10.952,8.251-16.903,4.704-29.299-11.739c-11.894-15.763-12.457-24.442-1.83-32.442    c5.891-4.457,12.866-6.24,18.715-2.445c1.825,1.183,3.576,3.129,6.138,6.496l-11.027,8.307l-1.835-2.449    c-1.881-2.491-3.809-2.584-5.509-1.299c-1.704,1.267-2.133,3.157-0.265,5.644L399.556,45.625z"/>
		<polygon clip-path="url(#SVGID_14_)" fill="#58585A" points="431.24,39.428 399.78,-2.314 410.807,-10.622 442.257,31.129   "/>
		<path clip-path="url(#SVGID_14_)" fill="#58585A" d="M462.496,15.875l-31.441-41.751l12.367-9.336    c8.932-6.706,15.87-7.199,23.181,2.519c7.273,9.648,6.249,15.246-3.855,22.859l-1.891,1.439l12.266,16.27L462.496,15.875z     M454.97-16.195c3.558-2.664,4.656-4.494,1.136-9.137c-2.961-3.958-4.609-4.093-8.754-0.973L454.97-16.195z"/>
		<polygon clip-path="url(#SVGID_14_)" fill="#58585A" points="-18.123,466.504 -49.583,424.762 -25.722,406.778 -19.236,415.374     -32.093,425.069 -26.742,432.166 -16.116,424.166 -9.364,433.106 -19.99,441.116 -13.857,449.256 -0.353,439.076 6.39,448.026       "/>
		<path clip-path="url(#SVGID_14_)" fill="#58585A" d="M12.443,425.786c1.876,2.506,3.795,2.608,5.513,1.323    c1.695-1.285,2.142-3.167,0.247-5.663l-3.111-4.135l-2.757,2.067l-5.862-7.776l13.77-10.375l17.481,23.19l-5.635,4.246    l-3.246-1.015c-0.81,3.706-2.594,6.519-5.872,8.987c-10.948,8.242-16.898,4.712-29.299-11.744    c-11.879-15.749-12.452-24.438-1.83-32.438c5.896-4.442,12.875-6.239,18.72-2.449c1.825,1.192,3.585,3.13,6.133,6.51    l-11.022,8.299l-1.83-2.44c-1.89-2.496-3.809-2.599-5.513-1.304c-1.709,1.285-2.137,3.166-0.256,5.644L12.443,425.786z"/>
	</g>
	<g>
		<defs>
			<rect id="SVGID_15_" x="0.005" y="0.014" width="484.506" height="485.302"/>
		</defs>
		<clipPath id="SVGID_16_">
			<use xlink:href="#SVGID_15_" overflow="visible"/>
		</clipPath>
		<polygon clip-path="url(#SVGID_16_)" fill="#58585A" points="44.141,419.593 12.676,377.842 23.703,369.544 55.154,411.295   "/>
		<path clip-path="url(#SVGID_16_)" fill="#58585A" d="M75.391,396.04l-31.46-41.751l12.396-9.342    c8.917-6.724,15.851-7.189,23.167,2.515c7.278,9.649,6.254,15.246-3.842,22.855l-1.909,1.443l12.275,16.27L75.391,396.04z     M67.88,363.965c3.543-2.663,4.633-4.498,1.122-9.146c-2.976-3.948-4.624-4.079-8.754-0.968L67.88,363.965z"/>
		<polygon clip-path="url(#SVGID_16_)" fill="#58585A" points="104.63,374.005 73.17,332.264 97.031,314.27 103.513,322.875     90.66,332.57 96.011,339.658 106.632,331.667 113.385,340.607 102.763,348.617 108.896,356.757 122.4,346.577 129.152,355.527       "/>
		<path clip-path="url(#SVGID_16_)" fill="#58585A" d="M135.191,333.287c1.881,2.506,3.795,2.599,5.514,1.323    c1.7-1.285,2.146-3.167,0.256-5.663l-3.115-4.135l-2.757,2.067l-5.867-7.776l13.784-10.384l17.481,23.199l-5.648,4.246    l-3.241-1.015c-0.81,3.707-2.594,6.52-5.876,8.987c-10.948,8.242-16.899,4.703-29.295-11.744    c-11.884-15.758-12.457-24.438-1.83-32.447c5.9-4.433,12.871-6.23,18.72-2.44c1.821,1.192,3.585,3.13,6.133,6.511l-11.018,8.298    l-1.839-2.44c-1.886-2.496-3.805-2.599-5.514-1.304c-1.704,1.267-2.133,3.167-0.256,5.644L135.191,333.287z"/>
		<polygon clip-path="url(#SVGID_16_)" fill="#58585A" points="166.889,327.095 135.429,285.343 146.451,277.045 177.907,318.796       "/>
		<path clip-path="url(#SVGID_16_)" fill="#58585A" d="M198.153,303.541l-31.46-41.751l12.387-9.341    c8.927-6.725,15.851-7.199,23.167,2.515c7.273,9.648,6.254,15.245-3.846,22.854l-1.905,1.443l12.271,16.271L198.153,303.541z     M190.628,271.467c3.548-2.664,4.633-4.499,1.127-9.146c-2.976-3.958-4.615-4.079-8.754-0.969L190.628,271.467z"/>
		<polygon clip-path="url(#SVGID_16_)" fill="#58585A" points="227.374,281.506 195.918,239.765 219.779,221.771 226.266,230.377     213.409,240.063 218.759,247.159 229.376,239.168 236.128,248.109 225.511,256.118 231.644,264.258 245.139,254.079     251.909,263.028   "/>
		<path clip-path="url(#SVGID_16_)" fill="#58585A" d="M257.935,240.789c1.886,2.496,3.813,2.598,5.522,1.322    c1.695-1.285,2.133-3.167,0.256-5.662l-3.119-4.136l-2.757,2.067l-5.854-7.786l13.761-10.375l17.48,23.199l-5.635,4.237    l-3.255-1.006c-0.811,3.707-2.584,6.52-5.872,8.978c-10.947,8.252-16.898,4.713-29.299-11.734    c-11.87-15.758-12.442-24.438-1.83-32.447c5.914-4.433,12.885-6.23,18.734-2.44c1.812,1.192,3.585,3.129,6.118,6.5l-10.994,8.308    l-1.858-2.44c-1.872-2.496-3.795-2.599-5.495-1.313c-1.728,1.276-2.156,3.167-0.265,5.653L257.935,240.789z"/>
		<polygon clip-path="url(#SVGID_16_)" fill="#58585A" points="289.632,234.586 258.177,192.844 269.185,184.537 300.645,226.297       "/>
		<path clip-path="url(#SVGID_16_)" fill="#58585A" d="M320.897,211.042l-31.474-41.751l12.4-9.341    c8.927-6.706,15.855-7.19,23.171,2.524c7.278,9.648,6.24,15.246-3.851,22.845l-1.9,1.443l12.275,16.261L320.897,211.042z     M313.372,178.968c3.539-2.654,4.634-4.499,1.132-9.146c-2.984-3.949-4.633-4.08-8.754-0.969L313.372,178.968z"/>
		<polygon clip-path="url(#SVGID_16_)" fill="#58585A" points="350.113,189.017 318.662,147.275 342.532,129.282 349.018,137.896     336.162,147.582 341.512,154.66 352.133,146.669 358.885,155.619 348.264,163.62 354.387,171.769 367.901,161.58 374.644,170.548       "/>
		<path clip-path="url(#SVGID_16_)" fill="#58585A" d="M380.697,148.29c1.868,2.515,3.796,2.598,5.5,1.332    c1.699-1.285,2.156-3.167,0.261-5.672l-3.12-4.135l-2.757,2.086l-5.854-7.795l13.766-10.375l17.472,23.199l-5.626,4.247    l-3.24-1.024c-0.811,3.707-2.608,6.52-5.868,8.987c-10.952,8.251-16.903,4.712-29.304-11.744    c-11.893-15.749-12.451-24.429-1.83-32.438c5.896-4.447,12.866-6.24,18.71-2.445c1.835,1.192,3.586,3.139,6.143,6.505    l-11.022,8.307l-1.835-2.449c-1.886-2.496-3.813-2.589-5.509-1.304c-1.709,1.267-2.137,3.167-0.27,5.644L380.697,148.29z"/>
		<polygon clip-path="url(#SVGID_16_)" fill="#58585A" points="412.39,142.097 380.92,100.345 391.948,92.047 423.389,133.798   "/>
	</g>
	<g>
		<defs>
			<rect id="SVGID_17_" x="0.005" y="0.014" width="483.863" height="483.869"/>
		</defs>
		<clipPath id="SVGID_18_">
			<use xlink:href="#SVGID_17_" overflow="visible"/>
		</clipPath>
		<path clip-path="url(#SVGID_18_)" fill="#58585A" d="M443.636,118.543l-31.451-41.751l12.396-9.336    c8.895-6.715,15.842-7.199,23.162,2.519c7.265,9.648,6.25,15.236-3.855,22.85l-1.899,1.438l12.274,16.28L443.636,118.543z     M436.129,86.474c3.539-2.664,4.638-4.503,1.117-9.146c-2.971-3.949-4.609-4.083-8.754-0.973L436.129,86.474z"/>
		<polygon clip-path="url(#SVGID_18_)" fill="#58585A" points="472.87,96.518 441.428,54.776 465.27,36.778 471.752,45.393     458.9,55.079 464.255,62.166 474.881,54.175 481.625,63.121 471.007,71.121 477.145,79.265 490.64,69.081 497.392,78.045   "/>
		<path clip-path="url(#SVGID_18_)" fill="#58585A" d="M503.436,55.796c1.891,2.51,3.818,2.603,5.522,1.327    c1.705-1.29,2.133-3.167,0.233-5.676l-3.092-4.13l-2.757,2.082l-5.877-7.791l13.774-10.379l17.49,23.204l-5.662,4.247    l-3.223-1.024c-0.82,3.711-2.589,6.515-5.886,8.997c-10.943,8.237-16.895,4.698-29.29-11.753    c-11.875-15.753-12.452-24.429-1.835-32.443c5.896-4.442,12.89-6.235,18.738-2.44c1.807,1.192,3.576,3.139,6.118,6.505    l-11.026,8.308l-1.835-2.454c-1.881-2.487-3.79-2.584-5.514-1.295c-1.694,1.267-2.123,3.153-0.242,5.644L503.436,55.796z"/>
		<polygon clip-path="url(#SVGID_18_)" fill="#58585A" points="25.277,522.262 -6.188,480.521 4.839,472.213 36.28,513.964   "/>
		<path clip-path="url(#SVGID_18_)" fill="#58585A" d="M56.532,498.709l-31.456-41.751l12.391-9.341    c8.927-6.706,15.847-7.19,23.171,2.514c7.269,9.648,6.249,15.246-3.851,22.855l-1.909,1.434l12.275,16.279L56.532,498.709z     M49.016,466.635c3.548-2.664,4.643-4.499,1.136-9.146c-2.976-3.948-4.628-4.079-8.759-0.968L49.016,466.635z"/>
	</g>
	<g>
		<defs>
			<rect id="SVGID_19_" x="0.005" y="0.014" width="484.506" height="485.302"/>
		</defs>
		<clipPath id="SVGID_20_">
			<use xlink:href="#SVGID_19_" overflow="visible"/>
		</clipPath>
		<polygon clip-path="url(#SVGID_20_)" fill="#58585A" points="85.766,476.674 54.306,434.941 78.167,416.939 84.653,425.563     71.806,435.249 77.156,442.327 87.778,434.336 94.53,443.276 83.908,451.286 90.032,459.426 103.536,449.246 110.279,458.196       "/>
		<path clip-path="url(#SVGID_20_)" fill="#58585A" d="M116.332,435.957c1.886,2.514,3.805,2.616,5.509,1.331    c1.709-1.294,2.147-3.166,0.261-5.672l-3.12-4.135l-2.748,2.067l-5.863-7.776l13.76-10.384l17.49,23.199l-5.648,4.246    l-3.241-1.015c-0.801,3.706-2.584,6.52-5.863,8.996c-10.962,8.233-16.908,4.694-29.309-11.753    c-11.875-15.758-12.447-24.429-1.83-32.447c5.904-4.434,12.875-6.23,18.729-2.44c1.811,1.192,3.585,3.13,6.132,6.511    l-11.013,8.298l-1.854-2.44c-1.876-2.496-3.804-2.589-5.509-1.304c-1.708,1.285-2.137,3.157-0.251,5.644L116.332,435.957z"/>
		<polygon clip-path="url(#SVGID_20_)" fill="#58585A" points="148.03,429.764 116.565,388.021 127.592,379.714 159.042,421.465       "/>
		<path clip-path="url(#SVGID_20_)" fill="#58585A" d="M179.29,406.21l-31.46-41.751l12.387-9.341    c8.926-6.706,15.851-7.199,23.176,2.515c7.264,9.648,6.245,15.245-3.856,22.854l-1.904,1.434l12.275,16.28L179.29,406.21z     M171.765,374.136c3.548-2.664,4.647-4.499,1.136-9.146c-2.976-3.959-4.624-4.08-8.754-0.969L171.765,374.136z"/>
		<polygon clip-path="url(#SVGID_20_)" fill="#58585A" points="208.519,384.175 177.059,342.442 200.919,324.44 207.401,333.055     194.559,342.75 199.909,349.828 210.531,341.837 217.283,350.777 206.661,358.787 212.78,366.927 226.284,356.748     233.018,365.697   "/>
		<path clip-path="url(#SVGID_20_)" fill="#58585A" d="M239.071,343.458c1.89,2.515,3.813,2.616,5.522,1.322    c1.695-1.285,2.137-3.167,0.266-5.663l-3.125-4.135l-2.757,2.067l-5.858-7.785l13.751-10.375l17.49,23.199l-5.634,4.237    l-3.251-1.006c-0.792,3.707-2.584,6.52-5.858,8.996c-10.966,8.233-16.917,4.694-29.304-11.753    c-11.875-15.758-12.447-24.438-1.821-32.447c5.891-4.433,12.861-6.23,18.71-2.44c1.812,1.192,3.586,3.13,6.142,6.501    l-11.027,8.308l-1.849-2.44c-1.872-2.496-3.786-2.589-5.495-1.304c-1.705,1.285-2.147,3.157-0.256,5.644L239.071,343.458z"/>
		<polygon clip-path="url(#SVGID_20_)" fill="#58585A" points="270.769,337.255 239.318,295.514 250.34,287.225 281.787,328.967       "/>
		<path clip-path="url(#SVGID_20_)" fill="#58585A" d="M302.033,313.711l-31.45-41.741l12.377-9.351    c8.927-6.706,15.86-7.199,23.176,2.515c7.273,9.657,6.254,15.255-3.855,22.863l-1.896,1.425l12.271,16.28L302.033,313.711z     M294.508,281.637c3.558-2.664,4.633-4.508,1.136-9.146c-2.984-3.958-4.619-4.079-8.754-0.969L294.508,281.637z"/>
		<polygon clip-path="url(#SVGID_20_)" fill="#58585A" points="331.253,291.676 299.798,249.935 323.667,231.96 330.155,240.565     317.297,250.251 322.648,257.329 333.274,249.338 340.026,258.279 329.4,266.288 335.523,274.419 349.037,264.239 355.78,273.208       "/>
		<path clip-path="url(#SVGID_20_)" fill="#58585A" d="M361.833,250.959c1.886,2.515,3.795,2.617,5.499,1.322    c1.719-1.285,2.156-3.166,0.271-5.672l-3.12-4.126l-2.747,2.077l-5.872-7.776l13.778-10.375l17.463,23.189l-5.64,4.247    l-3.231-1.024c-0.811,3.707-2.604,6.51-5.872,8.997c-10.947,8.242-16.898,4.693-29.3-11.744    c-11.874-15.768-12.451-24.447-1.829-32.438c5.895-4.461,12.865-6.24,18.71-2.45c1.83,1.183,3.585,3.129,6.142,6.492    l-11.013,8.307l-1.844-2.44c-1.886-2.496-3.813-2.589-5.509-1.304c-1.709,1.285-2.138,3.157-0.252,5.653L361.833,250.959z"/>
		<polygon clip-path="url(#SVGID_20_)" fill="#58585A" points="393.531,244.756 362.057,203.014 373.083,194.726 404.53,236.468       "/>
		<path clip-path="url(#SVGID_20_)" fill="#58585A" d="M424.777,221.212l-31.46-41.742l12.405-9.351    c8.922-6.706,15.832-7.19,23.171,2.524c7.265,9.639,6.24,15.246-3.855,22.845l-1.919,1.434l12.275,16.271L424.777,221.212z     M417.27,189.138c3.539-2.664,4.638-4.499,1.118-9.146c-2.972-3.949-4.62-4.079-8.736-0.969L417.27,189.138z"/>
	</g>
	<g>
		<defs>
			<rect id="SVGID_21_" x="0.005" y="0.014" width="483.863" height="483.869"/>
		</defs>
		<clipPath id="SVGID_22_">
			<use xlink:href="#SVGID_21_" overflow="visible"/>
		</clipPath>
		<polygon clip-path="url(#SVGID_22_)" fill="#58585A" points="454.011,199.177 422.56,157.436 446.412,139.461 452.893,148.066     440.06,157.752 445.415,164.83 456.013,156.839 462.765,165.78 452.158,173.79 458.286,181.929 471.771,171.759 478.533,180.709       "/>
		<path clip-path="url(#SVGID_22_)" fill="#58585A" d="M484.568,158.46c1.899,2.524,3.818,2.617,5.531,1.332    c1.695-1.294,2.133-3.167,0.261-5.671l-3.129-4.135l-2.757,2.086l-5.849-7.786l13.765-10.394l17.472,23.208l-5.652,4.247    l-3.232-1.024c-0.791,3.707-2.589,6.519-5.857,8.997c-10.962,8.251-16.922,4.694-29.309-11.744    c-11.884-15.768-12.462-24.438-1.835-32.438c5.914-4.452,12.88-6.24,18.729-2.44c1.807,1.173,3.586,3.129,6.128,6.491    l-11.008,8.298l-1.854-2.44c-1.872-2.496-3.79-2.589-5.494-1.304c-1.705,1.285-2.151,3.157-0.271,5.663L484.568,158.46z"/>
		<path clip-path="url(#SVGID_22_)" fill="#58585A" d="M160.417,508.879l-31.46-41.751l12.401-9.341    c8.903-6.706,15.846-7.199,23.162,2.514c7.278,9.658,6.25,15.256-3.841,22.864l-1.919,1.443l12.284,16.261L160.417,508.879z     M152.896,476.805c3.543-2.664,4.643-4.499,1.131-9.146c-2.976-3.948-4.624-4.079-8.754-0.968L152.896,476.805z"/>
		<polygon clip-path="url(#SVGID_22_)" fill="#58585A" points="189.646,486.854 158.186,445.111 182.056,427.128 188.542,435.724     175.686,445.419 181.036,452.516 191.658,444.506 198.41,453.456 187.788,461.456 193.911,469.596 207.425,459.416     214.177,468.385   "/>
	</g>
	<g>
		<defs>
			<rect id="SVGID_23_" x="0.005" y="0.014" width="484.506" height="485.302"/>
		</defs>
		<clipPath id="SVGID_24_">
			<use xlink:href="#SVGID_23_" overflow="visible"/>
		</clipPath>
		<path clip-path="url(#SVGID_24_)" fill="#58585A" d="M220.216,446.127c1.881,2.514,3.8,2.607,5.514,1.331    c1.7-1.294,2.137-3.166,0.247-5.671l-3.106-4.126l-2.757,2.076l-5.867-7.785l13.765-10.394l17.49,23.208l-5.639,4.247l-3.25-1.016    c-0.81,3.698-2.584,6.511-5.876,8.987c-10.948,8.252-16.899,4.713-29.295-11.743c-11.874-15.768-12.447-24.447-1.821-32.438    c5.891-4.451,12.875-6.239,18.72-2.439c1.821,1.173,3.585,3.129,6.133,6.5l-11.027,8.289l-1.83-2.44    c-1.886-2.496-3.805-2.589-5.523-1.304c-1.695,1.285-2.123,3.157-0.247,5.644L220.216,446.127z"/>
		<polygon clip-path="url(#SVGID_24_)" fill="#58585A" points="251.905,439.924 220.454,398.182 231.458,389.884 262.922,431.635       "/>
		<path clip-path="url(#SVGID_24_)" fill="#58585A" d="M283.169,416.38l-31.47-41.76l12.396-9.332    c8.926-6.706,15.86-7.199,23.176,2.515c7.273,9.657,6.234,15.255-3.856,22.863l-1.913,1.444l12.288,16.261L283.169,416.38z     M275.644,384.306c3.539-2.664,4.634-4.508,1.137-9.146c-2.985-3.949-4.639-4.079-8.755-0.969L275.644,384.306z"/>
		<polygon clip-path="url(#SVGID_24_)" fill="#58585A" points="312.389,394.345 280.934,352.604 304.808,334.629 311.291,343.225     298.438,352.92 303.789,360.007 314.411,352.007 321.163,360.948 310.536,368.957 316.66,377.106 330.173,366.908     336.916,375.877   "/>
		<path clip-path="url(#SVGID_24_)" fill="#58585A" d="M342.969,353.628c1.867,2.515,3.795,2.607,5.504,1.322    c1.695-1.285,2.151-3.167,0.257-5.662l-3.12-4.126l-2.757,2.067L337,339.453l13.761-10.375l17.48,23.189l-5.635,4.247    l-3.236-1.015c-0.81,3.697-2.603,6.51-5.872,8.987c-10.947,8.251-16.898,4.712-29.299-11.744    c-11.889-15.768-12.452-24.447-1.83-32.438c5.896-4.461,12.866-6.239,18.71-2.449c1.835,1.183,3.586,3.129,6.143,6.51    l-11.022,8.289l-1.83-2.44c-1.891-2.495-3.818-2.589-5.514-1.304c-1.709,1.276-2.138,3.157-0.266,5.645L342.969,353.628z"/>
		<polygon clip-path="url(#SVGID_24_)" fill="#58585A" points="374.648,347.443 343.193,305.684 354.219,297.395 385.661,339.137       "/>
		<path clip-path="url(#SVGID_24_)" fill="#58585A" d="M405.908,323.881l-31.45-41.741l12.377-9.351    c8.922-6.706,15.86-7.199,23.172,2.515c7.282,9.667,6.258,15.255-3.847,22.873l-1.9,1.435l12.275,16.261L405.908,323.881z     M398.402,291.807c3.539-2.664,4.638-4.508,1.117-9.146c-2.962-3.949-4.619-4.079-8.754-0.969L398.402,291.807z"/>
	</g>
	<g>
		<defs>
			<rect id="SVGID_25_" x="0.005" y="0.014" width="483.863" height="483.869"/>
		</defs>
		<clipPath id="SVGID_26_">
			<use xlink:href="#SVGID_25_" overflow="visible"/>
		</clipPath>
		<polygon clip-path="url(#SVGID_26_)" fill="#58585A" points="435.152,301.865 403.673,260.104 427.552,242.12 434.034,250.735     421.182,260.412 426.528,267.509 437.145,259.508 443.906,268.468 433.28,276.458 439.398,284.607 452.921,274.409     459.664,283.378   "/>
		<path clip-path="url(#SVGID_26_)" fill="#58585A" d="M465.708,261.138c1.891,2.506,3.8,2.599,5.504,1.313    c1.714-1.285,2.16-3.147,0.271-5.662l-3.12-4.126l-2.748,2.077l-5.876-7.786l13.783-10.384l17.48,23.199l-5.652,4.246    l-3.241-1.015c-0.801,3.706-2.58,6.51-5.867,8.987c-10.952,8.251-16.903,4.703-29.3-11.744    c-11.874-15.768-12.461-24.447-1.825-32.438c5.886-4.452,12.861-6.24,18.72-2.44c1.816,1.173,3.595,3.12,6.128,6.5l-11.018,8.308    l-1.835-2.458c-1.891-2.496-3.818-2.59-5.513-1.305c-1.714,1.276-2.143,3.157-0.252,5.653L465.708,261.138z"/>
		<polygon clip-path="url(#SVGID_26_)" fill="#58585A" points="497.401,254.945 465.959,213.185 476.958,204.896 508.428,246.638       "/>
		<path clip-path="url(#SVGID_26_)" fill="#58585A" d="M264.305,519.049l-31.469-41.76l12.396-9.332    c8.917-6.715,15.86-7.199,23.176,2.515c7.278,9.657,6.259,15.255-3.851,22.854l-1.9,1.434l12.274,16.28L264.305,519.049z     M256.785,486.975c3.534-2.664,4.634-4.508,1.132-9.146c-2.985-3.949-4.633-4.079-8.754-0.969L256.785,486.975z"/>
		<polygon clip-path="url(#SVGID_26_)" fill="#58585A" points="293.526,497.014 262.075,455.272 285.945,437.298 292.431,445.894     279.575,455.589 284.924,462.667 295.546,454.667 302.29,463.617 291.677,471.626 297.8,479.766 311.314,469.577 318.056,478.546       "/>
	</g>
	<g>
		<defs>
			<rect id="SVGID_27_" x="0.005" y="0.014" width="484.506" height="485.302"/>
		</defs>
		<clipPath id="SVGID_28_">
			<use xlink:href="#SVGID_27_" overflow="visible"/>
		</clipPath>
		<path clip-path="url(#SVGID_28_)" fill="#58585A" d="M324.105,456.297c1.872,2.515,3.796,2.607,5.505,1.322    c1.718-1.285,2.155-3.167,0.256-5.672l-3.12-4.116l-2.733,2.067l-5.877-7.776l13.761-10.375l17.48,23.189l-5.634,4.247    l-3.232-1.024c-0.81,3.707-2.603,6.52-5.876,8.997c-10.948,8.232-16.899,4.693-29.295-11.744    c-11.874-15.768-12.456-24.447-1.835-32.438c5.896-4.461,12.866-6.239,18.715-2.458c1.83,1.191,3.586,3.138,6.143,6.519    l-11.018,8.289l-1.84-2.449c-1.891-2.487-3.813-2.58-5.513-1.295c-1.705,1.276-2.138,3.157-0.266,5.644L324.105,456.297z"/>
		<polygon clip-path="url(#SVGID_28_)" fill="#58585A" points="355.785,450.112 324.333,408.353 335.356,400.063 366.797,441.806       "/>
		<path clip-path="url(#SVGID_28_)" fill="#58585A" d="M387.048,426.55l-31.455-41.741l12.382-9.351    c8.927-6.706,15.86-7.199,23.172,2.515c7.273,9.667,6.258,15.255-3.833,22.863l-1.918,1.426l12.279,16.279L387.048,426.55z     M379.542,394.476c3.539-2.664,4.633-4.508,1.117-9.146c-2.966-3.949-4.619-4.079-8.754-0.969L379.542,394.476z"/>
		<polygon clip-path="url(#SVGID_28_)" fill="#58585A" points="416.283,404.534 384.814,362.773 408.683,344.789 415.166,353.404     402.313,363.081 407.659,370.168 418.294,362.178 425.038,371.137 414.42,379.127 420.558,387.267 434.052,377.078     440.795,386.047   "/>
	</g>
	<g>
		<defs>
			<rect id="SVGID_29_" x="0.005" y="0.014" width="483.863" height="483.869"/>
		</defs>
		<clipPath id="SVGID_30_">
			<use xlink:href="#SVGID_29_" overflow="visible"/>
		</clipPath>
		<path clip-path="url(#SVGID_30_)" fill="#58585A" d="M446.849,363.798c1.881,2.515,3.818,2.607,5.522,1.322    c1.695-1.285,2.133-3.147,0.233-5.672l-3.093-4.116l-2.757,2.077l-5.876-7.786l13.774-10.375l17.49,23.189l-5.663,4.247    l-3.231-1.024c-0.811,3.707-2.58,6.51-5.877,8.997c-10.942,8.242-16.894,4.693-29.299-11.744    c-11.865-15.768-12.442-24.447-1.825-32.447c5.895-4.452,12.87-6.23,18.729-2.44c1.816,1.183,3.586,3.13,6.119,6.51l-11.018,8.308    l-1.835-2.458c-1.882-2.496-3.818-2.59-5.514-1.305c-1.704,1.276-2.133,3.157-0.242,5.653L446.849,363.798z"/>
		<polygon clip-path="url(#SVGID_30_)" fill="#58585A" points="478.551,357.613 447.073,315.854 458.099,307.564 489.559,349.307       "/>
		<path clip-path="url(#SVGID_30_)" fill="#58585A" d="M509.806,334.052l-31.469-41.742l12.396-9.351    c8.922-6.705,15.86-7.199,23.171,2.515c7.265,9.667,6.259,15.255-3.846,22.864l-1.9,1.425l12.275,16.279L509.806,334.052z     M502.282,301.977c3.538-2.664,4.638-4.508,1.136-9.146c-2.98-3.949-4.638-4.079-8.755-0.969L502.282,301.977z"/>
		<path clip-path="url(#SVGID_30_)" fill="#58585A" d="M375.309,523.854l-31.45-41.751l12.377-9.341    c8.927-6.706,15.86-7.19,23.176,2.515c7.278,9.667,6.254,15.255-3.851,22.873l-1.9,1.425l12.275,16.279L375.309,523.854z     M367.785,491.78c3.558-2.664,4.638-4.489,1.136-9.127c-2.984-3.968-4.633-4.099-8.754-0.987L367.785,491.78z"/>
		<polygon clip-path="url(#SVGID_30_)" fill="#58585A" points="404.548,501.829 373.079,460.078 396.949,442.104 403.431,450.709     390.579,460.385 395.924,467.491 406.55,459.481 413.303,468.432 402.686,476.432 408.795,484.581 422.318,474.393     429.061,483.342   "/>
	</g>
	<g>
		<defs>
			<rect id="SVGID_31_" x="0.005" y="0.014" width="484.506" height="485.302"/>
		</defs>
		<clipPath id="SVGID_32_">
			<use xlink:href="#SVGID_31_" overflow="visible"/>
		</clipPath>
		<path clip-path="url(#SVGID_32_)" fill="#58585A" d="M435.115,461.121c1.862,2.496,3.79,2.607,5.494,1.313    c1.704-1.285,2.161-3.166,0.261-5.662l-3.11-4.145l-2.757,2.086l-5.867-7.785l13.783-10.375l17.49,23.181l-5.662,4.256    l-3.231-1.024c-0.811,3.707-2.599,6.528-5.877,8.996c-10.952,8.252-16.895,4.713-29.3-11.753    c-11.883-15.749-12.451-24.429-1.825-32.429c5.886-4.451,12.862-6.239,18.711-2.439c1.834,1.173,3.585,3.11,6.137,6.5    l-11.026,8.299l-1.825-2.44c-1.891-2.505-3.818-2.607-5.514-1.313c-1.704,1.267-2.143,3.167-0.261,5.662L435.115,461.121z"/>
	</g>
	<g>
		<defs>
			<rect id="SVGID_33_" x="0.005" y="0.014" width="483.863" height="483.869"/>
		</defs>
		<clipPath id="SVGID_34_">
			<use xlink:href="#SVGID_33_" overflow="visible"/>
		</clipPath>
		<polygon clip-path="url(#SVGID_34_)" fill="#58585A" points="466.807,454.918 435.337,413.167 446.365,404.869 477.806,446.611       "/>
		<path clip-path="url(#SVGID_34_)" fill="#58585A" d="M498.072,431.355l-31.479-41.741l12.405-9.351    c8.922-6.706,15.832-7.19,23.152,2.515c7.283,9.657,6.259,15.245-3.837,22.873l-1.919,1.425l12.294,16.279L498.072,431.355z     M490.546,399.281c3.539-2.664,4.638-4.489,1.118-9.127c-2.962-3.968-4.62-4.098-8.736-0.987L490.546,399.281z"/>
	</g>
	<g>
		<defs>
			<rect id="SVGID_35_" x="7.004" y="5.365" width="469.461" height="469.474"/>
		</defs>
		<clipPath id="SVGID_36_">
			<use xlink:href="#SVGID_35_" overflow="visible"/>
		</clipPath>
		<path clip-path="url(#SVGID_36_)" fill="#FFFFFF" d="M697.635,164.253L798.6,93.03L697.635,21.798l60.023-107.973l-121.835-20.382    l7.218-123.339l-118.576,34.524L477.453-309.65l-91.898,82.571l-91.88-82.571l-46.976,114.278l-118.618-34.524l7.246,123.339    L13.468-86.175L73.52,21.798L-27.445,93.03l8.317,5.881l92.327,65.118l-59.423,93.468l121.584,43.026l-7.376,115.856    l106.12-35.278l88.135,106.813l60.862-82.096l104.904,60.331l36.368-84.778l118.669,34.589l-7.255-123.354l121.891-20.405    L697.635,164.253z M610.948,375.625l-103.842-30.193l-31.182,72.364l-94.757-51.707l-59.013,82.664l-58.119-103.321    l-103.824,30.193l6.352-113.342l-106.66-25.49l52.555-95.833L24.094,93.03l102.767-62.343L59.903-63.805l106.66-17.821    l-6.352-107.959l103.814,30.222l41.113-100.029l80.442,72.271l80.425-72.271l41.1,100.029l103.842-30.222l-6.352,107.959    L711.26-63.805l-52.563,94.492l88.345,62.343l-88.345,62.329l52.563,94.511l-106.664,17.798L610.948,375.625z"/>
		<path clip-path="url(#SVGID_36_)" d="M260.897,353.106l-107.698,31.329l6.552-117.123L50.129,241.124l53.49-97.593L20.983,98.744    l3.12-5.737l3.353,5.597l-3.353-5.597l-3.12,5.737l-9.956-5.406l106.487-64.601L48.602-68.522l111.121-18.575L153.17-198.39    l107.051,31.129l42.408-103.102l82.934,74.501l82.921-74.534l42.412,103.134l107.074-31.157l-6.548,111.321l109.98,18.38    l-54.222,97.454l91.139,64.271l-91.139,64.28l54.222,97.472l-109.98,18.375l6.548,111.32l-107.177-31.181l-31.758,73.631    L383.1,374.563l-61.616,86.334L260.897,353.106z M322.801,436.664l56.383-79.051l93.564,51.037l30.659-71.088l100.518,29.243    l-6.146-104.578l103.303-17.257l-50.953-91.577l85.616-60.387L650.128,32.62l50.953-91.563l-103.34-17.262l6.184-104.569    l-100.657,29.257l-39.805-96.895l-77.919,70.012l-77.886-70.012l-39.838,96.922L167.22-180.774l6.17,104.597L71.187-59.097    l65.011,91.716L37.156,92.708l84.136,45.635l-51.595,94.083l103.637,24.791l-6.114,109.607l99.945-29.085L322.801,436.664z"/>
		<path clip-path="url(#SVGID_36_)" fill="#FFFFFF" d="M163.885,462.425c0,0,42.762-54.417,51.954-64.969    c9.169-10.487,14.058-16.689,14.058-16.689s65.035-7.554,112.783-38.594c47.824-30.995,94.231-104.057,94.818-118.241    c0.568-14.212-8.028-32.754-18.486-38.258c-10.432-5.551-15.982-7.358-15.982-7.358s9.165-11.501-0.102-30.659    c-9.202-19.129-14.101-20.638-26.366-23.097l-12.271-2.402c0,0,9.174-9.295-4.94-25.975    c-14.165-16.643-29.537-23.404-35.623-22.175L317.6,75.27c0,0-7.353-7.399-25.197-20.303    c-17.797-13.02-28.279-16.07-36.801-11.083c-8.624,4.913-33.123,24.768-55.171,27.32c-22.077,2.538-57.583,24.815-67.386,50.803    c-9.765,25.984-25.588,75.484-27.963,105.128c-2.347,29.709-8.499,42.021-14.589,48.224c-6.124,6.184-72.96,54.836-79.051,64.736    c-6.123,9.909,0,134.008,0,134.008l143.536-0.149L163.885,462.425z"/>
		<path clip-path="url(#SVGID_36_)" d="M423.436,186.39c-10.841-5.746-16.652-7.627-16.652-7.627s9.574-11.893-0.074-31.693    c-9.621-19.791-14.725-21.374-27.521-23.907l-12.786-2.514c0,0,9.564-9.588-5.142-26.85    c-14.775-17.22-30.813-24.224-37.164-22.953l-6.38,1.313c0,0-7.679-7.656-26.268-20.997    c-18.566-13.485-29.477-16.633-38.366-11.492c-9.001,5.104-34.543,25.635-57.523,28.284    c-23.031,2.622-60.051,25.672-70.259,52.583c-10.184,26.859-26.692,78.082-29.165,108.741    c-2.449,30.752-8.856,43.511-15.218,49.918c-6.389,6.389-63.316,44.536-69.667,54.78c-3.157,5.085-4.261,38.669-4.568,71.349    c46.799-31.32,106.185-71.581,110.771-76.937c7.646-8.987,11.469-16.671,11.469-16.671s-11.53-7.637-15.409-21.709    c-3.823-14.054,4.442-23.665,4.442-23.665s-2.557-17.937,0.591-35.147c3.157-17.304,8.861-44.806,10.1-48.634    c1.299-3.855,14.631-39.069,20.34-53.784c5.732-14.706,20.419-26.883,32.568-33.938c12.121-7.097,29.393-9.043,46.636-13.565    c17.271-4.498,44.135,6.943,53.779,16.559c5.606,5.579,11.26,8.647,15.115,10.314l14.869,13.485    c0.027,0,17.038,13.42,17.038,13.42c0.042,0.056,0.07,0.093,0.107,0.14c-0.163,0-0.41,0.056-0.582,0.056    c2.439,2.496,4.685,4.908,6.733,7.208c4.032,5.085,7.036,9.704,6.845,11.865l0.811,8.438l4.019-8.047    c-0.27-1.676-1.08-3.353-1.793-5.029c1.16-1.732,2.459-3.511,4.052-5.346c8.917-10.244,14.678-16,14.678-16    s19.129,3.372,28.121,16.131c8.987,12.75,4.34,16.428,4.34,16.428s-15.697,22.166-23.362,28.583    c-7.66,6.417-29.43,31.134-29.43,31.134s-16.503,24.158-31.209,19.716c-14.742-4.433-23.097-17.89-15.427-29.364    c7.627-11.53,14.668-22.445,14.668-22.445s23.497-2.421,28.602-12.666c2.212-4.452,2.123-7.152,1.359-8.903    c-1.793,1.984-4.098,3.744-6.352,5.532c-6.38,5.15-11.521,0.028-32.615-14.622c-21.178-14.678-33.359-38.268-33.359-38.268    s-2.562,1.267-18.51,7.013c-16,5.83-37.155-7.516-37.155-7.516l-5.681,5.718c-5.792,5.747-20.475,0.047-20.475,0.047    s-1.909,8.326-8.27,24.959c-1.7,4.489-2.738,7.013-3.385,8.438c0.782,1.304,2.948,4.899,9.183,15.218    c9.644,15.954,3.283,50.497,3.283,50.497s13.844,1.732,22.85,8.121c0.764,0.541,1.313,1.118,1.877,1.677    c0.489,3.297,0.81,7.208,0.81,11.726c0,5.467-0.503,11.8-1.83,19.045c-2.84,15.404-5.704,25.295-7.772,31.312    c-2.1,5.997-3.32,7.748-3.292,7.805l6.124,3.818c0.335-0.56,6.216-10.208,12.037-41.621c1.393-7.665,1.923-14.426,1.923-20.358    c0-8.503-1.123-15.106-2.384-19.958c7.595-7.786,17.616-11.25,17.616-11.25s7.688,1.267,23.716,5.681    c15.949,4.461,51.833,37.644,56.373,47.237c4.503,9.574-5.779,10.887-15.334,11.529c-9.593,0.689-21.066,28.834-8.899,38.361    c12.191,9.583-1.313,23.404-3.842,27.278c-2.51,3.837-10.575,3.968-20.764,10.394c-10.212,6.37-93.458,10.375-93.458,10.375    s16.563,28.294,6.38,48.764c-4.997,10.04-38.082,37.468-70.581,62.921l43.861,2.365l3.851-6.407c0,0,44.582-56.346,54.18-67.261    c9.555-10.858,14.645-17.267,14.645-17.267s67.818-7.822,117.589-39.916c49.844-32.094,98.254-107.661,98.878-122.348    C443.329,211.285,434.351,192.099,423.436,186.39 M286.443,89.067c0,0-12.997-8.628-25.97-12.959    c-12.988-4.34-11.241-7.8-11.241-7.8s6.044-14.696,11.241-16.424c5.183-1.723,19.888,0,29.435,9.537    c9.504,9.49,8.656,9.49,6.91,15.558C295.076,83.023,286.443,89.067,286.443,89.067 M353.6,116.82    c-1.267,3.828-5.196,11.008-13.532,15.535c-1.839,1.015-3.585,1.527-5.252,1.965c-1.071-1.164-2.101-2.272-2.673-2.887    c-0.447-0.401-16.727-13.188-16.727-13.188l-14.133-12.811c4.232-6.249,10.356-14.659,13.904-16.643    c5.732-3.26,8.466-5.77,8.466-5.77s2.146-5.15,18.161,6.915C357.815,102.096,354.9,113.016,353.6,116.82 M280.845,187.313    c0,0-7.646,14.1-23.604,1.974c-16.028-12.098-14.114-12.74-8.41-22.361c5.77-9.593,11.511-14.091,11.511-14.091    s1.938,8.326,8.945,15.329c7.088,7.004,15.381,11.493,15.381,11.493L280.845,187.313z M420.343,234.344    c-5.085,2.589-15.292,15.349-20.358,19.241c-5.141,3.855-33.225,34.627-33.225,34.627s-6.999,14.715-19.833,7.05    c-12.754-7.646-14.696-12.116-11.529-23.041c3.176-10.841,17.22-27.502,28.056-40.94c10.841-13.477,25.504-25.658,32.545-30.128    c7.031-4.526,14.063-6.436,14.063-6.436s16.559,9.621,19.147,17.257C431.761,219.61,425.465,231.773,420.343,234.344"/>
	</g>
	<g>
		<defs>
			<rect id="SVGID_37_" x="0.005" y="0.014" width="484.506" height="485.302"/>
		</defs>
		<clipPath id="SVGID_38_">
			<use xlink:href="#SVGID_37_" overflow="visible"/>
		</clipPath>
		<path clip-path="url(#SVGID_38_)" d="M0.005,483.873H483.86V0.014H0.005V483.873z M474.193,474.196H9.687V9.695h464.506V474.196z"/>
		<rect x="0.005" y="406.452" clip-path="url(#SVGID_38_)" width="483.854" height="77.421"/>
		<polygon clip-path="url(#SVGID_38_)" fill="#FFFFFF" points="134.162,418.02 145.427,418.02 135.909,470.173 123.843,470.173     112.737,418.02 124.425,418.02 129.51,448.092 129.664,448.092   "/>
		<rect x="149.18" y="418.01" clip-path="url(#SVGID_38_)" fill="#FFFFFF" width="12.205" height="52.163"/>
		<path clip-path="url(#SVGID_38_)" fill="#FFFFFF" d="M168.333,428.767c1.746-8.429,7.409-11.623,15.181-11.623    s13.448,3.194,15.185,11.623c0.578,2.691,0.801,7.349,0.801,15.33c0,8-0.223,12.647-0.801,15.329    c-1.737,8.438-7.413,11.623-15.185,11.623s-13.435-3.186-15.181-11.623c-0.582-2.682-0.801-7.329-0.801-15.329    C167.532,436.115,167.75,431.458,168.333,428.767 M180.319,455.942c0,3.13,1.308,4.358,3.194,4.358    c1.891,0,3.194-1.229,3.194-4.358v-23.684c0-3.119-1.304-4.358-3.194-4.358c-1.886,0-3.194,1.239-3.194,4.358V455.942z"/>
		<polygon clip-path="url(#SVGID_38_)" fill="#FFFFFF" points="204.691,470.183 204.691,418.02 216.892,418.02 216.892,458.997     232.589,458.997 232.589,470.183   "/>
		<polygon clip-path="url(#SVGID_38_)" fill="#FFFFFF" points="236.915,470.183 236.915,418.02 263.36,418.02 263.36,428.767     249.115,428.767 249.115,437.633 260.892,437.633 260.892,448.818 249.115,448.818 249.115,458.997 264.086,458.997     264.086,470.183   "/>
		<polygon clip-path="url(#SVGID_38_)" fill="#FFFFFF" points="269.143,470.183 269.143,418.02 280.845,418.02 288.752,441.116     288.902,441.116 288.902,418.02 299.365,418.02 299.365,470.183 288.036,470.183 279.747,443.155 279.607,443.155     279.607,470.183   "/>
		<path clip-path="url(#SVGID_38_)" fill="#FFFFFF" d="M317.2,455.942c0,3.13,1.313,4.358,3.194,4.358    c1.886,0,3.349-1.229,3.349-4.358v-9.146h12.204c-0.074,6.817-0.372,10.888-0.945,13.653c-1.602,7.544-7.846,10.599-15.05,10.599    c-12.34,0-15.972-7.544-15.972-26.952c0-19.391,3.632-26.953,15.972-26.953c7.204,0,13.239,2.98,15.05,10.319    c0.573,2.552,0.871,6.249,0.945,12.498h-12.204v-7.702c0-3.119-1.463-4.358-3.349-4.358c-1.881,0-3.194,1.239-3.194,4.358V455.942    z"/>
		<polygon clip-path="url(#SVGID_38_)" fill="#FFFFFF" points="341.721,470.183 341.721,418.02 368.167,418.02 368.167,428.767     353.917,428.767 353.917,437.633 365.698,437.633 365.698,448.818 353.917,448.818 353.917,458.997 368.893,458.997     368.893,470.183   "/>
		<path clip-path="url(#SVGID_38_)" fill="#FFFFFF" d="M433.327,19.372v3.595h-7.656v24.242h-4.488V22.967h-7.665v-3.595H433.327z     M464.506,47.209h-4.498V25.286h-0.13l-7.702,21.923h-3.679l-7.33-21.923h-0.13v21.923h-4.498V19.372h7.143l6.93,20.708h0.14    l6.761-20.708h6.994V47.209z"/>
	</g>
</g>
</svg>