<?xml version="1.0" encoding="UTF-8"?>
<!-- Generator: Adobe Illustrator 15.0.0, SVG Export Plug-In . SVG Version: 6.00 Build 0)  -->
<!DOCTYPE svg PUBLIC "-//W3C//DTD SVG 1.1//EN" "http://www.w3.org/Graphics/SVG/1.1/DTD/svg11.dtd">
<svg version="1.1" id="Ebene_1" xmlns="http://www.w3.org/2000/svg" xmlns:xlink="http://www.w3.org/1999/xlink" x="0px" y="0px" width="484.526px" height="484.536px" viewBox="0 0 484.526 484.536" enable-background="new 0 0 484.526 484.536" xml:space="preserve">
<g>
	<rect x="0.009" y="0.01" width="484.517" height="484.526"/>
	<polygon fill="#58585A" points="0.009,99.176 7.857,93.259 0.009,82.828  "/>
	<g>
		<defs>
			<rect id="SVGID_1_" y="0.02" width="482.059" height="484.526"/>
		</defs>
		<clipPath id="SVGID_2_">
			<use xlink:href="#SVGID_1_" overflow="visible"/>
		</clipPath>
		<path clip-path="url(#SVGID_2_)" fill="#58585A" d="M28.134,77.982L-3.37,36.168l12.41-9.342c8.928-6.73,15.873-7.215,23.19,2.509    c7.28,9.654,6.265,15.272-3.845,22.887l-1.909,1.438l12.289,16.292L28.134,77.982z M20.602,45.864    c3.547-2.676,4.646-4.51,1.136-9.161c-2.998-3.957-4.626-4.091-8.77-0.973L20.602,45.864z"/>
		<polygon clip-path="url(#SVGID_2_)" fill="#58585A" points="57.403,55.914 25.899,14.124 49.806,-3.895 56.295,4.735     43.429,14.426 48.773,21.529 59.404,13.514 66.172,22.474 55.532,30.499 61.676,38.64 75.203,28.451 81.961,37.411   "/>
		<path clip-path="url(#SVGID_2_)" fill="#58585A" d="M88.003,15.147c1.89,2.509,3.817,2.611,5.53,1.327    c1.704-1.29,2.142-3.174,0.261-5.684l-3.119-4.129l-2.765,2.072l-5.875-7.802L95.824-9.458l17.502,23.232l-5.642,4.25l-3.249-1.01    c-0.801,3.71-2.598,6.521-5.875,9.002c-10.976,8.244-16.934,4.706-29.344-11.763c-11.888-15.78-12.465-24.466-1.825-32.491    c5.893-4.45,12.884-6.247,18.731-2.439c1.825,1.192,3.612,3.124,6.154,6.507L81.235-5.864l-1.834-2.439    c-1.89-2.5-3.817-2.593-5.521-1.308c-1.713,1.29-2.141,3.166-0.27,5.665L88.003,15.147z"/>
		<polygon clip-path="url(#SVGID_2_)" fill="#58585A" points="119.749,8.938 88.236,-32.862 99.277,-41.166 130.762,0.629   "/>
		<path clip-path="url(#SVGID_2_)" fill="#58585A" d="M9.245,180.793l-31.494-41.814l12.4-9.342c8.928-6.74,15.873-7.215,23.2,2.509    c7.28,9.654,6.256,15.272-3.863,22.888l-1.899,1.438l12.289,16.292L9.245,180.793z M1.713,148.675    c3.547-2.681,4.646-4.511,1.136-9.161c-2.988-3.957-4.626-4.092-8.76-0.973L1.713,148.675z"/>
	</g>
	<polygon fill="#58585A" points="38.514,158.725 7.01,116.92 30.908,98.915 37.396,107.531 24.54,117.227 29.893,124.339    40.525,116.319 47.284,125.284 36.643,133.309 42.787,141.451 56.304,131.261 63.063,140.222  "/>
	<g>
		<defs>
			<rect id="SVGID_3_" y="0.02" width="482.059" height="485.112"/>
		</defs>
		<clipPath id="SVGID_4_">
			<use xlink:href="#SVGID_3_" overflow="visible"/>
		</clipPath>
		<path clip-path="url(#SVGID_4_)" fill="#58585A" d="M69.114,117.958c1.899,2.495,3.817,2.611,5.53,1.322    c1.704-1.285,2.142-3.184,0.261-5.679l-3.128-4.129l-2.755,2.067l-5.875-7.797l13.788-10.39l17.502,23.232l-5.642,4.25    l-3.249-1.01c-0.801,3.701-2.598,6.512-5.875,8.998c-10.976,8.248-16.934,4.71-29.344-11.763    c-11.888-15.775-12.465-24.461-1.825-32.486c5.893-4.455,12.884-6.247,18.74-2.444c1.815,1.191,3.603,3.128,6.145,6.512    l-11.042,8.304l-1.834-2.439c-1.89-2.5-3.808-2.602-5.521-1.317c-1.704,1.285-2.141,3.175-0.261,5.674L69.114,117.958z"/>
		<polygon clip-path="url(#SVGID_4_)" fill="#58585A" points="100.86,111.748 69.347,69.935 80.388,61.635 111.892,103.435   "/>
		<path clip-path="url(#SVGID_4_)" fill="#58585A" d="M132.149,88.163l-31.494-41.81l12.41-9.342    c8.937-6.731,15.873-7.215,23.208,2.518c7.271,9.654,6.247,15.268-3.863,22.888l-1.908,1.429l12.289,16.292L132.149,88.163z     M124.627,56.049c3.547-2.672,4.636-4.511,1.126-9.161c-2.979-3.957-4.608-4.092-8.751-0.973L124.627,56.049z"/>
	</g>
	<g>
		<defs>
			<rect id="SVGID_5_" y="0.02" width="482.059" height="484.526"/>
		</defs>
		<clipPath id="SVGID_6_">
			<use xlink:href="#SVGID_5_" overflow="visible"/>
		</clipPath>
		<polygon clip-path="url(#SVGID_6_)" fill="#58585A" points="161.428,66.108 129.924,24.304 153.822,6.29 160.32,14.915     147.445,24.611 152.808,31.714 163.439,23.703 170.198,32.664 159.557,40.684 165.701,48.825 179.219,38.636 185.978,47.605   "/>
		<path clip-path="url(#SVGID_6_)" fill="#58585A" d="M192.038,25.332c1.899,2.504,3.817,2.611,5.521,1.322    c1.704-1.285,2.141-3.175,0.27-5.679l-3.128-4.128l-2.756,2.076l-5.874-7.796l13.787-10.39l17.493,23.232l-5.651,4.25l-3.24-1.02    c-0.8,3.71-2.597,6.521-5.883,8.998c-10.958,8.258-16.916,4.711-29.325-11.753c-11.889-15.785-12.484-24.47-1.843-32.486    c5.911-4.464,12.903-6.247,18.74-2.444c1.834,1.182,3.603,3.128,6.154,6.503L185.27,4.33l-1.843-2.453    c-1.881-2.495-3.808-2.593-5.521-1.304c-1.704,1.275-2.142,3.166-0.251,5.66L192.038,25.332z"/>
		<polygon clip-path="url(#SVGID_6_)" fill="#58585A" points="223.774,19.123 192.271,-22.691 203.312,-30.991 234.797,10.809   "/>
		<path clip-path="url(#SVGID_6_)" fill="#58585A" d="M-9.645,283.599l-31.503-41.814l12.41-9.342    c8.928-6.74,15.873-7.22,23.199,2.504c7.28,9.663,6.256,15.268-3.863,22.893l-1.899,1.442l12.298,16.292L-9.645,283.599z     M-17.176,251.48c3.547-2.682,4.646-4.506,1.136-9.161c-2.989-3.966-4.627-4.092-8.761-0.973L-17.176,251.48z"/>
		<polygon clip-path="url(#SVGID_6_)" fill="#58585A" points="19.625,261.535 -11.879,219.726 12.019,201.716 18.507,210.337     5.651,220.033 11.004,227.141 21.636,219.116 28.395,228.085 17.753,236.115 23.907,244.247 37.425,234.053 44.184,243.027   "/>
	</g>
	<g>
		<defs>
			<rect id="SVGID_7_" y="0.02" width="482.059" height="485.112"/>
		</defs>
		<clipPath id="SVGID_8_">
			<use xlink:href="#SVGID_7_" overflow="visible"/>
		</clipPath>
		<path clip-path="url(#SVGID_8_)" fill="#58585A" d="M50.234,220.759c1.89,2.5,3.808,2.602,5.512,1.317    c1.713-1.29,2.15-3.175,0.27-5.674l-3.128-4.124l-2.755,2.066l-5.865-7.796l13.778-10.395l17.502,23.232l-5.642,4.254l-3.24-1.02    c-0.81,3.705-2.607,6.531-5.884,8.998c-10.976,8.258-16.934,4.72-29.344-11.753c-11.888-15.78-12.465-24.47-1.834-32.491    c5.902-4.44,12.894-6.242,18.75-2.439c1.815,1.182,3.603,3.137,6.145,6.512l-11.042,8.304l-1.834-2.443    c-1.89-2.504-3.817-2.602-5.521-1.313c-1.713,1.285-2.141,3.166-0.261,5.67L50.234,220.759z"/>
		<polygon clip-path="url(#SVGID_8_)" fill="#58585A" points="81.98,214.554 50.477,172.749 61.499,164.436 93.012,206.24   "/>
		<path clip-path="url(#SVGID_8_)" fill="#58585A" d="M113.27,190.973l-31.494-41.809l12.4-9.342    c8.937-6.74,15.873-7.22,23.209,2.504c7.271,9.659,6.247,15.272-3.854,22.888l-1.908,1.443l12.289,16.292L113.27,190.973z     M105.738,158.854c3.547-2.676,4.646-4.496,1.136-9.16c-2.979-3.966-4.618-4.087-8.76-0.973L105.738,158.854z"/>
		<polygon clip-path="url(#SVGID_8_)" fill="#58585A" points="142.548,168.904 111.036,127.104 134.942,109.095 141.44,117.716     128.565,127.407 133.928,134.52 144.559,126.495 151.318,135.464 140.677,143.489 146.821,151.621 160.339,141.432     167.098,150.402   "/>
		<path clip-path="url(#SVGID_8_)" fill="#58585A" d="M173.149,128.138c1.89,2.5,3.817,2.602,5.53,1.317    c1.694-1.29,2.141-3.174,0.261-5.674l-3.119-4.124l-2.765,2.067l-5.874-7.797l13.787-10.394l17.502,23.232l-5.632,4.254    L189.58,130c-0.81,3.706-2.597,6.531-5.874,8.998c-10.976,8.257-16.934,4.72-29.344-11.753    c-11.889-15.78-12.475-24.47-1.834-32.49c5.902-4.45,12.894-6.242,18.74-2.439c1.825,1.183,3.603,3.128,6.153,6.512l-11.041,8.304    l-1.834-2.444c-1.89-2.504-3.808-2.602-5.53-1.313c-1.704,1.285-2.142,3.165-0.251,5.669L173.149,128.138z"/>
		<polygon clip-path="url(#SVGID_8_)" fill="#58585A" points="204.885,121.933 173.382,80.119 184.423,71.815 215.926,113.62   "/>
		<path clip-path="url(#SVGID_8_)" fill="#58585A" d="M236.184,98.347L204.69,56.533l12.409-9.342    c8.928-6.73,15.873-7.215,23.19,2.519c7.28,9.659,6.266,15.263-3.863,22.878l-1.899,1.443l12.289,16.292L236.184,98.347z     M228.652,66.229c3.557-2.667,4.627-4.506,1.136-9.161c-2.988-3.957-4.617-4.087-8.751-0.973L228.652,66.229z"/>
	</g>
	<g>
		<defs>
			<rect id="SVGID_9_" y="0.02" width="482.059" height="484.526"/>
		</defs>
		<clipPath id="SVGID_10_">
			<use xlink:href="#SVGID_9_" overflow="visible"/>
		</clipPath>
		<polygon clip-path="url(#SVGID_10_)" fill="#58585A" points="265.462,76.288 233.95,34.488 257.857,16.47 264.345,25.1     251.48,34.791 256.833,41.894 267.464,33.878 274.223,42.848 263.583,50.864 269.745,58.996 283.253,48.815 290.012,57.785   "/>
		<path clip-path="url(#SVGID_10_)" fill="#58585A" d="M296.063,35.512c1.899,2.509,3.808,2.602,5.512,1.327    c1.722-1.29,2.159-3.175,0.27-5.684l-3.128-4.129l-2.746,2.081l-5.884-7.811l13.797-10.389l17.502,23.241l-5.651,4.254    l-3.239-1.033c-0.81,3.719-2.598,6.531-5.884,9.002c-10.967,8.253-16.925,4.715-29.344-11.758    c-11.879-15.775-12.466-24.461-1.824-32.486c5.893-4.455,12.884-6.247,18.73-2.439c1.834,1.191,3.603,3.133,6.153,6.507    l-11.041,8.313l-1.824-2.448c-1.899-2.509-3.826-2.593-5.53-1.308c-1.703,1.28-2.142,3.165-0.251,5.665L296.063,35.512z"/>
		<polygon clip-path="url(#SVGID_10_)" fill="#58585A" points="327.809,29.303 296.287,-12.506 307.328,-20.811 338.85,20.994   "/>
		<path clip-path="url(#SVGID_10_)" fill="#58585A" d="M359.108,5.722l-31.504-41.805l12.409-9.352    c8.938-6.731,15.864-7.215,23.209,2.518c7.262,9.654,6.237,15.263-3.863,22.878l-1.918,1.438l12.308,16.301L359.108,5.722z     M351.576-26.396c3.538-2.667,4.637-4.51,1.136-9.161c-2.988-3.957-4.626-4.091-8.76-0.973L351.576-26.396z"/>
		<polygon clip-path="url(#SVGID_10_)" fill="#58585A" points="0.735,364.331 -30.759,322.531 -6.861,304.526 -0.372,313.146     -13.238,322.838 -7.876,329.951 2.747,321.936 9.505,330.891 -1.126,338.925 5.018,347.062 18.536,336.868 25.294,345.833   "/>
	</g>
	<g>
		<defs>
			<rect id="SVGID_11_" y="0.02" width="482.059" height="485.112"/>
		</defs>
		<clipPath id="SVGID_12_">
			<use xlink:href="#SVGID_11_" overflow="visible"/>
		</clipPath>
		<path clip-path="url(#SVGID_12_)" fill="#58585A" d="M31.355,323.573c1.88,2.495,3.798,2.607,5.511,1.322    c1.704-1.284,2.15-3.184,0.251-5.679l-3.109-4.134l-2.765,2.067l-5.865-7.792l13.788-10.399l17.493,23.237l-5.642,4.254    l-3.24-1.015c-0.81,3.705-2.606,6.517-5.884,9.002c-10.957,8.239-16.916,4.711-29.334-11.758    c-11.897-15.789-12.475-24.465-1.834-32.49c5.902-4.45,12.885-6.247,18.74-2.439c1.825,1.192,3.603,3.119,6.145,6.508    l-11.032,8.295l-1.834-2.439c-1.899-2.495-3.817-2.597-5.53-1.313c-1.704,1.294-2.132,3.175-0.261,5.67L31.355,323.573z"/>
		<polygon clip-path="url(#SVGID_12_)" fill="#58585A" points="63.082,317.354 31.587,275.555 42.619,267.251 74.114,309.051   "/>
		<path clip-path="url(#SVGID_12_)" fill="#58585A" d="M94.38,293.783l-31.485-41.818l12.4-9.348    c8.928-6.735,15.873-7.21,23.2,2.514c7.28,9.654,6.256,15.268-3.854,22.883l-1.908,1.443l12.289,16.292L94.38,293.783z     M86.858,261.665c3.547-2.682,4.636-4.506,1.126-9.161c-2.979-3.966-4.618-4.096-8.76-0.977L86.858,261.665z"/>
		<polygon clip-path="url(#SVGID_12_)" fill="#58585A" points="123.659,271.71 92.156,229.91 116.063,211.901 122.551,220.517     109.686,230.212 115.039,237.325 125.67,229.31 132.429,238.27 121.788,246.295 127.932,254.44 141.45,244.247 148.218,253.212       "/>
		<path clip-path="url(#SVGID_12_)" fill="#58585A" d="M154.269,230.943c1.89,2.5,3.817,2.611,5.521,1.327    c1.704-1.29,2.141-3.184,0.261-5.684l-3.119-4.129l-2.765,2.072l-5.874-7.802l13.796-10.389l17.502,23.232l-5.651,4.25    l-3.249-1.01c-0.81,3.71-2.597,6.512-5.874,9.002c-10.967,8.243-16.925,4.706-29.334-11.768    c-11.898-15.775-12.484-24.461-1.843-32.486c5.912-4.455,12.884-6.247,18.74-2.439c1.834,1.192,3.603,3.124,6.153,6.507    l-11.041,8.304l-1.834-2.439c-1.899-2.5-3.808-2.602-5.521-1.317c-1.713,1.29-2.141,3.174-0.261,5.674L154.269,230.943z"/>
		
			<rect x="149.597" y="192.77" transform="matrix(0.6018, 0.7987, -0.7987, 0.6018, 229.473, -60.8601)" clip-path="url(#SVGID_12_)" fill="#58585A" width="52.336" height="13.814"/>
		<path clip-path="url(#SVGID_12_)" fill="#58585A" d="M217.304,201.157l-31.494-41.814l12.41-9.342    c8.918-6.731,15.873-7.215,23.19,2.518c7.271,9.654,6.256,15.272-3.845,22.888l-1.909,1.429l12.279,16.292L217.304,201.157z     M209.782,169.04c3.538-2.672,4.636-4.501,1.126-9.161c-2.989-3.957-4.627-4.092-8.761-0.973L209.782,169.04z"/>
		<polygon clip-path="url(#SVGID_12_)" fill="#58585A" points="246.574,179.099 215.07,137.298 238.967,119.28 245.457,127.905     232.59,137.601 237.943,144.704 248.584,136.698 255.333,145.658 244.693,153.674 250.837,161.815 264.364,151.626     271.123,160.596   "/>
		<path clip-path="url(#SVGID_12_)" fill="#58585A" d="M277.174,138.322c1.898,2.504,3.826,2.611,5.529,1.322    c1.704-1.285,2.142-3.17,0.252-5.679l-3.109-4.129l-2.766,2.081l-5.883-7.801l13.796-10.39l17.502,23.232l-5.65,4.25l-3.24-1.02    c-0.81,3.71-2.597,6.512-5.883,9.002c-10.967,8.253-16.925,4.706-29.335-11.758c-11.889-15.785-12.475-24.47-1.843-32.486    c5.901-4.464,12.894-6.247,18.768-2.439c1.806,1.177,3.594,3.123,6.126,6.498l-11.041,8.313l-1.825-2.449    c-1.899-2.5-3.808-2.593-5.529-1.308c-1.704,1.28-2.142,3.166-0.252,5.665L277.174,138.322z"/>
		<polygon clip-path="url(#SVGID_12_)" fill="#58585A" points="308.919,132.113 277.425,90.299 288.439,82 319.96,123.799   "/>
		<path clip-path="url(#SVGID_12_)" fill="#58585A" d="M340.218,108.527l-31.513-41.81l12.419-9.342    c8.938-6.731,15.882-7.215,23.209,2.518c7.28,9.654,6.237,15.268-3.863,22.888l-1.899,1.429l12.288,16.292L340.218,108.527z     M332.687,76.414c3.538-2.672,4.636-4.511,1.136-9.161c-2.988-3.957-4.627-4.092-8.761-0.973L332.687,76.414z"/>
		<polygon clip-path="url(#SVGID_12_)" fill="#58585A" points="369.478,86.473 337.984,44.668 361.891,26.654 368.389,35.279     355.514,44.976 360.876,52.079 371.499,44.068 378.257,53.028 367.625,61.048 373.761,69.189 387.288,58.996 394.046,67.97   "/>
	</g>
	<g>
		<defs>
			<rect id="SVGID_13_" y="0.02" width="482.059" height="484.526"/>
		</defs>
		<clipPath id="SVGID_14_">
			<use xlink:href="#SVGID_13_" overflow="visible"/>
		</clipPath>
		<path clip-path="url(#SVGID_14_)" fill="#58585A" d="M400.107,45.697c1.881,2.504,3.808,2.611,5.512,1.322    c1.694-1.285,2.15-3.175,0.27-5.679l-3.128-4.128l-2.765,2.076l-5.865-7.797l13.778-10.389l17.502,23.232l-5.642,4.25l-3.24-1.02    c-0.81,3.71-2.606,6.521-5.874,8.998c-10.967,8.258-16.925,4.711-29.335-11.753c-11.906-15.784-12.483-24.47-1.843-32.485    c5.902-4.464,12.885-6.247,18.73-2.444c1.844,1.182,3.604,3.128,6.163,6.502l-11.041,8.313l-1.834-2.448    c-1.89-2.5-3.817-2.593-5.53-1.308c-1.703,1.275-2.132,3.166-0.261,5.66L400.107,45.697z"/>
		<polygon clip-path="url(#SVGID_14_)" fill="#58585A" points="431.825,39.487 400.331,-2.317 411.372,-10.626 442.866,31.174   "/>
		<path clip-path="url(#SVGID_14_)" fill="#58585A" d="M463.132,15.901l-31.494-41.8l12.4-9.352    c8.928-6.721,15.883-7.219,23.2,2.514c7.279,9.659,6.265,15.272-3.864,22.892l-1.88,1.438l12.27,16.292L463.132,15.901z     M455.601-16.216c3.557-2.667,4.646-4.487,1.136-9.151c-2.979-3.966-4.617-4.096-8.77-0.968L455.601-16.216z"/>
		<polygon clip-path="url(#SVGID_14_)" fill="#58585A" points="-18.144,467.146 -49.648,425.346 -25.75,407.341 -19.252,415.952     -32.127,425.644 -26.765,432.756 -16.143,424.75 -9.384,433.706 -20.016,441.73 -13.871,449.867 -0.354,439.683 6.405,448.639       "/>
		<path clip-path="url(#SVGID_14_)" fill="#58585A" d="M12.466,426.379c1.88,2.495,3.798,2.598,5.521,1.313    c1.694-1.284,2.141-3.174,0.251-5.669l-3.119-4.124l-2.765,2.066l-5.865-7.802l13.778-10.389l17.502,23.236l-5.632,4.245    l-3.249-1.006c-0.81,3.696-2.606,6.518-5.884,8.984c-10.957,8.258-16.916,4.72-29.334-11.758    c-11.897-15.771-12.475-24.466-1.834-32.481c5.902-4.459,12.894-6.247,18.74-2.448c1.825,1.191,3.603,3.128,6.145,6.517    l-11.032,8.304l-1.834-2.438c-1.899-2.495-3.817-2.606-5.53-1.322c-1.704,1.285-2.132,3.184-0.26,5.679L12.466,426.379z"/>
	</g>
	<g>
		<defs>
			<rect id="SVGID_15_" y="0.02" width="482.059" height="485.112"/>
		</defs>
		<clipPath id="SVGID_16_">
			<use xlink:href="#SVGID_15_" overflow="visible"/>
		</clipPath>
		<polygon clip-path="url(#SVGID_16_)" fill="#58585A" points="44.202,420.17 12.698,378.36 23.74,370.057 55.234,411.856   "/>
		<path clip-path="url(#SVGID_16_)" fill="#58585A" d="M75.492,396.589l-31.495-41.81l12.41-9.347    c8.928-6.74,15.873-7.215,23.2,2.514c7.28,9.645,6.265,15.268-3.854,22.883l-1.908,1.434l12.289,16.292L75.492,396.589z     M67.979,364.471c3.538-2.682,4.627-4.516,1.117-9.161c-2.979-3.966-4.618-4.087-8.76-0.978L67.979,364.471z"/>
		<polygon clip-path="url(#SVGID_16_)" fill="#58585A" points="104.779,374.516 73.267,332.716 97.173,314.711 103.662,323.332     90.787,333.022 96.149,340.136 106.79,332.12 113.54,341.075 102.908,349.101 109.043,357.246 122.561,347.053 129.319,356.018       "/>
		<path clip-path="url(#SVGID_16_)" fill="#58585A" d="M135.38,333.758c1.89,2.495,3.808,2.598,5.521,1.304    c1.694-1.284,2.141-3.165,0.261-5.66l-3.119-4.134l-2.765,2.067l-5.874-7.802l13.797-10.39l17.502,23.237l-5.642,4.245    l-3.258-1.015c-0.81,3.714-2.598,6.525-5.875,9.002c-10.967,8.248-16.925,4.711-29.334-11.758    c-11.897-15.78-12.484-24.475-1.843-32.481c5.912-4.459,12.903-6.256,18.75-2.448c1.825,1.183,3.593,3.128,6.144,6.508    l-11.041,8.304l-1.834-2.439c-1.89-2.495-3.808-2.597-5.53-1.313c-1.704,1.294-2.132,3.175-0.251,5.67L135.38,333.758z"/>
		<polygon clip-path="url(#SVGID_16_)" fill="#58585A" points="167.116,327.539 135.613,285.73 146.654,277.436 178.157,319.235       "/>
		<path clip-path="url(#SVGID_16_)" fill="#58585A" d="M198.424,303.958l-31.494-41.8l12.4-9.355    c8.928-6.74,15.873-7.216,23.19,2.513c7.28,9.654,6.266,15.269-3.854,22.884l-1.89,1.442l12.279,16.292L198.424,303.958z     M190.893,271.85c3.547-2.681,4.646-4.515,1.126-9.16c-2.989-3.966-4.618-4.097-8.76-0.978L190.893,271.85z"/>
		<polygon clip-path="url(#SVGID_16_)" fill="#58585A" points="227.685,281.895 196.19,240.09 220.088,222.085 226.577,230.701     213.71,240.397 219.063,247.515 229.686,239.49 236.445,248.445 225.813,256.479 231.967,264.625 245.475,254.422     252.252,263.396   "/>
		<path clip-path="url(#SVGID_16_)" fill="#58585A" d="M258.285,241.124c1.899,2.5,3.826,2.611,5.53,1.317    c1.703-1.285,2.141-3.175,0.27-5.67l-3.128-4.128l-2.765,2.066l-5.865-7.797l13.778-10.389l17.502,23.232l-5.632,4.25    l-3.259-1.015c-0.81,3.705-2.598,6.517-5.884,8.993c-10.967,8.257-16.925,4.72-29.334-11.754    c-11.888-15.775-12.465-24.47-1.843-32.49c5.921-4.45,12.912-6.242,18.759-2.439c1.815,1.182,3.603,3.128,6.135,6.512    l-11.022,8.304l-1.843-2.443c-1.881-2.495-3.808-2.602-5.512-1.313c-1.722,1.285-2.16,3.175-0.27,5.669L258.285,241.124z"/>
		<polygon clip-path="url(#SVGID_16_)" fill="#58585A" points="290.031,234.918 258.537,193.104 269.549,184.8 301.072,226.605       "/>
		<path clip-path="url(#SVGID_16_)" fill="#58585A" d="M321.33,211.337l-31.513-41.8l12.419-9.356    c8.937-6.726,15.882-7.215,23.208,2.519c7.28,9.659,6.237,15.263-3.863,22.878l-1.89,1.443l12.279,16.292L321.33,211.337z     M313.798,179.219c3.537-2.667,4.636-4.506,1.136-9.161c-2.989-3.957-4.627-4.087-8.761-0.973L313.798,179.219z"/>
		<polygon clip-path="url(#SVGID_16_)" fill="#58585A" points="350.598,189.283 319.095,147.479 343.002,129.46 349.5,138.09     336.625,147.786 341.987,154.884 352.619,146.878 359.377,155.838 348.737,163.858 354.872,172 368.399,161.806 375.158,170.775       "/>
		<path clip-path="url(#SVGID_16_)" fill="#58585A" d="M381.218,148.502c1.871,2.509,3.808,2.602,5.511,1.327    c1.694-1.285,2.15-3.175,0.271-5.684l-3.129-4.124l-2.765,2.076l-5.865-7.806l13.778-10.394l17.502,23.241l-5.632,4.254    l-3.249-1.029c-0.811,3.715-2.606,6.521-5.875,8.998c-10.966,8.257-16.925,4.72-29.344-11.753    c-11.897-15.78-12.475-24.461-1.834-32.491c5.902-4.45,12.895-6.242,18.731-2.439c1.843,1.192,3.603,3.137,6.163,6.512    l-11.042,8.313l-1.834-2.453c-1.89-2.495-3.816-2.593-5.529-1.303c-1.704,1.275-2.132,3.165-0.261,5.66L381.218,148.502z"/>
		<polygon clip-path="url(#SVGID_16_)" fill="#58585A" points="412.955,142.298 381.441,100.484 392.482,92.18 423.967,133.984       "/>
	</g>
	<g>
		<defs>
			<rect id="SVGID_17_" y="0.02" width="482.059" height="484.526"/>
		</defs>
		<clipPath id="SVGID_18_">
			<use xlink:href="#SVGID_17_" overflow="visible"/>
		</clipPath>
		<path clip-path="url(#SVGID_18_)" fill="#58585A" d="M444.244,118.712L412.74,76.898l12.429-9.342    c8.909-6.731,15.863-7.215,23.181,2.519c7.28,9.659,6.266,15.263-3.845,22.878l-1.908,1.438l12.288,16.301L444.244,118.712z     M436.731,86.594c3.537-2.667,4.636-4.51,1.117-9.161c-2.979-3.957-4.618-4.091-8.761-0.973L436.731,86.594z"/>
		<polygon clip-path="url(#SVGID_18_)" fill="#58585A" points="473.522,96.653 442.028,54.853 465.917,36.834 472.405,45.464     459.54,55.16 464.892,62.259 475.524,54.252 482.283,63.213 471.642,71.229 477.804,79.37 491.313,69.18 498.072,78.15   "/>
		<path clip-path="url(#SVGID_18_)" fill="#58585A" d="M504.123,55.877c1.899,2.509,3.826,2.602,5.53,1.327    c1.703-1.29,2.141-3.175,0.251-5.684l-3.109-4.129l-2.765,2.081l-5.884-7.811l13.797-10.39l17.502,23.242l-5.651,4.254    l-3.239-1.02c-0.81,3.705-2.598,6.517-5.884,8.998c-10.967,8.244-16.925,4.706-29.344-11.762    c-11.879-15.78-12.466-24.466-1.824-32.491c5.893-4.45,12.902-6.242,18.749-2.439c1.815,1.191,3.603,3.137,6.135,6.507    l-11.041,8.313l-1.824-2.448c-1.899-2.5-3.808-2.593-5.53-1.308c-1.703,1.28-2.132,3.165-0.251,5.665L504.123,55.877z"/>
		<polygon clip-path="url(#SVGID_18_)" fill="#58585A" points="25.313,522.984 -6.191,481.185 4.841,472.862 36.335,514.662   "/>
		<path clip-path="url(#SVGID_18_)" fill="#58585A" d="M56.603,499.395l-31.485-41.801l12.4-9.347    c8.938-6.739,15.873-7.224,23.209,2.495c7.271,9.664,6.256,15.277-3.864,22.901l-1.908,1.435l12.289,16.291L56.603,499.395z     M49.089,467.276c3.538-2.682,4.636-4.506,1.126-9.161c-2.979-3.947-4.617-4.087-8.76-0.968L49.089,467.276z"/>
	</g>
	<g>
		<defs>
			<rect id="SVGID_19_" y="0.02" width="482.059" height="485.112"/>
		</defs>
		<clipPath id="SVGID_20_">
			<use xlink:href="#SVGID_19_" overflow="visible"/>
		</clipPath>
		<polygon clip-path="url(#SVGID_20_)" fill="#58585A" points="85.89,477.33 54.377,435.53 78.284,417.517 84.773,426.146     71.917,435.847 77.27,442.941 87.901,434.926 94.66,443.891 84.019,451.915 90.154,460.052 103.671,449.867 110.43,458.823   "/>
		<path clip-path="url(#SVGID_20_)" fill="#58585A" d="M116.491,436.555c1.899,2.514,3.817,2.616,5.521,1.331    c1.704-1.284,2.142-3.175,0.27-5.688l-3.128-4.114l-2.755,2.066l-5.875-7.801l13.788-10.39l17.502,23.228l-5.642,4.254    l-3.249-1.005c-0.81,3.705-2.598,6.517-5.875,8.992c-10.976,8.249-16.934,4.711-29.344-11.767    c-11.888-15.771-12.475-24.456-1.843-32.49c5.912-4.45,12.903-6.237,18.75-2.439c1.825,1.191,3.603,3.128,6.153,6.517    l-11.041,8.305l-1.843-2.439c-1.88-2.495-3.808-2.598-5.511-1.304c-1.722,1.285-2.15,3.165-0.261,5.66L116.491,436.555z"/>
		<polygon clip-path="url(#SVGID_20_)" fill="#58585A" points="148.236,430.354 116.724,388.555 127.765,380.231 159.268,422.041       "/>
		<path clip-path="url(#SVGID_20_)" fill="#58585A" d="M179.535,406.764l-31.494-41.8l12.4-9.347    c8.928-6.73,15.873-7.225,23.199,2.504c7.28,9.654,6.256,15.277-3.863,22.893l-1.89,1.434l12.28,16.292L179.535,406.764z     M172.004,374.646c3.547-2.671,4.646-4.505,1.136-9.16c-2.988-3.947-4.627-4.077-8.76-0.968L172.004,374.646z"/>
		<polygon clip-path="url(#SVGID_20_)" fill="#58585A" points="208.805,384.7 177.301,342.909 201.199,324.896 207.688,333.517     194.831,343.217 200.184,350.311 210.815,342.305 217.574,351.261 206.933,359.285 213.078,367.422 226.595,357.237     233.345,366.193   "/>
		<path clip-path="url(#SVGID_20_)" fill="#58585A" d="M239.405,343.934c1.89,2.504,3.817,2.616,5.52,1.331    c1.704-1.294,2.142-3.184,0.271-5.688l-3.128-4.124l-2.765,2.066l-5.856-7.802l13.769-10.39l17.503,23.237l-5.633,4.245    l-3.258-1.006c-0.792,3.705-2.598,6.517-5.865,8.993c-10.985,8.248-16.944,4.711-29.344-11.758    c-11.888-15.78-12.465-24.466-1.825-32.49c5.893-4.45,12.885-6.247,18.731-2.439c1.815,1.191,3.603,3.119,6.154,6.508    l-11.041,8.304l-1.843-2.439c-1.881-2.494-3.798-2.588-5.511-1.303c-1.704,1.284-2.142,3.165-0.261,5.66L239.405,343.934z"/>
		<polygon clip-path="url(#SVGID_20_)" fill="#58585A" points="271.141,337.725 239.647,295.924 250.679,287.62 282.182,329.42       "/>
		<path clip-path="url(#SVGID_20_)" fill="#58585A" d="M302.44,314.143l-31.484-41.809l12.391-9.347    c8.938-6.722,15.882-7.215,23.209,2.514c7.28,9.663,6.256,15.276-3.863,22.892l-1.899,1.434l12.288,16.292L302.44,314.143z     M294.909,282.025c3.557-2.672,4.637-4.506,1.136-9.161c-2.988-3.956-4.608-4.087-8.76-0.978L294.909,282.025z"/>
		<polygon clip-path="url(#SVGID_20_)" fill="#58585A" points="331.709,292.089 300.206,250.289 324.113,232.275 330.611,240.905     317.736,250.587 323.098,257.689 333.73,249.684 340.489,258.648 329.847,266.655 335.983,274.801 349.509,264.606     356.268,273.581   "/>
		<path clip-path="url(#SVGID_20_)" fill="#58585A" d="M362.329,251.313c1.899,2.514,3.808,2.607,5.512,1.322    c1.713-1.285,2.15-3.175,0.261-5.679l-3.119-4.134l-2.746,2.086l-5.884-7.807l13.797-10.389l17.492,23.232l-5.65,4.255    l-3.24-1.024c-0.81,3.705-2.606,6.517-5.884,9.002c-10.957,8.258-16.915,4.701-29.325-11.758    c-11.888-15.784-12.483-24.47-1.843-32.486c5.902-4.464,12.885-6.247,18.73-2.439c1.844,1.178,3.604,3.124,6.163,6.498    l-11.041,8.313l-1.834-2.439c-1.89-2.509-3.816-2.602-5.53-1.317c-1.703,1.29-2.132,3.165-0.241,5.674L362.329,251.313z"/>
		<polygon clip-path="url(#SVGID_20_)" fill="#58585A" points="394.065,245.094 362.552,203.299 373.593,194.995 405.087,236.785       "/>
		<path clip-path="url(#SVGID_20_)" fill="#58585A" d="M425.354,221.522l-31.484-41.805l12.409-9.351    c8.929-6.722,15.864-7.215,23.2,2.518c7.271,9.659,6.246,15.272-3.864,22.888l-1.908,1.419l12.289,16.306L425.354,221.522z     M417.841,189.404c3.538-2.667,4.637-4.506,1.117-9.161c-2.979-3.957-4.617-4.087-8.741-0.973L417.841,189.404z"/>
	</g>
	<g>
		<defs>
			<rect id="SVGID_21_" y="0.02" width="482.059" height="484.526"/>
		</defs>
		<clipPath id="SVGID_22_">
			<use xlink:href="#SVGID_21_" overflow="visible"/>
		</clipPath>
		<polygon clip-path="url(#SVGID_22_)" fill="#58585A" points="454.633,199.458 423.139,157.668 447.027,139.658 453.516,148.279     440.668,157.961 446.022,165.064 456.644,157.058 463.393,166.019 452.771,174.034 458.916,182.185 472.423,171.995     479.182,180.965   "/>
		<path clip-path="url(#SVGID_22_)" fill="#58585A" d="M485.234,158.687c1.899,2.514,3.826,2.611,5.529,1.322    c1.704-1.285,2.142-3.17,0.271-5.679l-3.128-4.128l-2.766,2.076l-5.864-7.796l13.777-10.39l17.502,23.232l-5.65,4.25l-3.24-1.02    c-0.791,3.71-2.597,6.521-5.864,9.002c-10.985,8.253-16.943,4.706-29.354-11.758c-11.888-15.784-12.475-24.47-1.843-32.485    c5.921-4.464,12.912-6.247,18.759-2.444c1.815,1.182,3.603,3.128,6.135,6.502l-11.022,8.313l-1.844-2.439    c-1.88-2.509-3.808-2.602-5.511-1.317c-1.704,1.29-2.16,3.166-0.271,5.674L485.234,158.687z"/>
		<path clip-path="url(#SVGID_22_)" fill="#58585A" d="M160.637,509.579l-31.494-41.818l12.41-9.338    c8.918-6.73,15.873-7.215,23.19,2.522c7.29,9.654,6.256,15.268-3.845,22.883l-1.909,1.435l12.289,16.291L160.637,509.579z     M153.105,477.461c3.547-2.662,4.646-4.506,1.136-9.161c-2.988-3.956-4.627-4.096-8.76-0.968L153.105,477.461z"/>
		<polygon clip-path="url(#SVGID_22_)" fill="#58585A" points="189.906,487.516 158.402,445.715 182.31,427.711 188.798,436.331     175.933,446.022 181.295,453.135 191.917,445.119 198.676,454.075 188.044,462.1 194.179,470.236 207.706,460.052     214.465,469.018   "/>
	</g>
	<g>
		<defs>
			<rect id="SVGID_23_" y="0.02" width="482.059" height="485.112"/>
		</defs>
		<clipPath id="SVGID_24_">
			<use xlink:href="#SVGID_23_" overflow="visible"/>
		</clipPath>
		<path clip-path="url(#SVGID_24_)" fill="#58585A" d="M220.525,446.739c1.88,2.514,3.798,2.616,5.521,1.331    c1.694-1.294,2.132-3.174,0.251-5.688l-3.119-4.115l-2.765,2.066l-5.865-7.801l13.778-10.39l17.502,23.236l-5.632,4.255    l-3.258-1.015c-0.81,3.705-2.597,6.498-5.884,8.993c-10.957,8.248-16.915,4.71-29.344-11.759    c-11.879-15.779-12.456-24.475-1.815-32.48c5.902-4.469,12.894-6.247,18.74-2.439c1.834,1.173,3.603,3.119,6.145,6.498    l-11.032,8.305l-1.834-2.439c-1.899-2.504-3.817-2.598-5.53-1.313c-1.704,1.294-2.132,3.165-0.261,5.669L220.525,446.739z"/>
		<polygon clip-path="url(#SVGID_24_)" fill="#58585A" points="252.252,440.539 220.758,398.739 231.771,390.416 263.284,432.226       "/>
		<path clip-path="url(#SVGID_24_)" fill="#58585A" d="M283.551,416.948l-31.504-41.809l12.41-9.338    c8.937-6.74,15.882-7.224,23.208,2.514c7.28,9.654,6.237,15.268-3.863,22.883l-1.908,1.443l12.298,16.292L283.551,416.948z     M276.02,384.831c3.537-2.663,4.636-4.506,1.136-9.161c-2.988-3.947-4.627-4.087-8.761-0.959L276.02,384.831z"/>
		<polygon clip-path="url(#SVGID_24_)" fill="#58585A" points="312.821,394.895 281.317,353.085 305.224,335.08 311.722,343.701     298.847,353.401 304.209,360.514 314.84,352.489 321.599,361.454 310.958,369.47 317.093,377.625 330.621,367.422     337.379,376.396   "/>
		<path clip-path="url(#SVGID_24_)" fill="#58585A" d="M343.44,354.118c1.88,2.505,3.808,2.616,5.511,1.322    c1.694-1.285,2.15-3.175,0.261-5.679l-3.118-4.124l-2.766,2.075l-5.865-7.801l13.778-10.39l17.502,23.228l-5.632,4.254    l-3.249-1.015c-0.811,3.705-2.606,6.517-5.875,8.993c-10.966,8.258-16.924,4.72-29.334-11.748    c-11.907-15.789-12.484-24.476-1.844-32.491c5.902-4.468,12.895-6.246,18.731-2.438c1.843,1.173,3.603,3.128,6.163,6.507    l-11.041,8.305l-1.834-2.448c-1.891-2.495-3.817-2.589-5.53-1.304c-1.704,1.284-2.132,3.165-0.261,5.66L343.44,354.118z"/>
		<polygon clip-path="url(#SVGID_24_)" fill="#58585A" points="375.158,347.918 343.663,306.109 354.705,297.805 386.189,339.596       "/>
		<path clip-path="url(#SVGID_24_)" fill="#58585A" d="M406.465,324.318l-31.494-41.8l12.4-9.347    c8.928-6.722,15.882-7.225,23.199,2.514c7.28,9.663,6.266,15.268-3.863,22.901l-1.89,1.434l12.288,16.292L406.465,324.318z     M398.953,292.21c3.537-2.672,4.646-4.497,1.117-9.161c-2.979-3.956-4.618-4.087-8.761-0.959L398.953,292.21z"/>
	</g>
	<g>
		<defs>
			<rect id="SVGID_25_" y="0.02" width="482.059" height="484.526"/>
		</defs>
		<clipPath id="SVGID_26_">
			<use xlink:href="#SVGID_25_" overflow="visible"/>
		</clipPath>
		<polygon clip-path="url(#SVGID_26_)" fill="#58585A" points="435.744,302.273 404.231,260.464 428.138,242.459 434.626,251.089     421.761,260.771 427.114,267.884 437.754,259.859 444.504,268.833 433.864,276.84 440.007,284.995 453.535,274.791     460.293,283.766   "/>
		<path clip-path="url(#SVGID_26_)" fill="#58585A" d="M466.344,261.497c1.899,2.514,3.808,2.607,5.512,1.322    c1.722-1.284,2.16-3.165,0.27-5.679l-3.128-4.124l-2.746,2.076l-5.884-7.802l13.797-10.385l17.502,23.223l-5.65,4.255l-3.24-1.015    c-0.81,3.714-2.598,6.525-5.884,8.983c-10.967,8.267-16.925,4.729-29.334-11.749c-11.889-15.789-12.476-24.47-1.834-32.481    c5.893-4.459,12.884-6.242,18.759-2.439c1.806,1.173,3.593,3.119,6.125,6.502l-11.041,8.313l-1.824-2.453    c-1.899-2.504-3.826-2.602-5.53-1.313c-1.703,1.285-2.132,3.166-0.251,5.669L466.344,261.497z"/>
		<polygon clip-path="url(#SVGID_26_)" fill="#58585A" points="498.09,255.297 466.596,213.479 477.609,205.179 509.122,246.975       "/>
		<path clip-path="url(#SVGID_26_)" fill="#58585A" d="M264.671,519.764l-31.522-41.8l12.419-9.356    c8.938-6.73,15.882-7.215,23.209,2.514c7.28,9.654,6.266,15.277-3.863,22.883l-1.899,1.443l12.289,16.291L264.671,519.764z     M257.14,487.646c3.528-2.672,4.627-4.506,1.126-9.16c-2.988-3.957-4.627-4.097-8.76-0.969L257.14,487.646z"/>
		<polygon clip-path="url(#SVGID_26_)" fill="#58585A" points="293.931,497.7 262.427,455.9 286.344,437.896 292.833,446.516     279.967,456.207 285.32,463.311 295.952,455.285 302.71,464.26 292.069,472.285 298.213,480.421 311.741,470.228 318.5,479.202       "/>
	</g>
	<g>
		<defs>
			<rect id="SVGID_27_" y="0.02" width="482.059" height="485.112"/>
		</defs>
		<clipPath id="SVGID_28_">
			<use xlink:href="#SVGID_27_" overflow="visible"/>
		</clipPath>
		<path clip-path="url(#SVGID_28_)" fill="#58585A" d="M324.55,456.924c1.881,2.514,3.808,2.616,5.512,1.322    c1.713-1.285,2.15-3.165,0.27-5.679l-3.128-4.115l-2.746,2.066l-5.884-7.801l13.778-10.39l17.502,23.236l-5.633,4.245    l-3.249-1.015c-0.81,3.715-2.606,6.508-5.874,9.003c-10.967,8.248-16.925,4.71-29.334-11.759    c-11.889-15.788-12.484-24.475-1.844-32.49c5.902-4.459,12.894-6.246,18.73-2.448c1.844,1.191,3.604,3.138,6.163,6.517    l-11.041,8.305l-1.834-2.449c-1.89-2.494-3.816-2.597-5.529-1.303c-1.704,1.284-2.133,3.165-0.261,5.66L324.55,456.924z"/>
		<polygon clip-path="url(#SVGID_28_)" fill="#58585A" points="356.268,450.724 324.774,408.914 335.815,400.61 367.309,442.401       "/>
		<path clip-path="url(#SVGID_28_)" fill="#58585A" d="M387.577,427.134l-31.485-41.801l12.391-9.355    c8.929-6.713,15.883-7.215,23.2,2.522c7.289,9.663,6.265,15.268-3.846,22.883l-1.898,1.434l12.279,16.302L387.577,427.134z     M380.063,395.016c3.538-2.663,4.637-4.497,1.117-9.161c-2.979-3.956-4.617-4.087-8.76-0.968L380.063,395.016z"/>
		<polygon clip-path="url(#SVGID_28_)" fill="#58585A" points="416.855,405.088 385.342,363.27 409.249,345.265 415.738,353.895     402.872,363.586 408.225,370.68 418.856,362.674 425.615,371.648 414.974,379.654 421.137,387.791 434.645,377.606     441.404,386.571   "/>
	</g>
	<g>
		<defs>
			<rect id="SVGID_29_" y="0.02" width="482.059" height="484.526"/>
		</defs>
		<clipPath id="SVGID_30_">
			<use xlink:href="#SVGID_29_" overflow="visible"/>
		</clipPath>
		<path clip-path="url(#SVGID_30_)" fill="#58585A" d="M447.464,364.294c1.881,2.522,3.817,2.616,5.521,1.331    c1.704-1.285,2.142-3.165,0.242-5.688l-3.1-4.114l-2.766,2.085l-5.874-7.811l13.788-10.398l17.502,23.236l-5.651,4.264    l-3.239-1.024c-0.811,3.706-2.598,6.518-5.884,8.993c-10.958,8.258-16.916,4.711-29.335-11.748    c-11.888-15.789-12.475-24.476-1.834-32.491c5.894-4.468,12.885-6.246,18.75-2.438c1.815,1.173,3.603,3.128,6.135,6.507    l-11.041,8.313l-1.825-2.457c-1.898-2.495-3.826-2.598-5.529-1.304c-1.704,1.285-2.132,3.165-0.252,5.66L447.464,364.294z"/>
		<polygon clip-path="url(#SVGID_30_)" fill="#58585A" points="479.201,358.094 447.688,316.294 458.72,307.989 490.243,349.789       "/>
		<path clip-path="url(#SVGID_30_)" fill="#58585A" d="M510.5,334.503l-31.503-41.8l12.409-9.347    c8.938-6.722,15.882-7.225,23.209,2.514c7.262,9.663,6.256,15.268-3.863,22.883l-1.899,1.434l12.289,16.301L510.5,334.503z     M502.968,302.385c3.538-2.662,4.637-4.496,1.136-9.16c-2.988-3.947-4.627-4.087-8.76-0.959L502.968,302.385z"/>
		<path clip-path="url(#SVGID_30_)" fill="#58585A" d="M375.818,524.576l-31.494-41.809l12.4-9.347    c8.938-6.722,15.882-7.215,23.209,2.513c7.28,9.664,6.256,15.269-3.863,22.893l-1.899,1.434l12.289,16.302L375.818,524.576z     M368.287,492.459c3.557-2.672,4.637-4.497,1.136-9.151c-2.988-3.966-4.627-4.097-8.76-0.987L368.287,492.459z"/>
		<polygon clip-path="url(#SVGID_30_)" fill="#58585A" points="405.106,502.522 373.583,460.704 397.5,442.708 403.989,451.329     391.114,461.021 396.476,468.133 407.108,460.117 413.867,469.082 403.226,477.098 409.361,485.244 422.887,475.04     429.646,484.006   "/>
	</g>
	<g>
		<defs>
			<rect id="SVGID_31_" y="0.02" width="482.059" height="485.112"/>
		</defs>
		<clipPath id="SVGID_32_">
			<use xlink:href="#SVGID_31_" overflow="visible"/>
		</clipPath>
		<path clip-path="url(#SVGID_32_)" fill="#58585A" d="M435.707,461.746c1.881,2.505,3.808,2.607,5.512,1.322    c1.703-1.285,2.15-3.175,0.27-5.679l-3.128-4.134l-2.765,2.086l-5.865-7.802l13.797-10.39l17.502,23.218l-5.66,4.264l-3.24-1.023    c-0.81,3.705-2.606,6.535-5.874,9.002c-10.967,8.258-16.925,4.72-29.334-11.758c-11.907-15.789-12.484-24.466-1.844-32.49    c5.902-4.45,12.885-6.237,18.73-2.439c1.844,1.191,3.604,3.119,6.163,6.517l-11.041,8.305l-1.834-2.439    c-1.89-2.514-3.816-2.616-5.529-1.331c-1.704,1.294-2.132,3.175-0.261,5.688L435.707,461.746z"/>
	</g>
	<g>
		<defs>
			<rect id="SVGID_33_" y="0.02" width="482.059" height="484.526"/>
		</defs>
		<clipPath id="SVGID_34_">
			<use xlink:href="#SVGID_33_" overflow="visible"/>
		</clipPath>
		<polygon clip-path="url(#SVGID_34_)" fill="#58585A" points="467.443,455.546 435.93,413.728 446.971,405.424 478.457,447.224       "/>
		<path clip-path="url(#SVGID_34_)" fill="#58585A" d="M498.751,431.956l-31.504-41.801l12.409-9.365    c8.929-6.722,15.864-7.205,23.182,2.514c7.279,9.663,6.265,15.268-3.845,22.901l-1.899,1.425l12.298,16.301L498.751,431.956z     M491.219,399.838c3.538-2.682,4.637-4.506,1.117-9.161c-2.979-3.966-4.617-4.096-8.741-0.978L491.219,399.838z"/>
	</g>
	<g>
		<defs>
			<rect id="SVGID_35_" y="0.02" width="482.059" height="485.112"/>
		</defs>
		<clipPath id="SVGID_36_">
			<use xlink:href="#SVGID_35_" overflow="visible"/>
		</clipPath>
		<polygon clip-path="url(#SVGID_36_)" fill="#FFFFFF" points="342.545,74.375 323.061,97.355 275.172,56.794 274.223,74.086     281.149,80.342 149.419,239.778 148.153,312.002 153.999,315.604 225.013,305.792 359.796,146.636 365.01,151.011     384.607,149.466 336.345,108.597 355.802,85.584 377.736,104.203 399.66,102.513 319.728,34.81 321.311,56.403   "/>
		<path clip-path="url(#SVGID_36_)" d="M355.802,85.584l21.934,18.619l21.924-1.685l-79.932-67.704l1.583,21.589l21.234,17.972    L323.061,97.36l-47.889-40.566l-0.949,17.292l6.926,6.256l-134.104,159.44l-1.266,72.219l-60.903,79.606l68.258-72.587    l71.879-13.229l48.913-57.766c-0.866-0.754-1.918-1.647-3.185-2.746c-3.155-2.719-7.363-6.308-11.544-9.873    c-8.341-7.149-16.673-14.244-16.673-14.244l4.096-4.822c0.01,0,23.907,20.36,31.393,26.863l11.236-13.271    c-0.754-0.703-1.61-1.485-2.653-2.402c-3.175-2.821-7.484-6.475-11.768-10.008c-8.602-7.131-17.194-14.006-17.213-14.024    l3.956-4.939c0.047,0.046,23.19,18.54,31.783,26.523l10.437-12.316c-1.08-0.81-2.318-1.811-3.827-3.063    c-3.286-2.695-7.4-6.233-11.469-9.808c-8.146-7.112-16.021-14.207-16.021-14.225l4.235-4.697    c0.019,0.019,7.373,6.643,15.202,13.485c6.173,5.493,13.22,11.404,15.967,13.48l10.687-12.638    c-3.286-2.793-8.825-7.731-14.849-12.987c-8.192-7.215-16.245-14.355-16.245-14.355l4.199-4.748    c0.037,0.038,23.646,20.956,31.01,27.254l12.103-14.299c-0.14-0.14-0.214-0.219-0.41-0.382c-0.847-0.759-2.132-1.839-3.687-3.124    c-3.081-2.546-7.252-5.865-11.413-9.17c-8.305-6.628-16.608-13.098-16.627-13.122l3.91-4.976    c0.093,0.079,26.066,20.318,32.322,25.932l20.919-24.689l5.214,4.375l19.597-1.545l-48.262-40.878L355.802,85.584z     M258.416,254.124L221.4,297.86l-66.331,10.576l-0.317-66.852c6.554,3.417,6.74,4.459,27.612,11.935    c17.912,5.958,22.334-1.686,37.322-1.48C236.1,249.041,254.384,250.643,258.416,254.124"/>
		<polygon clip-path="url(#SVGID_36_)" points="342.545,74.371 323.061,97.36 275.172,56.789 274.223,74.091 281.149,80.338     149.419,239.788 148.153,312.011 153.999,315.604 225.013,305.802 359.796,146.636 365.01,151.011 384.607,149.471     336.345,108.602 355.802,85.588 377.736,104.208 399.66,102.509 319.728,34.805 321.311,56.408   "/>
		<path clip-path="url(#SVGID_36_)" fill="#FFFFFF" d="M355.802,85.584l21.934,18.619l21.924-1.685l-79.932-67.704l1.583,21.589    l21.234,17.963L323.061,97.37l-47.889-40.585l-0.949,17.302l6.926,6.256l-134.104,159.44l-1.266,72.219l-60.903,79.606    l68.258-72.587l71.879-13.229l48.913-57.766c-0.866-0.754-1.918-1.647-3.185-2.746c-3.155-2.719-7.363-6.308-11.544-9.873    c-8.341-7.149-16.673-14.244-16.673-14.244l4.096-4.822c0.01,0,23.907,20.36,31.393,26.863l11.236-13.271    c-0.754-0.703-1.61-1.485-2.653-2.402c-3.175-2.821-7.484-6.475-11.768-10.008c-8.602-7.131-17.194-14.006-17.213-14.024    l3.956-4.939c0.047,0.046,23.19,18.54,31.783,26.523l10.437-12.316c-1.08-0.81-2.318-1.811-3.827-3.063    c-3.286-2.695-7.4-6.233-11.469-9.808c-8.146-7.112-16.021-14.207-16.021-14.225l4.235-4.697    c0.019,0.019,7.373,6.643,15.202,13.485c6.173,5.493,13.22,11.404,15.967,13.48l10.687-12.638    c-3.286-2.793-8.825-7.731-14.849-12.987c-8.192-7.215-16.245-14.355-16.245-14.355l4.199-4.748    c0.037,0.038,23.646,20.956,31.01,27.254l12.103-14.299c-0.14-0.14-0.214-0.219-0.41-0.382c-0.847-0.759-2.132-1.839-3.687-3.124    c-3.081-2.546-7.252-5.865-11.413-9.17c-8.305-6.628-16.608-13.098-16.627-13.122l3.91-4.976    c0.093,0.079,26.066,20.318,32.322,25.932l20.919-24.689l5.214,4.375l19.597-1.545l-48.262-40.869L355.802,85.584z     M258.416,254.124L221.4,297.86l-66.331,10.576l-0.317-66.852c6.554,3.417,6.74,4.459,27.612,11.935    c17.912,5.958,22.334-1.686,37.322-1.48C236.1,249.041,254.384,250.643,258.416,254.124"/>
		<path clip-path="url(#SVGID_36_)" d="M0.009,484.536h484.517V0.01H0.009V484.536z M474.834,474.854H9.701V9.715h465.134V474.854z"/>
		<rect x="0.009" y="407.016" clip-path="url(#SVGID_36_)" width="484.517" height="77.521"/>
		<path clip-path="url(#SVGID_36_)" fill="#FFFFFF" d="M154.464,418.587h12.373c13.815,0,18.033,3.501,18.033,26.123    c0,20.006-2.979,26.113-18.033,26.113h-12.373V418.587z M166.688,460.787c5.53,0,5.967-1.955,5.967-11.497v-9.458    c0-9.524-0.438-11.498-5.967-11.498V460.787z"/>
		<path clip-path="url(#SVGID_36_)" fill="#FFFFFF" d="M190.809,470.832v-52.245h15.128c10.474,0,14.989,3.491,14.989,14.709    c0,8.36-3.491,10.901-5.819,11.712v0.13c4.366,0.811,5.67,8.23,5.67,14.784c0,5.231,0.586,8.862,1.601,10.91h-11.926    c-1.015-4.301-1.452-7.131-1.452-10.836c0-8.807-0.726-10.408-4.655-10.408h-1.759v21.244H190.809z M202.586,440.558h2.188    c3.352,0,4.506-2.029,4.506-6.247c0-4.227-1.154-6.256-4.506-6.256h-2.188V440.558z"/>
		<path clip-path="url(#SVGID_36_)" fill="#FFFFFF" d="M257.41,418.587v39.436c0,8.732-5.39,13.676-15.128,13.676    c-9.756,0-15.137-4.943-15.137-13.676v-39.436h12.223v37.983c0,2.625,0.652,4.077,2.914,4.077c2.253,0,2.896-1.452,2.896-4.077    v-37.983H257.41z"/>
		<path clip-path="url(#SVGID_36_)" fill="#FFFFFF" d="M275.125,456.719c0,3.129,1.304,4.366,3.203,4.366    c1.89,0,3.193-1.237,3.193-4.366v-5.166h-3.054v-9.747h15.286v29.026h-6.266l-1.74-2.773c-2.551,2.476-5.316,3.631-8.947,3.631    c-12.158,0-14.476-6.387-14.476-26.979c0-19.708,4.217-26.998,16.003-26.998c6.535,0,12.438,2.774,14.551,9.319    c0.651,2.038,0.875,4.654,0.875,8.872h-12.232v-3.054c0-3.119-1.304-4.357-3.193-4.357c-1.899,0-3.203,1.238-3.203,4.357V456.719z    "/>
		<path clip-path="url(#SVGID_36_)" fill="#FFFFFF" d="M318.742,434.748c-0.149-5.688-1.834-7.279-4.441-7.279    c-2.327,0-3.565,1.592-3.565,3.491c0,6.246,19.644,11.348,19.644,25.898c0,10.474-6.331,14.831-16.44,14.831    c-12.866,0-15.287-8.938-15.287-18.247h11.358v2.401c0,3.482,1.89,6.107,4.804,6.107c2.467,0,4.217-1.452,4.217-4.227    c0-6.898-19.644-12.289-19.644-26.327c0-8.808,6.982-13.686,14.979-13.686c9.17,0,15.426,6.042,15.426,14.784v2.252H318.742z"/>
		<path clip-path="url(#SVGID_36_)" fill="#FFFFFF" d="M433.919,19.407v3.603h-7.671v24.27h-4.497v-24.27h-7.671v-3.603H433.919z     M465.144,47.279h-4.497V25.323h-0.13l-7.728,21.957h-3.677l-7.336-21.957h-0.14v21.957h-4.497V19.407h7.15l6.944,20.732h0.14    l6.759-20.732h7.011V47.279z"/>
	</g>
</g>
</svg>