<?xml version="1.0" encoding="UTF-8"?>
<!-- Generator: Adobe Illustrator 15.0.0, SVG Export Plug-In . SVG Version: 6.00 Build 0)  -->
<!DOCTYPE svg PUBLIC "-//W3C//DTD SVG 1.1//EN" "http://www.w3.org/Graphics/SVG/1.1/DTD/svg11.dtd">
<svg version="1.1" id="Ebene_1" xmlns="http://www.w3.org/2000/svg" xmlns:xlink="http://www.w3.org/1999/xlink" x="0px" y="0px" width="505.571px" height="505.58px" viewBox="0 0 505.571 505.58" enable-background="new 0 0 505.571 505.58" xml:space="preserve">
<g>
	<rect width="505.581" height="505.58"/>
	<polygon fill="#58585A" points="0.005,103.463 8.204,97.284 0.005,86.413  "/>
	<g>
		<defs>
			<rect id="SVGID_1_" width="505.571" height="505.58"/>
		</defs>
		<clipPath id="SVGID_2_">
			<use xlink:href="#SVGID_1_" overflow="visible"/>
		</clipPath>
		<path clip-path="url(#SVGID_2_)" fill="#58585A" d="M29.353,81.352l-32.875-43.63l12.944-9.756    c9.328-7.017,16.564-7.523,24.209,2.623c7.601,10.083,6.535,15.937-4.02,23.888l-1.99,1.494l12.817,17.012L29.353,81.352z     M21.489,47.839c3.708-2.793,4.856-4.706,1.188-9.557c-3.119-4.126-4.832-4.268-9.158-1.017L21.489,47.839z"/>
		<polygon clip-path="url(#SVGID_2_)" fill="#58585A" points="59.892,58.325 27.026,14.715 51.96,-4.083 58.734,4.92 45.313,15.031     50.88,22.438 61.985,14.078 69.05,23.426 57.946,31.805 64.345,40.306 78.466,29.674 85.512,39.021   "/>
		<path clip-path="url(#SVGID_2_)" fill="#58585A" d="M91.824,15.786c1.966,2.618,3.98,2.72,5.771,1.387    c1.776-1.348,2.233-3.309,0.258-5.932l-3.246-4.316L91.727,9.09l-6.131-8.136L99.979-9.888l18.267,24.238l-5.893,4.433    l-3.387-1.056c-0.837,3.878-2.701,6.808-6.131,9.387c-11.45,8.613-17.669,4.924-30.623-12.268    C59.814-1.616,59.206-10.676,70.311-19.056c6.156-4.633,13.445-6.516,19.552-2.54c1.902,1.246,3.756,3.27,6.418,6.788    L84.768-6.141l-1.932-2.54c-1.961-2.608-3.976-2.71-5.751-1.362c-1.791,1.343-2.239,3.294-0.277,5.897L91.824,15.786z"/>
		<polygon clip-path="url(#SVGID_2_)" fill="#58585A" points="124.942,9.309 92.077,-34.301 103.59,-42.973 136.446,0.638   "/>
		<path clip-path="url(#SVGID_2_)" fill="#58585A" d="M9.645,188.63l-32.88-43.629l12.949-9.757    c9.329-7.027,16.564-7.528,24.214,2.618c7.596,10.087,6.53,15.937-4.034,23.888l-1.985,1.499l12.817,17.007L9.645,188.63z     M1.781,155.112c3.708-2.788,4.852-4.7,1.187-9.557c-3.109-4.126-4.837-4.263-9.148-1.017L1.781,155.112z"/>
	</g>
	<polygon fill="#58585A" points="40.185,165.599 7.314,121.989 32.238,103.196 39.017,112.184 25.601,122.3 31.182,129.711    42.287,121.352 49.333,130.699 38.238,139.083 44.637,147.58 58.749,136.947 65.795,146.295  "/>
	<g>
		<defs>
			<rect id="SVGID_3_" width="510.437" height="507.138"/>
		</defs>
		<clipPath id="SVGID_4_">
			<use xlink:href="#SVGID_3_" overflow="visible"/>
		</clipPath>
		<path clip-path="url(#SVGID_4_)" fill="#58585A" d="M72.116,123.06c1.976,2.613,3.976,2.72,5.771,1.387    c1.771-1.343,2.233-3.319,0.258-5.927l-3.26-4.316l-2.866,2.161l-6.131-8.131l14.379-10.842l18.268,24.233l-5.888,4.438    l-3.387-1.056c-0.837,3.864-2.701,6.808-6.131,9.387c-11.45,8.608-17.669,4.924-30.623-12.268    c-12.399-16.462-13.007-25.522-1.907-33.902c6.16-4.637,13.455-6.521,19.566-2.545c1.893,1.246,3.747,3.27,6.409,6.789    l-11.513,8.671l-1.932-2.54c-1.966-2.613-3.966-2.725-5.752-1.377c-1.786,1.343-2.243,3.309-0.268,5.908L72.116,123.06z"/>
		<polygon clip-path="url(#SVGID_4_)" fill="#58585A" points="105.235,116.583 72.369,72.953 83.877,64.296 116.733,107.916   "/>
		<path clip-path="url(#SVGID_4_)" fill="#58585A" d="M137.896,91.979l-32.871-43.63l12.949-9.761    c9.324-7.012,16.56-7.523,24.214,2.633c7.596,10.087,6.53,15.937-4.034,23.888l-1.985,1.484l12.817,17.012L137.896,91.979z     M130.042,58.461c3.708-2.778,4.842-4.701,1.172-9.557c-3.109-4.126-4.822-4.263-9.138-1.017L130.042,58.461z"/>
	</g>
	<g>
		<defs>
			<rect id="SVGID_5_" width="505.571" height="505.58"/>
		</defs>
		<clipPath id="SVGID_6_">
			<use xlink:href="#SVGID_5_" overflow="visible"/>
		</clipPath>
		<polygon clip-path="url(#SVGID_6_)" fill="#58585A" points="168.431,68.958 135.565,25.348 160.5,6.545 167.278,15.542     153.842,25.659 159.434,33.061 170.533,24.71 177.589,34.058 166.49,42.428 172.898,50.929 187.01,40.296 194.056,49.654   "/>
		<path clip-path="url(#SVGID_6_)" fill="#58585A" d="M200.377,26.409c1.971,2.623,3.976,2.72,5.761,1.387    c1.781-1.343,2.238-3.309,0.268-5.932l-3.26-4.311l-2.871,2.17l-6.126-8.131L208.528,0.75l18.258,24.233l-5.888,4.438    l-3.382-1.065c-0.837,3.874-2.71,6.803-6.136,9.387c-11.44,8.618-17.659,4.924-30.618-12.258    C168.368,9.012,167.75-0.049,178.85-8.418c6.17-4.647,13.464-6.521,19.562-2.545c1.908,1.236,3.747,3.27,6.409,6.778    l-11.499,8.681l-1.932-2.555c-1.966-2.608-3.98-2.71-5.752-1.362c-1.786,1.333-2.243,3.299-0.268,5.908L200.377,26.409z"/>
		<polygon clip-path="url(#SVGID_6_)" fill="#58585A" points="233.496,19.932 200.63,-23.698 212.139,-32.36 244.995,11.26   "/>
		<path clip-path="url(#SVGID_6_)" fill="#58585A" d="M-10.068,295.899l-32.875-43.63L-30,242.513    c9.328-7.026,16.564-7.523,24.219,2.623c7.596,10.083,6.53,15.932-4.034,23.893l-1.985,1.489l12.827,17.012L-10.068,295.899z     M-17.927,262.391c3.703-2.803,4.842-4.71,1.183-9.562c-3.109-4.136-4.832-4.268-9.148-1.017L-17.927,262.391z"/>
		<polygon clip-path="url(#SVGID_6_)" fill="#58585A" points="20.472,272.873 -12.394,229.263 12.53,210.465 19.309,219.457     5.893,229.569 11.474,236.985 22.574,228.615 29.63,237.973 18.53,246.353 24.939,254.839 39.051,244.211 46.097,253.573   "/>
	</g>
	<g>
		<defs>
			<rect id="SVGID_7_" width="510.437" height="507.138"/>
		</defs>
		<clipPath id="SVGID_8_">
			<use xlink:href="#SVGID_7_" overflow="visible"/>
		</clipPath>
		<path clip-path="url(#SVGID_8_)" fill="#58585A" d="M52.408,230.333c1.971,2.613,3.976,2.72,5.761,1.377    c1.781-1.348,2.239-3.309,0.268-5.922l-3.26-4.316l-2.871,2.166l-6.126-8.131l14.379-10.847l18.267,24.238l-5.888,4.433    l-3.382-1.066c-0.847,3.878-2.71,6.818-6.136,9.401c-11.45,8.618-17.669,4.92-30.627-12.267    c-12.394-16.467-13.002-25.533-1.913-33.897c6.17-4.643,13.455-6.516,19.572-2.55c1.897,1.236,3.747,3.27,6.409,6.798    l-11.508,8.657l-1.937-2.54c-1.961-2.618-3.976-2.72-5.747-1.372c-1.795,1.343-2.243,3.294-0.268,5.917L52.408,230.333z"/>
		<polygon clip-path="url(#SVGID_8_)" fill="#58585A" points="85.537,223.856 52.666,180.236 64.169,171.565 97.035,215.185   "/>
		<path clip-path="url(#SVGID_8_)" fill="#58585A" d="M118.193,199.253l-32.875-43.629l12.944-9.757    c9.328-7.026,16.564-7.523,24.219,2.623c7.591,10.083,6.525,15.932-4.029,23.888l-1.99,1.494l12.822,17.012L118.193,199.253z     M110.33,165.74c3.708-2.793,4.856-4.706,1.188-9.557c-3.109-4.136-4.832-4.268-9.148-1.017L110.33,165.74z"/>
		<polygon clip-path="url(#SVGID_8_)" fill="#58585A" points="148.733,176.227 115.867,132.607 140.801,113.819 147.575,122.811     134.145,132.923 139.736,140.339 150.835,131.969 157.891,141.327 146.792,149.706 153.195,158.198 167.307,147.565     174.353,156.923   "/>
		<path clip-path="url(#SVGID_8_)" fill="#58585A" d="M180.665,133.687c1.976,2.613,3.976,2.71,5.771,1.377    c1.776-1.348,2.244-3.309,0.258-5.922l-3.246-4.316l-2.88,2.166l-6.131-8.131l14.384-10.847l18.277,24.238l-5.893,4.433    l-3.387-1.066c-0.847,3.878-2.71,6.818-6.141,9.392c-11.45,8.618-17.669,4.93-30.623-12.262    c-12.399-16.462-13.007-25.528-1.903-33.902c6.156-4.633,13.44-6.516,19.562-2.54c1.893,1.236,3.747,3.27,6.409,6.788    l-11.513,8.667l-1.922-2.54c-1.971-2.623-3.976-2.72-5.761-1.377c-1.781,1.348-2.239,3.299-0.268,5.913L180.665,133.687z"/>
		<polygon clip-path="url(#SVGID_8_)" fill="#58585A" points="213.783,127.21 180.917,83.581 192.431,74.919 225.296,118.539   "/>
		<path clip-path="url(#SVGID_8_)" fill="#58585A" d="M246.445,102.602l-32.871-43.629l12.949-9.757    c9.328-7.017,16.564-7.523,24.204,2.633c7.605,10.083,6.54,15.922-4.024,23.878l-1.985,1.494l12.817,17.012L246.445,102.602z     M238.581,69.089c3.718-2.784,4.842-4.706,1.188-9.557c-3.109-4.126-4.827-4.268-9.139-1.017L238.581,69.089z"/>
	</g>
	<g>
		<defs>
			<rect id="SVGID_9_" width="505.571" height="505.58"/>
		</defs>
		<clipPath id="SVGID_10_">
			<use xlink:href="#SVGID_9_" overflow="visible"/>
		</clipPath>
		<polygon clip-path="url(#SVGID_10_)" fill="#58585A" points="277,79.585 244.104,35.965 269.048,17.168 275.832,26.17     262.401,36.282 267.987,43.688 279.082,35.328 286.148,44.686 275.034,53.055 281.457,61.547 295.558,50.924 302.605,60.282   "/>
		<path clip-path="url(#SVGID_10_)" fill="#58585A" d="M308.921,37.036c1.985,2.618,3.971,2.71,5.761,1.387    c1.791-1.348,2.248-3.309,0.263-5.932l-3.26-4.316l-2.861,2.175l-6.132-8.146l14.385-10.842l18.268,24.248l-5.898,4.433    l-3.377-1.076c-0.847,3.888-2.705,6.817-6.141,9.396c-11.436,8.613-17.664,4.925-30.608-12.267    c-12.398-16.462-13.021-25.523-1.927-33.902c6.17-4.633,13.45-6.516,19.562-2.541c1.908,1.246,3.747,3.28,6.414,6.789    l-11.514,8.676l-1.917-2.55c-1.976-2.623-3.98-2.71-5.762-1.368c-1.78,1.338-2.229,3.299-0.263,5.913L308.921,37.036z"/>
		<polygon clip-path="url(#SVGID_10_)" fill="#58585A" points="342.049,30.559 309.174,-13.07 320.677,-21.732 353.553,21.888   "/>
		<path clip-path="url(#SVGID_10_)" fill="#58585A" d="M374.71,5.951l-32.885-43.629l12.953-9.757    c9.324-7.017,16.555-7.523,24.214,2.628c7.592,10.087,6.521,15.927-4.028,23.883l-1.995,1.494l12.837,17.021L374.71,5.951z     M366.847-27.562c3.698-2.784,4.837-4.706,1.188-9.557c-3.114-4.126-4.847-4.268-9.148-1.017L366.847-27.562z"/>
		<polygon clip-path="url(#SVGID_10_)" fill="#58585A" points="0.764,380.151 -32.092,336.531 -7.168,317.748 -0.394,326.73     -13.825,336.843 -8.233,344.259 2.866,335.898 9.922,345.251 -1.178,353.631 5.226,362.127 19.338,351.499 26.384,360.843   "/>
	</g>
	<g>
		<defs>
			<rect id="SVGID_11_" width="510.437" height="507.138"/>
		</defs>
		<clipPath id="SVGID_12_">
			<use xlink:href="#SVGID_11_" overflow="visible"/>
		</clipPath>
		<path clip-path="url(#SVGID_12_)" fill="#58585A" d="M32.71,337.611c1.961,2.608,3.966,2.716,5.757,1.382    c1.776-1.343,2.243-3.318,0.258-5.927l-3.246-4.321l-2.881,2.161l-6.131-8.127l14.394-10.842l18.258,24.243l-5.893,4.429    l-3.377-1.062c-0.847,3.884-2.71,6.813-6.141,9.401c-11.44,8.604-17.659,4.915-30.613-12.281    c-12.409-16.458-13.017-25.519-1.912-33.897c6.155-4.643,13.445-6.521,19.562-2.54c1.903,1.245,3.747,3.27,6.409,6.783    l-11.513,8.671l-1.922-2.54c-1.971-2.618-3.976-2.715-5.761-1.372c-1.781,1.343-2.229,3.309-0.268,5.917L32.71,337.611z"/>
		<polygon clip-path="url(#SVGID_12_)" fill="#58585A" points="65.819,331.13 32.949,287.51 44.472,278.839 77.328,322.458   "/>
		<path clip-path="url(#SVGID_12_)" fill="#58585A" d="M98.485,306.526l-32.871-43.629l12.949-9.752    c9.319-7.032,16.56-7.533,24.204,2.608c7.606,10.092,6.54,15.941-4.024,23.893l-1.985,1.489l12.817,17.012L98.485,306.526z     M90.631,273.009c3.708-2.793,4.842-4.7,1.173-9.557c-3.104-4.127-4.832-4.263-9.148-1.022L90.631,273.009z"/>
		<polygon clip-path="url(#SVGID_12_)" fill="#58585A" points="129.025,283.49 96.155,239.875 121.088,221.092 127.867,230.08     114.441,240.197 120.023,247.608 131.127,239.248 138.173,248.596 127.079,256.979 133.487,265.486 147.599,254.839     154.646,264.191   "/>
		<path clip-path="url(#SVGID_12_)" fill="#58585A" d="M160.966,240.956c1.961,2.613,3.976,2.72,5.762,1.387    c1.781-1.343,2.243-3.319,0.258-5.927l-3.241-4.316l-2.891,2.16l-6.126-8.131l14.399-10.842l18.258,24.233l-5.888,4.438    l-3.387-1.056c-0.847,3.874-2.71,6.808-6.141,9.387c-11.431,8.604-17.659,4.925-30.613-12.268    c-12.409-16.462-13.017-25.523-1.917-33.902c6.17-4.637,13.455-6.511,19.566-2.545c1.903,1.246,3.747,3.27,6.404,6.788    l-11.508,8.671l-1.922-2.54c-1.976-2.613-3.976-2.725-5.752-1.377c-1.795,1.343-2.243,3.309-0.277,5.908L160.966,240.956z"/>
		<polygon clip-path="url(#SVGID_12_)" fill="#58585A" points="194.076,234.479 161.21,190.859 172.718,182.192 205.589,225.813       "/>
		<path clip-path="url(#SVGID_12_)" fill="#58585A" d="M226.742,209.871l-32.875-43.62l12.954-9.747    c9.319-7.027,16.564-7.538,24.209,2.618c7.596,10.087,6.525,15.937-4.024,23.888l-1.985,1.484l12.808,17.002L226.742,209.871z     M218.893,176.363c3.693-2.778,4.832-4.701,1.172-9.557c-3.109-4.126-4.832-4.263-9.148-1.017L218.893,176.363z"/>
		<polygon clip-path="url(#SVGID_12_)" fill="#58585A" points="257.282,186.859 224.416,143.239 249.34,124.446 256.119,133.444     242.693,143.561 248.274,150.962 259.375,142.611 266.43,151.959 255.331,160.329 261.729,168.83 275.851,158.198     282.897,167.555   "/>
		<path clip-path="url(#SVGID_12_)" fill="#58585A" d="M289.223,144.31c1.966,2.623,3.98,2.72,5.761,1.387    c1.771-1.343,2.239-3.309,0.254-5.932l-3.241-4.311l-2.881,2.17l-6.141-8.131l14.394-10.841l18.268,24.238l-5.897,4.433    l-3.387-1.065c-0.837,3.874-2.696,6.803-6.132,9.387c-11.445,8.618-17.654,4.924-30.617-12.258    c-12.395-16.472-13.013-25.533-1.908-33.902c6.151-4.647,13.44-6.521,19.563-2.545c1.897,1.236,3.756,3.27,6.403,6.778    l-11.503,8.681l-1.928-2.555c-1.976-2.608-3.971-2.71-5.761-1.362c-1.791,1.333-2.239,3.299-0.264,5.897L289.223,144.31z"/>
		<polygon clip-path="url(#SVGID_12_)" fill="#58585A" points="322.332,137.833 289.476,94.213 300.969,85.542 333.845,129.162       "/>
		<path clip-path="url(#SVGID_12_)" fill="#58585A" d="M355.003,113.23l-32.886-43.635l12.954-9.751    c9.333-7.017,16.573-7.528,24.224,2.627c7.601,10.087,6.511,15.937-4.049,23.888l-1.966,1.484l12.817,17.012L355.003,113.23z     M347.139,79.712c3.698-2.778,4.847-4.701,1.188-9.557c-3.124-4.126-4.837-4.263-9.148-1.017L347.139,79.712z"/>
		<polygon clip-path="url(#SVGID_12_)" fill="#58585A" points="385.533,90.208 352.677,46.588 377.611,27.795 384.384,36.793     370.964,46.91 376.541,54.311 387.645,45.96 394.701,55.309 383.596,63.678 389.991,72.179 404.122,61.547 411.167,70.904   "/>
	</g>
	<g>
		<defs>
			<rect id="SVGID_13_" width="505.571" height="505.58"/>
		</defs>
		<clipPath id="SVGID_14_">
			<use xlink:href="#SVGID_13_" overflow="visible"/>
		</clipPath>
		<path clip-path="url(#SVGID_14_)" fill="#58585A" d="M417.494,47.659c1.946,2.623,3.961,2.72,5.742,1.387    c1.771-1.348,2.258-3.309,0.272-5.932l-3.26-4.311l-2.881,2.17l-6.122-8.131L425.621,22l18.268,24.233l-5.879,4.438l-3.387-1.065    c-0.837,3.873-2.715,6.803-6.131,9.387c-11.445,8.618-17.664,4.919-30.618-12.258c-12.418-16.477-13.021-25.533-1.907-33.907    c6.15-4.642,13.45-6.516,19.542-2.54c1.917,1.236,3.757,3.27,6.424,6.778l-11.514,8.681l-1.917-2.555    c-1.976-2.608-3.99-2.71-5.762-1.362c-1.791,1.333-2.238,3.299-0.282,5.897L417.494,47.659z"/>
		
			<rect x="412.607" y="7.829" transform="matrix(0.6017, 0.7988, -0.7988, 0.6017, 187.247, -345.393)" clip-path="url(#SVGID_14_)" fill="#58585A" width="54.61" height="14.414"/>
		<path clip-path="url(#SVGID_14_)" fill="#58585A" d="M483.254,16.574l-32.865-43.63l12.934-9.756    c9.323-7.002,16.574-7.523,24.214,2.632c7.602,10.087,6.54,15.937-4.02,23.888l-1.985,1.494l12.808,17.012L483.254,16.574z     M475.391-16.939c3.718-2.778,4.856-4.696,1.178-9.547c-3.095-4.136-4.817-4.277-9.148-1.017L475.391-16.939z"/>
		<polygon clip-path="url(#SVGID_14_)" fill="#58585A" points="-18.934,487.42 -51.805,443.819 -26.88,425.017 -20.102,434.01     -33.527,444.131 -27.946,451.537 -16.842,443.177 -9.795,452.521 -20.89,460.909 -14.481,469.396 -0.37,458.769 6.676,468.121       "/>
		<path clip-path="url(#SVGID_14_)" fill="#58585A" d="M12.998,444.89c1.966,2.608,3.966,2.716,5.761,1.373    c1.771-1.354,2.244-3.31,0.258-5.928l-3.251-4.311l-2.875,2.17l-6.131-8.136l14.379-10.842l18.267,24.233l-5.878,4.438    l-3.387-1.061c-0.847,3.863-2.71,6.803-6.141,9.392c-11.44,8.622-17.659,4.924-30.613-12.272    c-12.409-16.457-13.017-25.528-1.913-33.897c6.156-4.633,13.45-6.521,19.562-2.55c1.902,1.245,3.747,3.27,6.409,6.803    l-11.514,8.652l-1.922-2.531c-1.976-2.607-3.976-2.725-5.762-1.382c-1.781,1.343-2.233,3.31-0.268,5.917L12.998,444.89z"/>
	</g>
	<g>
		<defs>
			<rect id="SVGID_15_" width="510.437" height="507.138"/>
		</defs>
		<clipPath id="SVGID_16_">
			<use xlink:href="#SVGID_15_" overflow="visible"/>
		</clipPath>
		<polygon clip-path="url(#SVGID_16_)" fill="#58585A" points="46.116,438.408 13.25,394.788 24.759,386.107 57.629,429.737   "/>
		<path clip-path="url(#SVGID_16_)" fill="#58585A" d="M78.773,413.806l-32.875-43.64l12.954-9.752    c9.318-7.026,16.564-7.522,24.209,2.628c7.605,10.082,6.535,15.932-4.024,23.883l-1.985,1.499l12.817,17.012L78.773,413.806z     M70.924,380.287c3.703-2.793,4.832-4.71,1.173-9.557c-3.11-4.137-4.832-4.263-9.148-1.013L70.924,380.287z"/>
		<polygon clip-path="url(#SVGID_16_)" fill="#58585A" points="109.322,390.778 76.457,347.159 101.381,328.366 108.154,337.358     94.734,347.471 100.315,354.887 111.415,346.526 118.471,355.879 107.371,364.249 113.78,372.755 127.892,362.127 134.933,371.47       "/>
		<path clip-path="url(#SVGID_16_)" fill="#58585A" d="M141.259,348.229c1.961,2.618,3.966,2.715,5.756,1.382    c1.776-1.343,2.244-3.309,0.263-5.917l-3.251-4.321l-2.88,2.16l-6.126-8.126l14.399-10.842l18.257,24.233l-5.888,4.438    l-3.392-1.061c-0.847,3.874-2.71,6.813-6.136,9.382c-11.44,8.623-17.659,4.925-30.618-12.263    c-12.409-16.467-13.012-25.527-1.913-33.907c6.17-4.632,13.464-6.511,19.562-2.53c1.902,1.227,3.747,3.271,6.409,6.783    l-11.509,8.672l-1.927-2.55c-1.971-2.608-3.976-2.716-5.757-1.362c-1.786,1.343-2.233,3.309-0.272,5.897L141.259,348.229z"/>
		
			<rect x="136.389" y="308.405" transform="matrix(0.6018, 0.7986, -0.7986, 0.6018, 317.239, -5.0648)" clip-path="url(#SVGID_16_)" fill="#58585A" width="54.619" height="14.414"/>
		<path clip-path="url(#SVGID_16_)" fill="#58585A" d="M207.044,317.145l-32.875-43.62l12.944-9.761    c9.328-7.027,16.564-7.523,24.209,2.617c7.601,10.083,6.535,15.941-4.02,23.894l-1.99,1.488l12.813,17.013L207.044,317.145z     M199.18,283.637c3.708-2.793,4.842-4.701,1.178-9.558c-3.109-4.136-4.827-4.272-9.139-1.021L199.18,283.637z"/>
		<polygon clip-path="url(#SVGID_16_)" fill="#58585A" points="237.574,294.118 204.708,250.513 229.642,231.715 236.416,240.703     222.985,250.819 228.572,258.235 239.667,249.875 246.722,259.219 235.627,267.607 242.036,276.104 256.138,265.467     263.199,274.819   "/>
		<path clip-path="url(#SVGID_16_)" fill="#58585A" d="M269.505,251.583c1.976,2.613,3.99,2.71,5.771,1.377    c1.78-1.348,2.229-3.309,0.272-5.922l-3.261-4.316l-2.881,2.166l-6.121-8.131l14.374-10.847l18.268,24.238l-5.888,4.438    l-3.387-1.061c-0.856,3.863-2.706,6.803-6.151,9.382c-11.435,8.612-17.654,4.934-30.607-12.263    c-12.399-16.462-13.007-25.527-1.913-33.902c6.175-4.633,13.464-6.516,19.577-2.541c1.888,1.236,3.737,3.27,6.394,6.789    l-11.493,8.667l-1.941-2.54c-1.952-2.608-3.967-2.72-5.743-1.373c-1.8,1.343-2.248,3.304-0.277,5.908L269.505,251.583z"/>
		<polygon clip-path="url(#SVGID_16_)" fill="#58585A" points="302.625,245.106 269.758,201.487 281.262,192.815 314.137,236.435       "/>
		<path clip-path="url(#SVGID_16_)" fill="#58585A" d="M335.295,220.494l-32.896-43.62l12.964-9.757    c9.323-7.017,16.574-7.523,24.214,2.633c7.61,10.083,6.521,15.922-4.029,23.878l-1.985,1.503l12.827,16.993L335.295,220.494z     M327.431,186.991c3.699-2.784,4.848-4.706,1.188-9.557c-3.124-4.126-4.847-4.268-9.148-1.017L327.431,186.991z"/>
		<polygon clip-path="url(#SVGID_16_)" fill="#58585A" points="365.826,197.487 332.959,153.867 357.894,135.069 364.677,144.071     351.256,154.183 356.833,161.589 367.937,153.239 374.993,162.587 363.888,170.957 370.292,179.458 384.404,168.825     391.451,178.183   "/>
		<path clip-path="url(#SVGID_16_)" fill="#58585A" d="M397.776,154.938c1.957,2.618,3.972,2.71,5.752,1.387    c1.771-1.348,2.248-3.309,0.263-5.932l-3.25-4.316l-2.881,2.175l-6.122-8.146l14.375-10.842l18.258,24.248l-5.879,4.433    l-3.367-1.066c-0.856,3.878-2.725,6.808-6.15,9.387c-11.436,8.613-17.654,4.925-30.608-12.268    c-12.418-16.462-13.012-25.522-1.917-33.902c6.16-4.632,13.45-6.516,19.562-2.54c1.908,1.246,3.737,3.28,6.414,6.789    l-11.523,8.676l-1.917-2.55c-1.966-2.608-3.98-2.71-5.762-1.363c-1.771,1.333-2.229,3.294-0.272,5.908L397.776,154.938z"/>
		<polygon clip-path="url(#SVGID_16_)" fill="#58585A" points="430.895,148.456 398.01,104.836 409.533,96.169 442.389,139.789       "/>
	</g>
	<g>
		<defs>
			<rect id="SVGID_17_" width="505.571" height="505.58"/>
		</defs>
		<clipPath id="SVGID_18_">
			<use xlink:href="#SVGID_17_" overflow="visible"/>
		</clipPath>
		<path clip-path="url(#SVGID_18_)" fill="#58585A" d="M463.546,123.853l-32.875-43.629l12.963-9.757    c9.295-7.017,16.545-7.523,24.194,2.633c7.611,10.083,6.54,15.922-4.01,23.878l-2.004,1.494l12.827,17.022L463.546,123.853z     M455.703,90.34c3.698-2.784,4.827-4.706,1.168-9.557c-3.104-4.126-4.827-4.268-9.148-1.017L455.703,90.34z"/>
		<polygon clip-path="url(#SVGID_18_)" fill="#58585A" points="494.086,100.836 461.231,57.216 486.145,38.418 492.928,47.416     479.488,57.532 485.084,64.938 496.189,56.588 503.235,65.936 492.14,74.306 498.563,82.807 512.656,72.174 519.702,81.532   "/>
		<path clip-path="url(#SVGID_18_)" fill="#58585A" d="M526.028,58.287c1.966,2.618,3.99,2.71,5.771,1.382    c1.771-1.343,2.229-3.309,0.243-5.927l-3.231-4.316l-2.881,2.175l-6.141-8.146l14.394-10.842l18.258,24.248l-5.897,4.433    l-3.377-1.066c-0.847,3.878-2.696,6.808-6.142,9.387c-11.436,8.613-17.654,4.924-30.617-12.268    c-12.39-16.462-13.002-25.522-1.907-33.902c6.16-4.632,13.469-6.516,19.571-2.54c1.897,1.246,3.747,3.28,6.394,6.784    l-11.513,8.681l-1.917-2.55c-1.966-2.613-3.972-2.71-5.762-1.367c-1.781,1.338-2.229,3.299-0.253,5.903L526.028,58.287z"/>
		<polygon clip-path="url(#SVGID_18_)" fill="#58585A" points="26.409,545.687 -6.462,502.058 5.051,493.396 37.907,537.016   "/>
		<path clip-path="url(#SVGID_18_)" fill="#58585A" d="M59.065,521.074l-32.866-43.62l12.944-9.762    c9.329-7.017,16.564-7.522,24.219,2.618c7.591,10.083,6.525,15.941-4.039,23.883l-1.98,1.499l12.813,17.012L59.065,521.074z     M51.211,487.557c3.708-2.784,4.847-4.691,1.188-9.558c-3.109-4.116-4.832-4.263-9.148-1.012L51.211,487.557z"/>
	</g>
	<g>
		<defs>
			<rect id="SVGID_19_" width="510.437" height="507.138"/>
		</defs>
		<clipPath id="SVGID_20_">
			<use xlink:href="#SVGID_19_" overflow="visible"/>
		</clipPath>
		<polygon clip-path="url(#SVGID_20_)" fill="#58585A" points="89.615,498.048 56.739,454.438 81.673,435.645 88.447,444.637     75.036,454.759 80.617,462.165 91.717,453.805 98.772,463.147 87.673,471.537 94.067,480.033 108.179,469.396 115.225,478.749       "/>
		<path clip-path="url(#SVGID_20_)" fill="#58585A" d="M121.546,455.518c1.976,2.608,3.98,2.716,5.762,1.382    c1.786-1.343,2.243-3.309,0.268-5.937l-3.255-4.312l-2.871,2.161l-6.131-8.127l14.384-10.842l18.268,24.233l-5.893,4.438    l-3.387-1.062c-0.837,3.884-2.701,6.803-6.131,9.392c-11.45,8.623-17.669,4.925-30.623-12.272    c-12.399-16.457-13.007-25.527-1.913-33.896c6.166-4.643,13.455-6.521,19.572-2.551c1.893,1.246,3.747,3.271,6.409,6.794    l-11.513,8.661l-1.932-2.53c-1.961-2.618-3.976-2.715-5.751-1.372c-1.791,1.353-2.238,3.299-0.268,5.907L121.546,455.518z"/>
		<polygon clip-path="url(#SVGID_20_)" fill="#58585A" points="154.665,449.036 121.79,405.416 133.313,396.745 166.178,440.364       "/>
		<path clip-path="url(#SVGID_20_)" fill="#58585A" d="M187.336,424.433l-32.88-43.639l12.949-9.752    c9.329-7.018,16.56-7.533,24.214,2.618c7.596,10.092,6.53,15.932-4.024,23.893l-1.995,1.489l12.817,17.012L187.336,424.433z     M179.472,390.915c3.708-2.793,4.852-4.71,1.188-9.557c-3.114-4.127-4.837-4.263-9.153-1.022L179.472,390.915z"/>
		<polygon clip-path="url(#SVGID_20_)" fill="#58585A" points="217.876,401.396 184.996,357.786 209.929,338.993 216.708,347.996     203.282,358.107 208.874,365.514 219.978,357.145 227.024,366.497 215.929,374.876 222.328,383.382 236.44,372.745     243.477,382.098   "/>
		<path clip-path="url(#SVGID_20_)" fill="#58585A" d="M249.797,358.857c1.976,2.627,3.985,2.725,5.771,1.382    c1.771-1.344,2.233-3.31,0.268-5.927l-3.255-4.312l-2.881,2.16l-6.122-8.136l14.37-10.842l18.271,24.233l-5.878,4.438    l-3.406-1.051c-0.817,3.873-2.696,6.803-6.117,9.401c-11.459,8.604-17.678,4.905-30.622-12.282    c-12.399-16.467-13.007-25.518-1.908-33.907c6.161-4.633,13.445-6.521,19.557-2.54c1.893,1.246,3.747,3.27,6.418,6.783    l-11.513,8.682l-1.941-2.55c-1.957-2.608-3.957-2.706-5.742-1.363c-1.781,1.344-2.243,3.3-0.268,5.908L249.797,358.857z"/>
		<polygon clip-path="url(#SVGID_20_)" fill="#58585A" points="282.917,352.375 250.061,308.756 261.569,300.104 294.429,343.714       "/>
		<path clip-path="url(#SVGID_20_)" fill="#58585A" d="M315.578,327.772l-32.855-43.62l12.924-9.762    c9.333-7.007,16.584-7.522,24.224,2.628c7.601,10.093,6.54,15.932-4.02,23.893l-1.985,1.479l12.808,17.012L315.578,327.772z     M307.724,294.255c3.708-2.774,4.837-4.691,1.178-9.558c-3.114-4.126-4.817-4.263-9.148-1.012L307.724,294.255z"/>
		<polygon clip-path="url(#SVGID_20_)" fill="#58585A" points="346.118,304.756 313.261,261.146 338.196,242.353 344.969,251.35     331.539,261.457 337.125,268.854 348.22,260.503 355.266,269.855 344.181,278.235 350.575,286.731 364.707,276.094     371.752,285.456   "/>
		<path clip-path="url(#SVGID_20_)" fill="#58585A" d="M378.069,262.206c1.976,2.638,3.961,2.734,5.751,1.392    c1.791-1.343,2.249-3.309,0.273-5.937l-3.251-4.312l-2.881,2.171l-6.131-8.132l14.403-10.842l18.238,24.238l-5.878,4.429    l-3.388-1.062c-0.847,3.874-2.725,6.803-6.131,9.392c-11.445,8.623-17.664,4.925-30.617-12.263    c-12.399-16.472-13.022-25.532-1.918-33.902c6.161-4.647,13.46-6.521,19.553-2.545c1.907,1.236,3.746,3.27,6.423,6.778    l-11.514,8.681l-1.927-2.54c-1.976-2.623-3.98-2.72-5.752-1.377c-1.79,1.343-2.238,3.299-0.272,5.907L378.069,262.206z"/>
		<polygon clip-path="url(#SVGID_20_)" fill="#58585A" points="411.187,255.734 378.312,212.109 389.815,203.448 422.671,247.058       "/>
		<path clip-path="url(#SVGID_20_)" fill="#58585A" d="M443.83,231.122l-32.856-43.61l12.944-9.766    c9.333-7.007,16.563-7.528,24.224,2.627c7.581,10.087,6.511,15.937-4.039,23.878l-1.985,1.494l12.808,17.002L443.83,231.122z     M435.985,197.613c3.698-2.779,4.847-4.701,1.168-9.557c-3.095-4.126-4.817-4.263-9.129-1.017L435.985,197.613z"/>
	</g>
	<g>
		<defs>
			<rect id="SVGID_21_" width="505.571" height="505.58"/>
		</defs>
		<clipPath id="SVGID_22_">
			<use xlink:href="#SVGID_21_" overflow="visible"/>
		</clipPath>
		<polygon clip-path="url(#SVGID_22_)" fill="#58585A" points="474.388,208.104 441.523,164.495 466.437,145.702 473.22,154.699     459.81,164.815 465.396,172.222 476.471,163.867 483.537,173.214 472.452,181.58 478.846,190.081 492.948,179.443     499.994,188.801   "/>
		<path clip-path="url(#SVGID_22_)" fill="#58585A" d="M506.31,165.56c1.985,2.633,3.99,2.73,5.781,1.387    c1.771-1.343,2.229-3.309,0.263-5.932l-3.261-4.312l-2.88,2.17l-6.112-8.131l14.365-10.842l18.267,24.233l-5.897,4.438    l-3.377-1.066c-0.827,3.874-2.705,6.803-6.121,9.387c-11.455,8.627-17.684,4.924-30.628-12.258    c-12.398-16.472-13.021-25.533-1.917-33.902c6.18-4.647,13.469-6.521,19.571-2.545c1.888,1.236,3.747,3.27,6.404,6.778    l-11.504,8.681l-1.937-2.54c-1.956-2.623-3.961-2.725-5.742-1.377c-1.781,1.343-2.248,3.299-0.282,5.907L506.31,165.56z"/>
		<path clip-path="url(#SVGID_22_)" fill="#58585A" d="M167.614,531.702l-32.875-43.63l12.954-9.742    c9.318-7.026,16.564-7.533,24.209,2.618c7.605,10.082,6.525,15.932-4.029,23.893l-1.99,1.489l12.827,17.012L167.614,531.702z     M159.75,498.184c3.708-2.783,4.856-4.7,1.188-9.557c-3.11-4.127-4.832-4.263-9.148-1.003L159.75,498.184z"/>
		<polygon clip-path="url(#SVGID_22_)" fill="#58585A" points="198.153,508.685 165.278,465.065 190.222,446.272 197,455.265     183.565,465.386 189.156,472.802 200.26,464.433 207.312,473.785 196.212,482.155 202.611,490.651 216.732,480.023     223.778,489.386   "/>
	</g>
	<g>
		<defs>
			<rect id="SVGID_23_" width="510.437" height="507.138"/>
		</defs>
		<clipPath id="SVGID_24_">
			<use xlink:href="#SVGID_23_" overflow="visible"/>
		</clipPath>
		<path clip-path="url(#SVGID_24_)" fill="#58585A" d="M230.1,466.136c1.961,2.618,3.966,2.715,5.761,1.392    c1.771-1.353,2.229-3.309,0.258-5.937l-3.25-4.302l-2.88,2.16l-6.126-8.136l14.379-10.842l18.268,24.233l-5.878,4.438    l-3.402-1.051c-0.847,3.863-2.701,6.793-6.136,9.382c-11.44,8.613-17.659,4.925-30.618-12.263    c-12.394-16.477-13.002-25.537-1.903-33.907c6.161-4.643,13.455-6.521,19.562-2.54c1.907,1.236,3.747,3.271,6.409,6.783    l-11.519,8.672l-1.917-2.55c-1.971-2.608-3.976-2.716-5.757-1.362c-1.786,1.343-2.233,3.299-0.272,5.897L230.1,466.136z"/>
		<polygon clip-path="url(#SVGID_24_)" fill="#58585A" points="263.208,459.664 230.343,416.044 241.841,407.362 274.722,450.982       "/>
		<path clip-path="url(#SVGID_24_)" fill="#58585A" d="M295.879,435.051l-32.895-43.63l12.963-9.752    c9.324-7.026,16.564-7.532,24.214,2.628c7.602,10.083,6.521,15.932-4.039,23.883l-1.994,1.499l12.836,17.012L295.879,435.051z     M288.016,401.543c3.698-2.784,4.837-4.711,1.188-9.558c-3.124-4.126-4.847-4.272-9.148-1.012L288.016,401.543z"/>
		<polygon clip-path="url(#SVGID_24_)" fill="#58585A" points="326.4,412.034 293.544,368.414 318.478,349.631 325.251,358.614     311.84,368.726 317.417,376.142 328.522,367.791 335.568,377.134 324.473,385.504 330.867,394.01 344.989,383.372     352.035,392.726   "/>
		<path clip-path="url(#SVGID_24_)" fill="#58585A" d="M358.361,369.484c1.946,2.618,3.961,2.726,5.742,1.382    c1.78-1.343,2.258-3.309,0.272-5.927l-3.251-4.312l-2.881,2.171l-6.131-8.137l14.374-10.842l18.287,24.243l-5.897,4.429    l-3.377-1.062c-0.847,3.874-2.716,6.804-6.142,9.383c-11.445,8.622-17.654,4.934-30.617-12.263    c-12.419-16.468-13.013-25.528-1.907-33.897c6.15-4.643,13.449-6.512,19.552-2.54c1.917,1.235,3.747,3.27,6.413,6.793    l-11.503,8.661l-1.928-2.55c-1.966-2.608-3.99-2.705-5.761-1.362c-1.781,1.343-2.229,3.289-0.272,5.897L358.361,369.484z"/>
		<polygon clip-path="url(#SVGID_24_)" fill="#58585A" points="391.451,363.022 358.594,319.383 370.118,310.722 402.973,354.341       "/>
		<path clip-path="url(#SVGID_24_)" fill="#58585A" d="M424.122,338.399l-32.866-43.619l12.935-9.752    c9.333-7.026,16.574-7.533,24.224,2.618c7.601,10.092,6.54,15.932-4.029,23.893l-1.985,1.499l12.817,17.002L424.122,338.399z     M416.287,304.882c3.688-2.783,4.837-4.7,1.158-9.557c-3.104-4.127-4.817-4.263-9.139-1.003L416.287,304.882z"/>
	</g>
	<g>
		<defs>
			<rect id="SVGID_25_" width="505.571" height="505.58"/>
		</defs>
		<clipPath id="SVGID_26_">
			<use xlink:href="#SVGID_25_" overflow="visible"/>
		</clipPath>
		<polygon clip-path="url(#SVGID_26_)" fill="#58585A" points="454.671,315.393 421.795,271.772 446.73,252.97 453.503,261.973     440.083,272.084 445.659,279.5 456.773,271.131 463.819,280.493 452.724,288.853 459.119,297.369 473.24,286.722 480.287,296.084       "/>
		<path clip-path="url(#SVGID_26_)" fill="#58585A" d="M486.612,272.844c1.966,2.618,3.962,2.725,5.742,1.372    c1.791-1.343,2.258-3.299,0.272-5.917l-3.25-4.312l-2.871,2.17l-6.142-8.136l14.404-10.842l18.268,24.224l-5.908,4.447    l-3.387-1.061c-0.837,3.873-2.695,6.803-6.131,9.372c-11.426,8.633-17.654,4.935-30.618-12.253    c-12.398-16.477-13.012-25.538-1.907-33.897c6.15-4.642,13.45-6.516,19.562-2.54c1.908,1.226,3.757,3.26,6.404,6.773    l-11.504,8.681l-1.927-2.55c-1.976-2.623-3.99-2.72-5.762-1.377c-1.79,1.348-2.238,3.299-0.253,5.913L486.612,272.844z"/>
		<polygon clip-path="url(#SVGID_26_)" fill="#58585A" points="519.721,266.362 486.866,222.737 498.359,214.075 531.235,257.681       "/>
		<path clip-path="url(#SVGID_26_)" fill="#58585A" d="M276.163,542.329l-32.886-43.639l12.959-9.742    c9.318-7.018,16.578-7.533,24.209,2.617c7.61,10.093,6.54,15.941-4.029,23.884l-1.976,1.498l12.817,17.013L276.163,542.329z     M268.298,508.812c3.698-2.783,4.837-4.701,1.188-9.557c-3.114-4.127-4.847-4.264-9.148-1.013L268.298,508.812z"/>
		<polygon clip-path="url(#SVGID_26_)" fill="#58585A" points="306.702,519.313 273.827,475.683 298.77,456.899 305.553,465.893     292.114,476.014 297.709,483.41 308.804,475.05 315.85,484.403 304.755,492.782 311.16,501.278 325.281,490.651 332.327,500.014       "/>
	</g>
	<g>
		<defs>
			<rect id="SVGID_27_" width="510.437" height="507.138"/>
		</defs>
		<clipPath id="SVGID_28_">
			<use xlink:href="#SVGID_27_" overflow="visible"/>
		</clipPath>
		<path clip-path="url(#SVGID_28_)" fill="#58585A" d="M338.643,476.754c1.956,2.627,3.971,2.725,5.762,1.392    c1.791-1.344,2.248-3.31,0.263-5.928l-3.261-4.301l-2.861,2.16l-6.131-8.136L346.78,451.1l18.267,24.233l-5.878,4.438l-3.377-1.07    c-0.847,3.873-2.726,6.813-6.142,9.401c-11.435,8.603-17.663,4.914-30.607-12.263c-12.398-16.477-13.021-25.538-1.927-33.907    c6.17-4.652,13.459-6.521,19.562-2.55c1.907,1.245,3.747,3.27,6.414,6.793l-11.514,8.672l-1.917-2.551    c-1.976-2.617-3.98-2.715-5.762-1.372c-1.781,1.344-2.229,3.31-0.282,5.917L338.643,476.754z"/>
		<polygon clip-path="url(#SVGID_28_)" fill="#58585A" points="371.752,470.291 338.896,426.671 350.4,418 383.255,461.61   "/>
		<path clip-path="url(#SVGID_28_)" fill="#58585A" d="M404.414,445.679l-32.865-43.62l12.934-9.771    c9.323-6.997,16.574-7.522,24.214,2.638c7.61,10.092,6.54,15.932-4,23.883l-2.005,1.479l12.817,17.031L404.414,445.679z     M396.57,412.16c3.698-2.773,4.837-4.7,1.168-9.557c-3.096-4.126-4.827-4.263-9.148-1.003L396.57,412.16z"/>
		<polygon clip-path="url(#SVGID_28_)" fill="#58585A" points="434.963,422.661 402.078,379.042 427.022,360.259 433.805,369.251     420.365,379.354 425.96,386.76 437.055,378.409 444.112,387.762 433.007,396.132 439.43,404.628 453.533,393.99 460.579,403.353       "/>
	</g>
	<g>
		<defs>
			<rect id="SVGID_29_" width="505.571" height="505.58"/>
		</defs>
		<clipPath id="SVGID_30_">
			<use xlink:href="#SVGID_29_" overflow="visible"/>
		</clipPath>
		<path clip-path="url(#SVGID_30_)" fill="#58585A" d="M466.895,380.112c1.976,2.628,3.99,2.715,5.771,1.382    c1.781-1.343,2.229-3.299,0.254-5.937l-3.241-4.302l-2.881,2.18l-6.131-8.146l14.384-10.842l18.268,24.233l-5.897,4.447    l-3.378-1.07c-0.856,3.874-2.705,6.793-6.141,9.382c-11.436,8.623-17.664,4.925-30.617-12.263    c-12.39-16.467-13.013-25.527-1.918-33.907c6.171-4.632,13.45-6.511,19.582-2.53c1.888,1.227,3.736,3.271,6.394,6.783    l-11.513,8.682l-1.928-2.56c-1.966-2.608-3.98-2.716-5.752-1.362c-1.78,1.343-2.229,3.289-0.263,5.917L466.895,380.112z"/>
		<polygon clip-path="url(#SVGID_30_)" fill="#58585A" points="500.023,373.641 467.128,330.021 478.651,321.349 511.527,364.959       "/>
		<path clip-path="url(#SVGID_30_)" fill="#58585A" d="M532.685,349.027l-32.886-43.62l12.954-9.771    c9.323-7.008,16.573-7.523,24.214,2.627c7.591,10.103,6.54,15.941-4.029,23.894l-1.976,1.488l12.817,17.013L532.685,349.027z     M524.821,315.51c3.698-2.783,4.827-4.711,1.188-9.558c-3.114-4.126-4.847-4.263-9.148-1.012L524.821,315.51z"/>
		<path clip-path="url(#SVGID_30_)" fill="#58585A" d="M392.151,547.352l-32.865-43.63l12.934-9.762    c9.323-7.007,16.574-7.514,24.214,2.628c7.61,10.102,6.54,15.941-4.029,23.902l-1.976,1.479l12.817,17.021L392.151,547.352z     M384.288,513.833c3.718-2.783,4.847-4.69,1.188-9.537c-3.114-4.146-4.847-4.282-9.148-1.032L384.288,513.833z"/>
		<polygon clip-path="url(#SVGID_30_)" fill="#58585A" points="422.701,524.334 389.825,480.705 414.759,461.932 421.533,470.914     408.112,481.026 413.689,488.451 424.793,480.082 431.839,489.435 420.745,497.805 427.148,506.301 441.26,495.673     448.306,505.016   "/>
	</g>
	<g>
		<defs>
			<rect id="SVGID_31_" width="510.437" height="507.138"/>
		</defs>
		<clipPath id="SVGID_32_">
			<use xlink:href="#SVGID_31_" overflow="visible"/>
		</clipPath>
		<path clip-path="url(#SVGID_32_)" fill="#58585A" d="M454.632,481.795c1.956,2.608,3.971,2.725,5.752,1.382    c1.771-1.353,2.248-3.309,0.263-5.927l-3.251-4.321l-2.881,2.17l-6.121-8.136l14.394-10.842l18.268,24.233l-5.907,4.438    l-3.367-1.061c-0.857,3.873-2.726,6.813-6.151,9.392c-11.436,8.623-17.654,4.925-30.607-12.272    c-12.419-16.467-13.013-25.527-1.918-33.897c6.161-4.632,13.45-6.521,19.563-2.54c1.907,1.236,3.737,3.261,6.413,6.783    l-11.513,8.682l-1.928-2.55c-1.966-2.618-3.98-2.726-5.761-1.382c-1.771,1.343-2.229,3.309-0.272,5.917L454.632,481.795z"/>
	</g>
	<g>
		<defs>
			<rect id="SVGID_33_" width="505.571" height="505.58"/>
		</defs>
		<clipPath id="SVGID_34_">
			<use xlink:href="#SVGID_33_" overflow="visible"/>
		</clipPath>
		<polygon clip-path="url(#SVGID_34_)" fill="#58585A" points="487.75,475.313 454.875,431.693 466.388,423.031 499.245,466.632       "/>
		<path clip-path="url(#SVGID_34_)" fill="#58585A" d="M520.422,450.7l-32.896-43.62l12.964-9.761    c9.323-7.018,16.545-7.533,24.194,2.617c7.61,10.093,6.54,15.932-4.01,23.893l-2.005,1.489l12.847,17.021L520.422,450.7z     M512.558,417.192c3.698-2.793,4.827-4.701,1.168-9.558c-3.095-4.126-4.827-4.272-9.129-1.021L512.558,417.192z"/>
	</g>
	<g>
		<defs>
			<rect id="SVGID_35_" width="510.437" height="507.138"/>
		</defs>
		<clipPath id="SVGID_36_">
			<use xlink:href="#SVGID_35_" overflow="visible"/>
		</clipPath>
		<path clip-path="url(#SVGID_36_)" d="M138.675,226.645c0-35.527,28.803-64.286,64.291-64.286    c35.518,0,64.311,28.759,64.311,64.286c0,35.493-28.793,64.291-64.311,64.291C167.478,290.936,138.675,262.138,138.675,226.645"/>
		<path clip-path="url(#SVGID_36_)" d="M194.825,170.66c0-35.479,28.792-64.257,64.291-64.257c35.509,0,64.326,28.778,64.326,64.257    c0,35.518-28.817,64.292-64.326,64.292C223.618,234.951,194.825,206.178,194.825,170.66"/>
		<path clip-path="url(#SVGID_36_)" fill="#FFFFFF" d="M372.005,35.445h-76.048v34.841h33.976l-27.377,27.367    c-13.868-9.139-30.102-14.073-47.114-14.073c-22.954,0-44.501,8.91-60.734,25.133c-9.844,9.869-16.949,21.688-21.056,34.613    c-33.425,11.718-57.483,43.601-57.483,80.982c0,41.255,29.202,75.766,68.004,83.979v32.467H154.11v34.861h30.063v33.839h34.842    v-33.839h30.087v-34.861h-30.087v-32.291c30.656-6.181,55.435-28.691,64.827-58.083c11.999-4.209,23.046-10.993,32.311-20.243    c16.194-16.224,25.119-37.771,25.119-60.709c0-17.002-4.905-33.255-14.093-47.119l27.387-27.377v33.941h34.842v-93.43H372.005z     M202.022,275.345c-28.131,0-51.002-22.9-51.002-51.036c0-16.365,7.82-30.943,19.849-40.282    c2.973,17.372,11.124,33.406,23.849,46.111c13.285,13.275,30.199,21.586,48.486,24.166    C233.915,267.023,218.946,275.345,202.022,275.345 M204.616,173.453c25.581,1.304,46.223,21.455,48.223,46.851    c-12.647-0.647-24.467-5.801-33.474-14.822C210.674,196.806,205.55,185.56,204.616,173.453 M291.5,205.482    c-1.538,1.538-3.183,2.919-4.886,4.268c-6.248-36.467-35.571-65.109-72.335-70.408c1.547-2.112,3.202-4.117,5.065-6    c9.654-9.605,22.462-14.919,36.097-14.919c13.596,0,26.423,5.314,36.058,14.919c9.664,9.645,14.948,22.453,14.948,36.087    C306.449,183.068,301.165,195.856,291.5,205.482"/>
		<path clip-path="url(#SVGID_36_)" d="M0,505.58h505.571V0H0V505.58z M495.468,495.459H10.107V10.107h485.361V495.459z"/>
		<rect y="424.686" clip-path="url(#SVGID_36_)" width="505.581" height="80.895"/>
		<path clip-path="url(#SVGID_36_)" fill="#FFFFFF" d="M223.078,453.61c-0.161-5.917-1.903-7.592-4.637-7.592    c-2.418,0-3.713,1.675-3.713,3.65c0,6.53,20.496,11.844,20.496,27.026c0,10.919-6.604,15.474-17.158,15.474    c-13.435,0-15.937-9.323-15.937-19.036h11.839v2.491c0,3.641,1.971,6.385,5.012,6.385c2.569,0,4.394-1.528,4.394-4.408    c0-7.212-20.486-12.817-20.486-27.484c0-9.178,7.285-14.277,15.625-14.277c9.567,0,16.092,6.316,16.092,15.426v2.346H223.078z"/>
		<polygon clip-path="url(#SVGID_36_)" fill="#FFFFFF" points="241.257,491.265 241.257,436.764 268.882,436.764 268.882,447.995     254.002,447.995 254.002,457.27 266.313,457.27 266.313,468.948 254.002,468.948 254.002,479.576 269.651,479.576     269.651,491.265   "/>
		<polygon clip-path="url(#SVGID_36_)" fill="#FFFFFF" points="295.042,462.651 305.515,491.265 293.233,491.265 288.6,475.333     288.435,475.333 283.967,491.265 271.666,491.265 282.138,462.563 272.269,436.754 284.571,436.754 288.435,450.885     288.6,450.885 292.61,436.754 304.912,436.754   "/>
		<path clip-path="url(#SVGID_36_)" fill="#FFFFFF" d="M452.763,20.224v3.757h-7.99v25.333h-4.7V23.98h-8v-3.757H452.763z     M485.347,49.313h-4.691v-22.91h-0.146l-8.049,22.91h-3.834l-7.659-22.91h-0.146v22.91h-4.691v-29.09h7.455l7.261,21.635h0.126    l7.066-21.635h7.309V49.313z"/>
	</g>
</g>
</svg>