<?xml version="1.0" encoding="UTF-8"?>
<!-- Generator: Adobe Illustrator 15.0.0, SVG Export Plug-In . SVG Version: 6.00 Build 0)  -->
<!DOCTYPE svg PUBLIC "-//W3C//DTD SVG 1.1//EN" "http://www.w3.org/Graphics/SVG/1.1/DTD/svg11.dtd">
<svg version="1.1" id="Ebene_1" xmlns="http://www.w3.org/2000/svg" xmlns:xlink="http://www.w3.org/1999/xlink" x="0px" y="0px" width="484.527px" height="484.535px" viewBox="0 0 484.527 484.535" enable-background="new 0 0 484.527 484.535" xml:space="preserve">
<g>
	<rect y="-0.009" width="484.527" height="484.535"/>
	<polygon fill="#58585A" points="0,99.158 7.857,93.242 0,82.81  "/>
	<g>
		<g>
			<g>
				<defs>
					<rect id="SVGID_1_" width="482.05" height="484.535"/>
				</defs>
				<clipPath id="SVGID_2_">
					<use xlink:href="#SVGID_1_" overflow="visible"/>
				</clipPath>
				<path clip-path="url(#SVGID_2_)" fill="#58585A" d="M28.125,77.964L-3.37,36.149l12.401-9.342      c8.937-6.731,15.873-7.215,23.2,2.509c7.28,9.654,6.256,15.272-3.845,22.888l-1.918,1.438l12.289,16.292L28.125,77.964z       M20.593,45.846c3.547-2.677,4.646-4.511,1.136-9.161c-2.988-3.957-4.618-4.092-8.77-0.973L20.593,45.846z"/>
			</g>
		</g>
		<g>
			<g>
				<defs>
					<rect id="SVGID_3_" width="482.05" height="484.535"/>
				</defs>
				<clipPath id="SVGID_4_">
					<use xlink:href="#SVGID_3_" overflow="visible"/>
				</clipPath>
				<polygon clip-path="url(#SVGID_4_)" fill="#58585A" points="57.404,55.896 25.891,14.104 49.798,-3.915 56.296,4.715       43.421,14.407 48.774,21.51 59.406,13.494 66.174,22.455 55.533,30.48 61.668,38.621 75.195,28.432 81.954,37.393     "/>
			</g>
		</g>
		<g>
			<g>
				<defs>
					<rect id="SVGID_5_" width="482.05" height="484.535"/>
				</defs>
				<clipPath id="SVGID_6_">
					<use xlink:href="#SVGID_5_" overflow="visible"/>
				</clipPath>
				<path clip-path="url(#SVGID_6_)" fill="#58585A" d="M88.005,15.128c1.89,2.509,3.817,2.612,5.53,1.327      c1.694-1.289,2.132-3.174,0.261-5.684l-3.119-4.129l-2.765,2.072l-5.875-7.802l13.788-10.39l17.502,23.232l-5.642,4.25      l-3.258-1.01c-0.801,3.71-2.588,6.521-5.865,9.002c-10.976,8.244-16.935,4.707-29.344-11.763      C57.33-1.545,56.743-10.231,67.384-18.257c5.902-4.45,12.894-6.247,18.731-2.439c1.834,1.192,3.612,3.124,6.163,6.507      L81.237-5.884l-1.843-2.439c-1.88-2.5-3.808-2.593-5.521-1.308c-1.713,1.29-2.141,3.166-0.261,5.665L88.005,15.128z"/>
			</g>
		</g>
		<g>
			<g>
				<defs>
					<rect id="SVGID_7_" width="482.05" height="484.535"/>
				</defs>
				<clipPath id="SVGID_8_">
					<use xlink:href="#SVGID_7_" overflow="visible"/>
				</clipPath>
				<polygon clip-path="url(#SVGID_8_)" fill="#58585A" points="119.742,8.918 88.238,-32.882 99.279,-41.187 130.765,0.609     "/>
			</g>
		</g>
		<g>
			<g>
				<defs>
					<rect id="SVGID_9_" width="482.05" height="484.535"/>
				</defs>
				<clipPath id="SVGID_10_">
					<use xlink:href="#SVGID_9_" overflow="visible"/>
				</clipPath>
				<path clip-path="url(#SVGID_10_)" fill="#58585A" d="M9.235,180.776l-31.495-41.814l12.4-9.342      c8.938-6.74,15.873-7.215,23.209,2.509c7.271,9.654,6.247,15.272-3.863,22.888l-1.909,1.438l12.289,16.292L9.235,180.776z       M1.704,148.658c3.547-2.681,4.646-4.51,1.136-9.161c-2.979-3.957-4.618-4.092-8.761-0.973L1.704,148.658z"/>
			</g>
		</g>
	</g>
	<polygon fill="#58585A" points="38.515,158.708 7.001,116.902 30.899,98.897 37.397,107.514 24.531,117.209 29.894,124.322    40.525,116.302 47.284,125.267 36.643,133.292 42.778,141.434 56.296,131.244 63.055,140.205  "/>
	<g>
		<g>
			<g>
				<defs>
					<rect id="SVGID_11_" width="482.05" height="485.122"/>
				</defs>
				<clipPath id="SVGID_12_">
					<use xlink:href="#SVGID_11_" overflow="visible"/>
				</clipPath>
				<path clip-path="url(#SVGID_12_)" fill="#58585A" d="M69.116,117.94c1.899,2.495,3.817,2.611,5.53,1.322      c1.694-1.285,2.132-3.184,0.261-5.679l-3.128-4.129l-2.756,2.067l-5.875-7.797l13.788-10.39l17.502,23.233l-5.642,4.25      l-3.258-1.01c-0.801,3.701-2.588,6.512-5.865,8.998c-10.976,8.249-16.934,4.711-29.344-11.763      c-11.889-15.775-12.475-24.461-1.834-32.486c5.902-4.455,12.894-6.247,18.741-2.444c1.825,1.191,3.603,3.128,6.153,6.512      l-11.041,8.304l-1.843-2.438c-1.881-2.5-3.798-2.602-5.521-1.317c-1.704,1.285-2.141,3.174-0.251,5.674L69.116,117.94z"/>
			</g>
		</g>
		<g>
			<g>
				<defs>
					<rect id="SVGID_13_" width="482.05" height="485.122"/>
				</defs>
				<clipPath id="SVGID_14_">
					<use xlink:href="#SVGID_13_" overflow="visible"/>
				</clipPath>
				<polygon clip-path="url(#SVGID_14_)" fill="#58585A" points="100.853,111.731 69.349,69.916 80.39,61.616 111.885,103.417           "/>
			</g>
		</g>
		<g>
			<g>
				<defs>
					<rect id="SVGID_15_" width="482.05" height="485.122"/>
				</defs>
				<clipPath id="SVGID_16_">
					<use xlink:href="#SVGID_15_" overflow="visible"/>
				</clipPath>
				<path clip-path="url(#SVGID_16_)" fill="#58585A" d="M132.152,88.145l-31.504-41.81l12.419-9.342      c8.928-6.731,15.873-7.215,23.2,2.518c7.271,9.654,6.256,15.268-3.864,22.888l-1.899,1.429l12.289,16.292L132.152,88.145z       M124.63,56.031c3.547-2.672,4.636-4.511,1.126-9.161c-2.989-3.957-4.618-4.091-8.751-0.973L124.63,56.031z"/>
			</g>
		</g>
	</g>
	<g>
		<g>
			<g>
				<defs>
					<rect id="SVGID_17_" width="482.05" height="484.535"/>
				</defs>
				<clipPath id="SVGID_18_">
					<use xlink:href="#SVGID_17_" overflow="visible"/>
				</clipPath>
				<polygon clip-path="url(#SVGID_18_)" fill="#58585A" points="161.422,66.09 129.927,24.284 153.825,6.27 160.314,14.896       147.448,24.591 152.801,31.695 163.433,23.684 170.192,32.645 159.551,40.665 165.705,48.806 179.222,38.617 185.981,47.586           "/>
			</g>
		</g>
		<g>
			<g>
				<defs>
					<rect id="SVGID_19_" width="482.05" height="484.535"/>
				</defs>
				<clipPath id="SVGID_20_">
					<use xlink:href="#SVGID_19_" overflow="visible"/>
				</clipPath>
				<path clip-path="url(#SVGID_20_)" fill="#58585A" d="M192.032,25.313c1.899,2.504,3.817,2.611,5.521,1.322      c1.713-1.285,2.15-3.175,0.27-5.679l-3.128-4.129l-2.755,2.076l-5.875-7.797l13.788-10.39l17.493,23.232l-5.642,4.25      l-3.24-1.021c-0.8,3.71-2.606,6.521-5.884,8.998c-10.967,8.257-16.925,4.71-29.335-11.754      C161.357,8.639,160.77-0.047,171.411-8.063c5.902-4.464,12.894-6.247,18.741-2.444c1.825,1.183,3.603,3.128,6.145,6.503      L185.264,4.31l-1.834-2.453c-1.89-2.495-3.817-2.593-5.521-1.303c-1.704,1.275-2.151,3.166-0.261,5.66L192.032,25.313z"/>
			</g>
		</g>
		<g>
			<g>
				<defs>
					<rect id="SVGID_21_" width="482.05" height="484.535"/>
				</defs>
				<clipPath id="SVGID_22_">
					<use xlink:href="#SVGID_21_" overflow="visible"/>
				</clipPath>
				<polygon clip-path="url(#SVGID_22_)" fill="#58585A" points="223.779,19.104 192.265,-22.711 203.307,-31.011 234.792,10.79           "/>
			</g>
		</g>
		<g>
			<g>
				<defs>
					<rect id="SVGID_23_" width="482.05" height="484.535"/>
				</defs>
				<clipPath id="SVGID_24_">
					<use xlink:href="#SVGID_23_" overflow="visible"/>
				</clipPath>
				<path clip-path="url(#SVGID_24_)" fill="#58585A" d="M-9.654,283.584l-31.504-41.815l12.41-9.342      c8.938-6.74,15.873-7.22,23.209,2.504c7.271,9.665,6.247,15.269-3.864,22.893l-1.908,1.443l12.298,16.291L-9.654,283.584z       M-17.186,251.465c3.547-2.681,4.646-4.506,1.136-9.161c-2.979-3.966-4.618-4.092-8.761-0.973L-17.186,251.465z"/>
			</g>
		</g>
		<g>
			<g>
				<defs>
					<rect id="SVGID_25_" width="482.05" height="484.535"/>
				</defs>
				<clipPath id="SVGID_26_">
					<use xlink:href="#SVGID_25_" overflow="visible"/>
				</clipPath>
				<polygon clip-path="url(#SVGID_26_)" fill="#58585A" points="19.625,261.52 -11.888,219.71 12.019,201.7 18.508,210.321       5.651,220.017 11.004,227.125 21.636,219.1 28.395,228.07 17.754,236.1 23.898,244.232 37.416,234.038 44.175,243.012     "/>
			</g>
		</g>
	</g>
	<g>
		<g>
			<g>
				<defs>
					<rect id="SVGID_27_" width="482.05" height="485.122"/>
				</defs>
				<clipPath id="SVGID_28_">
					<use xlink:href="#SVGID_27_" overflow="visible"/>
				</clipPath>
				<path clip-path="url(#SVGID_28_)" fill="#58585A" d="M50.226,220.743c1.899,2.5,3.817,2.602,5.521,1.317      c1.704-1.29,2.141-3.174,0.27-5.674l-3.128-4.124l-2.755,2.067l-5.875-7.797l13.788-10.394l17.502,23.232l-5.642,4.254      l-3.25-1.019c-0.81,3.705-2.597,6.531-5.874,8.998c-10.977,8.258-16.935,4.72-29.345-11.753      c-11.888-15.78-12.475-24.471-1.843-32.491c5.912-4.44,12.903-6.242,18.75-2.439c1.825,1.182,3.603,3.137,6.154,6.512      l-11.042,8.304l-1.843-2.444c-1.88-2.504-3.808-2.602-5.521-1.313c-1.713,1.285-2.142,3.165-0.251,5.669L50.226,220.743z"/>
			</g>
		</g>
		<g>
			<g>
				<defs>
					
						<rect id="SVGID_29_" x="-71.572" y="-201.146" transform="matrix(0.2756, -0.9613, 0.9613, 0.2756, 82.9449, 192.844)" width="481.996" height="485.066"/>
				</defs>
				<clipPath id="SVGID_30_">
					<use xlink:href="#SVGID_29_" overflow="visible"/>
				</clipPath>
				
					<rect x="45.563" y="182.57" transform="matrix(0.6018, 0.7986, -0.7986, 0.6018, 179.884, 18.1561)" clip-path="url(#SVGID_30_)" fill="#58585A" width="52.343" height="13.814"/>
			</g>
		</g>
		<g>
			<g>
				<defs>
					<rect id="SVGID_31_" width="482.05" height="485.122"/>
				</defs>
				<clipPath id="SVGID_32_">
					<use xlink:href="#SVGID_31_" overflow="visible"/>
				</clipPath>
				<path clip-path="url(#SVGID_32_)" fill="#58585A" d="M113.272,190.957l-31.504-41.81l12.41-9.342      c8.928-6.74,15.873-7.22,23.2,2.504c7.271,9.659,6.256,15.273-3.854,22.888l-1.899,1.443l12.289,16.292L113.272,190.957z       M105.74,158.838c3.547-2.677,4.646-4.497,1.136-9.161c-2.988-3.966-4.627-4.087-8.76-0.973L105.74,158.838z"/>
			</g>
		</g>
		<g>
			<g>
				<defs>
					<rect id="SVGID_33_" width="482.05" height="485.122"/>
				</defs>
				<clipPath id="SVGID_34_">
					<use xlink:href="#SVGID_33_" overflow="visible"/>
				</clipPath>
				<polygon clip-path="url(#SVGID_34_)" fill="#58585A" points="142.542,168.888 111.038,127.087 134.945,109.078 141.434,117.698       128.568,127.39 133.921,134.502 144.553,126.478 151.312,135.447 140.67,143.472 146.824,151.604 160.342,141.415       167.101,150.385     "/>
			</g>
		</g>
		<g>
			<g>
				<defs>
					<rect id="SVGID_35_" width="482.05" height="485.122"/>
				</defs>
				<clipPath id="SVGID_36_">
					<use xlink:href="#SVGID_35_" overflow="visible"/>
				</clipPath>
				<path clip-path="url(#SVGID_36_)" fill="#58585A" d="M173.152,128.121c1.88,2.5,3.808,2.602,5.521,1.317      c1.704-1.29,2.15-3.175,0.261-5.674l-3.119-4.124l-2.765,2.066l-5.875-7.797l13.788-10.394l17.502,23.232l-5.632,4.254      l-3.249-1.02c-0.81,3.706-2.607,6.531-5.884,8.998c-10.976,8.258-16.935,4.72-29.344-11.753      c-11.889-15.78-12.466-24.471-1.825-32.491c5.893-4.45,12.885-6.242,18.74-2.439c1.815,1.182,3.603,3.128,6.145,6.512      l-11.042,8.304l-1.825-2.444c-1.899-2.504-3.817-2.602-5.53-1.313c-1.704,1.285-2.141,3.166-0.261,5.67L173.152,128.121z"/>
			</g>
		</g>
		<g>
			<g>
				<defs>
					<rect id="SVGID_37_" width="482.05" height="485.122"/>
				</defs>
				<clipPath id="SVGID_38_">
					<use xlink:href="#SVGID_37_" overflow="visible"/>
				</clipPath>
				<polygon clip-path="url(#SVGID_38_)" fill="#58585A" points="204.889,121.916 173.385,80.101 184.417,71.796 215.931,113.602           "/>
			</g>
		</g>
		<g>
			<g>
				<defs>
					<rect id="SVGID_39_" width="482.05" height="485.122"/>
				</defs>
				<clipPath id="SVGID_40_">
					<use xlink:href="#SVGID_39_" overflow="visible"/>
				</clipPath>
				<path clip-path="url(#SVGID_40_)" fill="#58585A" d="M236.179,98.33l-31.485-41.815l12.4-9.342      c8.938-6.731,15.873-7.215,23.2,2.518c7.28,9.659,6.256,15.264-3.863,22.879l-1.899,1.443l12.288,16.292L236.179,98.33z       M228.647,66.211c3.557-2.667,4.636-4.506,1.136-9.161c-2.979-3.957-4.617-4.087-8.751-0.973L228.647,66.211z"/>
			</g>
		</g>
	</g>
	<g>
		<g>
			<g>
				<defs>
					<rect id="SVGID_41_" width="482.05" height="484.535"/>
				</defs>
				<clipPath id="SVGID_42_">
					<use xlink:href="#SVGID_41_" overflow="visible"/>
				</clipPath>
				<polygon clip-path="url(#SVGID_42_)" fill="#58585A" points="265.468,76.27 233.945,34.469 257.854,16.45 264.352,25.08       251.477,34.772 256.837,41.875 267.471,33.859 274.229,42.829 263.587,50.845 269.742,58.977 283.25,48.797 290.007,57.767           "/>
			</g>
		</g>
		<g>
			<g>
				<defs>
					<rect id="SVGID_43_" width="482.05" height="484.535"/>
				</defs>
				<clipPath id="SVGID_44_">
					<use xlink:href="#SVGID_43_" overflow="visible"/>
				</clipPath>
				<path clip-path="url(#SVGID_44_)" fill="#58585A" d="M296.068,35.493c1.897,2.509,3.809,2.602,5.512,1.327      c1.713-1.29,2.15-3.175,0.271-5.684l-3.129-4.129l-2.745,2.081l-5.886-7.811l13.797-10.39l17.504,23.242l-5.659,4.254      l-3.24-1.033c-0.812,3.719-2.588,6.531-5.873,9.002c-10.969,8.253-16.928,4.715-29.346-11.758      c-11.879-15.775-12.478-24.461-1.834-32.486c5.901-4.455,12.885-6.247,18.729-2.439c1.845,1.191,3.604,3.133,6.164,6.507      l-11.043,8.313l-1.834-2.448c-1.897-2.509-3.815-2.593-5.529-1.308c-1.702,1.28-2.133,3.166-0.241,5.665L296.068,35.493z"/>
			</g>
		</g>
		<g>
			<g>
				<defs>
					<rect id="SVGID_45_" width="482.05" height="484.535"/>
				</defs>
				<clipPath id="SVGID_46_">
					<use xlink:href="#SVGID_45_" overflow="visible"/>
				</clipPath>
				<polygon clip-path="url(#SVGID_46_)" fill="#58585A" points="327.806,29.284 296.292,-12.526 307.333,-20.831 338.837,20.975           "/>
			</g>
		</g>
		<g>
			<g>
				<defs>
					<rect id="SVGID_47_" width="482.05" height="484.535"/>
				</defs>
				<clipPath id="SVGID_48_">
					<use xlink:href="#SVGID_47_" overflow="visible"/>
				</clipPath>
				<path clip-path="url(#SVGID_48_)" fill="#58585A" d="M359.115,5.702l-31.517-41.806l12.42-9.352      c8.931-6.731,15.863-7.215,23.199,2.518c7.265,9.654,6.248,15.264-3.86,22.879l-1.908,1.438L369.755-2.32L359.115,5.702z       M351.583-26.417c3.537-2.667,4.627-4.511,1.135-9.161c-2.998-3.957-4.637-4.091-8.76-0.973L351.583-26.417z"/>
			</g>
		</g>
		<g>
			<g>
				<defs>
					<rect id="SVGID_49_" width="482.05" height="484.535"/>
				</defs>
				<clipPath id="SVGID_50_">
					<use xlink:href="#SVGID_49_" overflow="visible"/>
				</clipPath>
				<polygon clip-path="url(#SVGID_50_)" fill="#58585A" points="0.735,364.318 -30.769,322.518 -6.861,304.512 -0.372,313.133       -13.238,322.825 -7.885,329.938 2.747,321.921 9.505,330.877 -1.136,338.912 5.018,347.048 18.536,336.855 25.295,345.82           "/>
			</g>
		</g>
	</g>
	<g>
		<g>
			<g>
				<defs>
					<rect id="SVGID_51_" width="482.05" height="485.122"/>
				</defs>
				<clipPath id="SVGID_52_">
					<use xlink:href="#SVGID_51_" overflow="visible"/>
				</clipPath>
				<path clip-path="url(#SVGID_52_)" fill="#58585A" d="M31.346,323.561c1.89,2.494,3.808,2.605,5.521,1.321      c1.694-1.284,2.141-3.185,0.251-5.679l-3.109-4.135l-2.765,2.065l-5.875-7.792l13.797-10.398l17.493,23.238l-5.642,4.254      l-3.249-1.016c-0.81,3.705-2.598,6.518-5.875,9.002c-10.967,8.239-16.925,4.711-29.335-11.758      c-11.898-15.789-12.484-24.466-1.843-32.491c5.902-4.448,12.894-6.247,18.74-2.438c1.834,1.191,3.603,3.119,6.154,6.509      l-11.042,8.295l-1.834-2.438c-1.89-2.494-3.808-2.598-5.521-1.313c-1.713,1.294-2.141,3.175-0.261,5.67L31.346,323.561z"/>
			</g>
		</g>
		<g>
			<g>
				<defs>
					<rect id="SVGID_53_" width="482.05" height="485.122"/>
				</defs>
				<clipPath id="SVGID_54_">
					<use xlink:href="#SVGID_53_" overflow="visible"/>
				</clipPath>
				<polygon clip-path="url(#SVGID_54_)" fill="#58585A" points="63.074,317.341 31.579,275.541 42.62,267.236 74.106,309.037           "/>
			</g>
		</g>
		<g>
			<g>
				<defs>
					<rect id="SVGID_55_" width="482.05" height="485.122"/>
				</defs>
				<clipPath id="SVGID_56_">
					<use xlink:href="#SVGID_55_" overflow="visible"/>
				</clipPath>
				<path clip-path="url(#SVGID_56_)" fill="#58585A" d="M94.382,293.77L62.897,251.95l12.4-9.347      c8.919-6.736,15.873-7.211,23.19,2.514c7.29,9.652,6.266,15.268-3.845,22.883l-1.909,1.443l12.289,16.291L94.382,293.77z       M86.86,261.65c3.547-2.683,4.636-4.506,1.126-9.16c-2.989-3.967-4.627-4.098-8.761-0.979L86.86,261.65z"/>
			</g>
		</g>
		<g>
			<g>
				<defs>
					<rect id="SVGID_57_" width="482.05" height="485.122"/>
				</defs>
				<clipPath id="SVGID_58_">
					<use xlink:href="#SVGID_57_" overflow="visible"/>
				</clipPath>
				<polygon clip-path="url(#SVGID_58_)" fill="#58585A" points="123.652,271.696 92.157,229.895 116.056,211.885 122.544,220.501       109.678,230.197 115.041,237.31 125.663,229.294 132.422,238.255 121.781,246.28 127.935,254.426 141.453,244.232       148.211,253.197     "/>
			</g>
		</g>
		<g>
			<g>
				<defs>
					<rect id="SVGID_59_" width="482.05" height="485.122"/>
				</defs>
				<clipPath id="SVGID_60_">
					<use xlink:href="#SVGID_59_" overflow="visible"/>
				</clipPath>
				<path clip-path="url(#SVGID_60_)" fill="#58585A" d="M154.263,230.928c1.89,2.5,3.817,2.611,5.521,1.327      c1.713-1.29,2.151-3.184,0.261-5.684l-3.119-4.129l-2.765,2.071l-5.875-7.801l13.797-10.39l17.502,23.23l-5.642,4.25      l-3.249-1.01c-0.81,3.71-2.606,6.512-5.884,9.002c-10.967,8.244-16.925,4.706-29.335-11.768      c-11.898-15.775-12.475-24.461-1.834-32.486c5.902-4.455,12.885-6.247,18.741-2.439c1.825,1.192,3.603,3.124,6.144,6.508      l-11.041,8.304l-1.825-2.439c-1.899-2.5-3.817-2.602-5.521-1.317c-1.713,1.29-2.141,3.175-0.27,5.674L154.263,230.928z"/>
			</g>
		</g>
		<g>
			<g>
				<defs>
					<rect id="SVGID_61_" width="482.05" height="485.122"/>
				</defs>
				<clipPath id="SVGID_62_">
					<use xlink:href="#SVGID_61_" overflow="visible"/>
				</clipPath>
				<polygon clip-path="url(#SVGID_62_)" fill="#58585A" points="186,224.719 154.505,182.918 165.527,174.604 197.032,216.405           "/>
			</g>
		</g>
		<g>
			<g>
				<defs>
					<rect id="SVGID_63_" width="482.05" height="485.122"/>
				</defs>
				<clipPath id="SVGID_64_">
					<use xlink:href="#SVGID_63_" overflow="visible"/>
				</clipPath>
				<path clip-path="url(#SVGID_64_)" fill="#58585A" d="M217.299,201.142l-31.495-41.815l12.41-9.342      c8.928-6.731,15.873-7.215,23.2,2.519c7.271,9.654,6.247,15.272-3.854,22.888l-1.908,1.429l12.279,16.292L217.299,201.142z       M209.777,169.023c3.538-2.672,4.636-4.501,1.126-9.161c-2.979-3.957-4.618-4.092-8.761-0.973L209.777,169.023z"/>
			</g>
		</g>
		<g>
			<g>
				<defs>
					<rect id="SVGID_65_" width="482.05" height="485.122"/>
				</defs>
				<clipPath id="SVGID_66_">
					<use xlink:href="#SVGID_65_" overflow="visible"/>
				</clipPath>
				<polygon clip-path="url(#SVGID_66_)" fill="#58585A" points="246.578,179.082 215.064,137.281 238.963,119.262 245.46,127.888       232.585,137.584 237.948,144.688 248.589,136.681 255.339,145.642 244.697,153.657 250.833,161.799 264.359,151.609       271.119,160.579     "/>
			</g>
		</g>
		<g>
			<g>
				<defs>
					<rect id="SVGID_67_" width="482.05" height="485.122"/>
				</defs>
				<clipPath id="SVGID_68_">
					<use xlink:href="#SVGID_67_" overflow="visible"/>
				</clipPath>
				<path clip-path="url(#SVGID_68_)" fill="#58585A" d="M277.18,138.306c1.897,2.504,3.815,2.611,5.528,1.322      c1.694-1.285,2.133-3.17,0.242-5.679l-3.101-4.129l-2.766,2.081l-5.885-7.802L285,113.709l17.502,23.232l-5.66,4.25l-3.238-1.02      c-0.811,3.71-2.588,6.512-5.885,9.003c-10.957,8.253-16.916,4.706-29.324-11.758c-11.891-15.785-12.483-24.471-1.846-32.486      c5.902-4.464,12.887-6.247,18.76-2.439c1.814,1.178,3.594,3.124,6.137,6.499l-11.041,8.313l-1.836-2.449      c-1.897-2.5-3.797-2.593-5.528-1.308c-1.703,1.28-2.131,3.165-0.242,5.665L277.18,138.306z"/>
			</g>
		</g>
		<g>
			<g>
				<defs>
					<rect id="SVGID_69_" width="482.05" height="485.122"/>
				</defs>
				<clipPath id="SVGID_70_">
					<use xlink:href="#SVGID_69_" overflow="visible"/>
				</clipPath>
				<polygon clip-path="url(#SVGID_70_)" fill="#58585A" points="308.916,132.096 277.421,90.281 288.443,81.981 319.958,123.782           "/>
			</g>
		</g>
		<g>
			<g>
				<defs>
					<rect id="SVGID_71_" width="482.05" height="485.122"/>
				</defs>
				<clipPath id="SVGID_72_">
					<use xlink:href="#SVGID_71_" overflow="visible"/>
				</clipPath>
				<path clip-path="url(#SVGID_72_)" fill="#58585A" d="M340.224,108.51L308.703,66.7l12.428-9.342      c8.928-6.731,15.883-7.215,23.199,2.518c7.291,9.654,6.248,15.268-3.863,22.888l-1.889,1.429l12.289,16.292L340.224,108.51z       M332.693,76.396c3.539-2.672,4.637-4.51,1.137-9.161c-2.998-3.957-4.637-4.092-8.762-0.973L332.693,76.396z"/>
			</g>
		</g>
		<g>
			<g>
				<defs>
					<rect id="SVGID_73_" width="482.05" height="485.122"/>
				</defs>
				<clipPath id="SVGID_74_">
					<use xlink:href="#SVGID_73_" overflow="visible"/>
				</clipPath>
				<polygon clip-path="url(#SVGID_74_)" fill="#58585A" points="369.486,86.455 337.99,44.649 361.898,26.635 368.386,35.26       355.521,44.957 360.875,52.06 371.505,44.049 378.265,53.01 367.625,61.03 373.767,69.171 387.294,58.977 394.054,67.952           "/>
			</g>
		</g>
	</g>
	<g>
		<g>
			<g>
				<defs>
					<rect id="SVGID_75_" width="482.05" height="484.535"/>
				</defs>
				<clipPath id="SVGID_76_">
					<use xlink:href="#SVGID_75_" overflow="visible"/>
				</clipPath>
				<path clip-path="url(#SVGID_76_)" fill="#58585A" d="M400.105,45.678c1.87,2.504,3.809,2.611,5.512,1.322      c1.703-1.285,2.16-3.174,0.27-5.679l-3.127-4.129l-2.766,2.076l-5.865-7.797l13.779-10.39l17.502,23.233l-5.633,4.25      l-3.24-1.019c-0.812,3.709-2.615,6.521-5.883,8.998c-10.97,8.258-16.926,4.711-29.336-11.753      c-11.906-15.785-12.478-24.471-1.834-32.486c5.893-4.464,12.885-6.247,18.729-2.444c1.834,1.182,3.604,3.128,6.154,6.503      l-11.041,8.313l-1.826-2.448c-1.897-2.5-3.826-2.593-5.529-1.308c-1.702,1.275-2.141,3.165-0.27,5.66L400.105,45.678z"/>
			</g>
		</g>
		<g>
			<g>
				<defs>
					<rect id="SVGID_77_" width="482.05" height="484.535"/>
				</defs>
				<clipPath id="SVGID_78_">
					<use xlink:href="#SVGID_77_" overflow="visible"/>
				</clipPath>
				<polygon clip-path="url(#SVGID_78_)" fill="#58585A" points="431.833,39.468 400.33,-2.337 411.371,-10.646 442.865,31.155           "/>
			</g>
		</g>
		<g>
			<g>
				<defs>
					<rect id="SVGID_79_" width="482.05" height="484.535"/>
				</defs>
				<clipPath id="SVGID_80_">
					<use xlink:href="#SVGID_79_" overflow="visible"/>
				</clipPath>
				<path clip-path="url(#SVGID_80_)" fill="#58585A" d="M463.132,15.882l-31.483-41.801l12.391-9.352      c8.938-6.722,15.883-7.22,23.201,2.514c7.289,9.659,6.264,15.272-3.855,22.893l-1.889,1.438l12.279,16.292L463.132,15.882z       M455.601-16.236c3.558-2.667,4.654-4.487,1.138-9.151c-2.972-3.966-4.617-4.097-8.763-0.968L455.601-16.236z"/>
			</g>
		</g>
		<g>
			<g>
				<defs>
					<rect id="SVGID_81_" width="482.05" height="484.535"/>
				</defs>
				<clipPath id="SVGID_82_">
					<use xlink:href="#SVGID_81_" overflow="visible"/>
				</clipPath>
				<polygon clip-path="url(#SVGID_82_)" fill="#58585A" points="-18.145,467.135 -49.658,425.334 -25.75,407.33 -19.262,415.941       -32.128,425.632 -26.775,432.745 -16.143,424.739 -9.384,433.695 -20.025,441.719 -13.872,449.856 -0.354,439.671       6.405,448.627     "/>
			</g>
		</g>
		<g>
			<g>
				<defs>
					<rect id="SVGID_83_" width="482.05" height="484.535"/>
				</defs>
				<clipPath id="SVGID_84_">
					<use xlink:href="#SVGID_83_" overflow="visible"/>
				</clipPath>
				<path clip-path="url(#SVGID_84_)" fill="#58585A" d="M12.457,426.368c1.89,2.495,3.808,2.598,5.521,1.313      c1.695-1.282,2.142-3.174,0.261-5.669l-3.119-4.125l-2.765,2.067l-5.875-7.802l13.788-10.392L37.77,425l-5.633,4.245      l-3.249-1.006c-0.819,3.694-2.606,6.518-5.884,8.982c-10.967,8.26-16.925,4.722-29.335-11.759      c-11.898-15.771-12.484-24.466-1.843-32.48c5.902-4.459,12.903-6.246,18.741-2.447c1.834,1.191,3.603,3.128,6.153,6.517      l-11.041,8.306l-1.834-2.438c-1.89-2.495-3.808-2.604-5.521-1.321c-1.713,1.284-2.141,3.186-0.261,5.68L12.457,426.368z"/>
			</g>
		</g>
	</g>
	<g>
		<g>
			<g>
				<defs>
					<rect id="SVGID_85_" width="482.05" height="485.122"/>
				</defs>
				<clipPath id="SVGID_86_">
					<use xlink:href="#SVGID_85_" overflow="visible"/>
				</clipPath>
				<polygon clip-path="url(#SVGID_86_)" fill="#58585A" points="44.203,420.159 12.689,378.348 23.73,370.043 55.226,411.844           "/>
			</g>
		</g>
		<g>
			<g>
				<defs>
					<rect id="SVGID_87_" width="482.05" height="485.122"/>
				</defs>
				<clipPath id="SVGID_88_">
					<use xlink:href="#SVGID_87_" overflow="visible"/>
				</clipPath>
				<path clip-path="url(#SVGID_88_)" fill="#58585A" d="M75.493,396.577l-31.495-41.812l12.41-9.348      c8.919-6.739,15.874-7.215,23.191,2.516c7.29,9.645,6.265,15.268-3.845,22.883l-1.908,1.435l12.289,16.292L75.493,396.577z       M67.971,364.458c3.547-2.681,4.636-4.515,1.126-9.16c-2.988-3.966-4.627-4.087-8.761-0.978L67.971,364.458z"/>
			</g>
		</g>
		<g>
			<g>
				<defs>
					<rect id="SVGID_89_" width="482.05" height="485.122"/>
				</defs>
				<clipPath id="SVGID_90_">
					<use xlink:href="#SVGID_89_" overflow="visible"/>
				</clipPath>
				<polygon clip-path="url(#SVGID_90_)" fill="#58585A" points="104.772,374.503 73.268,332.703 97.166,314.698 103.655,323.318       90.789,333.009 96.142,340.123 106.783,332.107 113.533,341.063 102.901,349.087 109.045,357.234 122.563,347.04       129.322,356.004     "/>
			</g>
		</g>
		<g>
			<g>
				<defs>
					<rect id="SVGID_91_" width="482.05" height="485.122"/>
				</defs>
				<clipPath id="SVGID_92_">
					<use xlink:href="#SVGID_91_" overflow="visible"/>
				</clipPath>
				<path clip-path="url(#SVGID_92_)" fill="#58585A" d="M135.382,333.745c1.881,2.495,3.798,2.598,5.512,1.304      c1.704-1.283,2.15-3.165,0.261-5.66l-3.119-4.134l-2.765,2.067l-5.875-7.803l13.797-10.391l17.502,23.236l-5.642,4.244      l-3.25-1.015c-0.81,3.714-2.606,6.525-5.883,9.003c-10.967,8.248-16.925,4.711-29.335-11.759      c-11.897-15.78-12.475-24.476-1.834-32.481c5.902-4.459,12.894-6.256,18.75-2.447c1.815,1.183,3.594,3.128,6.135,6.508      l-11.042,8.306l-1.825-2.438c-1.899-2.495-3.817-2.598-5.53-1.313c-1.704,1.294-2.132,3.175-0.261,5.669L135.382,333.745z"/>
			</g>
		</g>
		<g>
			<g>
				<defs>
					<rect id="SVGID_93_" width="482.05" height="485.122"/>
				</defs>
				<clipPath id="SVGID_94_">
					<use xlink:href="#SVGID_93_" overflow="visible"/>
				</clipPath>
				<polygon clip-path="url(#SVGID_94_)" fill="#58585A" points="167.12,327.525 135.615,285.716 146.647,277.421 178.161,319.223           "/>
			</g>
		</g>
		<g>
			<g>
				<defs>
					<rect id="SVGID_95_" width="482.05" height="485.122"/>
				</defs>
				<clipPath id="SVGID_96_">
					<use xlink:href="#SVGID_95_" overflow="visible"/>
				</clipPath>
				<path clip-path="url(#SVGID_96_)" fill="#58585A" d="M198.419,303.945l-31.495-41.801l12.401-9.356      c8.937-6.74,15.873-7.215,23.2,2.514c7.28,9.654,6.256,15.27-3.854,22.884l-1.899,1.442l12.28,16.292L198.419,303.945z       M190.887,271.835c3.547-2.683,4.646-4.517,1.126-9.161c-2.979-3.966-4.608-4.096-8.76-0.979L190.887,271.835z"/>
			</g>
		</g>
		<g>
			<g>
				<defs>
					<rect id="SVGID_97_" width="482.05" height="485.122"/>
				</defs>
				<clipPath id="SVGID_98_">
					<use xlink:href="#SVGID_97_" overflow="visible"/>
				</clipPath>
				<polygon clip-path="url(#SVGID_98_)" fill="#58585A" points="227.688,281.88 196.185,240.075 220.083,222.07 226.581,230.686       213.706,240.382 219.068,247.5 229.69,239.475 236.449,248.43 225.817,256.465 231.962,264.611 245.471,254.408       252.248,263.382     "/>
			</g>
		</g>
		<g>
			<g>
				<defs>
					<rect id="SVGID_99_" width="482.05" height="485.122"/>
				</defs>
				<clipPath id="SVGID_100_">
					<use xlink:href="#SVGID_99_" overflow="visible"/>
				</clipPath>
				<path clip-path="url(#SVGID_100_)" fill="#58585A" d="M258.291,241.108c1.898,2.5,3.826,2.612,5.529,1.317      c1.693-1.285,2.133-3.175,0.27-5.669l-3.127-4.129l-2.768,2.066l-5.863-7.797l13.777-10.39l17.502,23.232l-5.642,4.25      l-3.26-1.016c-0.81,3.704-2.588,6.518-5.883,8.992c-10.957,8.26-16.916,4.721-29.326-11.753      c-11.889-15.775-12.475-24.471-1.843-32.491c5.92-4.45,12.902-6.242,18.75-2.438c1.824,1.182,3.603,3.128,6.145,6.512      l-11.021,8.305l-1.854-2.444c-1.871-2.495-3.799-2.603-5.512-1.313c-1.723,1.285-2.15,3.175-0.262,5.67L258.291,241.108z"/>
			</g>
		</g>
		<g>
			<g>
				<defs>
					<rect id="SVGID_101_" width="482.05" height="485.122"/>
				</defs>
				<clipPath id="SVGID_102_">
					<use xlink:href="#SVGID_101_" overflow="visible"/>
				</clipPath>
				<polygon clip-path="url(#SVGID_102_)" fill="#58585A" points="290.025,234.903 258.533,193.089 269.555,184.784 301.068,226.59           "/>
			</g>
		</g>
		<g>
			<g>
				<defs>
					<rect id="SVGID_103_" width="482.05" height="485.122"/>
				</defs>
				<clipPath id="SVGID_104_">
					<use xlink:href="#SVGID_103_" overflow="visible"/>
				</clipPath>
				<path clip-path="url(#SVGID_104_)" fill="#58585A" d="M321.335,211.322l-31.522-41.801l12.43-9.356      c8.928-6.726,15.883-7.215,23.201,2.519c7.278,9.659,6.243,15.263-3.865,22.879l-1.879,1.443l12.276,16.292L321.335,211.322z       M313.804,179.203c3.537-2.667,4.627-4.506,1.138-9.161c-2.998-3.957-4.638-4.087-8.763-0.973L313.804,179.203z"/>
			</g>
		</g>
		<g>
			<g>
				<defs>
					<rect id="SVGID_105_" width="482.05" height="485.122"/>
				</defs>
				<clipPath id="SVGID_106_">
					<use xlink:href="#SVGID_105_" overflow="visible"/>
				</clipPath>
				<polygon clip-path="url(#SVGID_106_)" fill="#58585A" points="350.595,189.267 319.101,147.461 343.009,129.442       349.498,138.073 336.632,147.769 341.984,154.868 352.617,146.861 359.375,155.822 348.734,163.842 354.878,171.983       368.406,161.79 375.164,170.759     "/>
			</g>
		</g>
		<g>
			<g>
				<defs>
					<rect id="SVGID_107_" width="482.05" height="485.122"/>
				</defs>
				<clipPath id="SVGID_108_">
					<use xlink:href="#SVGID_107_" overflow="visible"/>
				</clipPath>
				<path clip-path="url(#SVGID_108_)" fill="#58585A" d="M381.226,148.486c1.871,2.509,3.8,2.602,5.503,1.327      c1.702-1.285,2.157-3.175,0.27-5.684l-3.127-4.125l-2.766,2.076l-5.855-7.806l13.77-10.395l17.503,23.242l-5.634,4.255      l-3.237-1.029c-0.812,3.714-2.617,6.521-5.886,8.998c-10.967,8.257-16.926,4.72-29.336-11.754      c-11.905-15.78-12.475-24.461-1.834-32.491c5.896-4.45,12.888-6.242,18.74-2.439c1.826,1.192,3.594,3.138,6.146,6.512      l-11.041,8.314l-1.826-2.453c-1.898-2.495-3.826-2.593-5.529-1.304c-1.703,1.275-2.133,3.166-0.27,5.661L381.226,148.486z"/>
			</g>
		</g>
		<g>
			<g>
				<defs>
					<rect id="SVGID_109_" width="482.05" height="485.122"/>
				</defs>
				<clipPath id="SVGID_110_">
					<use xlink:href="#SVGID_109_" overflow="visible"/>
				</clipPath>
				<polygon clip-path="url(#SVGID_110_)" fill="#58585A" points="412.962,142.281 381.439,100.466 392.48,92.162 423.976,133.967           "/>
			</g>
		</g>
	</g>
	<g>
		<g>
			<g>
				<defs>
					<rect id="SVGID_111_" width="482.05" height="484.535"/>
				</defs>
				<clipPath id="SVGID_112_">
					<use xlink:href="#SVGID_111_" overflow="visible"/>
				</clipPath>
				<path clip-path="url(#SVGID_112_)" fill="#58585A" d="M444.244,118.694L412.748,76.88l12.42-9.342      c8.918-6.731,15.863-7.215,23.189,2.518c7.278,9.659,6.258,15.263-3.847,22.879l-1.918,1.438l12.289,16.302L444.244,118.694z       M436.728,86.576c3.539-2.667,4.64-4.51,1.117-9.161c-2.969-3.957-4.606-4.092-8.76-0.973L436.728,86.576z"/>
			</g>
		</g>
		<g>
			<g>
				<defs>
					<rect id="SVGID_113_" width="482.05" height="484.535"/>
				</defs>
				<clipPath id="SVGID_114_">
					<use xlink:href="#SVGID_113_" overflow="visible"/>
				</clipPath>
				<polygon clip-path="url(#SVGID_114_)" fill="#58585A" points="473.521,96.635 442.027,54.834 465.916,36.815 472.414,45.445       459.539,55.142 464.902,62.24 475.533,54.234 482.292,63.194 471.65,71.21 477.804,79.352 491.313,69.162 498.072,78.132           "/>
			</g>
		</g>
		<g>
			<g>
				<defs>
					<rect id="SVGID_115_" width="482.05" height="484.535"/>
				</defs>
				<clipPath id="SVGID_116_">
					<use xlink:href="#SVGID_115_" overflow="visible"/>
				</clipPath>
				<path clip-path="url(#SVGID_116_)" fill="#58585A" d="M504.132,55.858c1.898,2.509,3.816,2.602,5.529,1.327      c1.695-1.29,2.133-3.175,0.242-5.684l-3.101-4.129l-2.766,2.081l-5.885-7.811l13.799-10.39l17.502,23.242l-5.66,4.254      l-3.24-1.02c-0.811,3.706-2.588,6.517-5.885,8.998c-10.957,8.244-16.916,4.706-29.324-11.763      c-11.889-15.78-12.483-24.466-1.844-32.491c5.902-4.45,12.902-6.242,18.75-2.439c1.824,1.192,3.604,3.138,6.145,6.508      l-11.041,8.313l-1.834-2.448c-1.897-2.5-3.799-2.593-5.528-1.308c-1.705,1.28-2.133,3.165-0.242,5.665L504.132,55.858z"/>
			</g>
		</g>
		<g>
			<g>
				<defs>
					<rect id="SVGID_117_" width="482.05" height="484.535"/>
				</defs>
				<clipPath id="SVGID_118_">
					<use xlink:href="#SVGID_117_" overflow="visible"/>
				</clipPath>
				<polygon clip-path="url(#SVGID_118_)" fill="#58585A" points="25.313,522.975 -6.2,481.174 4.841,472.851 36.327,514.652           "/>
			</g>
		</g>
		<g>
			<g>
				<defs>
					<rect id="SVGID_119_" width="482.05" height="484.535"/>
				</defs>
				<clipPath id="SVGID_120_">
					<use xlink:href="#SVGID_119_" overflow="visible"/>
				</clipPath>
				<path clip-path="url(#SVGID_120_)" fill="#58585A" d="M56.604,499.384l-31.486-41.801l12.401-9.347      c8.928-6.74,15.873-7.227,23.2,2.494c7.28,9.662,6.256,15.275-3.854,22.9l-1.909,1.436l12.289,16.292L56.604,499.384z       M49.081,467.265c3.547-2.681,4.646-4.506,1.136-9.158c-2.988-3.947-4.627-4.089-8.76-0.971L49.081,467.265z"/>
			</g>
		</g>
	</g>
	<g>
		<g>
			<g>
				<defs>
					<rect id="SVGID_121_" width="482.05" height="485.122"/>
				</defs>
				<clipPath id="SVGID_122_">
					<use xlink:href="#SVGID_121_" overflow="visible"/>
				</clipPath>
				<polygon clip-path="url(#SVGID_122_)" fill="#58585A" points="85.883,477.32 54.378,435.519 78.276,417.504 84.766,426.135       71.909,435.835 77.262,442.93 87.894,434.915 94.652,443.879 84.021,451.905 90.156,460.042 103.673,449.856 110.433,458.813           "/>
			</g>
		</g>
		<g>
			<g>
				<defs>
					<rect id="SVGID_123_" width="482.05" height="485.122"/>
				</defs>
				<clipPath id="SVGID_124_">
					<use xlink:href="#SVGID_123_" overflow="visible"/>
				</clipPath>
				<path clip-path="url(#SVGID_124_)" fill="#58585A" d="M116.493,436.543c1.89,2.514,3.808,2.616,5.521,1.331      c1.704-1.284,2.141-3.175,0.261-5.688l-3.128-4.112l-2.756,2.064l-5.865-7.802l13.778-10.391l17.502,23.229l-5.642,4.255      l-3.249-1.005c-0.801,3.705-2.598,6.519-5.875,8.993c-10.967,8.248-16.925,4.71-29.344-11.768      c-11.889-15.771-12.466-24.458-1.834-32.491c5.912-4.45,12.894-6.237,18.75-2.439c1.825,1.191,3.603,3.129,6.145,6.518      l-11.032,8.306l-1.843-2.438c-1.89-2.494-3.817-2.598-5.521-1.304c-1.713,1.284-2.141,3.165-0.261,5.66L116.493,436.543z"/>
			</g>
		</g>
		<g>
			<g>
				<defs>
					<rect id="SVGID_125_" width="482.05" height="485.122"/>
				</defs>
				<clipPath id="SVGID_126_">
					<use xlink:href="#SVGID_125_" overflow="visible"/>
				</clipPath>
				<polygon clip-path="url(#SVGID_126_)" fill="#58585A" points="148.23,430.343 116.726,388.542 127.767,380.219 159.271,422.03           "/>
			</g>
		</g>
		<g>
			<g>
				<defs>
					<rect id="SVGID_127_" width="482.05" height="485.122"/>
				</defs>
				<clipPath id="SVGID_128_">
					<use xlink:href="#SVGID_127_" overflow="visible"/>
				</clipPath>
				<path clip-path="url(#SVGID_128_)" fill="#58585A" d="M179.529,406.752l-31.495-41.801l12.4-9.348      c8.938-6.73,15.873-7.226,23.209,2.504c7.271,9.654,6.247,15.276-3.863,22.894l-1.899,1.435l12.28,16.291L179.529,406.752z       M171.998,374.633c3.547-2.672,4.646-4.506,1.136-9.16c-2.979-3.947-4.618-4.078-8.761-0.969L171.998,374.633z"/>
			</g>
		</g>
		<g>
			<g>
				<defs>
					<rect id="SVGID_129_" width="482.05" height="485.122"/>
				</defs>
				<clipPath id="SVGID_130_">
					<use xlink:href="#SVGID_129_" overflow="visible"/>
				</clipPath>
				<polygon clip-path="url(#SVGID_130_)" fill="#58585A" points="208.809,384.688 177.295,342.896 201.203,324.882       207.691,333.503 194.825,343.204 200.188,350.297 210.819,342.292 217.578,351.248 206.938,359.271 213.072,367.409       226.59,357.225 233.34,366.18     "/>
			</g>
		</g>
		<g>
			<g>
				<defs>
					<rect id="SVGID_131_" width="482.05" height="485.122"/>
				</defs>
				<clipPath id="SVGID_132_">
					<use xlink:href="#SVGID_131_" overflow="visible"/>
				</clipPath>
				<path clip-path="url(#SVGID_132_)" fill="#58585A" d="M239.4,343.92c1.899,2.505,3.827,2.616,5.53,1.332      c1.694-1.295,2.133-3.186,0.271-5.688l-3.129-4.125l-2.765,2.065l-5.865-7.802l13.779-10.391l17.502,23.236l-5.634,4.245      l-3.269-1.006c-0.791,3.706-2.588,6.519-5.854,8.993c-10.985,8.248-16.943,4.711-29.344-11.758      c-11.889-15.78-12.475-24.467-1.834-32.491c5.902-4.45,12.894-6.247,18.731-2.438c1.825,1.191,3.603,3.118,6.163,6.508      l-11.041,8.306l-1.853-2.439c-1.872-2.493-3.789-2.588-5.512-1.303c-1.704,1.284-2.141,3.165-0.251,5.66L239.4,343.92z"/>
			</g>
		</g>
		<g>
			<g>
				<defs>
					<rect id="SVGID_133_" width="482.05" height="485.122"/>
				</defs>
				<clipPath id="SVGID_134_">
					<use xlink:href="#SVGID_133_" overflow="visible"/>
				</clipPath>
				<polygon clip-path="url(#SVGID_134_)" fill="#58585A" points="271.139,337.711 239.643,295.911 250.684,287.605 282.18,329.407           "/>
			</g>
		</g>
		<g>
			<g>
				<defs>
					<rect id="SVGID_135_" width="482.05" height="485.122"/>
				</defs>
				<clipPath id="SVGID_136_">
					<use xlink:href="#SVGID_135_" overflow="visible"/>
				</clipPath>
				<path clip-path="url(#SVGID_136_)" fill="#58585A" d="M302.447,314.129l-31.486-41.811l12.393-9.349      c8.929-6.722,15.884-7.215,23.199,2.515c7.279,9.664,6.267,15.276-3.862,22.894l-1.892,1.435l12.289,16.291L302.447,314.129z       M294.914,282.011c3.557-2.672,4.627-4.507,1.137-9.161c-2.998-3.957-4.617-4.087-8.76-0.978L294.914,282.011z"/>
			</g>
		</g>
		<g>
			<g>
				<defs>
					<rect id="SVGID_137_" width="482.05" height="485.122"/>
				</defs>
				<clipPath id="SVGID_138_">
					<use xlink:href="#SVGID_137_" overflow="visible"/>
				</clipPath>
				<polygon clip-path="url(#SVGID_138_)" fill="#58585A" points="331.707,292.075 300.212,250.273 324.119,232.259 330.609,240.89       317.742,250.572 323.095,257.675 333.726,249.668 340.486,258.634 329.845,266.641 335.99,274.787 349.515,264.592       356.275,273.566     "/>
			</g>
		</g>
		<g>
			<g>
				<defs>
					<rect id="SVGID_139_" width="482.05" height="485.122"/>
				</defs>
				<clipPath id="SVGID_140_">
					<use xlink:href="#SVGID_139_" overflow="visible"/>
				</clipPath>
				<path clip-path="url(#SVGID_140_)" fill="#58585A" d="M362.326,251.298c1.897,2.515,3.809,2.606,5.512,1.321      c1.723-1.284,2.16-3.176,0.271-5.68l-3.129-4.133l-2.746,2.086l-5.886-7.809l13.797-10.39l17.484,23.232l-5.633,4.256      l-3.24-1.023c-0.809,3.705-2.615,6.517-5.883,9.003c-10.967,8.258-16.926,4.7-29.336-11.759      c-11.889-15.784-12.476-24.47-1.834-32.486c5.895-4.464,12.885-6.247,18.729-2.439c1.834,1.178,3.604,3.124,6.154,6.499      l-11.041,8.313l-1.824-2.439c-1.897-2.509-3.828-2.602-5.528-1.317c-1.705,1.289-2.144,3.165-0.252,5.674L362.326,251.298z"/>
			</g>
		</g>
		<g>
			<g>
				<defs>
					<rect id="SVGID_141_" width="482.05" height="485.122"/>
				</defs>
				<clipPath id="SVGID_142_">
					<use xlink:href="#SVGID_141_" overflow="visible"/>
				</clipPath>
				<polygon clip-path="url(#SVGID_142_)" fill="#58585A" points="394.072,245.079 362.55,203.283 373.591,194.979 405.095,236.77           "/>
			</g>
		</g>
		<g>
			<g>
				<defs>
					<rect id="SVGID_143_" width="482.05" height="485.122"/>
				</defs>
				<clipPath id="SVGID_144_">
					<use xlink:href="#SVGID_143_" overflow="visible"/>
				</clipPath>
				<path clip-path="url(#SVGID_144_)" fill="#58585A" d="M425.353,221.507l-31.483-41.806l12.41-9.352      c8.938-6.722,15.862-7.215,23.209,2.518c7.262,9.659,6.235,15.273-3.863,22.888l-1.918,1.42l12.289,16.306L425.353,221.507z       M417.841,189.388c3.537-2.667,4.635-4.506,1.117-9.161c-2.971-3.957-4.609-4.087-8.742-0.973L417.841,189.388z"/>
			</g>
		</g>
	</g>
	<g>
		<g>
			<g>
				<defs>
					<rect id="SVGID_145_" width="482.05" height="484.535"/>
				</defs>
				<clipPath id="SVGID_146_">
					<use xlink:href="#SVGID_145_" overflow="visible"/>
				</clipPath>
				<polygon clip-path="url(#SVGID_146_)" fill="#58585A" points="454.632,199.442 423.138,157.651 447.027,139.642       453.525,148.262 440.667,157.944 446.031,165.048 456.652,157.042 463.392,166.002 452.781,174.018 458.916,182.168       472.423,171.979 479.183,180.949     "/>
			</g>
		</g>
		<g>
			<g>
				<defs>
					<rect id="SVGID_147_" width="482.05" height="484.535"/>
				</defs>
				<clipPath id="SVGID_148_">
					<use xlink:href="#SVGID_147_" overflow="visible"/>
				</clipPath>
				<path clip-path="url(#SVGID_148_)" fill="#58585A" d="M485.244,158.67c1.897,2.514,3.826,2.611,5.529,1.322      c1.692-1.285,2.133-3.17,0.27-5.679l-3.127-4.129l-2.766,2.076l-5.865-7.797l13.776-10.39l17.505,23.232l-5.66,4.25l-3.24-1.02      c-0.791,3.71-2.588,6.521-5.855,9.002c-10.983,8.253-16.942,4.706-29.354-11.758c-11.889-15.785-12.484-24.47-1.844-32.486      c5.92-4.464,12.901-6.247,18.76-2.444c1.813,1.183,3.592,3.128,6.135,6.503l-11.021,8.314l-1.854-2.439      c-1.881-2.509-3.799-2.602-5.512-1.317c-1.705,1.29-2.15,3.166-0.262,5.674L485.244,158.67z"/>
			</g>
		</g>
		<g>
			<g>
				<defs>
					<rect id="SVGID_149_" width="482.05" height="484.535"/>
				</defs>
				<clipPath id="SVGID_150_">
					<use xlink:href="#SVGID_149_" overflow="visible"/>
				</clipPath>
				<path clip-path="url(#SVGID_150_)" fill="#58585A" d="M160.63,509.569l-31.495-41.819l12.41-9.338      c8.928-6.73,15.874-7.215,23.2,2.521c7.28,9.654,6.256,15.27-3.854,22.885l-1.908,1.435l12.289,16.292L160.63,509.569z       M153.108,477.451c3.538-2.663,4.636-4.506,1.126-9.161c-2.979-3.957-4.618-4.097-8.761-0.968L153.108,477.451z"/>
			</g>
		</g>
		<g>
			<g>
				<defs>
					<rect id="SVGID_151_" width="482.05" height="484.535"/>
				</defs>
				<clipPath id="SVGID_152_">
					<use xlink:href="#SVGID_151_" overflow="visible"/>
				</clipPath>
				<polygon clip-path="url(#SVGID_152_)" fill="#58585A" points="189.91,487.505 158.396,445.705 182.313,427.699 188.802,436.32       175.936,446.011 181.289,453.124 191.92,445.108 198.68,454.064 188.039,462.089 194.183,470.226 207.71,460.042       214.469,469.006     "/>
			</g>
		</g>
	</g>
	<g>
		<g>
			<g>
				<defs>
					<rect id="SVGID_153_" width="482.05" height="485.122"/>
				</defs>
				<clipPath id="SVGID_154_">
					<use xlink:href="#SVGID_153_" overflow="visible"/>
				</clipPath>
				<path clip-path="url(#SVGID_154_)" fill="#58585A" d="M220.52,446.728c1.89,2.516,3.808,2.616,5.521,1.331      c1.694-1.294,2.132-3.174,0.261-5.688l-3.119-4.115l-2.765,2.066l-5.875-7.801l13.788-10.393l17.502,23.237l-5.632,4.255      l-3.268-1.015c-0.81,3.704-2.588,6.497-5.875,8.991c-10.967,8.248-16.925,4.711-29.344-11.758      c-11.879-15.779-12.466-24.476-1.825-32.482c5.902-4.469,12.903-6.244,18.741-2.438c1.834,1.174,3.603,3.118,6.154,6.498      l-11.042,8.304l-1.834-2.438c-1.89-2.505-3.808-2.599-5.521-1.313c-1.713,1.295-2.142,3.166-0.261,5.67L220.52,446.728z"/>
			</g>
		</g>
		<g>
			<g>
				<defs>
					<rect id="SVGID_155_" width="482.05" height="485.122"/>
				</defs>
				<clipPath id="SVGID_156_">
					<use xlink:href="#SVGID_155_" overflow="visible"/>
				</clipPath>
				<polygon clip-path="url(#SVGID_156_)" fill="#58585A" points="252.257,440.528 220.753,398.727 231.776,390.404       263.279,432.214     "/>
			</g>
		</g>
		<g>
			<g>
				<defs>
					<rect id="SVGID_157_" width="482.05" height="485.122"/>
				</defs>
				<clipPath id="SVGID_158_">
					<use xlink:href="#SVGID_157_" overflow="visible"/>
				</clipPath>
				<path clip-path="url(#SVGID_158_)" fill="#58585A" d="M283.557,416.938l-31.504-41.812l12.409-9.337      c8.929-6.74,15.884-7.225,23.199,2.514c7.289,9.654,6.248,15.268-3.863,22.883l-1.897,1.443l12.299,16.292L283.557,416.938z       M276.025,384.818c3.537-2.662,4.637-4.506,1.137-9.16c-2.998-3.947-4.639-4.088-8.762-0.959L276.025,384.818z"/>
			</g>
		</g>
		<g>
			<g>
				<defs>
					<rect id="SVGID_159_" width="482.05" height="485.122"/>
				</defs>
				<clipPath id="SVGID_160_">
					<use xlink:href="#SVGID_159_" overflow="visible"/>
				</clipPath>
				<polygon clip-path="url(#SVGID_160_)" fill="#58585A" points="312.818,394.882 281.322,353.072 305.228,335.066       311.718,343.688 298.853,353.389 304.205,360.501 314.837,352.477 321.595,361.441 310.955,369.458 317.099,377.613       330.626,367.409 337.386,376.383     "/>
			</g>
		</g>
		<g>
			<g>
				<defs>
					<rect id="SVGID_161_" width="482.05" height="485.122"/>
				</defs>
				<clipPath id="SVGID_162_">
					<use xlink:href="#SVGID_161_" overflow="visible"/>
				</clipPath>
				<path clip-path="url(#SVGID_162_)" fill="#58585A" d="M343.447,354.105c1.871,2.504,3.797,2.615,5.502,1.32      c1.703-1.283,2.16-3.175,0.26-5.679l-3.119-4.124l-2.764,2.076l-5.865-7.803l13.777-10.391l17.504,23.229l-5.633,4.256      l-3.24-1.016c-0.812,3.705-2.615,6.518-5.885,8.992c-10.968,8.258-16.927,4.721-29.334-11.748      c-11.908-15.789-12.478-24.477-1.834-32.492c5.893-4.469,12.885-6.246,18.729-2.438c1.834,1.174,3.604,3.129,6.154,6.508      l-11.043,8.307l-1.824-2.449c-1.898-2.494-3.826-2.588-5.529-1.303c-1.705,1.282-2.133,3.164-0.27,5.658L343.447,354.105z"/>
			</g>
		</g>
		<g>
			<g>
				<defs>
					<rect id="SVGID_163_" width="482.05" height="485.122"/>
				</defs>
				<clipPath id="SVGID_164_">
					<use xlink:href="#SVGID_163_" overflow="visible"/>
				</clipPath>
				<polygon clip-path="url(#SVGID_164_)" fill="#58585A" points="375.164,347.904 343.669,306.095 354.701,297.791       386.197,339.583     "/>
			</g>
		</g>
		<g>
			<g>
				<defs>
					<rect id="SVGID_165_" width="482.05" height="485.122"/>
				</defs>
				<clipPath id="SVGID_166_">
					<use xlink:href="#SVGID_165_" overflow="visible"/>
				</clipPath>
				<path clip-path="url(#SVGID_166_)" fill="#58585A" d="M406.464,324.305l-31.486-41.801l12.394-9.348      c8.938-6.721,15.883-7.225,23.209,2.514c7.281,9.664,6.256,15.27-3.863,22.902l-1.897,1.434l12.287,16.292L406.464,324.305z       M398.951,292.196c3.537-2.673,4.646-4.497,1.117-9.161c-2.972-3.956-4.607-4.087-8.763-0.959L398.951,292.196z"/>
			</g>
		</g>
	</g>
	<g>
		<g>
			<g>
				<defs>
					<rect id="SVGID_167_" width="482.05" height="484.535"/>
				</defs>
				<clipPath id="SVGID_168_">
					<use xlink:href="#SVGID_167_" overflow="visible"/>
				</clipPath>
				<polygon clip-path="url(#SVGID_168_)" fill="#58585A" points="435.751,302.259 404.228,260.45 428.136,242.444 434.634,251.075       421.759,260.756 427.123,267.87 437.763,259.844 444.513,268.818 433.88,276.826 440.007,284.98 453.535,274.777       460.292,283.751     "/>
			</g>
		</g>
		<g>
			<g>
				<defs>
					<rect id="SVGID_169_" width="482.05" height="484.535"/>
				</defs>
				<clipPath id="SVGID_170_">
					<use xlink:href="#SVGID_169_" overflow="visible"/>
				</clipPath>
				<path clip-path="url(#SVGID_170_)" fill="#58585A" d="M466.353,261.482c1.9,2.515,3.802,2.605,5.515,1.321      s2.147-3.165,0.26-5.68L469.008,253l-2.746,2.076l-5.883-7.803l13.797-10.384l17.502,23.222l-5.66,4.256l-3.239-1.016      c-0.812,3.715-2.588,6.525-5.883,8.983c-10.96,8.267-16.916,4.729-29.326-11.749c-11.89-15.79-12.484-24.471-1.845-32.482      c5.902-4.459,12.886-6.242,18.761-2.439c1.813,1.173,3.594,3.119,6.135,6.503l-11.041,8.314l-1.834-2.453      c-1.898-2.504-3.816-2.603-5.529-1.313c-1.705,1.285-2.133,3.166-0.242,5.67L466.353,261.482z"/>
			</g>
		</g>
		<g>
			<g>
				<defs>
					<rect id="SVGID_171_" width="482.05" height="484.535"/>
				</defs>
				<clipPath id="SVGID_172_">
					<use xlink:href="#SVGID_171_" overflow="visible"/>
				</clipPath>
				<polygon clip-path="url(#SVGID_172_)" fill="#58585A" points="498.091,255.283 466.595,213.463 477.619,205.164       509.123,246.959     "/>
			</g>
		</g>
		<g>
			<g>
				<defs>
					<rect id="SVGID_173_" width="482.05" height="484.535"/>
				</defs>
				<clipPath id="SVGID_174_">
					<use xlink:href="#SVGID_173_" overflow="visible"/>
				</clipPath>
				<path clip-path="url(#SVGID_174_)" fill="#58585A" d="M264.667,519.754l-31.515-41.801l12.418-9.356      c8.931-6.729,15.884-7.216,23.201,2.516c7.289,9.651,6.267,15.275-3.854,22.883l-1.897,1.443l12.289,16.292L264.667,519.754z       M257.136,487.635c3.537-2.672,4.636-4.506,1.136-9.161c-2.998-3.956-4.638-4.096-8.761-0.968L257.136,487.635z"/>
			</g>
		</g>
		<g>
			<g>
				<defs>
					<rect id="SVGID_175_" width="482.05" height="484.535"/>
				</defs>
				<clipPath id="SVGID_176_">
					<use xlink:href="#SVGID_175_" overflow="visible"/>
				</clipPath>
				<polygon clip-path="url(#SVGID_176_)" fill="#58585A" points="293.928,497.69 262.434,455.889 286.339,437.884 292.837,446.504       279.962,456.196 285.326,463.299 295.949,455.275 302.707,464.25 292.076,472.274 298.21,480.411 311.738,470.216       318.496,479.191     "/>
			</g>
		</g>
	</g>
	<g>
		<g>
			<g>
				<defs>
					<rect id="SVGID_177_" width="482.05" height="485.122"/>
				</defs>
				<clipPath id="SVGID_178_">
					<use xlink:href="#SVGID_177_" overflow="visible"/>
				</clipPath>
				<path clip-path="url(#SVGID_178_)" fill="#58585A" d="M324.556,456.913c1.871,2.514,3.802,2.616,5.502,1.322      c1.726-1.284,2.16-3.165,0.271-5.681l-3.129-4.113l-2.746,2.065l-5.883-7.802l13.776-10.39l17.502,23.235l-5.633,4.245      l-3.237-1.015c-0.812,3.714-2.615,6.507-5.886,9.002c-10.957,8.249-16.916,4.711-29.334-11.758      c-11.889-15.789-12.477-24.478-1.836-32.491c5.896-4.459,12.885-6.247,18.732-2.448c1.834,1.191,3.604,3.138,6.151,6.518      l-11.041,8.306l-1.823-2.449c-1.898-2.494-3.826-2.597-5.529-1.303c-1.703,1.284-2.133,3.165-0.271,5.66L324.556,456.913z"/>
			</g>
		</g>
		<g>
			<g>
				<defs>
					<rect id="SVGID_179_" width="482.05" height="485.122"/>
				</defs>
				<clipPath id="SVGID_180_">
					<use xlink:href="#SVGID_179_" overflow="visible"/>
				</clipPath>
				<polygon clip-path="url(#SVGID_180_)" fill="#58585A" points="356.275,450.712 324.771,408.902 335.813,400.598 367.316,442.39           "/>
			</g>
		</g>
		<g>
			<g>
				<defs>
					<rect id="SVGID_181_" width="482.05" height="485.122"/>
				</defs>
				<clipPath id="SVGID_182_">
					<use xlink:href="#SVGID_181_" overflow="visible"/>
				</clipPath>
				<path clip-path="url(#SVGID_182_)" fill="#58585A" d="M387.574,427.122L356.09,385.32l12.394-9.355      c8.936-6.712,15.881-7.215,23.209,2.523c7.278,9.662,6.256,15.268-3.847,22.884l-1.918,1.435l12.289,16.301L387.574,427.122z       M380.063,395.003c3.536-2.663,4.637-4.497,1.116-9.161c-2.971-3.956-4.606-4.087-8.762-0.968L380.063,395.003z"/>
			</g>
		</g>
		<g>
			<g>
				<defs>
					<rect id="SVGID_183_" width="482.05" height="485.122"/>
				</defs>
				<clipPath id="SVGID_184_">
					<use xlink:href="#SVGID_183_" overflow="visible"/>
				</clipPath>
				<polygon clip-path="url(#SVGID_184_)" fill="#58585A" points="416.863,405.077 385.339,363.257 409.248,345.252       415.746,353.882 402.871,363.574 408.232,370.667 418.865,362.661 425.623,371.635 414.982,379.643 421.136,387.779       434.644,377.594 441.404,386.559     "/>
			</g>
		</g>
	</g>
	<g>
		<g>
			<g>
				<defs>
					<rect id="SVGID_185_" width="482.05" height="484.535"/>
				</defs>
				<clipPath id="SVGID_186_">
					<use xlink:href="#SVGID_185_" overflow="visible"/>
				</clipPath>
				<path clip-path="url(#SVGID_186_)" fill="#58585A" d="M447.464,364.281c1.889,2.523,3.826,2.615,5.529,1.332      c1.692-1.285,2.133-3.166,0.242-5.688l-3.103-4.114l-2.764,2.086l-5.885-7.813l13.797-10.398l17.502,23.236l-5.65,4.266      l-3.248-1.023c-0.811,3.705-2.59,6.518-5.875,8.993c-10.967,8.258-16.926,4.711-29.336-11.749      c-11.889-15.789-12.481-24.477-1.842-32.491c5.902-4.469,12.893-6.246,18.748-2.438c1.826,1.172,3.604,3.127,6.145,6.506      l-11.041,8.314l-1.834-2.458c-1.889-2.495-3.815-2.598-5.528-1.304c-1.703,1.285-2.132,3.165-0.242,5.66L447.464,364.281z"/>
			</g>
		</g>
		<g>
			<g>
				<defs>
					<rect id="SVGID_187_" width="482.05" height="484.535"/>
				</defs>
				<clipPath id="SVGID_188_">
					<use xlink:href="#SVGID_187_" overflow="visible"/>
				</clipPath>
				<polygon clip-path="url(#SVGID_188_)" fill="#58585A" points="479.201,358.081 447.688,316.28 458.728,307.977 490.234,349.777           "/>
			</g>
		</g>
		<g>
			<g>
				<defs>
					<rect id="SVGID_189_" width="482.05" height="484.535"/>
				</defs>
				<clipPath id="SVGID_190_">
					<use xlink:href="#SVGID_189_" overflow="visible"/>
				</clipPath>
				<path clip-path="url(#SVGID_190_)" fill="#58585A" d="M510.509,334.49l-31.521-41.801l12.428-9.349      c8.93-6.722,15.883-7.225,23.201,2.515c7.262,9.664,6.266,15.269-3.863,22.884l-1.891,1.434l12.289,16.302L510.509,334.49z       M502.978,302.372c3.537-2.663,4.638-4.497,1.138-9.161c-2.998-3.947-4.638-4.087-8.763-0.959L502.978,302.372z"/>
			</g>
		</g>
		<g>
			<g>
				<defs>
					<rect id="SVGID_191_" width="482.05" height="484.535"/>
				</defs>
				<clipPath id="SVGID_192_">
					<use xlink:href="#SVGID_191_" overflow="visible"/>
				</clipPath>
				<path clip-path="url(#SVGID_192_)" fill="#58585A" d="M375.826,524.567l-31.504-41.812l12.41-9.348      c8.928-6.723,15.881-7.215,23.196,2.514c7.291,9.664,6.269,15.271-3.86,22.895l-1.892,1.435l12.289,16.301L375.826,524.567z       M368.294,492.449c3.557-2.672,4.627-4.497,1.135-9.151c-2.998-3.967-4.637-4.097-8.76-0.987L368.294,492.449z"/>
			</g>
		</g>
		<g>
			<g>
				<defs>
					<rect id="SVGID_193_" width="482.05" height="484.535"/>
				</defs>
				<clipPath id="SVGID_194_">
					<use xlink:href="#SVGID_193_" overflow="visible"/>
				</clipPath>
				<polygon clip-path="url(#SVGID_194_)" fill="#58585A" points="405.103,502.512 373.591,460.693 397.5,442.697 403.988,451.318       391.121,461.009 396.474,468.122 407.107,460.106 413.865,469.072 403.234,477.087 409.369,485.233 422.896,475.03       429.654,483.995     "/>
			</g>
		</g>
	</g>
	<g>
		<g>
			<g>
				<defs>
					<rect id="SVGID_195_" width="482.05" height="485.122"/>
				</defs>
				<clipPath id="SVGID_196_">
					<use xlink:href="#SVGID_195_" overflow="visible"/>
				</clipPath>
				<path clip-path="url(#SVGID_196_)" fill="#58585A" d="M435.707,461.736c1.879,2.504,3.807,2.604,5.51,1.319      c1.713-1.282,2.16-3.174,0.271-5.679l-3.127-4.134l-2.769,2.086l-5.865-7.802l13.8-10.392l17.502,23.221l-5.65,4.264      l-3.24-1.024c-0.811,3.706-2.614,6.536-5.883,9.003c-10.967,8.26-16.926,4.722-29.336-11.758      c-11.906-15.79-12.475-24.467-1.834-32.491c5.894-4.448,12.885-6.236,18.732-2.438c1.834,1.191,3.602,3.119,6.151,6.517      l-11.041,8.307l-1.825-2.439c-1.898-2.514-3.824-2.616-5.529-1.331c-1.703,1.294-2.142,3.175-0.271,5.688L435.707,461.736z"/>
			</g>
		</g>
	</g>
	<g>
		<g>
			<g>
				<defs>
					<rect id="SVGID_197_" width="482.05" height="484.535"/>
				</defs>
				<clipPath id="SVGID_198_">
					<use xlink:href="#SVGID_197_" overflow="visible"/>
				</clipPath>
				<polygon clip-path="url(#SVGID_198_)" fill="#58585A" points="467.453,455.536 435.938,413.715 446.97,405.412 478.466,447.212           "/>
			</g>
		</g>
		<g>
			<g>
				<defs>
					<rect id="SVGID_199_" width="482.05" height="484.535"/>
				</defs>
				<clipPath id="SVGID_200_">
					<use xlink:href="#SVGID_199_" overflow="visible"/>
				</clipPath>
				<path clip-path="url(#SVGID_200_)" fill="#58585A" d="M498.751,431.944l-31.514-41.802l12.42-9.365      c8.938-6.721,15.86-7.205,23.188,2.515c7.279,9.664,6.256,15.269-3.846,22.901l-1.918,1.425l12.309,16.302L498.751,431.944z       M491.22,399.826c3.537-2.682,4.638-4.506,1.117-9.161c-2.971-3.966-4.609-4.097-8.742-0.978L491.22,399.826z"/>
			</g>
		</g>
	</g>
	<g>
		<g>
			<g>
				<defs>
					<rect id="SVGID_201_" x="3.37" width="471.903" height="481.714"/>
				</defs>
				<clipPath id="SVGID_202_">
					<use xlink:href="#SVGID_201_" overflow="visible"/>
				</clipPath>
				<path clip-path="url(#SVGID_202_)" stroke="#FFFFFF" stroke-width="8" stroke-miterlimit="10" d="M221.563,142.141l19.438-3.086      l19.765-2.783c0,0-5.203,1.969-8.5,6.842c2.903,0.554,8.211,1.82,13.629,4.874l23.739,14.165l-15.163-6.913      c3.668,4.376,6.228,10.171,6.144,18.094l3.323,8.379l-2.767-0.019l0.672,10.041c0,0,9.076,5.414,5.669,14.128l-7.949,20.686      l-5.66,1.099c0,0-1.137,7.615-2.271,10.865c-1.146,3.272-11.365,11.967-14.783,15.244l3.688,18.603      c0,0,12.56,8.406,35.266,13.871c0,0,18.209,6.525,18.209,22.826v183.16h-154.19v-183.16c0-16.301,18.191-22.826,18.191-22.826      c22.716-5.465,35.293-13.871,35.293-13.871l3.659-18.603c-3.417-3.276-13.611-11.972-14.784-15.244      c-1.108-3.25-2.262-10.865-2.262-10.865l-5.679-1.099l-7.941-20.686c-3.407-8.714,5.661-14.128,5.661-14.128l0.67-10.041      l-2.765,0.019l3.361-8.379c-0.093-7.923,2.458-13.718,6.145-18.094l-15.175-1.457l23.731-5.795      c5.427-3.054,10.725-4.32,13.62-4.874c-3.296-4.874-18.731-12.601-18.731-12.601l29.987,8.542l19.448,3.086"/>
			</g>
		</g>
		<g>
			<g>
				<defs>
					<rect id="SVGID_203_" x="3.37" width="471.903" height="481.714"/>
				</defs>
				<clipPath id="SVGID_204_">
					<use xlink:href="#SVGID_203_" overflow="visible"/>
				</clipPath>
				<path clip-path="url(#SVGID_204_)" fill="none" stroke="#FFFFFF" stroke-width="0.661" d="M221.563,142.141l19.438-3.086      l19.765-2.783c0,0-5.203,1.969-8.5,6.842c2.903,0.554,8.211,1.82,13.629,4.874l23.739,14.165l-15.163-6.913      c3.668,4.376,6.228,10.171,6.144,18.094l3.323,8.379l-2.767-0.019l0.672,10.041c0,0,9.076,5.414,5.669,14.128l-7.949,20.686      l-5.66,1.099c0,0-1.137,7.615-2.271,10.865c-1.146,3.272-11.365,11.967-14.783,15.244l3.688,18.603      c0,0,12.56,8.406,35.266,13.871c0,0,18.209,6.525,18.209,22.826v183.16h-154.19v-183.16c0-16.301,18.191-22.826,18.191-22.826      c22.716-5.465,35.293-13.871,35.293-13.871l3.659-18.603c-3.417-3.276-13.611-11.972-14.784-15.244      c-1.108-3.25-2.262-10.865-2.262-10.865l-5.679-1.099l-7.941-20.686c-3.407-8.714,5.661-14.128,5.661-14.128l0.67-10.041      l-2.765,0.019l3.361-8.379c-0.093-7.923,2.458-13.718,6.145-18.094l-15.175-1.457l23.731-5.795      c5.427-3.054,10.725-4.32,13.62-4.874c-3.296-4.874-18.731-12.601-18.731-12.601l29.987,8.542l19.448,3.086"/>
			</g>
		</g>
		<g>
			<g>
				<defs>
					<rect id="SVGID_205_" x="3.37" width="471.903" height="481.714"/>
				</defs>
				<clipPath id="SVGID_206_">
					<use xlink:href="#SVGID_205_" overflow="visible"/>
				</clipPath>
				<path clip-path="url(#SVGID_206_)" fill="#FFFFFF" d="M494.226,507.139V253.355c0-17.73-33.877-24.833-33.877-24.833      c-23.629-5.939-36.746-15.091-36.746-15.091l-3.815-20.211l10.334-10.325l7.811-28.902l5.615,5.614l2.262-33.854l-0.688-10.907      l2.885,0.033l-3.473-9.114c0.084-8.63-2.588-14.919-6.404-19.676l15.789-1.583l-24.727-6.303      c-5.644-3.31-11.152-4.71-14.181-5.292c3.445-5.297,19.504-13.718,19.504-13.718L403.29,68.47h-46.893v11.125l-26.47,10.25      l11.183,12.182l2.01,26.691l5.736,4.827l-4.404,30.922c0,0,7.551-1.974,6.535-2.993c-2.312-2.276,0.289,6.768,0.289,6.768      l5.121,6.122l-1.019,5.102l3.064,18.34l23.414-4.068l-6.146,19.359l-41.781,19.355c0,0-20.389,6.149-21.375,25.495V507.14      L494.226,507.139L494.226,507.139L494.226,507.139z"/>
			</g>
		</g>
		<g>
			<g>
				<defs>
					<rect id="SVGID_207_" x="3.37" width="471.903" height="481.714"/>
				</defs>
				<clipPath id="SVGID_208_">
					<use xlink:href="#SVGID_207_" overflow="visible"/>
				</clipPath>
				<path clip-path="url(#SVGID_208_)" fill="none" stroke="#000000" stroke-width="8" stroke-linejoin="round" d="M494.226,507.139      V253.355c0-17.73-33.877-24.833-33.877-24.833c-23.629-5.939-36.746-15.091-36.746-15.091l-3.815-20.211l10.334-10.325      l7.811-28.902l5.615,5.614l2.262-33.854l-0.688-10.907l2.885,0.033l-3.473-9.114c0.084-8.63-2.588-14.919-6.404-19.676      l15.789-1.583l-24.727-6.303c-5.644-3.31-11.152-4.71-14.181-5.292c3.445-5.297,19.504-13.718,19.504-13.718L403.29,68.47      h-46.893v11.125l-26.47,10.25l11.183,12.182l2.01,26.691l5.736,4.827l-4.404,30.922c0,0,7.551-1.974,6.535-2.993      c-2.312-2.276,0.289,6.768,0.289,6.768l5.121,6.122l-1.019,5.102l3.064,18.34l23.414-4.068l-6.146,19.359l-41.781,19.355      c0,0-20.389,6.149-21.375,25.495V507.14L494.226,507.139L494.226,507.139L494.226,507.139z"/>
			</g>
		</g>
		<g>
			<g>
				<defs>
					<rect id="SVGID_209_" x="3.37" width="471.903" height="481.714"/>
				</defs>
				<clipPath id="SVGID_210_">
					<use xlink:href="#SVGID_209_" overflow="visible"/>
				</clipPath>
				<path clip-path="url(#SVGID_210_)" fill="#FFFFFF" d="M-21.859,507.139V253.355c0-17.73,33.869-24.833,33.869-24.833      c23.646-5.939,36.764-15.091,36.764-15.091l3.817-20.211l-10.362-10.325l-7.801-28.902l-5.614,5.614l-2.244-33.854l0.661-10.907      l-2.886,0.033l3.5-9.114c-0.093-8.63,2.579-14.919,6.396-19.676l-15.798-1.583l24.745-6.303c5.642-3.31,11.153-4.71,14.16-5.292      c-3.435-5.297-19.495-13.718-19.495-13.718l31.234,9.277h46.893v11.125l26.468,10.25l-11.19,12.182l-2.02,26.691l-5.707,4.827      l4.403,30.922c0,0-7.569-1.974-6.563-2.993c2.318-2.276-0.279,6.768-0.279,6.768l-5.111,6.122l1.005,5.102l-3.044,18.34      l-23.423-4.068l6.125,19.359l41.773,19.355c0,0,20.388,6.149,21.403,25.495V507.14L-21.859,507.139L-21.859,507.139z"/>
			</g>
		</g>
		<g>
			<g>
				<defs>
					<rect id="SVGID_211_" x="3.37" width="471.903" height="481.714"/>
				</defs>
				<clipPath id="SVGID_212_">
					<use xlink:href="#SVGID_211_" overflow="visible"/>
				</clipPath>
				<path clip-path="url(#SVGID_212_)" fill="none" stroke="#000000" stroke-width="8" stroke-linejoin="round" d="M-21.859,507.139      V253.355c0-17.73,33.869-24.833,33.869-24.833c23.646-5.939,36.764-15.091,36.764-15.091l3.817-20.211l-10.362-10.325      l-7.801-28.902l-5.614,5.614l-2.244-33.854l0.661-10.907l-2.886,0.033l3.5-9.114c-0.093-8.63,2.579-14.919,6.396-19.676      l-15.798-1.583l24.745-6.303c5.642-3.31,11.153-4.71,14.16-5.292c-3.435-5.297-19.495-13.718-19.495-13.718l31.234,9.277h46.893      v11.125l26.468,10.25l-11.19,12.182l-2.02,26.691l-5.707,4.827l4.403,30.922c0,0-7.569-1.974-6.563-2.993      c2.318-2.276-0.279,6.768-0.279,6.768l-5.111,6.122l1.005,5.102l-3.044,18.34l-23.423-4.068l6.125,19.359l41.773,19.355      c0,0,20.388,6.149,21.403,25.495V507.14L-21.859,507.139L-21.859,507.139z"/>
			</g>
		</g>
	</g>
	<g>
		<g>
			<g>
				<defs>
					<rect id="SVGID_213_" width="482.05" height="485.122"/>
				</defs>
				<clipPath id="SVGID_214_">
					<use xlink:href="#SVGID_213_" overflow="visible"/>
				</clipPath>
				<path clip-path="url(#SVGID_214_)" d="M0.009,484.526h484.526V-0.009H0.009V484.526z M474.843,474.843H9.701V9.696h465.142      V474.843z"/>
			</g>
		</g>
		<g>
			<g>
				<defs>
					<rect id="SVGID_215_" width="482.05" height="485.122"/>
				</defs>
				<clipPath id="SVGID_216_">
					<use xlink:href="#SVGID_215_" overflow="visible"/>
				</clipPath>
				<rect y="407.003" clip-path="url(#SVGID_216_)" width="484.527" height="77.522"/>
			</g>
		</g>
		<g>
			<g>
				<defs>
					<rect id="SVGID_217_" width="482.05" height="485.122"/>
				</defs>
				<clipPath id="SVGID_218_">
					<use xlink:href="#SVGID_217_" overflow="visible"/>
				</clipPath>
				<path clip-path="url(#SVGID_218_)" fill="#FFFFFF" d="M24.587,418.576H36.95c13.825,0,18.042,3.5,18.042,26.123      c0,20.007-2.979,26.112-18.042,26.112H24.587V418.576z M36.811,460.777c5.53,0,5.958-1.955,5.958-11.498v-9.458      c0-9.524-0.428-11.498-5.958-11.498V460.777z"/>
			</g>
		</g>
		<g>
			<g>
				<defs>
					<rect id="SVGID_219_" width="482.05" height="485.122"/>
				</defs>
				<clipPath id="SVGID_220_">
					<use xlink:href="#SVGID_219_" overflow="visible"/>
				</clipPath>
				<rect x="61.873" y="418.576" clip-path="url(#SVGID_220_)" fill="#FFFFFF" width="12.224" height="52.246"/>
			</g>
		</g>
		<g>
			<g>
				<defs>
					<rect id="SVGID_221_" width="482.05" height="485.122"/>
				</defs>
				<clipPath id="SVGID_222_">
					<use xlink:href="#SVGID_221_" overflow="visible"/>
				</clipPath>
				<path clip-path="url(#SVGID_222_)" fill="#FFFFFF" d="M100.042,434.737c-0.149-5.688-1.825-7.279-4.44-7.279      c-2.328,0-3.557,1.592-3.557,3.49c0,6.247,19.634,11.349,19.634,25.898c0,10.476-6.331,14.83-16.432,14.83      c-12.885,0-15.287-8.938-15.287-18.247h11.35v2.402c0,3.48,1.899,6.105,4.804,6.105c2.477,0,4.227-1.451,4.227-4.228      c0-6.897-19.653-12.288-19.653-26.328c0-8.807,6.992-13.685,14.989-13.685c9.17,0,15.426,6.042,15.426,14.782v2.254h-11.061      V434.737z"/>
			</g>
		</g>
		<g>
			<g>
				<defs>
					<rect id="SVGID_223_" width="482.05" height="485.122"/>
				</defs>
				<clipPath id="SVGID_224_">
					<use xlink:href="#SVGID_223_" overflow="visible"/>
				</clipPath>
				<path clip-path="url(#SVGID_224_)" fill="#FFFFFF" d="M129.257,456.559c0,3.128,1.303,4.357,3.203,4.357      c1.89,0,3.333-1.229,3.333-4.357V447.4h12.224c-0.065,6.833-0.363,10.908-0.94,13.666c-1.602,7.567-7.857,10.611-15.054,10.611      c-12.373,0-16.003-7.56-16.003-26.979s3.631-26.989,16.003-26.989c7.197,0,13.239,2.987,15.054,10.334      c0.577,2.542,0.875,6.247,0.94,12.503h-12.224v-7.708c0-3.119-1.443-4.355-3.333-4.355c-1.899,0-3.203,1.236-3.203,4.355      V456.559z"/>
			</g>
		</g>
		<g>
			<g>
				<defs>
					<rect id="SVGID_225_" width="482.05" height="485.122"/>
				</defs>
				<clipPath id="SVGID_226_">
					<use xlink:href="#SVGID_225_" overflow="visible"/>
				</clipPath>
				<path clip-path="url(#SVGID_226_)" fill="#FFFFFF" d="M153.816,470.822v-52.246h15.128c10.473,0,14.979,3.491,14.979,14.709      c0,8.358-3.491,10.9-5.818,11.712v0.131c4.366,0.81,5.669,8.229,5.669,14.783c0,5.23,0.587,8.863,1.611,10.911H173.45      c-1.024-4.301-1.462-7.131-1.462-10.837c0-8.809-0.717-10.408-4.646-10.408h-1.75v21.245H153.816z M165.593,440.546h2.188      c3.342,0,4.506-2.029,4.506-6.247c0-4.227-1.164-6.256-4.506-6.256h-2.188V440.546z"/>
			</g>
		</g>
		<g>
			<g>
				<defs>
					<rect id="SVGID_227_" width="482.05" height="485.122"/>
				</defs>
				<clipPath id="SVGID_228_">
					<use xlink:href="#SVGID_227_" overflow="visible"/>
				</clipPath>
				<rect x="191.102" y="418.576" clip-path="url(#SVGID_228_)" fill="#FFFFFF" width="12.214" height="52.246"/>
			</g>
		</g>
		<g>
			<g>
				<defs>
					<rect id="SVGID_229_" width="482.05" height="485.122"/>
				</defs>
				<clipPath id="SVGID_230_">
					<use xlink:href="#SVGID_229_" overflow="visible"/>
				</clipPath>
				<polygon clip-path="url(#SVGID_230_)" fill="#FFFFFF" points="209.991,470.822 209.991,418.576 224.402,418.576 229.495,443.47       229.634,443.47 234.662,418.576 249.063,418.576 249.063,470.822 238.59,470.822 238.59,439.681 238.432,439.681       232.902,470.822 226.143,470.822 220.613,439.681 220.464,439.681 220.464,470.822     "/>
			</g>
		</g>
		<g>
			<g>
				<defs>
					<rect id="SVGID_231_" width="482.05" height="485.122"/>
				</defs>
				<clipPath id="SVGID_232_">
					<use xlink:href="#SVGID_231_" overflow="visible"/>
				</clipPath>
				<rect x="255.703" y="418.576" clip-path="url(#SVGID_232_)" fill="#FFFFFF" width="12.223" height="52.246"/>
			</g>
		</g>
		<g>
			<g>
				<defs>
					<rect id="SVGID_233_" width="482.05" height="485.122"/>
				</defs>
				<clipPath id="SVGID_234_">
					<use xlink:href="#SVGID_233_" overflow="visible"/>
				</clipPath>
				<polygon clip-path="url(#SVGID_234_)" fill="#FFFFFF" points="274.964,470.822 274.964,418.576 286.686,418.576 294.607,441.71       294.755,441.71 294.755,418.576 305.228,418.576 305.228,470.822 293.88,470.822 285.585,443.75 285.445,443.75       285.445,470.822     "/>
			</g>
		</g>
		<g>
			<g>
				<defs>
					<rect id="SVGID_235_" width="482.05" height="485.122"/>
				</defs>
				<clipPath id="SVGID_236_">
					<use xlink:href="#SVGID_235_" overflow="visible"/>
				</clipPath>
				<path clip-path="url(#SVGID_236_)" fill="#FFFFFF" d="M340.765,470.822h-11.637l-1.016-6.556h-7.42l-1.023,6.556h-11.637      l9.012-52.246h14.699L340.765,470.822z M321.345,454.083h6.107l-3.045-21.449h-0.158L321.345,454.083z"/>
			</g>
		</g>
		<g>
			<g>
				<defs>
					<rect id="SVGID_237_" width="482.05" height="485.122"/>
				</defs>
				<clipPath id="SVGID_238_">
					<use xlink:href="#SVGID_237_" overflow="visible"/>
				</clipPath>
				<polygon clip-path="url(#SVGID_238_)" fill="#FFFFFF" points="360.091,429.347 360.091,470.822 347.878,470.822       347.878,429.347 338.419,429.347 338.419,418.576 369.55,418.576 369.55,429.347     "/>
			</g>
		</g>
		<g>
			<g>
				<defs>
					<rect id="SVGID_239_" width="482.05" height="485.122"/>
				</defs>
				<clipPath id="SVGID_240_">
					<use xlink:href="#SVGID_239_" overflow="visible"/>
				</clipPath>
				<rect x="374.103" y="418.576" clip-path="url(#SVGID_240_)" fill="#FFFFFF" width="12.216" height="52.246"/>
			</g>
		</g>
		<g>
			<g>
				<defs>
					<rect id="SVGID_241_" width="482.05" height="485.122"/>
				</defs>
				<clipPath id="SVGID_242_">
					<use xlink:href="#SVGID_241_" overflow="visible"/>
				</clipPath>
				<path clip-path="url(#SVGID_242_)" fill="#FFFFFF" d="M393.281,429.347c1.76-8.435,7.43-11.638,15.223-11.638      c7.773,0,13.443,3.203,15.201,11.638c0.568,2.699,0.793,7.347,0.793,15.354s-0.225,12.661-0.793,15.343      c-1.758,8.453-7.428,11.637-15.201,11.637c-7.793,0-13.463-3.184-15.223-11.637c-0.568-2.682-0.791-7.336-0.791-15.343      S392.712,432.046,393.281,429.347 M405.291,456.559c0,3.128,1.313,4.357,3.213,4.357c1.879,0,3.184-1.229,3.184-4.357v-23.721      c0-3.119-1.305-4.355-3.184-4.355c-1.9,0-3.213,1.236-3.213,4.355V456.559z"/>
			</g>
		</g>
		<g>
			<g>
				<defs>
					<rect id="SVGID_243_" width="482.05" height="485.122"/>
				</defs>
				<clipPath id="SVGID_244_">
					<use xlink:href="#SVGID_243_" overflow="visible"/>
				</clipPath>
				<polygon clip-path="url(#SVGID_244_)" fill="#FFFFFF" points="429.701,470.822 429.701,418.576 441.414,418.576 449.345,441.71       449.494,441.71 449.494,418.576 459.966,418.576 459.966,470.822 448.619,470.822 440.324,443.75 440.175,443.75       440.175,470.822     "/>
			</g>
		</g>
		<g>
			<g>
				<defs>
					<rect id="SVGID_245_" width="482.05" height="485.122"/>
				</defs>
				<clipPath id="SVGID_246_">
					<use xlink:href="#SVGID_245_" overflow="visible"/>
				</clipPath>
				<path clip-path="url(#SVGID_246_)" fill="#FFFFFF" d="M433.917,19.387v3.603h-7.66v24.271h-4.498V22.99h-7.68v-3.603H433.917z       M465.152,47.261h-4.506V25.304h-0.132l-7.717,21.957h-3.688l-7.336-21.957h-0.132v21.957h-4.506V19.387h7.148l6.955,20.733      h0.131l6.758-20.733h7.021v27.874H465.152z"/>
			</g>
		</g>
	</g>
</g>
</svg>