<?xml version="1.0" encoding="UTF-8"?>
<!-- Generator: Adobe Illustrator 15.0.0, SVG Export Plug-In . SVG Version: 6.00 Build 0)  -->
<!DOCTYPE svg PUBLIC "-//W3C//DTD SVG 1.1//EN" "http://www.w3.org/Graphics/SVG/1.1/DTD/svg11.dtd">
<svg version="1.1" id="Ebene_1" xmlns="http://www.w3.org/2000/svg" xmlns:xlink="http://www.w3.org/1999/xlink" x="0px" y="0px" width="484.542px" height="484.492px" viewBox="0 0 484.542 484.492" enable-background="new 0 0 484.542 484.492" xml:space="preserve">
<g>
	<rect x="0.055" width="484.492" height="484.492"/>
	<polygon fill="#58585A" points="0.055,99.144 7.908,93.233 0.055,82.813  "/>
	<g>
		<defs>
			<rect id="SVGID_1_" x="0.064" y="-0.009" width="484.306" height="484.501"/>
		</defs>
		<clipPath id="SVGID_2_">
			<use xlink:href="#SVGID_1_" overflow="visible"/>
		</clipPath>
		<path clip-path="url(#SVGID_2_)" fill="#58585A" d="M28.178,77.96L-3.326,36.153l12.408-9.348    c8.933-6.726,15.864-7.215,23.195,2.505c7.284,9.665,6.26,15.273-3.848,22.897l-1.91,1.43L38.807,69.94L28.178,77.96z     M20.642,45.841c3.549-2.678,4.648-4.499,1.137-9.157c-2.981-3.959-4.621-4.09-8.775-0.969L20.642,45.841z"/>
		<polygon clip-path="url(#SVGID_2_)" fill="#58585A" points="57.447,55.892 25.952,14.104 49.846,-3.917 56.339,4.704     43.474,14.406 48.812,21.504 59.45,13.493 66.222,22.45 55.584,30.471 61.714,38.626 75.249,28.431 82.002,37.396   "/>
		<path clip-path="url(#SVGID_2_)" fill="#58585A" d="M88.048,15.128c1.881,2.506,3.819,2.613,5.524,1.323    c1.705-1.285,2.143-3.167,0.261-5.673l-3.111-4.141L87.955,8.71l-5.878-7.797L95.864-9.474l17.513,23.228l-5.664,4.252    l-3.242-1.02c-0.801,3.712-2.59,6.526-5.869,9.003c-10.974,8.253-16.936,4.714-29.343-11.761    C57.373-1.546,56.786-10.238,67.424-18.258c5.906-4.443,12.902-6.25,18.743-2.44c1.826,1.192,3.605,3.135,6.148,6.511    l-11.029,8.31l-1.854-2.441c-1.873-2.501-3.801-2.594-5.515-1.309c-1.714,1.29-2.143,3.158-0.261,5.659L88.048,15.128z"/>
		
			<rect x="83.385" y="-23.039" transform="matrix(0.6018, 0.7987, -0.7987, 0.6018, 30.739, -93.9193)" clip-path="url(#SVGID_2_)" fill="#58585A" width="52.335" height="13.809"/>
		<path clip-path="url(#SVGID_2_)" fill="#58585A" d="M9.296,180.765l-31.514-41.808l12.417-9.348    c8.924-6.735,15.864-7.215,23.195,2.506c7.275,9.665,6.26,15.272-3.866,22.893l-1.9,1.435l12.287,16.302L9.296,180.765z     M1.76,148.645c3.549-2.678,4.639-4.499,1.137-9.157c-2.981-3.959-4.63-4.089-8.775-0.983L1.76,148.645z"/>
	</g>
	<polygon fill="#58585A" points="38.556,158.696 7.061,116.898 30.945,98.896 37.438,107.5 24.583,117.201 29.939,124.309    40.568,116.293 47.331,125.254 36.702,133.275 42.822,141.431 56.348,131.235 63.102,140.201  "/>
	<g>
		<defs>
			<rect id="SVGID_3_" x="0.064" width="484.306" height="485.415"/>
		</defs>
		<clipPath id="SVGID_4_">
			<use xlink:href="#SVGID_3_" overflow="visible"/>
		</clipPath>
		<path clip-path="url(#SVGID_4_)" fill="#58585A" d="M69.157,117.933c1.891,2.497,3.819,2.613,5.524,1.323    c1.714-1.286,2.152-3.177,0.261-5.673l-3.121-4.141l-2.757,2.068l-5.878-7.792l13.787-10.387l17.513,23.228l-5.654,4.252    l-3.242-1.02c-0.801,3.703-2.599,6.525-5.878,9.003c-10.974,8.253-16.936,4.713-29.343-11.761    c-11.887-15.776-12.464-24.467-1.826-32.487c5.897-4.448,12.893-6.251,18.752-2.445c1.807,1.192,3.596,3.139,6.129,6.516    l-11.029,8.309l-1.844-2.44c-1.882-2.501-3.801-2.604-5.515-1.318c-1.705,1.29-2.152,3.167-0.261,5.668L69.157,117.933z"/>
		
			<rect x="64.488" y="79.762" transform="matrix(0.6017, 0.7988, -0.7988, 0.6017, 105.338, -37.8936)" clip-path="url(#SVGID_4_)" fill="#58585A" width="52.347" height="13.806"/>
		<path clip-path="url(#SVGID_4_)" fill="#58585A" d="M132.194,88.142l-31.496-41.808l12.408-9.348    c8.934-6.726,15.864-7.215,23.205,2.515c7.275,9.665,6.25,15.272-3.866,22.897l-1.9,1.42l12.287,16.302L132.194,88.142z     M124.667,56.027c3.549-2.674,4.639-4.504,1.127-9.162c-2.981-3.955-4.611-4.089-8.756-0.969L124.667,56.027z"/>
	</g>
	<g>
		<defs>
			<rect id="SVGID_5_" x="0.064" y="-0.009" width="484.306" height="484.501"/>
		</defs>
		<clipPath id="SVGID_6_">
			<use xlink:href="#SVGID_5_" overflow="visible"/>
		</clipPath>
		<polygon clip-path="url(#SVGID_6_)" fill="#58585A" points="161.462,66.083 129.977,24.285 153.861,6.265 160.354,14.891     147.49,24.588 152.836,31.686 163.475,23.684 170.238,32.641 159.6,40.652 165.738,48.808 179.264,38.612 186.018,47.587   "/>
		<path clip-path="url(#SVGID_6_)" fill="#58585A" d="M192.073,25.31c1.891,2.505,3.819,2.613,5.515,1.323    c1.714-1.286,2.143-3.163,0.271-5.673l-3.121-4.141l-2.757,2.082l-5.878-7.797l13.787-10.387l17.503,23.228l-5.664,4.252    l-3.232-1.029c-0.801,3.712-2.599,6.525-5.878,9.003c-10.964,8.263-16.926,4.714-29.334-11.751    c-11.886-15.785-12.482-24.476-1.844-32.487c5.915-4.453,12.911-6.251,18.751-2.441c1.826,1.183,3.596,3.135,6.139,6.502    l-11.02,8.318l-1.854-2.45c-1.872-2.501-3.81-2.595-5.505-1.309c-1.714,1.281-2.152,3.158-0.261,5.659L192.073,25.31z"/>
		
			<rect x="187.406" y="-12.862" transform="matrix(0.6017, 0.7987, -0.7987, 0.6017, 80.308, -172.96)" clip-path="url(#SVGID_6_)" fill="#58585A" width="52.343" height="13.809"/>
		<path clip-path="url(#SVGID_6_)" fill="#58585A" d="M-9.595,283.569L-41.1,241.752l12.408-9.348    c8.934-6.735,15.864-7.21,23.195,2.51c7.285,9.66,6.26,15.269-3.856,22.888l-1.9,1.435L1.042,275.54L-9.595,283.569z     M-17.131,251.45c3.549-2.683,4.648-4.509,1.136-9.167c-2.972-3.964-4.63-4.089-8.766-0.969L-17.131,251.45z"/>
		<polygon clip-path="url(#SVGID_6_)" fill="#58585A" points="19.673,261.492 -11.831,219.693 12.063,201.687 18.556,210.299     5.691,220.001 11.047,227.108 21.686,219.083 28.449,228.049 17.811,236.084 23.94,244.221 37.466,234.021 44.219,243   "/>
	</g>
	<g>
		<defs>
			<rect id="SVGID_7_" x="0.064" width="484.306" height="485.415"/>
		</defs>
		<clipPath id="SVGID_8_">
			<use xlink:href="#SVGID_7_" overflow="visible"/>
		</clipPath>
		<path clip-path="url(#SVGID_8_)" fill="#58585A" d="M50.274,220.728c1.891,2.501,3.819,2.608,5.515,1.318    c1.714-1.285,2.152-3.167,0.261-5.668l-3.111-4.136l-2.757,2.068l-5.878-7.792L58.09,196.13l17.513,23.228l-5.664,4.253    l-3.232-1.03c-0.81,3.708-2.599,6.535-5.887,9.003c-10.964,8.263-16.926,4.723-29.334-11.751    c-11.886-15.78-12.473-24.476-1.844-32.482c5.915-4.453,12.901-6.246,18.761-2.44c1.817,1.183,3.596,3.13,6.139,6.506l-11.03,8.31    l-1.854-2.445c-1.873-2.506-3.81-2.604-5.515-1.313c-1.714,1.286-2.143,3.158-0.251,5.664L50.274,220.728z"/>
		<polygon clip-path="url(#SVGID_8_)" fill="#58585A" points="82.021,214.523 50.526,172.721 61.537,164.416 93.051,206.214   "/>
		<path clip-path="url(#SVGID_8_)" fill="#58585A" d="M113.321,190.946l-31.514-41.807l12.417-9.348    c8.924-6.735,15.855-7.215,23.195,2.506c7.275,9.665,6.26,15.272-3.856,22.893l-1.91,1.435l12.296,16.302L113.321,190.946z     M105.785,158.827c3.549-2.678,4.639-4.499,1.127-9.157c-2.971-3.968-4.62-4.089-8.766-0.969L105.785,158.827z"/>
		<polygon clip-path="url(#SVGID_8_)" fill="#58585A" points="142.581,168.878 111.085,127.08 134.979,109.069 141.472,117.681     128.607,127.383 133.963,134.491 144.592,126.47 151.355,135.436 140.727,143.457 146.856,151.603 160.382,141.407     167.136,150.382   "/>
		<path clip-path="url(#SVGID_8_)" fill="#58585A" d="M173.181,128.114c1.891,2.497,3.819,2.604,5.524,1.313    c1.714-1.286,2.162-3.167,0.261-5.664l-3.111-4.141l-2.767,2.068l-5.878-7.792l13.787-10.387l17.513,23.228l-5.645,4.252    l-3.242-1.029c-0.811,3.712-2.608,6.535-5.887,9.003c-10.974,8.263-16.936,4.723-29.344-11.751    c-11.886-15.776-12.464-24.476-1.826-32.487c5.896-4.448,12.883-6.251,18.752-2.445c1.807,1.183,3.596,3.139,6.129,6.516    l-11.029,8.309l-1.835-2.44c-1.891-2.511-3.819-2.604-5.524-1.318c-1.705,1.291-2.152,3.158-0.261,5.668L173.181,128.114z"/>
		<polygon clip-path="url(#SVGID_8_)" fill="#58585A" points="204.928,121.905 173.423,80.093 184.453,71.789 215.958,113.596   "/>
		<path clip-path="url(#SVGID_8_)" fill="#58585A" d="M236.218,98.324l-31.495-41.808l12.408-9.348    c8.933-6.726,15.864-7.215,23.195,2.515c7.284,9.665,6.26,15.263-3.866,22.888l-1.891,1.43l12.288,16.302L236.218,98.324z     M228.682,66.209c3.559-2.673,4.639-4.504,1.137-9.162c-2.972-3.955-4.621-4.089-8.757-0.969L228.682,66.209z"/>
	</g>
	<g>
		<defs>
			<rect id="SVGID_9_" x="0.064" y="-0.009" width="484.306" height="484.501"/>
		</defs>
		<clipPath id="SVGID_10_">
			<use xlink:href="#SVGID_9_" overflow="visible"/>
		</clipPath>
		<polygon clip-path="url(#SVGID_10_)" fill="#58585A" points="265.497,76.265 233.992,34.467 257.886,16.446 264.378,25.072     251.514,34.77 256.861,41.868 267.5,33.856 274.262,42.823 263.615,50.834 269.772,58.98 283.289,48.794 290.042,57.769   "/>
		<path clip-path="url(#SVGID_10_)" fill="#58585A" d="M296.097,35.492c1.892,2.506,3.811,2.604,5.506,1.323    c1.724-1.286,2.151-3.163,0.261-5.673L298.752,27l-2.748,2.082l-5.888-7.806l13.796-10.387l17.514,23.237l-5.674,4.252    l-3.232-1.039c-0.81,3.721-2.589,6.535-5.887,9.003c-10.955,8.263-16.917,4.723-29.325-11.751    c-11.886-15.776-12.482-24.467-1.844-32.487c5.905-4.444,12.892-6.251,18.742-2.441c1.835,1.192,3.586,3.144,6.148,6.512    l-11.029,8.318l-1.845-2.45c-1.882-2.511-3.811-2.595-5.524-1.309c-1.704,1.281-2.133,3.158-0.242,5.659L296.097,35.492z"/>
		<polygon clip-path="url(#SVGID_10_)" fill="#58585A" points="327.834,29.283 296.331,-12.524 307.36,-20.834 338.874,20.974   "/>
		<path clip-path="url(#SVGID_10_)" fill="#58585A" d="M359.144,5.701L327.63-36.106l12.417-9.348    c8.924-6.726,15.854-7.21,23.195,2.52c7.266,9.66,6.251,15.259-3.866,22.883l-1.9,1.43L369.782-2.31L359.144,5.701z     M351.608-26.414c3.54-2.674,4.639-4.504,1.137-9.157c-2.99-3.959-4.64-4.094-8.767-0.973L351.608-26.414z"/>
		<polygon clip-path="url(#SVGID_10_)" fill="#58585A" points="0.782,364.295 -30.704,322.498 -6.819,304.492 -0.327,313.098     -13.191,322.805 -7.844,329.913 2.794,321.892 9.557,330.854 -1.072,338.883 5.058,347.035 18.583,336.834 25.337,345.805   "/>
	</g>
	<g>
		<defs>
			<rect id="SVGID_11_" x="0.064" width="484.306" height="485.415"/>
		</defs>
		<clipPath id="SVGID_12_">
			<use xlink:href="#SVGID_11_" overflow="visible"/>
		</clipPath>
		<path clip-path="url(#SVGID_12_)" fill="#58585A" d="M31.392,323.532c1.882,2.497,3.81,2.608,5.515,1.323    c1.705-1.286,2.161-3.168,0.261-5.674l-3.111-4.136l-2.767,2.068l-5.878-7.797l13.796-10.387l17.504,23.223l-5.654,4.267    l-3.232-1.024c-0.811,3.707-2.608,6.521-5.888,8.998c-10.964,8.254-16.926,4.714-29.334-11.756    c-11.896-15.78-12.473-24.462-1.844-32.491c5.906-4.444,12.902-6.241,18.761-2.441c1.816,1.192,3.596,3.14,6.129,6.521    l-11.029,8.309l-1.835-2.449c-1.891-2.497-3.819-2.6-5.524-1.313c-1.714,1.285-2.143,3.167-0.261,5.663L31.392,323.532z"/>
		<polygon clip-path="url(#SVGID_12_)" fill="#58585A" points="63.12,317.328 31.634,275.52 42.664,267.211 74.159,309.018   "/>
		<path clip-path="url(#SVGID_12_)" fill="#58585A" d="M94.429,293.742l-31.495-41.808l12.408-9.343    c8.915-6.735,15.864-7.215,23.186,2.505c7.294,9.67,6.27,15.277-3.847,22.897l-1.9,1.435l12.287,16.302L94.429,293.742z     M86.902,261.622c3.549-2.673,4.639-4.489,1.127-9.147c-2.972-3.968-4.63-4.099-8.766-0.978L86.902,261.622z"/>
		<polygon clip-path="url(#SVGID_12_)" fill="#58585A" points="123.698,271.682 92.203,229.88 116.097,211.869 122.589,220.48     109.725,230.183 115.072,237.29 125.71,229.279 132.473,238.236 121.835,246.251 127.964,254.412 141.49,244.221 148.244,253.182       "/>
		<path clip-path="url(#SVGID_12_)" fill="#58585A" d="M154.309,230.914c1.891,2.496,3.81,2.613,5.515,1.323    c1.714-1.286,2.152-3.177,0.251-5.673l-3.102-4.141l-2.767,2.068l-5.878-7.792l13.787-10.387l17.513,23.228l-5.654,4.252    l-3.242-1.02c-0.811,3.712-2.599,6.525-5.887,9.003c-10.955,8.258-16.917,4.718-29.325-11.76    c-11.896-15.776-12.482-24.467-1.844-32.487c5.916-4.448,12.893-6.242,18.752-2.445c1.826,1.192,3.596,3.139,6.139,6.516    l-11.029,8.309l-1.844-2.44c-1.891-2.501-3.801-2.604-5.515-1.318c-1.714,1.286-2.142,3.167-0.261,5.664L154.309,230.914z"/>
		<polygon clip-path="url(#SVGID_12_)" fill="#58585A" points="186.037,224.705 154.551,182.907 165.562,174.598 197.075,216.396       "/>
		<path clip-path="url(#SVGID_12_)" fill="#58585A" d="M217.345,201.119l-31.514-41.798l12.427-9.348    c8.915-6.726,15.854-7.215,23.186,2.515c7.275,9.665,6.26,15.272-3.857,22.897l-1.9,1.421l12.277,16.292L217.345,201.119z     M209.819,169.009c3.54-2.669,4.629-4.5,1.127-9.157c-2.981-3.959-4.63-4.089-8.775-0.969L209.819,169.009z"/>
		<polygon clip-path="url(#SVGID_12_)" fill="#58585A" points="246.605,179.069 215.11,137.271 238.994,119.25 245.487,127.876     232.623,137.574 237.979,144.672 248.608,136.67 255.371,145.627 244.742,153.638 250.862,161.794 264.397,151.598     271.151,160.574   "/>
		<path clip-path="url(#SVGID_12_)" fill="#58585A" d="M277.206,138.296c1.892,2.506,3.829,2.613,5.524,1.323    c1.714-1.286,2.151-3.167,0.252-5.673l-3.103-4.141l-2.767,2.082l-5.888-7.797l13.797-10.387l17.513,23.228l-5.664,4.252    l-3.232-1.029c-0.811,3.712-2.599,6.525-5.888,9.003c-10.964,8.263-16.926,4.713-29.334-11.751    c-11.886-15.785-12.473-24.476-1.844-32.487c5.905-4.458,12.901-6.25,18.771-2.44c1.807,1.183,3.596,3.134,6.12,6.502    l-11.029,8.318l-1.836-2.45c-1.891-2.501-3.8-2.594-5.523-1.309c-1.714,1.281-2.143,3.158-0.252,5.659L277.206,138.296z"/>
		<polygon clip-path="url(#SVGID_12_)" fill="#58585A" points="308.953,132.087 277.458,90.275 288.468,81.971 319.982,123.778       "/>
		<path clip-path="url(#SVGID_12_)" fill="#58585A" d="M340.252,108.505l-31.514-41.808l12.417-9.348    c8.934-6.726,15.873-7.21,23.205,2.52c7.284,9.66,6.241,15.268-3.866,22.893l-1.892,1.421l12.287,16.302L340.252,108.505z     M332.716,76.391c3.54-2.673,4.639-4.504,1.137-9.157c-2.99-3.959-4.64-4.094-8.767-0.973L332.716,76.391z"/>
		<polygon clip-path="url(#SVGID_12_)" fill="#58585A" points="369.512,86.447 338.017,44.648 361.919,26.628 368.413,35.254     355.548,44.956 360.895,52.05 371.534,44.048 378.296,53.004 367.658,61.016 373.778,69.171 387.314,58.976 394.067,67.951   "/>
	</g>
	<g>
		<defs>
			<rect id="SVGID_13_" x="0.064" y="-0.009" width="484.306" height="484.501"/>
		</defs>
		<clipPath id="SVGID_14_">
			<use xlink:href="#SVGID_13_" overflow="visible"/>
		</clipPath>
		<path clip-path="url(#SVGID_14_)" fill="#58585A" d="M400.131,45.673c1.872,2.506,3.811,2.613,5.506,1.327    c1.704-1.29,2.161-3.167,0.27-5.678l-3.12-4.141l-2.767,2.082l-5.869-7.797l13.777-10.387l17.513,23.228l-5.654,4.252    l-3.232-1.029c-0.811,3.712-2.608,6.525-5.878,9.008c-10.964,8.258-16.926,4.709-29.334-11.756    c-11.905-15.785-12.482-24.476-1.845-32.487c5.906-4.453,12.902-6.25,18.743-2.441c1.835,1.183,3.596,3.135,6.147,6.502    l-11.029,8.318l-1.844-2.45c-1.882-2.501-3.811-2.594-5.524-1.309c-1.705,1.281-2.133,3.158-0.261,5.659L400.131,45.673z"/>
		<polygon clip-path="url(#SVGID_14_)" fill="#58585A" points="431.85,39.464 400.365,-2.333 411.384,-10.652 442.889,31.16   "/>
		<path clip-path="url(#SVGID_14_)" fill="#58585A" d="M463.159,15.887l-31.504-41.812l12.408-9.348    c8.924-6.712,15.873-7.21,23.195,2.52c7.284,9.66,6.269,15.272-3.856,22.893l-1.892,1.43l12.277,16.302L463.159,15.887z     M455.624-16.232c3.558-2.669,4.647-4.495,1.136-9.148c-2.972-3.968-4.62-4.103-8.766-0.973L455.624-16.232z"/>
		<polygon clip-path="url(#SVGID_14_)" fill="#58585A" points="-18.091,467.1 -49.596,425.302 -25.711,407.295 -19.209,415.903     -32.083,425.61 -26.727,432.717 -16.088,424.697 -9.325,433.658 -19.963,441.688 -13.834,449.83 -0.308,439.638 6.446,448.6   "/>
		<path clip-path="url(#SVGID_14_)" fill="#58585A" d="M12.51,426.336c1.873,2.496,3.801,2.608,5.515,1.322    c1.705-1.295,2.152-3.167,0.252-5.673l-3.111-4.146l-2.767,2.077l-5.869-7.797l13.778-10.387l17.513,23.224l-5.645,4.257    l-3.242-1.015c-0.811,3.697-2.608,6.521-5.888,8.998c-10.955,8.254-16.917,4.714-29.334-11.756    c-11.896-15.78-12.473-24.48-1.835-32.492c5.906-4.443,12.902-6.25,18.752-2.44c1.826,1.183,3.596,3.14,6.129,6.512l-11.02,8.309    l-1.845-2.44c-1.891-2.506-3.81-2.599-5.524-1.313c-1.705,1.286-2.133,3.167-0.261,5.664L12.51,426.336z"/>
	</g>
	<g>
		<defs>
			<rect id="SVGID_15_" x="0.064" width="484.306" height="485.415"/>
		</defs>
		<clipPath id="SVGID_16_">
			<use xlink:href="#SVGID_15_" overflow="visible"/>
		</clipPath>
		<polygon clip-path="url(#SVGID_16_)" fill="#58585A" points="44.248,420.132 12.752,378.325 23.772,370.015 55.286,411.823   "/>
		<path clip-path="url(#SVGID_16_)" fill="#58585A" d="M75.538,396.545l-31.504-41.807l12.417-9.344    c8.924-6.735,15.864-7.22,23.195,2.506c7.285,9.669,6.27,15.277-3.856,22.897l-1.9,1.425l12.287,16.302L75.538,396.545z     M68.02,364.426c3.54-2.674,4.63-4.49,1.118-9.147c-2.972-3.969-4.621-4.099-8.766-0.979L68.02,364.426z"/>
		<polygon clip-path="url(#SVGID_16_)" fill="#58585A" points="104.816,374.487 73.321,332.679 97.205,314.673 103.698,323.29     90.833,332.987 96.181,340.094 106.819,332.083 113.582,341.044 102.943,349.056 109.083,357.216 122.608,347.025     129.362,355.987   "/>
		<path clip-path="url(#SVGID_16_)" fill="#58585A" d="M135.417,333.713c1.891,2.506,3.81,2.608,5.515,1.313    c1.705-1.285,2.161-3.167,0.261-5.664l-3.111-4.136l-2.767,2.068l-5.878-7.788l13.805-10.396l17.503,23.232l-5.654,4.248    l-3.242-1.016c-0.82,3.698-2.608,6.53-5.887,8.989c-10.964,8.272-16.926,4.732-29.334-11.747    c-11.896-15.771-12.474-24.471-1.845-32.491c5.925-4.443,12.911-6.251,18.752-2.441c1.826,1.184,3.605,3.14,6.139,6.512    l-11.029,8.31l-1.835-2.44c-1.891-2.497-3.81-2.608-5.524-1.313c-1.714,1.285-2.143,3.167-0.261,5.663L135.417,333.713z"/>
		<polygon clip-path="url(#SVGID_16_)" fill="#58585A" points="167.154,327.509 135.659,285.693 146.688,277.393 178.193,319.2       "/>
		<path clip-path="url(#SVGID_16_)" fill="#58585A" d="M198.463,303.932l-31.505-41.808l12.408-9.353    c8.924-6.734,15.864-7.21,23.186,2.506c7.294,9.66,6.269,15.269-3.847,22.889l-1.9,1.434l12.287,16.303L198.463,303.932z     M190.927,271.813c3.549-2.683,4.639-4.509,1.127-9.166c-2.981-3.969-4.621-4.08-8.756-0.969L190.927,271.813z"/>
		<polygon clip-path="url(#SVGID_16_)" fill="#58585A" points="227.723,281.855 196.228,240.062 220.112,222.05 226.614,230.662     213.74,240.364 219.097,247.472 229.726,239.46 236.488,248.413 225.86,256.443 231.989,264.593 245.505,254.393 252.278,263.364       "/>
		<path clip-path="url(#SVGID_16_)" fill="#58585A" d="M258.324,241.096c1.891,2.492,3.819,2.603,5.524,1.318    c1.704-1.29,2.133-3.172,0.261-5.668l-3.111-4.141l-2.767,2.068l-5.869-7.792l13.769-10.387l17.521,23.228l-5.654,4.257    l-3.251-1.025c-0.811,3.708-2.59,6.521-5.887,8.999c-10.955,8.253-16.917,4.714-29.325-11.756    c-11.886-15.776-12.473-24.476-1.845-32.487c5.925-4.448,12.902-6.251,18.762-2.445c1.816,1.183,3.596,3.139,6.129,6.516    l-11.011,8.309l-1.863-2.44c-1.872-2.501-3.8-2.604-5.505-1.318c-1.724,1.286-2.152,3.167-0.261,5.668L258.324,241.096z"/>
		<polygon clip-path="url(#SVGID_16_)" fill="#58585A" points="290.061,234.887 258.576,193.075 269.577,184.779 301.1,226.578       "/>
		<path clip-path="url(#SVGID_16_)" fill="#58585A" d="M321.37,211.3l-31.522-41.798l12.427-9.348    c8.924-6.726,15.863-7.215,23.195,2.515c7.284,9.665,6.25,15.263-3.866,22.888l-1.891,1.439l12.286,16.283L321.37,211.3z     M313.833,179.195c3.531-2.673,4.63-4.504,1.128-9.162c-2.981-3.954-4.63-4.089-8.766-0.969L313.833,179.195z"/>
		<polygon clip-path="url(#SVGID_16_)" fill="#58585A" points="350.621,189.251 319.134,147.453 343.028,129.432 349.521,138.058     336.657,147.755 342.003,154.854 352.642,146.852 359.405,155.809 348.776,163.82 354.896,171.976 368.431,161.78     375.185,170.755   "/>
		<path clip-path="url(#SVGID_16_)" fill="#58585A" d="M381.24,148.478c1.872,2.506,3.811,2.604,5.506,1.323    c1.714-1.286,2.161-3.167,0.27-5.673l-3.12-4.141l-2.767,2.082l-5.869-7.806l13.777-10.387l17.513,23.237l-5.645,4.252    l-3.232-1.029c-0.811,3.712-2.618,6.525-5.888,8.994c-10.964,8.263-16.926,4.723-29.334-11.751    c-11.905-15.775-12.474-24.467-1.845-32.487c5.906-4.448,12.893-6.25,18.752-2.44c1.826,1.192,3.587,3.144,6.139,6.511    l-11.029,8.319l-1.835-2.45c-1.891-2.501-3.828-2.594-5.523-1.309c-1.705,1.281-2.143,3.158-0.271,5.659L381.24,148.478z"/>
		<polygon clip-path="url(#SVGID_16_)" fill="#58585A" points="412.977,142.269 381.473,100.461 392.502,92.152 423.998,133.959       "/>
	</g>
	<g>
		<defs>
			<rect id="SVGID_17_" x="0.064" y="-0.009" width="484.306" height="484.501"/>
		</defs>
		<clipPath id="SVGID_18_">
			<use xlink:href="#SVGID_17_" overflow="visible"/>
		</clipPath>
		<path clip-path="url(#SVGID_18_)" fill="#58585A" d="M444.268,118.687L412.772,76.88l12.418-9.348    c8.915-6.726,15.854-7.21,23.186,2.52c7.285,9.66,6.26,15.259-3.847,22.883l-1.91,1.43l12.287,16.311L444.268,118.687z     M436.75,86.572c3.539-2.673,4.639-4.504,1.117-9.157c-2.962-3.959-4.62-4.094-8.766-0.974L436.75,86.572z"/>
		<polygon clip-path="url(#SVGID_18_)" fill="#58585A" points="473.545,96.628 442.06,54.83 465.935,36.81 472.428,45.436     459.563,55.138 464.911,62.231 475.548,54.229 482.312,63.186 471.673,71.197 477.822,79.353 491.338,69.157 498.092,78.133   "/>
		<path clip-path="url(#SVGID_18_)" fill="#58585A" d="M504.147,55.855c1.891,2.51,3.828,2.604,5.523,1.327    c1.705-1.29,2.143-3.167,0.242-5.678l-3.092-4.141l-2.768,2.082l-5.887-7.801l13.796-10.392l17.513,23.237l-5.673,4.257    l-3.232-1.03c-0.811,3.708-2.59,6.521-5.888,9.003c-10.954,8.249-16.916,4.714-29.324-11.761    c-11.887-15.78-12.482-24.471-1.845-32.492c5.906-4.443,12.901-6.246,18.761-2.441c1.817,1.192,3.596,3.149,6.13,6.516    l-11.029,8.314l-1.845-2.45c-1.882-2.497-3.801-2.594-5.523-1.304c-1.705,1.276-2.134,3.158-0.242,5.654L504.147,55.855z"/>
		
			<rect x="-11.048" y="490.973" transform="matrix(0.6017, 0.7987, -0.7987, 0.6017, 403.683, 186.217)" clip-path="url(#SVGID_18_)" fill="#58585A" width="52.343" height="13.81"/>
		<path clip-path="url(#SVGID_18_)" fill="#58585A" d="M56.655,499.35L25.16,457.542l12.408-9.353    c8.924-6.726,15.864-7.21,23.195,2.516c7.285,9.659,6.26,15.276-3.857,22.896l-1.9,1.426l12.287,16.302L56.655,499.35z     M49.128,467.231c3.549-2.674,4.648-4.5,1.137-9.148c-2.981-3.968-4.63-4.099-8.766-0.978L49.128,467.231z"/>
	</g>
	<g>
		<defs>
			<rect id="SVGID_19_" x="0.064" width="484.306" height="485.415"/>
		</defs>
		<clipPath id="SVGID_20_">
			<use xlink:href="#SVGID_19_" overflow="visible"/>
		</clipPath>
		<polygon clip-path="url(#SVGID_20_)" fill="#58585A" points="85.934,477.292 54.429,435.493 78.313,417.477 84.816,426.094     71.951,435.8 77.308,442.899 87.946,434.887 94.708,443.839 84.07,451.86 90.191,460.02 103.717,449.82 110.47,458.791   "/>
		<path clip-path="url(#SVGID_20_)" fill="#58585A" d="M116.535,436.518c1.882,2.506,3.81,2.617,5.515,1.332    c1.714-1.295,2.152-3.167,0.261-5.683l-3.121-4.136l-2.757,2.068l-5.869-7.788l13.777-10.396l17.513,23.232l-5.654,4.247    l-3.242-1.015c-0.801,3.707-2.599,6.521-5.878,9.008c-10.964,8.244-16.926,4.713-29.343-11.766    c-11.877-15.78-12.464-24.472-1.835-32.492c5.916-4.443,12.902-6.25,18.761-2.44c1.816,1.192,3.596,3.14,6.129,6.512l-11.02,8.31    l-1.854-2.441c-1.882-2.496-3.81-2.59-5.515-1.304c-1.714,1.285-2.143,3.158-0.261,5.654L116.535,436.518z"/>
		<polygon clip-path="url(#SVGID_20_)" fill="#58585A" points="148.272,430.304 116.768,388.516 127.797,380.188 159.301,422.004       "/>
		<path clip-path="url(#SVGID_20_)" fill="#58585A" d="M179.572,406.737l-31.505-41.808l12.408-9.353    c8.934-6.726,15.864-7.21,23.205,2.506c7.275,9.66,6.25,15.268-3.856,22.888l-1.91,1.435l12.287,16.302L179.572,406.737z     M172.036,374.618c3.549-2.684,4.648-4.509,1.136-9.167c-2.972-3.949-4.62-4.08-8.766-0.969L172.036,374.618z"/>
		<polygon clip-path="url(#SVGID_20_)" fill="#58585A" points="208.84,384.66 177.345,342.871 201.23,324.855 207.723,333.481     194.868,343.178 200.214,350.276 210.853,342.265 217.606,351.217 206.978,359.247 213.107,367.398 226.633,357.198     233.377,366.168   "/>
		<path clip-path="url(#SVGID_20_)" fill="#58585A" d="M239.432,343.895c1.891,2.516,3.829,2.618,5.524,1.323    c1.704-1.286,2.151-3.167,0.27-5.673l-3.121-4.137l-2.767,2.068l-5.869-7.797l13.777-10.378l17.513,23.214l-5.645,4.267    l-3.251-1.024c-0.792,3.707-2.6,6.521-5.869,8.999c-10.982,8.253-16.944,4.713-29.343-11.757    c-11.886-15.779-12.464-24.462-1.835-32.491c5.906-4.443,12.892-6.241,18.751-2.441c1.808,1.192,3.596,3.14,6.139,6.521    l-11.029,8.309l-1.854-2.449c-1.873-2.497-3.801-2.6-5.505-1.305c-1.714,1.286-2.152,3.158-0.261,5.654L239.432,343.895z"/>
		<polygon clip-path="url(#SVGID_20_)" fill="#58585A" points="271.169,337.691 239.684,295.884 250.713,287.583 282.208,329.382       "/>
		<path clip-path="url(#SVGID_20_)" fill="#58585A" d="M302.479,314.105l-31.496-41.789l12.399-9.362    c8.924-6.716,15.873-7.219,23.195,2.516c7.294,9.66,6.269,15.268-3.848,22.897l-1.9,1.425l12.287,16.302L302.479,314.105z     M294.942,281.985c3.559-2.664,4.64-4.489,1.137-9.147c-2.99-3.968-4.62-4.099-8.766-0.978L294.942,281.985z"/>
		<polygon clip-path="url(#SVGID_20_)" fill="#58585A" points="331.738,292.046 300.243,250.257 324.137,232.241 330.639,240.867     317.765,250.555 323.122,257.654 333.759,249.652 340.522,258.604 329.884,266.615 336.004,274.775 349.54,264.584     356.293,273.555   "/>
		<path clip-path="url(#SVGID_20_)" fill="#58585A" d="M362.358,251.282c1.891,2.516,3.801,2.608,5.505,1.323    c1.724-1.286,2.161-3.168,0.261-5.683l-3.12-4.136l-2.739,2.077l-5.887-7.792l13.786-10.387l17.495,23.228l-5.646,4.257    l-3.232-1.034c-0.811,3.717-2.608,6.53-5.888,9.009c-10.955,8.253-16.916,4.713-29.334-11.757    c-11.877-15.785-12.473-24.476-1.835-32.487c5.906-4.458,12.893-6.25,18.742-2.445c1.836,1.183,3.596,3.139,6.14,6.507    l-11.021,8.318l-1.845-2.44c-1.891-2.511-3.81-2.604-5.523-1.318c-1.705,1.291-2.134,3.158-0.242,5.668L362.358,251.282z"/>
		
			<rect x="357.682" y="213.114" transform="matrix(0.6019, 0.7986, -0.7986, 0.6019, 328.506, -218.946)" clip-path="url(#SVGID_20_)" fill="#58585A" width="52.342" height="13.802"/>
		<path clip-path="url(#SVGID_20_)" fill="#58585A" d="M425.385,221.482l-31.504-41.789l12.426-9.357    c8.925-6.716,15.846-7.21,23.195,2.52c7.267,9.66,6.251,15.268-3.865,22.883l-1.91,1.43l12.287,16.292L425.385,221.482z     M417.868,189.376c3.54-2.673,4.63-4.504,1.108-9.157c-2.962-3.959-4.61-4.094-8.747-0.974L417.868,189.376z"/>
	</g>
	<g>
		<defs>
			<rect id="SVGID_21_" x="0.064" y="-0.009" width="484.306" height="484.501"/>
		</defs>
		<clipPath id="SVGID_22_">
			<use xlink:href="#SVGID_21_" overflow="visible"/>
		</clipPath>
		<polygon clip-path="url(#SVGID_22_)" fill="#58585A" points="454.654,199.428 423.168,157.639 447.043,139.628 453.537,148.254     440.691,157.938 446.038,165.031 456.657,157.029 463.42,165.995 452.8,174.011 458.93,182.153 472.447,171.966 479.201,180.932       "/>
		<path clip-path="url(#SVGID_22_)" fill="#58585A" d="M485.255,158.659c1.891,2.515,3.828,2.613,5.523,1.323    c1.715-1.286,2.152-3.163,0.271-5.673l-3.12-4.141l-2.767,2.082l-5.869-7.797l13.777-10.386l17.513,23.228l-5.663,4.252    l-3.232-1.029c-0.792,3.712-2.6,6.525-5.869,9.003c-10.982,8.263-16.944,4.713-29.353-11.751    c-11.887-15.785-12.474-24.476-1.845-32.487c5.925-4.453,12.921-6.25,18.771-2.44c1.808,1.183,3.596,3.134,6.12,6.502    l-11.011,8.319l-1.854-2.441c-1.872-2.51-3.801-2.604-5.506-1.318c-1.714,1.29-2.161,3.158-0.27,5.668L485.255,158.659z"/>
		<path clip-path="url(#SVGID_22_)" fill="#58585A" d="M160.68,509.542l-31.505-41.817l12.417-9.343    c8.915-6.726,15.864-7.21,23.186,2.515c7.285,9.66,6.26,15.277-3.856,22.897l-1.9,1.425l12.296,16.302L160.68,509.542z     M153.144,477.421c3.549-2.673,4.648-4.509,1.136-9.166c-2.981-3.95-4.629-4.09-8.766-0.96L153.144,477.421z"/>
		<polygon clip-path="url(#SVGID_22_)" fill="#58585A" points="189.949,487.482 158.444,445.675 182.338,427.668 188.84,436.285     175.967,445.982 181.323,453.09 191.961,445.079 198.724,454.031 188.086,462.051 194.206,470.203 207.741,460.001     214.495,468.982   "/>
	</g>
	<g>
		<defs>
			<rect id="SVGID_23_" x="0.064" width="484.306" height="485.415"/>
		</defs>
		<clipPath id="SVGID_24_">
			<use xlink:href="#SVGID_23_" overflow="visible"/>
		</clipPath>
		<path clip-path="url(#SVGID_24_)" fill="#58585A" d="M220.559,446.7c1.873,2.515,3.801,2.608,5.515,1.322    c1.705-1.285,2.143-3.167,0.252-5.673l-3.111-4.127l-2.767,2.068l-5.869-7.788l13.777-10.396l17.513,23.232l-5.645,4.248    l-3.251-1.016c-0.811,3.698-2.599,6.512-5.888,8.989c-10.955,8.263-16.917,4.732-29.334-11.746    c-11.877-15.79-12.464-24.472-1.826-32.492c5.906-4.453,12.902-6.251,18.752-2.44c1.826,1.183,3.596,3.139,6.129,6.511    l-11.02,8.31l-1.845-2.45c-1.891-2.496-3.819-2.599-5.524-1.304c-1.705,1.285-2.133,3.158-0.261,5.654L220.559,446.7z"/>
		<polygon clip-path="url(#SVGID_24_)" fill="#58585A" points="252.288,440.496 220.801,398.688 231.803,390.379 263.317,432.186       "/>
		<path clip-path="url(#SVGID_24_)" fill="#58585A" d="M283.587,416.909l-31.515-41.807l12.418-9.353    c8.934-6.717,15.873-7.211,23.204,2.524c7.285,9.659,6.241,15.268-3.865,22.888l-1.91,1.435l12.306,16.302L283.587,416.909z     M276.051,384.79c3.539-2.664,4.639-4.499,1.136-9.147c-2.98-3.969-4.63-4.099-8.766-0.969L276.051,384.79z"/>
		<polygon clip-path="url(#SVGID_24_)" fill="#58585A" points="312.846,394.85 281.361,353.052 305.254,335.045 311.748,343.653     298.882,353.36 304.23,360.467 314.868,352.447 321.631,361.408 310.993,369.419 317.123,377.588 330.658,367.388     337.411,376.359   "/>
		<path clip-path="url(#SVGID_24_)" fill="#58585A" d="M343.466,354.086c1.872,2.496,3.81,2.608,5.505,1.322    c1.705-1.285,2.161-3.167,0.271-5.682l-3.121-4.127l-2.767,2.068l-5.868-7.798l13.777-10.377l17.513,23.224l-5.645,4.257    l-3.242-1.024c-0.811,3.707-2.608,6.521-5.878,8.998c-10.964,8.254-16.926,4.714-29.334-11.756    c-11.905-15.78-12.482-24.48-1.845-32.492c5.906-4.452,12.902-6.241,18.742-2.44c1.836,1.183,3.596,3.14,6.148,6.521l-11.029,8.31    l-1.845-2.459c-1.882-2.497-3.81-2.59-5.515-1.305c-1.714,1.286-2.143,3.158-0.27,5.654L343.466,354.086z"/>
		<polygon clip-path="url(#SVGID_24_)" fill="#58585A" points="375.185,347.882 343.699,306.075 354.728,297.765 386.223,339.564       "/>
		<path clip-path="url(#SVGID_24_)" fill="#58585A" d="M406.494,324.295l-31.495-41.807l12.398-9.354    c8.925-6.716,15.874-7.21,23.195,2.516c7.294,9.669,6.27,15.277-3.856,22.897l-1.891,1.435l12.287,16.302L406.494,324.295z     M398.976,292.176c3.54-2.674,4.64-4.509,1.118-9.166c-2.972-3.95-4.62-4.08-8.757-0.96L398.976,292.176z"/>
	</g>
	<g>
		<defs>
			<rect id="SVGID_25_" x="0.064" y="-0.009" width="484.306" height="484.501"/>
		</defs>
		<clipPath id="SVGID_26_">
			<use xlink:href="#SVGID_25_" overflow="visible"/>
		</clipPath>
		<polygon clip-path="url(#SVGID_26_)" fill="#58585A" points="435.772,302.237 404.258,260.429 428.152,242.423 434.654,251.049     421.781,260.737 427.136,267.844 437.775,259.833 444.538,268.794 433.9,276.806 440.02,284.966 453.555,274.756 460.309,283.737       "/>
		<path clip-path="url(#SVGID_26_)" fill="#58585A" d="M466.373,261.473c1.882,2.496,3.801,2.599,5.506,1.304    c1.724-1.285,2.161-3.148,0.261-5.663l-3.121-4.137l-2.748,2.077l-5.878-7.797l13.787-10.382l17.513,23.219l-5.663,4.267    l-3.232-1.034c-0.811,3.717-2.6,6.53-5.888,8.989c-10.955,8.272-16.917,4.732-29.334-11.747    c-11.887-15.789-12.474-24.476-1.835-32.478c5.905-4.458,12.893-6.25,18.761-2.44c1.816,1.169,3.596,3.125,6.12,6.502    l-11.02,8.318l-1.845-2.45c-1.891-2.51-3.819-2.604-5.524-1.318c-1.704,1.291-2.133,3.158-0.251,5.673L466.373,261.473z"/>
		<polygon clip-path="url(#SVGID_26_)" fill="#58585A" points="498.111,255.259 466.625,213.452 477.625,205.143 509.149,246.941       "/>
		<path clip-path="url(#SVGID_26_)" fill="#58585A" d="M264.705,519.713l-31.514-41.808l12.417-9.353    c8.925-6.726,15.874-7.21,23.195,2.524c7.294,9.66,6.27,15.269-3.865,22.888l-1.882,1.426l12.287,16.311L264.705,519.713z     M257.168,487.594c3.54-2.664,4.64-4.5,1.137-9.148c-2.99-3.968-4.639-4.099-8.766-0.969L257.168,487.594z"/>
		<polygon clip-path="url(#SVGID_26_)" fill="#58585A" points="293.964,497.655 262.469,455.857 286.363,437.85 292.865,446.458     279.992,456.164 285.347,463.262 295.986,455.251 302.749,464.212 292.101,472.243 298.231,480.384 311.766,470.184     318.52,479.164   "/>
	</g>
	<g>
		<defs>
			<rect id="SVGID_27_" x="0.064" width="484.306" height="485.415"/>
		</defs>
		<clipPath id="SVGID_28_">
			<use xlink:href="#SVGID_27_" overflow="visible"/>
		</clipPath>
		<path clip-path="url(#SVGID_28_)" fill="#58585A" d="M324.583,456.881c1.863,2.506,3.801,2.617,5.506,1.332    c1.724-1.295,2.161-3.167,0.261-5.683l-3.121-4.126l-2.748,2.067l-5.878-7.797l13.769-10.377l17.513,23.214l-5.645,4.266    l-3.232-1.033c-0.811,3.707-2.618,6.521-5.888,9.008c-10.955,8.244-16.917,4.713-29.334-11.756    c-11.887-15.79-12.474-24.481-1.835-32.492c5.905-4.453,12.893-6.241,18.742-2.45c1.826,1.192,3.596,3.148,6.139,6.53l-11.02,8.31    l-1.845-2.46c-1.892-2.496-3.829-2.589-5.524-1.304c-1.704,1.285-2.133,3.158-0.27,5.654L324.583,456.881z"/>
		<polygon clip-path="url(#SVGID_28_)" fill="#58585A" points="356.302,450.686 324.807,408.879 335.836,400.57 367.333,442.368       "/>
		<path clip-path="url(#SVGID_28_)" fill="#58585A" d="M387.602,427.1l-31.495-41.808l12.398-9.353    c8.934-6.716,15.874-7.21,23.205,2.516c7.284,9.669,6.26,15.277-3.848,22.896l-1.909,1.416l12.287,16.312L387.602,427.1z     M380.084,394.981c3.54-2.674,4.64-4.509,1.118-9.167c-2.962-3.949-4.611-4.08-8.757-0.959L380.084,394.981z"/>
		<polygon clip-path="url(#SVGID_28_)" fill="#58585A" points="416.88,405.042 385.375,363.234 409.27,345.227 415.762,353.844     402.898,363.542 408.246,370.639 418.883,362.638 425.646,371.599 415.008,379.61 421.157,387.761 434.672,377.561     441.426,386.541   "/>
	</g>
	<g>
		<defs>
			<rect id="SVGID_29_" x="0.064" y="-0.009" width="484.306" height="484.501"/>
		</defs>
		<clipPath id="SVGID_30_">
			<use xlink:href="#SVGID_29_" overflow="visible"/>
		</clipPath>
		<path clip-path="url(#SVGID_30_)" fill="#58585A" d="M447.481,364.258c1.892,2.516,3.829,2.618,5.524,1.323    c1.705-1.286,2.134-3.148,0.252-5.664l-3.103-4.136l-2.767,2.077l-5.888-7.797l13.797-10.396l17.513,23.232l-5.664,4.266    l-3.232-1.043c-0.819,3.708-2.599,6.521-5.887,8.999c-10.965,8.271-16.927,4.713-29.335-11.747    c-11.886-15.789-12.473-24.472-1.844-32.482c5.905-4.462,12.901-6.26,18.761-2.45c1.816,1.184,3.587,3.14,6.13,6.512    l-11.029,8.328l-1.835-2.46c-1.892-2.506-3.829-2.599-5.524-1.313c-1.714,1.295-2.143,3.158-0.252,5.674L447.481,364.258z"/>
		<polygon clip-path="url(#SVGID_30_)" fill="#58585A" points="479.219,358.064 447.714,316.248 458.744,307.938 490.257,349.746       "/>
		<path clip-path="url(#SVGID_30_)" fill="#58585A" d="M510.528,334.468l-31.514-41.789l12.417-9.361    c8.925-6.717,15.874-7.22,23.195,2.515c7.275,9.679,6.27,15.268-3.856,22.897l-1.891,1.425l12.286,16.302L510.528,334.468z     M502.992,302.358c3.54-2.674,4.639-4.499,1.137-9.157c-2.99-3.959-4.64-4.099-8.766-0.969L502.992,302.358z"/>
		<path clip-path="url(#SVGID_30_)" fill="#58585A" d="M375.856,524.539l-31.505-41.816l12.408-9.344    c8.924-6.726,15.873-7.21,23.195,2.506c7.284,9.679,6.269,15.269-3.866,22.907l-1.882,1.415l12.278,16.321L375.856,524.539z     M368.32,492.419c3.559-2.683,4.63-4.49,1.136-9.147c-2.99-3.969-4.639-4.099-8.766-0.987L368.32,492.419z"/>
		<polygon clip-path="url(#SVGID_30_)" fill="#58585A" points="405.125,502.48 373.62,460.664 397.514,442.667 404.016,451.283     391.142,460.971 396.499,468.087 407.127,460.077 413.89,469.038 403.261,477.049 409.381,485.2 422.917,475 429.67,483.97   "/>
	</g>
	<g>
		<defs>
			<rect id="SVGID_31_" x="0.064" width="484.306" height="485.415"/>
		</defs>
		<clipPath id="SVGID_32_">
			<use xlink:href="#SVGID_31_" overflow="visible"/>
		</clipPath>
		<path clip-path="url(#SVGID_32_)" fill="#58585A" d="M435.725,461.707c1.873,2.506,3.811,2.608,5.506,1.313    c1.714-1.285,2.17-3.167,0.27-5.664l-3.12-4.145l-2.767,2.077l-5.869-7.788l13.797-10.396l17.513,23.214l-5.664,4.267    l-3.232-1.025c-0.811,3.708-2.617,6.54-5.888,8.999c-10.964,8.271-16.926,4.732-29.334-11.756    c-11.904-15.78-12.473-24.462-1.835-32.482c5.896-4.444,12.893-6.251,18.743-2.441c1.825,1.184,3.596,3.13,6.139,6.512    l-11.029,8.31l-1.836-2.44c-1.891-2.506-3.819-2.608-5.523-1.323c-1.705,1.285-2.134,3.167-0.271,5.673L435.725,461.707z"/>
	</g>
	<g>
		<defs>
			<rect id="SVGID_33_" x="0.064" y="-0.009" width="484.306" height="484.501"/>
		</defs>
		<clipPath id="SVGID_34_">
			<use xlink:href="#SVGID_33_" overflow="visible"/>
		</clipPath>
		<polygon clip-path="url(#SVGID_34_)" fill="#58585A" points="467.472,455.502 435.958,413.686 446.988,405.386 478.483,447.184       "/>
		<path clip-path="url(#SVGID_34_)" fill="#58585A" d="M498.772,431.907l-31.514-41.789l12.417-9.361    c8.934-6.726,15.854-7.22,23.186,2.506c7.285,9.669,6.261,15.277-3.847,22.906l-1.91,1.425l12.306,16.303L498.772,431.907z     M491.236,399.788c3.54-2.674,4.639-4.49,1.118-9.147c-2.963-3.969-4.611-4.1-8.748-0.979L491.236,399.788z"/>
	</g>
	<g>
		<defs>
			<rect id="SVGID_35_" x="9.734" width="466.271" height="466.271"/>
		</defs>
		<clipPath id="SVGID_36_">
			<use xlink:href="#SVGID_35_" overflow="visible"/>
		</clipPath>
		<path clip-path="url(#SVGID_36_)" fill="#FFFFFF" d="M-7.062,205.227c1.938,4.127,11.942,15.659,15.799,20.508    c18.631,23.396,31.011,36.065,47.275,55.478c7.937,9.464,20.717,16.497,37.644,15.202c16.711-1.285,35.37-4.844,53.898-7.405    c9.027-1.248,18.268-2.087,27.117-3.521c14.057-2.245,27.843-3.223,37.699-8.086c2.385-2.328,5.626-5.654,7.396-7.415    c1.621,9.297,3.633,19.936,5.626,30.647c1.956,10.545,3.344,21.742,5.99,30.294c3.642,11.719,11.877,14.961,22.543,19.73    c23.195,10.367,43.875,21.648,66.931,31.69c9.632,4.21,18.631,9.79,28.887,10.582c9.502,0.727,18.91-1.118,25.003-4.583    c2.17-1.229,4.657-1.248,6.986-2.646c29.93-17.923,67.946-39.739,98.044-57.438c3.288-1.938,10.116-4.975,11.756-7.723    c3.111-5.198,1.034-14.233,0-20.801c-5.291-33.498-14.494-91.1-16.265-104.551c-5.766-43.535-7.76-47.168-14.215-49.19    c-5.356-1.681-10.442-4.457-16.898-5.985c-20.195-4.797-39.897-10.298-59.897-15.156c-8.104-1.965-16.153-4.788-23.94-5.98    c-12.437-1.919-24.854,2.632-34.523,7.392c-25.17,12.371-52.659,25.785-76.655,36.372c3.083-22.604,7.787-29.474,2.915-34.434    c-5.347-5.459-5.868-5.953-10.098-9.33c-16.441-13.116-29.912-23.792-46.502-36.637c-6.977-5.421-12.604-11.565-19.022-14.443    c-10.982-4.914-31.365-3.722-43.689-3.521c-13.926,0.229-38.966,0.862-47.899,1.062c-8.943,0.2-35.436,1.104-41.192,2.161    c-5.748,1.062-9.996,2.958-13.321,5.459c-6.334,4.732-8.151,9.767-10.116,18.169c-4.351,18.556-26.512,97.234-27.89,102.259    C-8.906,197.849-8.999,201.104-7.062,205.227"/>
		<path clip-path="url(#SVGID_36_)" d="M42.738,77.238c0.605,2.175,5.766,6.954,8.291,9.576c7.62,7.927,16.069,16.381,23.251,23.964    c5.505,5.817,10.507,11.276,15.491,16.195c8.486,8.379,17.755,20.121,33.47,21.504c9.343,0.801,20.475-1.136,30.657-2.119    c24.378-2.366,46.829-4.523,72.204-6.698c8.346-0.722,19.981-0.391,19.021-10.224c-0.456-4.695-11.16-11.058-15.854-14.788    c-11.914-9.488-22.133-17.597-33.815-27.136c-5.515-4.485-10.917-9.758-16.898-13.372c-16.19-9.781-47.331-5.762-70.806-5.641    c-12.184,0.07-53.647,1.127-58.947,2.482C43.502,72.343,42.151,75.072,42.738,77.238 M23.521,96.423    C17.345,120.21,6.8,149.936,3.483,162.707c-3.316,12.795-7.639,24.593-8.048,33.633c-0.513,11.295,8.16,17.117,9.008,18.449    c0.196,0.326,8.813,11.132,13.274,16.409c12.287,14.495,26.567,30.163,39.078,45.72c2.133,2.627,8.775,7.378,12.511,7.825    c11.318,1.295,11.029-10.079,13.787-19.692c6.502-22.655,13.144-45.832,19.367-68.668c2.487-9.092,6.27-18.021,7.042-27.485    c1.099-13.363-4.35-19.171-10.908-25.706c-17.606-17.55-34.197-34.588-52.147-53.2c-4.788-4.97-13.153-14.728-18.081-7.495    C26.092,85.822,24.601,92.246,23.521,96.423"/>
		<path clip-path="url(#SVGID_36_)" d="M225.841,180.15c-6.456,4.849-6.856,8.481,3.633,12.916    c15.436,6.516,75.688,29.888,86.801,32.194c11.635,2.403,23.428-1.56,32.762-6.693c30.703-16.866,61.649-35.361,92.642-52.846    c7.442-4.187,15.193-7.489,10.936-17.965c-14.196-5.71-30.274-8.649-46.157-13.018c-11.505-3.176-23.94-6.115-35.585-8.826    c-6.502-1.495-11.97-3.442-19.711-2.804c-14.886,1.211-27.005,9.255-38.407,14.444c-25.198,11.439-49.931,23.19-56.237,26.05    C247.648,167.625,233.983,174.048,225.841,180.15 M213.778,215.399c5.598,30.871,11.868,60.699,17.615,92.278    c2.292,12.575,3.829,27.275,11.97,33.125c2.971,2.134,8.123,3.671,12.324,5.627c25.516,11.886,49.297,22.972,74.318,34.896    c4.816,2.264,9.353,5.216,14.104,4.21c2.767-0.596,8.058-5.039,8.803-8.803c0.866-4.425-1.322-11.374-2.105-16.917    c-3.838-26.931-7.908-55.547-12.333-83.121c-1.714-10.693-3.261-23.698-7.406-31.355c-5.039-9.306-12.948-12.007-22.896-15.859    c-24.695-9.521-49.642-19.167-74.318-28.878c-3.978-1.556-8.095-3.004-11.234-4.252c-8.03-3.176-9.595-1.057-10.498,3.177    C211.281,203.457,212.501,208.375,213.778,215.399"/>
		<path clip-path="url(#SVGID_36_)" d="M216.6,180.876c-1.63-8.519-7.61-15.785-15.854-11.616    c-11.309,5.673-20.643,35.883-9.167,47.895c1.239,1.285,4.015,3.148,6.698,3.167c3.643,0.056,9.986-3.628,10.563-7.042    c0.484-2.86-1.546-6.8-1.76-9.501C206.251,193.317,211.961,187.202,216.6,180.876"/>
		<path clip-path="url(#SVGID_36_)" d="M438.167,200.248c-2.842,0.638-5.748,3.279-7.052,5.636    c-8.18,14.76,2.133,44.393,15.5,46.153c9.67,1.267,13.042-10.536,13.042-19.376C459.638,220.108,451.31,197.271,438.167,200.248"/>
		<path clip-path="url(#SVGID_36_)" d="M134.513,219.279c-10.536,1.994-17.914,18.99-17.261,33.456    c0.382,8.272,4.173,18.202,11.271,18.296c11.719,0.195,19.376-19.078,19.376-32.38    C147.899,228.147,143.708,217.523,134.513,219.279"/>
		<path clip-path="url(#SVGID_36_)" d="M417.02,248.86c-2.161-0.819-5.021-0.54-5.989-0.354c-2.823,0.596-5.133,2.683-6.344,4.564    c-8.496,13.349,0.019,41.472,12.333,46.502c5.711,2.348,10.191-1.034,12.334-4.22C438.175,282.255,428.757,253.322,417.02,248.86"/>
		<path clip-path="url(#SVGID_36_)" d="M392.363,301.697c-5.301-0.987-8.925,2.571-10.563,5.281    c-8.627,14.225,1.201,49.083,19.021,46.856c12.576-6.977,10.442-29.558,3.167-41.928    C401.64,307.919,396.507,302.46,392.363,301.697"/>
		<path clip-path="url(#SVGID_36_)" fill="#FFFFFF" d="M124.648,112.888c6.232,3.451,13.582,5.226,19.73,5.636    c9.79,0.657,21.276-1.556,22.198-9.166c0.773-6.544-5.72-11.076-10.936-13.736c-8.226-4.206-16.917-6.334-27.117-5.286    c-6.94,0.727-13.386,3.167-14.439,8.463C112.743,105.497,119.543,110.061,124.648,112.888"/>
		<path clip-path="url(#SVGID_36_)" fill="#FFFFFF" d="M359.013,146.643c3.242-1.817,7.872-5.44,7.052-10.21    c-0.95-5.542-8.831-6.218-16.916-5.291c-4.527,0.531-7.993,1.267-11.626,3.163c-2.599,1.383-8.458,5.421-7.731,10.238    C331.235,154.416,353.667,149.628,359.013,146.643"/>
		<path clip-path="url(#SVGID_36_)" fill="#FFFFFF" d="M77.457,194.295c8.337-0.075,13.023-16.428,12.883-25.906    c-0.112-9.026-2.562-21.625-10.88-18.831c-8.58,2.869-12.669,21.519-9.958,34.835C70.498,189.354,73.283,194.333,77.457,194.295"/>
		<path clip-path="url(#SVGID_36_)" fill="#FFFFFF" d="M37.764,152.157c8.328,0.144,13.415-16.092,13.517-25.585    c0.103-9.022-2.049-21.681-10.424-19.087c-8.645,2.664-13.19,21.197-10.806,34.597C30.936,147.062,33.609,152.101,37.764,152.157"/>
		<path clip-path="url(#SVGID_36_)" fill="#FFFFFF" d="M57.633,250.034c8.337,0.037,13.2-16.274,13.172-25.748    c-0.019-9.036-2.329-21.645-10.676-18.957c-8.598,2.776-12.911,21.379-10.34,34.723C50.74,245.032,53.479,250.034,57.633,250.034"/>
		<path clip-path="url(#SVGID_36_)" fill="#FFFFFF" d="M22.151,211.859c8.337,0.116,13.386-16.12,13.47-25.613    c0.074-9.022-2.087-21.682-10.461-19.068c-8.645,2.673-13.144,21.225-10.741,34.597C15.323,206.764,17.997,211.803,22.151,211.859    "/>
		<path clip-path="url(#SVGID_36_)" fill="#FFFFFF" d="M402.134,152.073c-8.337,0.82-22.087,5.524-20.773,13.391    c0.829,5.035,8.365,6.935,15.491,6.334c7.108-0.591,21.621-5.454,20.783-13.745C416.993,151.691,408.459,151.463,402.134,152.073"/>
		<path clip-path="url(#SVGID_36_)" fill="#FFFFFF" d="M336.415,161.174c-5.524,0.629-8.887,1.91-12.334,3.885    c-2.282,1.304-7.666,5.063-7.387,9.157c0.316,4.742,7.182,6.6,12.678,6.688c8.71,0.112,24.5-4.802,23.96-13.386    C352.875,160.592,343.625,160.345,336.415,161.174"/>
		<path clip-path="url(#SVGID_36_)" fill="#FFFFFF" d="M277.849,168.785c-5.012,0.573-8.943,1.947-12.334,3.871    c-2.674,1.518-7.452,4.97-7.033,9.157c0.96,9.637,21.611,6.316,28.533,2.827c3.754-1.91,8.915-5.752,7.75-10.932    C293.61,168.613,285.72,167.877,277.849,168.785"/>
		<path clip-path="url(#SVGID_36_)" fill="#FFFFFF" d="M330.704,193.038c-7.237,0.703-21.825,4.854-20.772,13.391    c0.484,4.066,5.318,5.888,9.846,6.334c8.096,0.801,17.392-2.338,21.845-5.636c2.143-1.583,5.161-4.867,4.583-8.463    C345.348,193.322,337.998,192.32,330.704,193.038"/>
		<path clip-path="url(#SVGID_36_)" fill="#FFFFFF" d="M272.25,311.217c8.877,10.824,17.96,3.288,17.96-11.979    c0-12.418-7.704-38.082-19.721-35.585c-6.186,1.285-7.872,11.011-7.76,17.96C262.925,292.065,267.639,305.59,272.25,311.217"/>
	</g>
	<g>
		<defs>
			<rect id="SVGID_37_" x="0.064" width="484.306" height="485.415"/>
		</defs>
		<clipPath id="SVGID_38_">
			<use xlink:href="#SVGID_37_" overflow="visible"/>
		</clipPath>
		<path clip-path="url(#SVGID_38_)" d="M0.055,484.492h484.492V0H0.055V484.492z M474.859,474.794H9.743V9.683h465.116V474.794z"/>
		<rect x="0.055" y="406.969" clip-path="url(#SVGID_38_)" width="484.492" height="77.522"/>
		<path clip-path="url(#SVGID_38_)" fill="#FFFFFF" d="M119.739,456.676c0,3.121,1.304,4.359,3.195,4.359    c1.9,0,3.205-1.238,3.205-4.359v-5.17h-3.055v-9.744h15.277v29.027h-6.25l-1.751-2.776c-2.552,2.478-5.319,3.633-8.952,3.633    c-12.138,0-14.467-6.391-14.467-26.978c0-19.711,4.21-26.995,15.994-26.995c6.558,0,12.436,2.775,14.551,9.314    c0.652,2.031,0.875,4.658,0.875,8.888h-12.222v-3.065c0-3.12-1.304-4.359-3.205-4.359c-1.891,0-3.195,1.239-3.195,4.359V456.676z"/>
		<path clip-path="url(#SVGID_38_)" fill="#FFFFFF" d="M173.898,470.79h-11.635l-1.025-6.559h-7.415l-1.024,6.559h-11.635    l9.017-52.241h14.69L173.898,470.79z M154.476,454.059h6.111l-3.056-21.463h-0.149L154.476,454.059z"/>
		<polygon clip-path="url(#SVGID_38_)" fill="#FFFFFF" points="176.339,470.79 176.339,418.548 190.741,418.548 195.836,443.439     195.985,443.439 200.997,418.548 215.408,418.548 215.408,470.79 204.928,470.79 204.928,439.648 204.779,439.648 199.255,470.79     192.492,470.79 186.968,439.648 186.819,439.648 186.819,470.79   "/>
		<path clip-path="url(#SVGID_38_)" fill="#FFFFFF" d="M221.109,418.548h15.128c10.769,0,14.541,4.509,14.541,12.958    c0,7.992-3.046,10.471-5.439,11.561v0.14c2.673,0.232,6.902,4.592,6.902,12.809c0,10.116-4.797,14.774-14.262,14.774h-16.87    V418.548z M232.883,439.657h1.537c2.981,0,4.583-1.546,4.583-5.831c0-4.006-1.09-5.813-4.005-5.813h-2.115V439.657z     M232.883,461.036h2.627c3.13,0,4.21-1.761,4.21-6.12c0-4.648-0.866-6.39-4.359-6.39h-2.478V461.036z"/>
		<polygon clip-path="url(#SVGID_38_)" fill="#FFFFFF" points="257.439,470.79 257.439,418.548 269.661,418.548 269.661,459.574     285.375,459.574 285.375,470.79   "/>
		<rect x="290.658" y="418.548" clip-path="url(#SVGID_38_)" fill="#FFFFFF" width="12.222" height="52.241"/>
		<polygon clip-path="url(#SVGID_38_)" fill="#FFFFFF" points="309.913,470.79 309.913,418.548 321.631,418.548 329.54,441.688     329.698,441.688 329.698,418.548 340.168,418.548 340.168,470.79 328.832,470.79 320.532,443.718 320.382,443.718 320.382,470.79       "/>
		<path clip-path="url(#SVGID_38_)" fill="#FFFFFF" d="M357.886,456.676c0,3.121,1.313,4.359,3.195,4.359    c1.9,0,3.204-1.238,3.204-4.359v-5.17h-3.055v-9.744h15.276v29.027h-6.25l-1.752-2.776c-2.543,2.478-5.3,3.633-8.933,3.633    c-12.157,0-14.485-6.391-14.485-26.978c0-19.711,4.22-26.995,15.994-26.995c6.558,0,12.454,2.775,14.56,9.314    c0.652,2.031,0.866,4.658,0.866,8.888h-12.222v-3.065c0-3.12-1.304-4.359-3.204-4.359c-1.882,0-3.195,1.239-3.195,4.359V456.676z"/>
		<path clip-path="url(#SVGID_38_)" fill="#FFFFFF" d="M433.937,19.385v3.596h-7.657v24.276h-4.499V22.981h-7.677v-3.596H433.937z     M465.171,47.257h-4.509V25.31h-0.13l-7.723,21.947h-3.671l-7.34-21.947h-0.131v21.947h-4.509V19.385h7.154l6.949,20.727h0.131    l6.763-20.727h7.015V47.257z"/>
	</g>
</g>
</svg>