<?xml version="1.0" encoding="UTF-8"?>
<!-- Generator: Adobe Illustrator 15.0.0, SVG Export Plug-In . SVG Version: 6.00 Build 0)  -->
<!DOCTYPE svg PUBLIC "-//W3C//DTD SVG 1.1//EN" "http://www.w3.org/Graphics/SVG/1.1/DTD/svg11.dtd">
<svg version="1.1" id="Ebene_1" xmlns="http://www.w3.org/2000/svg" xmlns:xlink="http://www.w3.org/1999/xlink" x="0px" y="0px" width="484.443px" height="484.453px" viewBox="0 0 484.443 484.453" enable-background="new 0 0 484.443 484.453" xml:space="preserve">
<g>
	<rect width="484.443" height="484.438"/>
	<polygon fill="#58585A" points="0,99.137 7.856,93.216 0,82.8  "/>
	<g>
		<defs>
			<rect id="SVGID_1_" width="484.341" height="484.447"/>
		</defs>
		<clipPath id="SVGID_2_">
			<use xlink:href="#SVGID_1_" overflow="visible"/>
		</clipPath>
		<path clip-path="url(#SVGID_2_)" fill="#58585A" d="M28.123,77.947L-3.38,36.146l12.406-9.348    c8.937-6.723,15.87-7.208,23.189,2.513c7.287,9.66,6.266,15.269-3.837,22.887l-1.921,1.44l12.29,16.29L28.123,77.947z     M20.588,45.838c3.553-2.676,4.648-4.508,1.138-9.156c-2.989-3.954-4.634-4.089-8.779-0.975L20.588,45.838z"/>
		<polygon clip-path="url(#SVGID_2_)" fill="#58585A" points="57.387,55.886 25.885,14.103 49.783,-3.912 56.277,4.709     43.405,14.411 48.752,21.502 59.392,13.492 66.161,22.448 55.522,30.467 61.653,38.622 75.183,28.425 81.943,37.391   "/>
		<path clip-path="url(#SVGID_2_)" fill="#58585A" d="M87.985,15.124c1.879,2.513,3.809,2.606,5.525,1.329    c1.702-1.291,2.14-3.17,0.251-5.683l-3.114-4.13l-2.76,2.07l-5.87-7.791L95.803-9.469l17.502,23.217L107.655,18l-3.25-1.012    c-0.802,3.711-2.588,6.518-5.87,9.003c-10.97,8.248-16.929,4.709-29.344-11.763C57.303-1.548,56.734-10.233,67.369-18.257    C73.271-22.705,80.25-24.5,86.102-20.7c1.823,1.193,3.599,3.133,6.149,6.513L81.215-5.879l-1.846-2.448    c-1.879-2.49-3.809-2.587-5.506-1.296c-1.721,1.277-2.149,3.161-0.271,5.65L87.985,15.124z"/>
		<polygon clip-path="url(#SVGID_2_)" fill="#58585A" points="119.716,8.919 88.218,-32.873 99.258,-41.181 130.737,0.611   "/>
		<path clip-path="url(#SVGID_2_)" fill="#58585A" d="M9.236,180.739l-31.498-41.801l12.401-9.348    c8.928-6.732,15.87-7.208,23.204,2.513c7.273,9.665,6.252,15.269-3.86,22.887l-1.907,1.44l12.285,16.29L9.236,180.739z     M1.702,148.63c3.553-2.671,4.653-4.508,1.138-9.157c-2.979-3.953-4.629-4.088-8.765-0.974L1.702,148.63z"/>
	</g>
	<polygon fill="#58585A" points="38.5,158.677 6.998,116.886 30.887,98.88 37.381,107.491 24.519,117.193 29.875,124.294    40.515,116.284 47.275,125.24 36.636,133.259 42.767,141.413 56.287,131.217 63.047,140.183  "/>
	<g>
		<defs>
			<rect id="SVGID_3_" width="484.341" height="485.884"/>
		</defs>
		<clipPath id="SVGID_4_">
			<use xlink:href="#SVGID_3_" overflow="visible"/>
		</clipPath>
		<path clip-path="url(#SVGID_4_)" fill="#58585A" d="M69.099,117.916c1.888,2.503,3.809,2.606,5.529,1.329    c1.697-1.292,2.135-3.18,0.247-5.683l-3.124-4.131l-2.75,2.07l-5.87-7.791l13.786-10.388l17.502,23.218l-5.651,4.252l-3.25-1.012    c-0.802,3.702-2.583,6.518-5.87,9.003c-10.97,8.247-16.928,4.708-29.339-11.763c-11.888-15.777-12.462-24.463-1.827-32.486    c5.902-4.448,12.881-6.243,18.747-2.443c1.813,1.193,3.59,3.133,6.135,6.513l-11.026,8.308l-1.851-2.447    c-1.883-2.49-3.8-2.597-5.511-1.306c-1.711,1.277-2.149,3.17-0.256,5.66L69.099,117.916z"/>
		<polygon clip-path="url(#SVGID_4_)" fill="#58585A" points="100.834,111.71 69.332,69.909 80.372,61.602 111.851,103.402   "/>
		<path clip-path="url(#SVGID_4_)" fill="#58585A" d="M132.126,88.129l-31.493-41.801l12.406-9.348    c8.938-6.723,15.865-7.208,23.199,2.522c7.278,9.66,6.257,15.264-3.855,22.887l-1.912,1.432l12.29,16.29L132.126,88.129z     M124.602,56.021c3.553-2.667,4.639-4.508,1.124-9.157c-2.974-3.954-4.62-4.089-8.755-0.975L124.602,56.021z"/>
	</g>
	<g>
		<defs>
			<rect id="SVGID_5_" width="484.341" height="484.447"/>
		</defs>
		<clipPath id="SVGID_6_">
			<use xlink:href="#SVGID_5_" overflow="visible"/>
		</clipPath>
		<polygon clip-path="url(#SVGID_6_)" fill="#58585A" points="161.386,66.077 129.898,24.285 153.787,6.266 160.281,14.891     147.409,24.588 152.766,31.684 163.4,23.684 170.161,32.64 159.526,40.649 165.666,48.804 179.187,38.607 185.947,47.582   "/>
		<path clip-path="url(#SVGID_6_)" fill="#58585A" d="M191.998,25.306c1.888,2.513,3.809,2.606,5.516,1.329    c1.711-1.292,2.149-3.17,0.261-5.684l-3.124-4.135L191.9,18.9l-5.87-7.791l13.777-10.392l17.501,23.223l-5.655,4.252l-3.235-1.026    c-0.802,3.716-2.597,6.522-5.879,9.007c-10.966,8.257-16.924,4.704-29.334-11.753c-11.889-15.786-12.472-24.472-1.833-32.486    c5.912-4.457,12.891-6.243,18.742-2.443c1.823,1.185,3.59,3.133,6.14,6.504l-11.017,8.317l-1.856-2.457    c-1.879-2.49-3.809-2.587-5.515-1.296c-1.702,1.268-2.14,3.161-0.252,5.65L191.998,25.306z"/>
		<polygon clip-path="url(#SVGID_6_)" fill="#58585A" points="223.729,19.101 192.231,-22.705 203.267,-31.008 234.75,10.793   "/>
		<path clip-path="url(#SVGID_6_)" fill="#58585A" d="M-9.65,283.526l-31.498-41.802l12.401-9.348    c8.938-6.732,15.87-7.208,23.204,2.513c7.273,9.66,6.252,15.273-3.856,22.882l-1.911,1.445l12.299,16.289L-9.65,283.526z     M-17.185,251.413c3.553-2.667,4.653-4.504,1.138-9.157c-2.979-3.958-4.63-4.084-8.765-0.97L-17.185,251.413z"/>
		<polygon clip-path="url(#SVGID_6_)" fill="#58585A" points="19.614,261.465 -11.884,219.673 12.005,201.667 18.495,210.278     5.637,219.98 10.994,227.081 21.628,219.062 28.388,228.027 17.754,236.046 23.894,244.196 37.414,233.995 44.17,242.965   "/>
	</g>
	<g>
		<defs>
			<rect id="SVGID_7_" width="484.341" height="485.884"/>
		</defs>
		<clipPath id="SVGID_8_">
			<use xlink:href="#SVGID_7_" overflow="visible"/>
		</clipPath>
		<path clip-path="url(#SVGID_8_)" fill="#58585A" d="M50.212,220.703c1.893,2.503,3.809,2.606,5.52,1.319s2.149-3.17,0.256-5.669    l-3.119-4.136l-2.75,2.07l-5.875-7.791l13.777-10.397l17.516,23.227l-5.655,4.252l-3.236-1.021    c-0.811,3.711-2.597,6.532-5.884,9.003c-10.97,8.261-16.928,4.718-29.339-11.753c-11.889-15.772-12.462-24.472-1.832-32.481    c5.907-4.443,12.886-6.248,18.751-2.438c1.813,1.184,3.59,3.133,6.14,6.513l-11.04,8.299l-1.841-2.443    c-1.884-2.503-3.809-2.602-5.52-1.31c-1.707,1.277-2.14,3.161-0.248,5.66L50.212,220.703z"/>
		<polygon clip-path="url(#SVGID_8_)" fill="#58585A" points="81.957,214.498 50.459,172.697 61.485,164.389 92.974,206.189   "/>
		<path clip-path="url(#SVGID_8_)" fill="#58585A" d="M113.25,190.921L81.747,149.12l12.406-9.348    c8.938-6.732,15.866-7.208,23.199,2.513c7.278,9.66,6.257,15.264-3.846,22.887l-1.921,1.44l12.299,16.29L113.25,190.921z     M105.715,158.813c3.552-2.686,4.648-4.508,1.137-9.156c-2.979-3.963-4.634-4.089-8.77-0.975L105.715,158.813z"/>
		<polygon clip-path="url(#SVGID_8_)" fill="#58585A" points="142.514,168.859 111.011,127.068 134.91,109.058 141.404,117.673     128.532,127.371 133.889,134.476 144.528,126.457 151.288,135.422 140.649,143.441 146.789,151.586 160.31,141.39     167.069,150.365   "/>
		<path clip-path="url(#SVGID_8_)" fill="#58585A" d="M173.112,128.098c1.888,2.503,3.809,2.597,5.529,1.319    c1.697-1.292,2.145-3.17,0.247-5.674l-3.114-4.135l-2.76,2.075l-5.87-7.791l13.777-10.392l17.511,23.222l-5.641,4.248l-3.25-1.021    c-0.811,3.715-2.597,6.532-5.879,9.007c-10.97,8.256-16.928,4.713-29.344-11.753c-11.884-15.777-12.457-24.477-1.823-32.486    c5.902-4.448,12.881-6.243,18.742-2.443c1.818,1.184,3.59,3.133,6.14,6.513l-11.035,8.303l-1.833-2.443    c-1.893-2.499-3.813-2.597-5.52-1.306c-1.711,1.277-2.149,3.156-0.256,5.66L173.112,128.098z"/>
		<polygon clip-path="url(#SVGID_8_)" fill="#58585A" points="204.847,121.893 173.345,80.092 184.385,71.784 215.873,113.585   "/>
		<path clip-path="url(#SVGID_8_)" fill="#58585A" d="M236.135,98.312L204.646,56.51l12.402-9.348    c8.937-6.723,15.87-7.212,23.194,2.518c7.287,9.665,6.261,15.259-3.856,22.877l-1.902,1.44l12.29,16.29L236.135,98.312z     M228.601,66.198c3.562-2.662,4.644-4.503,1.138-9.156c-2.979-3.954-4.621-4.084-8.756-0.975L228.601,66.198z"/>
	</g>
	<g>
		<defs>
			<rect id="SVGID_9_" width="484.341" height="484.447"/>
		</defs>
		<clipPath id="SVGID_10_">
			<use xlink:href="#SVGID_9_" overflow="visible"/>
		</clipPath>
		<polygon clip-path="url(#SVGID_10_)" fill="#58585A" points="265.414,76.259 233.902,34.463 257.805,16.448 264.295,25.068     251.427,34.771 256.779,41.866 267.409,33.852 274.179,42.817 263.539,50.832 269.685,58.977 283.204,48.785 289.955,57.765   "/>
		<path clip-path="url(#SVGID_10_)" fill="#58585A" d="M296.007,35.488c1.893,2.508,3.805,2.597,5.511,1.324    c1.716-1.287,2.163-3.17,0.261-5.678l-3.123-4.136l-2.741,2.08l-5.884-7.8l13.79-10.388l17.512,23.232l-5.66,4.247l-3.245-1.03    c-0.802,3.725-2.583,6.532-5.874,9.003c-10.966,8.261-16.924,4.718-29.334-11.753c-11.889-15.772-12.477-24.462-1.828-32.481    c5.893-4.448,12.877-6.248,18.724-2.443c1.837,1.194,3.599,3.138,6.154,6.509l-11.04,8.317l-1.828-2.453    c-1.893-2.503-3.823-2.587-5.52-1.301c-1.716,1.273-2.145,3.161-0.252,5.655L296.007,35.488z"/>
		<polygon clip-path="url(#SVGID_10_)" fill="#58585A" points="327.737,29.278 296.24,-12.522 307.271,-20.826 338.769,20.975   "/>
		<path clip-path="url(#SVGID_10_)" fill="#58585A" d="M359.049,5.697l-31.517-41.801l12.42-9.348    c8.924-6.718,15.852-7.208,23.199,2.522c7.264,9.665,6.248,15.259-3.869,22.877l-1.912,1.441l12.309,16.299L359.049,5.697z     M351.515-26.411c3.543-2.662,4.644-4.508,1.138-9.157c-2.993-3.954-4.644-4.089-8.765-0.974L351.515-26.411z"/>
		<polygon clip-path="url(#SVGID_10_)" fill="#58585A" points="0.728,364.257 -30.761,322.465 -6.872,304.459 -0.382,313.065     -13.25,322.772 -7.893,329.868 2.742,321.868 9.502,330.819 -1.133,338.838 5.007,346.987 18.528,336.796 25.283,345.757   "/>
	</g>
	<g>
		<defs>
			<rect id="SVGID_11_" width="484.341" height="485.884"/>
		</defs>
		<clipPath id="SVGID_12_">
			<use xlink:href="#SVGID_11_" overflow="visible"/>
		</clipPath>
		<path clip-path="url(#SVGID_12_)" fill="#58585A" d="M31.335,323.49c1.883,2.508,3.799,2.61,5.52,1.333    c1.702-1.286,2.149-3.18,0.247-5.678l-3.11-4.141l-2.76,2.07l-5.874-7.786l13.791-10.387l17.502,23.217l-5.655,4.252l-3.235-1.016    c-0.812,3.711-2.597,6.526-5.884,9.007c-10.961,8.243-16.919,4.709-29.33-11.768c-11.897-15.768-12.471-24.457-1.832-32.477    c5.897-4.447,12.877-6.247,18.742-2.452c1.823,1.193,3.59,3.133,6.14,6.518l-11.041,8.309l-1.832-2.443    c-1.888-2.499-3.809-2.602-5.52-1.306c-1.707,1.269-2.135,3.171-0.256,5.65L31.335,323.49z"/>
		
			<rect x="26.667" y="285.328" transform="matrix(0.6017, 0.7987, -0.7987, 0.6017, 254.462, 74.2)" clip-path="url(#SVGID_12_)" fill="#58585A" width="52.334" height="13.813"/>
		<path clip-path="url(#SVGID_12_)" fill="#58585A" d="M94.363,293.708l-31.488-41.801l12.401-9.353    c8.928-6.728,15.87-7.203,23.194,2.518c7.282,9.66,6.261,15.264-3.851,22.882l-1.907,1.445l12.285,16.29L94.363,293.708z     M86.838,261.595c3.553-2.666,4.639-4.503,1.128-9.156c-2.979-3.953-4.629-4.084-8.765-0.97L86.838,261.595z"/>
		<polygon clip-path="url(#SVGID_12_)" fill="#58585A" points="123.627,271.646 92.134,229.855 116.023,211.845 122.518,220.456     109.646,230.158 115.002,237.263 125.642,229.253 132.401,238.209 121.762,246.229 127.902,254.378 141.423,244.187     148.174,253.147   "/>
		<path clip-path="url(#SVGID_12_)" fill="#58585A" d="M154.234,230.885c1.879,2.503,3.809,2.606,5.52,1.329    c1.707-1.292,2.149-3.18,0.247-5.683l-3.105-4.135l-2.769,2.075l-5.87-7.791l13.795-10.387l17.492,23.217l-5.641,4.252    l-3.245-1.016c-0.815,3.716-2.601,6.522-5.883,9.007c-10.961,8.242-16.919,4.699-29.334-11.763    c-11.894-15.777-12.467-24.462-1.833-32.486c5.912-4.448,12.882-6.243,18.747-2.443c1.823,1.193,3.59,3.133,6.136,6.513    l-11.026,8.308l-1.841-2.448c-1.893-2.49-3.814-2.597-5.511-1.306c-1.72,1.278-2.149,3.17-0.266,5.66L154.234,230.885z"/>
		
			<rect x="149.563" y="192.722" transform="matrix(0.6017, 0.7987, -0.7987, 0.6017, 229.442, -60.8477)" clip-path="url(#SVGID_12_)" fill="#58585A" width="52.334" height="13.806"/>
		<path clip-path="url(#SVGID_12_)" fill="#58585A" d="M217.263,201.103l-31.502-41.801l12.416-9.348    c8.918-6.723,15.87-7.212,23.189,2.518c7.278,9.665,6.257,15.269-3.846,22.887l-1.907,1.436l12.275,16.276L217.263,201.103z     M209.738,168.99c3.543-2.662,4.639-4.504,1.128-9.157c-2.979-3.949-4.634-4.084-8.765-0.974L209.738,168.99z"/>
		<polygon clip-path="url(#SVGID_12_)" fill="#58585A" points="246.522,179.051 215.025,137.259 238.914,119.24 245.408,127.86     232.536,137.563 237.893,144.658 248.527,136.658 255.287,145.614 244.653,153.624 250.783,161.769 264.313,151.582     271.064,160.556   "/>
		<path clip-path="url(#SVGID_12_)" fill="#58585A" d="M277.125,138.28c1.884,2.508,3.823,2.606,5.521,1.324    c1.706-1.287,2.145-3.166,0.242-5.679l-3.096-4.135l-2.76,2.084l-5.884-7.795l13.79-10.396l17.512,23.231l-5.669,4.248    l-3.236-1.021c-0.811,3.716-2.583,6.522-5.884,9.002c-10.965,8.262-16.914,4.709-29.334-11.753    c-11.884-15.781-12.467-24.472-1.827-32.481c5.902-4.457,12.886-6.242,18.751-2.443c1.818,1.184,3.59,3.133,6.126,6.499    l-11.04,8.317l-1.827-2.452c-1.884-2.494-3.805-2.587-5.521-1.301c-1.706,1.273-2.136,3.161-0.242,5.655L277.125,138.28z"/>
		<polygon clip-path="url(#SVGID_12_)" fill="#58585A" points="308.855,132.07 277.367,90.269 288.389,81.961 319.887,123.767   "/>
		<path clip-path="url(#SVGID_12_)" fill="#58585A" d="M340.158,108.489L308.65,66.688l12.411-9.348    c8.933-6.718,15.879-7.208,23.199,2.522c7.291,9.665,6.247,15.269-3.86,22.887l-1.893,1.431l12.289,16.29L340.158,108.489z     M332.624,76.38c3.543-2.662,4.644-4.508,1.138-9.156c-2.984-3.954-4.645-4.089-8.766-0.975L332.624,76.38z"/>
		<polygon clip-path="url(#SVGID_12_)" fill="#58585A" points="369.418,86.437 337.92,44.645 361.827,26.63 368.317,35.251     355.449,44.953 360.802,52.049 371.432,44.043 378.201,53 367.563,61.014 373.688,69.168 387.218,58.967 393.978,67.942   "/>
	</g>
	<g>
		<defs>
			<rect id="SVGID_13_" width="484.341" height="484.447"/>
		</defs>
		<clipPath id="SVGID_14_">
			<use xlink:href="#SVGID_13_" overflow="visible"/>
		</clipPath>
		<path clip-path="url(#SVGID_14_)" fill="#58585A" d="M400.029,45.666c1.874,2.513,3.795,2.611,5.511,1.329    c1.697-1.287,2.163-3.17,0.261-5.678l-3.123-4.136l-2.76,2.08l-5.865-7.791l13.781-10.387l17.492,23.222l-5.632,4.247    l-3.245-1.021c-0.802,3.716-2.601,6.522-5.874,9.003c-10.965,8.261-16.924,4.708-29.334-11.753    c-11.907-15.782-12.477-24.472-1.828-32.481c5.894-4.462,12.868-6.248,18.724-2.448c1.837,1.184,3.6,3.133,6.154,6.504    l-11.04,8.317l-1.828-2.453c-1.902-2.494-3.823-2.587-5.52-1.3c-1.716,1.268-2.145,3.161-0.271,5.65L400.029,45.666z"/>
		<polygon clip-path="url(#SVGID_14_)" fill="#58585A" points="431.741,39.461 400.263,-2.331 411.293,-10.648 442.781,31.153   "/>
		<path clip-path="url(#SVGID_14_)" fill="#58585A" d="M463.053,15.879l-31.498-41.801l12.402-9.348    c8.933-6.713,15.869-7.208,23.198,2.522c7.282,9.66,6.267,15.264-3.86,22.887l-1.901,1.44l12.289,16.29L463.053,15.879z     M455.519-16.229c3.563-2.667,4.653-4.499,1.138-9.147c-2.975-3.963-4.625-4.098-8.765-0.974L455.519-16.229z"/>
		<polygon clip-path="url(#SVGID_14_)" fill="#58585A" points="-18.15,467.048 -49.647,425.257 -25.758,407.251 -19.264,415.857     -32.136,425.564 -26.779,432.669 -16.145,424.659 -9.385,433.611 -20.019,441.63 -13.879,449.779 -0.359,439.588 6.392,448.549       "/>
		<path clip-path="url(#SVGID_14_)" fill="#58585A" d="M12.453,426.282c1.878,2.508,3.799,2.61,5.515,1.324    c1.702-1.287,2.149-3.171,0.252-5.67l-3.115-4.14l-2.76,2.07l-5.87-7.786l13.786-10.388l17.501,23.218l-5.646,4.252l-3.245-1.017    c-0.811,3.712-2.597,6.527-5.879,8.998c-10.965,8.253-16.919,4.719-29.334-11.758c-11.898-15.768-12.471-24.467-1.833-32.477    c5.902-4.448,12.891-6.247,18.742-2.452c1.823,1.193,3.59,3.133,6.14,6.518l-11.036,8.308l-1.836-2.442    c-1.888-2.499-3.809-2.602-5.516-1.306c-1.711,1.287-2.14,3.17-0.261,5.65L12.453,426.282z"/>
	</g>
	<g>
		<defs>
			<rect id="SVGID_15_" width="484.341" height="485.884"/>
		</defs>
		<clipPath id="SVGID_16_">
			<use xlink:href="#SVGID_15_" overflow="visible"/>
		</clipPath>
		<polygon clip-path="url(#SVGID_16_)" fill="#58585A" points="44.184,420.081 12.686,378.28 23.721,369.972 55.214,411.773   "/>
		<path clip-path="url(#SVGID_16_)" fill="#58585A" d="M75.476,396.5l-31.498-41.801l12.411-9.353    c8.928-6.732,15.87-7.198,23.194,2.518c7.287,9.66,6.261,15.264-3.846,22.882l-1.912,1.445l12.29,16.29L75.476,396.5z     M67.952,364.387c3.552-2.667,4.644-4.504,1.128-9.156c-2.979-3.954-4.629-4.084-8.765-0.97L67.952,364.387z"/>
		<polygon clip-path="url(#SVGID_16_)" fill="#58585A" points="104.75,374.438 73.248,332.646 97.142,314.632 103.631,323.248     90.759,332.954 96.116,340.05 106.755,332.05 113.515,341.001 102.876,349.021 109.016,357.17 122.536,346.979 129.296,355.939       "/>
		<path clip-path="url(#SVGID_16_)" fill="#58585A" d="M135.348,333.673c1.879,2.508,3.799,2.602,5.52,1.323    c1.697-1.286,2.149-3.17,0.256-5.669l-3.124-4.14l-2.755,2.069l-5.875-7.785l13.795-10.396l17.502,23.227l-5.651,4.252    l-3.245-1.017c-0.816,3.711-2.597,6.527-5.884,8.998c-10.961,8.252-16.919,4.709-29.33-11.758    c-11.898-15.777-12.472-24.467-1.837-32.486c5.912-4.438,12.891-6.238,18.747-2.442c1.823,1.193,3.59,3.133,6.135,6.518    l-11.026,8.308l-1.842-2.442c-1.893-2.499-3.809-2.602-5.52-1.306c-1.711,1.268-2.14,3.17-0.256,5.65L135.348,333.673z"/>
		<polygon clip-path="url(#SVGID_16_)" fill="#58585A" points="167.083,327.472 135.586,285.671 146.621,277.362 178.109,319.164       "/>
		<path clip-path="url(#SVGID_16_)" fill="#58585A" d="M198.385,303.891l-31.502-41.802l12.406-9.352    c8.938-6.732,15.865-7.208,23.19,2.518c7.287,9.66,6.266,15.264-3.847,22.882l-1.911,1.445l12.29,16.289L198.385,303.891z     M190.852,271.777c3.552-2.667,4.639-4.504,1.124-9.156c-2.975-3.963-4.621-4.084-8.765-0.97L190.852,271.777z"/>
		<polygon clip-path="url(#SVGID_16_)" fill="#58585A" points="227.641,281.829 196.147,240.037 220.037,222.027 226.531,230.638     213.659,240.34 219.016,247.44 229.646,239.436 236.405,248.392 225.776,256.411 231.916,264.561 245.427,254.369 252.21,263.329       "/>
		<path clip-path="url(#SVGID_16_)" fill="#58585A" d="M258.233,241.067c1.894,2.494,3.823,2.597,5.539,1.319    c1.697-1.291,2.126-3.175,0.252-5.674l-3.124-4.135l-2.76,2.07l-5.855-7.791l13.771-10.387l17.502,23.223l-5.641,4.242    l-3.255-1.007c-0.82,3.711-2.592,6.527-5.884,8.988c-10.956,8.262-16.923,4.719-29.334-11.749    c-11.884-15.772-12.458-24.472-1.833-32.481c5.921-4.448,12.901-6.243,18.756-2.443c1.809,1.184,3.58,3.128,6.126,6.508    l-11.012,8.308l-1.855-2.443c-1.875-2.494-3.805-2.597-5.502-1.31c-1.729,1.282-2.159,3.17-0.271,5.665L258.233,241.067z"/>
		
			<rect x="253.566" y="202.902" transform="matrix(0.6018, 0.7987, -0.7987, 0.6018, 278.956, -139.867)" clip-path="url(#SVGID_16_)" fill="#58585A" width="52.339" height="13.802"/>
		<path clip-path="url(#SVGID_16_)" fill="#58585A" d="M321.267,211.281l-31.498-41.801l12.401-9.348    c8.942-6.723,15.889-7.208,23.209,2.522c7.282,9.66,6.247,15.259-3.852,22.877l-1.902,1.44l12.29,16.28L321.267,211.281z     M313.742,179.172c3.533-2.662,4.634-4.508,1.128-9.157c-2.983-3.953-4.634-4.088-8.765-0.974L313.742,179.172z"/>
		<polygon clip-path="url(#SVGID_16_)" fill="#58585A" points="350.526,189.229 319.038,147.437 342.937,129.422 349.426,138.042     336.559,147.745 341.911,154.836 352.55,146.835 359.31,155.792 348.681,163.801 354.807,171.96 368.336,161.759 375.087,170.734       "/>
		<path clip-path="url(#SVGID_16_)" fill="#58585A" d="M381.147,148.458c1.865,2.513,3.805,2.597,5.502,1.329    c1.706-1.287,2.163-3.17,0.261-5.679l-3.114-4.135l-2.76,2.08l-5.875-7.8l13.781-10.387l17.512,23.232l-5.65,4.247l-3.235-1.021    c-0.812,3.711-2.602,6.522-5.884,8.993c-10.966,8.262-16.915,4.718-29.335-11.753c-11.897-15.772-12.467-24.462-1.827-32.481    c5.893-4.453,12.886-6.248,18.732-2.448c1.837,1.193,3.59,3.142,6.145,6.513l-11.04,8.317l-1.827-2.452    c-1.884-2.494-3.823-2.592-5.521-1.301c-1.706,1.268-2.135,3.161-0.261,5.65L381.147,148.458z"/>
		<polygon clip-path="url(#SVGID_16_)" fill="#58585A" points="412.879,142.252 381.371,100.451 392.411,92.144 423.891,133.944       "/>
	</g>
	<g>
		<defs>
			<rect id="SVGID_17_" width="484.341" height="484.447"/>
		</defs>
		<clipPath id="SVGID_18_">
			<use xlink:href="#SVGID_17_" overflow="visible"/>
		</clipPath>
		<path clip-path="url(#SVGID_18_)" fill="#58585A" d="M444.162,118.671L412.674,76.87l12.41-9.348    c8.914-6.723,15.861-7.208,23.181,2.522c7.291,9.66,6.266,15.255-3.842,22.877l-1.911,1.441l12.289,16.299L444.162,118.671z     M436.646,86.563c3.543-2.667,4.644-4.508,1.119-9.156c-2.966-3.954-4.625-4.089-8.766-0.975L436.646,86.563z"/>
		<polygon clip-path="url(#SVGID_18_)" fill="#58585A" points="473.44,96.619 441.942,54.827 465.832,36.808 472.321,45.433     459.444,55.13 464.806,62.226 475.436,54.226 482.205,63.182 471.557,71.191 477.711,79.346 491.222,69.149 497.982,78.124   "/>
		<path clip-path="url(#SVGID_18_)" fill="#58585A" d="M504.033,55.848c1.894,2.513,3.813,2.606,5.529,1.329    c1.697-1.291,2.145-3.17,0.243-5.683l-3.114-4.135l-2.751,2.084l-5.884-7.8l13.781-10.392l17.512,23.232l-5.651,4.252    l-3.244-1.026c-0.803,3.716-2.583,6.522-5.875,9.007c-10.965,8.248-16.924,4.704-29.334-11.768    c-11.889-15.772-12.477-24.458-1.837-32.481c5.902-4.447,12.896-6.242,18.751-2.443c1.818,1.194,3.6,3.143,6.136,6.513    l-11.04,8.317l-1.828-2.457c-1.901-2.49-3.804-2.587-5.52-1.296c-1.716,1.268-2.145,3.156-0.252,5.65L504.033,55.848z"/>
		<polygon clip-path="url(#SVGID_18_)" fill="#58585A" points="25.302,522.873 -6.201,481.081 4.839,472.764 36.318,514.565   "/>
		<path clip-path="url(#SVGID_18_)" fill="#58585A" d="M56.594,499.292L25.102,457.49l12.406-9.352    c8.933-6.714,15.866-7.198,23.199,2.518c7.278,9.66,6.256,15.264-3.855,22.882l-1.912,1.436l12.29,16.299L56.594,499.292z     M49.07,467.179c3.552-2.667,4.648-4.504,1.133-9.156c-2.979-3.954-4.629-4.084-8.765-0.97L49.07,467.179z"/>
	</g>
	<g>
		<defs>
			<rect id="SVGID_19_" width="484.341" height="485.884"/>
		</defs>
		<clipPath id="SVGID_20_">
			<use xlink:href="#SVGID_19_" overflow="visible"/>
		</clipPath>
		<polygon clip-path="url(#SVGID_20_)" fill="#58585A" points="85.864,477.23 54.366,435.448 78.255,417.424 84.75,426.059     71.886,435.756 77.243,442.842 87.878,434.842 94.638,443.793 84.003,451.813 90.134,459.962 103.654,449.771 110.405,458.73       "/>
		<path clip-path="url(#SVGID_20_)" fill="#58585A" d="M116.466,436.464c1.888,2.518,3.809,2.62,5.515,1.334    c1.711-1.296,2.149-3.171,0.261-5.679l-3.124-4.14l-2.751,2.069l-5.87-7.785l13.777-10.397l17.511,23.228l-5.655,4.252    l-3.245-1.017c-0.802,3.711-2.587,6.527-5.87,9.008c-10.975,8.242-16.933,4.699-29.344-11.768    c-11.889-15.777-12.462-24.458-1.832-32.486c5.912-4.438,12.891-6.238,18.751-2.443c1.814,1.194,3.59,3.134,6.14,6.519    l-11.026,8.308l-1.855-2.443c-1.879-2.499-3.809-2.592-5.52-1.305c-1.707,1.286-2.135,3.16-0.247,5.65L116.466,436.464z"/>
		<polygon clip-path="url(#SVGID_20_)" fill="#58585A" points="148.197,430.264 116.699,388.472 127.735,380.154 159.228,421.955       "/>
		<path clip-path="url(#SVGID_20_)" fill="#58585A" d="M179.499,406.683l-31.498-41.802l12.402-9.353    c8.937-6.713,15.87-7.207,23.204,2.518c7.273,9.66,6.252,15.265-3.86,22.883l-1.907,1.436l12.285,16.299L179.499,406.683z     M171.965,374.569c3.553-2.667,4.648-4.504,1.138-9.156c-2.979-3.963-4.634-4.085-8.765-0.971L171.965,374.569z"/>
		<polygon clip-path="url(#SVGID_20_)" fill="#58585A" points="208.764,384.621 177.266,342.838 201.155,324.814 207.645,333.439     194.786,343.146 200.143,350.232 210.777,342.232 217.538,351.184 206.903,359.202 213.029,367.353 226.55,357.16     233.291,366.121   "/>
		<path clip-path="url(#SVGID_20_)" fill="#58585A" d="M239.352,343.854c1.888,2.518,3.818,2.62,5.529,1.324    c1.697-1.287,2.136-3.17,0.267-5.669l-3.133-4.141l-2.76,2.07l-5.86-7.795l13.768-10.388l17.507,23.228l-5.632,4.242l-3.264-1.007    c-0.793,3.711-2.593,6.527-5.856,9.007c-10.983,8.243-16.942,4.7-29.348-11.767c-11.884-15.777-12.457-24.468-1.823-32.486    c5.902-4.438,12.882-6.238,18.733-2.443c1.818,1.193,3.59,3.133,6.149,6.509l-11.035,8.317l-1.851-2.443    c-1.875-2.499-3.791-2.592-5.501-1.306c-1.711,1.287-2.149,3.161-0.256,5.651L239.352,343.854z"/>
		<polygon clip-path="url(#SVGID_20_)" fill="#58585A" points="271.083,337.645 239.594,295.853 250.635,287.554 282.113,329.346       "/>
		<path clip-path="url(#SVGID_20_)" fill="#58585A" d="M302.395,314.072l-31.498-41.791l12.401-9.362    c8.933-6.713,15.87-7.208,23.199,2.518c7.282,9.67,6.266,15.273-3.86,22.892l-1.902,1.427l12.289,16.299L302.395,314.072z     M294.86,281.96c3.562-2.667,4.634-4.514,1.128-9.157c-2.993-3.963-4.615-4.084-8.765-0.97L294.86,281.96z"/>
		<polygon clip-path="url(#SVGID_20_)" fill="#58585A" points="331.635,292.011 300.156,250.22 324.045,232.219 330.544,240.839     317.667,250.536 323.029,257.623 333.668,249.623 340.428,258.574 329.789,266.593 335.925,274.733 349.444,264.542     356.195,273.521   "/>
		<path clip-path="url(#SVGID_20_)" fill="#58585A" d="M362.257,251.245c1.893,2.518,3.804,2.62,5.511,1.324    c1.725-1.287,2.153-3.171,0.27-5.679l-3.123-4.131l-2.751,2.079l-5.884-7.79l13.801-10.388l17.482,23.223l-5.65,4.252    l-3.227-1.025c-0.82,3.711-2.61,6.518-5.883,9.007c-10.966,8.252-16.924,4.699-29.335-11.758    c-11.889-15.782-12.467-24.472-1.837-32.481c5.902-4.462,12.887-6.248,18.742-2.448c1.827,1.184,3.58,3.133,6.145,6.504    l-11.04,8.317l-1.837-2.447c-1.884-2.499-3.813-2.597-5.52-1.306c-1.697,1.287-2.126,3.161-0.243,5.66L362.257,251.245z"/>
		<polygon clip-path="url(#SVGID_20_)" fill="#58585A" points="393.997,245.035 362.48,203.248 373.521,194.94 405.018,236.731       "/>
		<path clip-path="url(#SVGID_20_)" fill="#58585A" d="M425.271,221.463l-31.479-41.792l12.402-9.357    c8.941-6.714,15.869-7.208,23.208,2.522c7.264,9.651,6.238,15.264-3.851,22.877l-1.921,1.431l12.289,16.29L425.271,221.463z     M417.765,189.354c3.534-2.667,4.634-4.508,1.109-9.156c-2.965-3.963-4.615-4.089-8.746-0.975L417.765,189.354z"/>
	</g>
	<g>
		<defs>
			<rect id="SVGID_21_" width="484.341" height="484.447"/>
		</defs>
		<clipPath id="SVGID_22_">
			<use xlink:href="#SVGID_21_" overflow="visible"/>
		</clipPath>
		<polygon clip-path="url(#SVGID_22_)" fill="#58585A" points="454.549,199.406 423.061,157.614 446.94,139.614 453.43,148.229     440.581,157.922 445.934,165.013 456.554,157.013 463.314,165.969 452.703,173.988 458.819,182.133 472.34,171.946     479.091,180.911   "/>
		<path clip-path="url(#SVGID_22_)" fill="#58585A" d="M485.151,158.64c1.884,2.522,3.813,2.615,5.521,1.329    c1.697-1.292,2.145-3.17,0.271-5.683l-3.134-4.135l-2.75,2.084l-5.875-7.791l13.782-10.401l17.501,23.231l-5.659,4.248    l-3.235-1.021c-0.793,3.715-2.583,6.522-5.865,9.007c-10.984,8.256-16.934,4.704-29.354-11.758    c-11.879-15.781-12.467-24.467-1.827-32.481c5.911-4.457,12.896-6.243,18.751-2.443c1.818,1.184,3.59,3.133,6.126,6.504    l-11.003,8.313l-1.864-2.443c-1.874-2.499-3.805-2.597-5.502-1.306c-1.706,1.287-2.163,3.156-0.261,5.66L485.151,158.64z"/>
		<path clip-path="url(#SVGID_22_)" fill="#58585A" d="M160.603,509.474l-31.498-41.801l12.411-9.353    c8.919-6.713,15.87-7.207,23.194,2.518c7.282,9.67,6.252,15.273-3.851,22.892l-1.916,1.445l12.299,16.28L160.603,509.474z     M153.069,477.361c3.553-2.667,4.653-4.504,1.138-9.157c-2.979-3.953-4.629-4.084-8.765-0.97L153.069,477.361z"/>
		<polygon clip-path="url(#SVGID_22_)" fill="#58585A" points="189.868,487.422 158.37,445.63 182.268,427.625 188.758,436.231     175.891,445.938 181.247,453.043 191.882,445.024 198.642,453.984 188.007,461.994 194.138,470.144 207.668,459.952     214.428,468.932   "/>
	</g>
	<g>
		<defs>
			<rect id="SVGID_23_" width="484.341" height="485.884"/>
		</defs>
		<clipPath id="SVGID_24_">
			<use xlink:href="#SVGID_23_" overflow="visible"/>
		</clipPath>
		<path clip-path="url(#SVGID_24_)" fill="#58585A" d="M220.475,446.646c1.884,2.518,3.8,2.61,5.52,1.333    c1.702-1.296,2.14-3.17,0.248-5.678l-3.11-4.131l-2.76,2.079l-5.874-7.795l13.781-10.406l17.511,23.236l-5.646,4.252l-3.254-1.017    c-0.812,3.702-2.588,6.518-5.884,8.998c-10.961,8.262-16.919,4.719-29.33-11.758c-11.888-15.786-12.462-24.477-1.823-32.477    c5.897-4.457,12.886-6.248,18.742-2.443c1.823,1.175,3.59,3.133,6.14,6.509l-11.04,8.299l-1.832-2.443    c-1.888-2.499-3.809-2.592-5.529-1.306c-1.697,1.287-2.126,3.161-0.247,5.65L220.475,446.646z"/>
		<polygon clip-path="url(#SVGID_24_)" fill="#58585A" points="252.201,440.437 220.712,398.645 231.729,390.337 263.231,432.138       "/>
		<path clip-path="url(#SVGID_24_)" fill="#58585A" d="M283.503,416.864l-31.517-41.811l12.42-9.343    c8.933-6.714,15.88-7.208,23.199,2.518c7.292,9.669,6.247,15.273-3.86,22.892l-1.921,1.445l12.309,16.28L283.503,416.864z     M275.969,384.751c3.543-2.666,4.644-4.513,1.138-9.156c-2.983-3.953-4.644-4.084-8.765-0.97L275.969,384.751z"/>
		<polygon clip-path="url(#SVGID_24_)" fill="#58585A" points="312.754,394.803 281.265,353.011 305.163,335.015 311.662,343.621     298.785,353.328 304.147,360.424 314.776,352.414 321.546,361.366 310.897,369.385 317.033,377.544 330.563,367.333     337.313,376.313   "/>
		<path clip-path="url(#SVGID_24_)" fill="#58585A" d="M343.375,354.037c1.874,2.518,3.795,2.61,5.511,1.324    c1.696-1.287,2.153-3.171,0.261-5.67l-3.133-4.131l-2.76,2.07l-5.856-7.786l13.781-10.387l17.493,23.218l-5.632,4.252    l-3.245-1.017c-0.812,3.701-2.611,6.518-5.874,8.998c-10.966,8.262-16.924,4.718-29.335-11.758    c-11.916-15.786-12.476-24.477-1.837-32.478c5.902-4.466,12.877-6.247,18.732-2.452c1.837,1.185,3.59,3.133,6.154,6.518    l-11.04,8.299l-1.837-2.442c-1.893-2.499-3.813-2.593-5.511-1.306c-1.716,1.277-2.145,3.161-0.279,5.65L343.375,354.037z"/>
		<polygon clip-path="url(#SVGID_24_)" fill="#58585A" points="375.087,347.846 343.599,306.035 354.639,297.736 386.117,339.528       "/>
		<path clip-path="url(#SVGID_24_)" fill="#58585A" d="M406.389,324.255L374.9,282.463l12.392-9.361    c8.942-6.714,15.88-7.208,23.209,2.518c7.282,9.679,6.257,15.273-3.86,22.9l-1.902,1.436l12.289,16.281L406.389,324.255z     M398.883,292.142c3.534-2.667,4.634-4.513,1.109-9.156c-2.975-3.954-4.615-4.084-8.765-0.97L398.883,292.142z"/>
	</g>
	<g>
		<defs>
			<rect id="SVGID_25_" width="484.341" height="484.447"/>
		</defs>
		<clipPath id="SVGID_26_">
			<use xlink:href="#SVGID_25_" overflow="visible"/>
		</clipPath>
		<polygon clip-path="url(#SVGID_26_)" fill="#58585A" points="435.658,302.212 404.16,260.401 428.049,242.396 434.548,251.021     421.671,260.709 427.033,267.814 437.672,259.805 444.423,268.774 433.793,276.775 439.929,284.934 453.449,274.724     460.219,283.703   "/>
		<path clip-path="url(#SVGID_26_)" fill="#58585A" d="M466.261,261.437c1.893,2.508,3.804,2.602,5.511,1.314    c1.725-1.286,2.153-3.151,0.271-5.669l-3.124-4.131l-2.751,2.079l-5.884-7.795l13.801-10.396l17.502,23.227l-5.67,4.252    l-3.226-1.016c-0.821,3.711-2.593,6.518-5.894,8.998c-10.956,8.261-16.914,4.708-29.325-11.759    c-11.889-15.786-12.467-24.471-1.837-32.477c5.902-4.457,12.887-6.243,18.761-2.443c1.809,1.175,3.581,3.124,6.126,6.504    l-11.03,8.317l-1.847-2.457c-1.883-2.499-3.813-2.597-5.52-1.306c-1.697,1.278-2.126,3.161-0.243,5.66L466.261,261.437z"/>
		<polygon clip-path="url(#SVGID_26_)" fill="#58585A" points="498.001,255.236 466.503,213.43 477.524,205.122 509.022,246.919       "/>
		<path clip-path="url(#SVGID_26_)" fill="#58585A" d="M264.611,519.656l-31.502-41.811l12.411-9.343    c8.928-6.723,15.884-7.208,23.203,2.518c7.282,9.669,6.257,15.273-3.86,22.882l-1.893,1.436l12.289,16.3L264.611,519.656z     M257.078,487.543c3.543-2.667,4.643-4.513,1.137-9.156c-2.983-3.954-4.634-4.084-8.76-0.97L257.078,487.543z"/>
		<polygon clip-path="url(#SVGID_26_)" fill="#58585A" points="293.871,497.595 262.383,455.803 286.281,437.807 292.771,446.413     279.903,456.12 285.256,463.206 295.895,455.197 302.655,464.157 292.025,472.177 298.143,480.326 311.681,470.125     318.432,479.104   "/>
	</g>
	<g>
		<defs>
			<rect id="SVGID_27_" width="484.341" height="485.884"/>
		</defs>
		<clipPath id="SVGID_28_">
			<use xlink:href="#SVGID_27_" overflow="visible"/>
		</clipPath>
		<path clip-path="url(#SVGID_28_)" fill="#58585A" d="M324.493,456.829c1.864,2.518,3.795,2.61,5.501,1.323    c1.716-1.286,2.163-3.17,0.261-5.678l-3.123-4.122l-2.732,2.07l-5.893-7.786l13.781-10.387l17.502,23.218l-5.642,4.252    l-3.235-1.026c-0.812,3.711-2.611,6.527-5.884,9.008c-10.966,8.242-16.914,4.699-29.334-11.759    c-11.88-15.786-12.467-24.476-1.828-32.477c5.894-4.466,12.877-6.247,18.732-2.461c1.837,1.193,3.59,3.142,6.146,6.526    l-11.021,8.299l-1.847-2.452c-1.893-2.489-3.823-2.583-5.52-1.296c-1.716,1.277-2.145,3.161-0.262,5.65L324.493,456.829z"/>
		<polygon clip-path="url(#SVGID_28_)" fill="#58585A" points="356.205,450.638 324.717,408.827 335.757,400.528 367.235,442.32       "/>
		<path clip-path="url(#SVGID_28_)" fill="#58585A" d="M387.507,427.047l-31.498-41.792l12.401-9.361    c8.934-6.714,15.87-7.208,23.199,2.518c7.292,9.679,6.267,15.273-3.842,22.891l-1.921,1.427l12.29,16.299L387.507,427.047z     M379.991,394.934c3.544-2.667,4.644-4.513,1.119-9.156c-2.965-3.954-4.625-4.084-8.765-0.97L379.991,394.934z"/>
		<polygon clip-path="url(#SVGID_28_)" fill="#58585A" points="416.776,405.004 385.269,363.193 409.167,345.188 415.666,353.813     402.789,363.501 408.151,370.597 418.781,362.597 425.541,371.566 414.902,379.567 421.056,387.717 434.567,377.516     441.317,386.495   "/>
	</g>
	<g>
		<defs>
			<rect id="SVGID_29_" width="484.341" height="484.447"/>
		</defs>
		<clipPath id="SVGID_30_">
			<use xlink:href="#SVGID_29_" overflow="visible"/>
		</clipPath>
		<path clip-path="url(#SVGID_30_)" fill="#58585A" d="M447.379,364.219c1.893,2.518,3.813,2.611,5.529,1.324    c1.697-1.286,2.135-3.151,0.242-5.679l-3.114-4.121l-2.76,2.079l-5.875-7.795l13.782-10.388l17.511,23.218l-5.66,4.252    l-3.235-1.025c-0.812,3.711-2.592,6.518-5.874,9.007c-10.966,8.253-16.924,4.7-29.335-11.758    c-11.897-15.786-12.476-24.477-1.837-32.486c5.902-4.457,12.877-6.237,18.752-2.442c1.809,1.184,3.59,3.133,6.135,6.518    l-11.04,8.317l-1.837-2.462c-1.893-2.499-3.813-2.592-5.511-1.306c-1.716,1.278-2.145,3.161-0.261,5.66L447.379,364.219z"/>
		<polygon clip-path="url(#SVGID_30_)" fill="#58585A" points="479.109,358.027 447.603,316.217 458.633,307.919 490.141,349.71       "/>
		<path clip-path="url(#SVGID_30_)" fill="#58585A" d="M510.411,334.437l-31.507-41.791l12.411-9.362    c8.923-6.713,15.879-7.207,23.208,2.518c7.264,9.679,6.257,15.273-3.86,22.892l-1.902,1.427l12.29,16.299L510.411,334.437z     M502.877,302.324c3.544-2.667,4.644-4.514,1.138-9.157c-2.993-3.953-4.634-4.084-8.765-0.97L502.877,302.324z"/>
		<path clip-path="url(#SVGID_30_)" fill="#58585A" d="M375.758,524.468l-31.497-41.801l12.401-9.353    c8.933-6.714,15.87-7.198,23.199,2.518c7.282,9.679,6.266,15.273-3.86,22.9l-1.902,1.427l12.289,16.299L375.758,524.468z     M368.224,492.354c3.563-2.667,4.644-4.494,1.138-9.138c-2.993-3.973-4.644-4.103-8.765-0.988L368.224,492.354z"/>
		<polygon clip-path="url(#SVGID_30_)" fill="#58585A" points="405.027,502.415 373.521,460.614 397.409,442.618 403.908,451.234     391.031,460.922 396.393,468.036 407.032,460.018 413.792,468.979 403.153,476.988 409.289,485.146 422.809,474.946     429.56,483.906   "/>
	</g>
	<g>
		<defs>
			<rect id="SVGID_31_" width="484.341" height="485.884"/>
		</defs>
		<clipPath id="SVGID_32_">
			<use xlink:href="#SVGID_31_" overflow="visible"/>
		</clipPath>
		<path clip-path="url(#SVGID_32_)" fill="#58585A" d="M435.621,461.659c1.874,2.498,3.804,2.61,5.52,1.314    c1.697-1.287,2.154-3.171,0.252-5.67l-3.114-4.148l-2.77,2.088l-5.855-7.795l13.79-10.387l17.502,23.208l-5.659,4.261    l-3.236-1.025c-0.82,3.711-2.61,6.536-5.884,9.008c-10.956,8.261-16.923,4.718-29.334-11.768    c-11.907-15.768-12.467-24.458-1.837-32.468c5.911-4.457,12.887-6.247,18.742-2.442c1.827,1.175,3.59,3.114,6.145,6.508    l-11.03,8.309l-1.837-2.443c-1.894-2.509-3.823-2.611-5.521-1.314c-1.706,1.268-2.135,3.17-0.271,5.669L435.621,461.659z"/>
	</g>
	<g>
		<defs>
			<rect id="SVGID_33_" width="484.341" height="484.447"/>
		</defs>
		<clipPath id="SVGID_34_">
			<use xlink:href="#SVGID_33_" overflow="visible"/>
		</clipPath>
		<polygon clip-path="url(#SVGID_34_)" fill="#58585A" points="467.36,455.448 435.854,413.647 446.885,405.34 478.363,447.132       "/>
		<path clip-path="url(#SVGID_34_)" fill="#58585A" d="M498.663,431.858l-31.508-41.792l12.411-9.362    c8.942-6.713,15.86-7.198,23.181,2.518c7.282,9.67,6.266,15.265-3.833,22.901l-1.921,1.427l12.309,16.299L498.663,431.858z     M491.129,399.745c3.543-2.667,4.634-4.494,1.109-9.138c-2.965-3.973-4.615-4.104-8.746-0.989L491.129,399.745z"/>
	</g>
	<g>
		<defs>
			<rect id="SVGID_35_" width="484.341" height="485.884"/>
		</defs>
		<clipPath id="SVGID_36_">
			<use xlink:href="#SVGID_35_" overflow="visible"/>
		</clipPath>
		<path clip-path="url(#SVGID_36_)" fill="#FFFFFF" d="M242.229,53.648C119.562,53.792,32.407,112.275,32.016,187.741    c0.209,40.515,25.6,76.018,67.895,100.354l-7.855,103.938l77.854-77.849c22.248,4.849,46.426,7.608,72.32,7.627    c122.639-0.13,209.821-58.612,210.204-134.07C452.05,112.275,364.867,53.792,242.229,53.648"/>
		<path clip-path="url(#SVGID_36_)" d="M338.302,206.684c-8.568-3.059-23.245-10.388-39.115-18.957    c14.658-8.564,28.122-15.273,38.51-20.173c-4.905-13.455-13.465-27.507-13.465-27.507c-9.771,7.333-23.218,16.5-38.51,25.665    c0-19.567,0.635-37.288,1.828-46.454c0,0-15.283,3.669-28.738,2.443c1.25,9.781,1.837,25.679,1.837,44.011    c-15.879-9.166-29.954-18.332-37.288-23.222c0,0-5.506,15.278-15.288,25.064c8.564,3.678,23.843,11.609,40.352,20.798    c-17.12,9.777-32.388,17.73-40.962,21.996c0,0,10.392,11.623,16.509,23.241c7.333-5.501,20.798-14.075,36.677-23.861    c-0.587,17.128-1.212,32.416-2.434,44.034c14.677,1.212,31.777,1.837,31.777,1.837c-1.817-9.175-3.049-25.688-3.636-45.251    c15.264,9.166,29.315,18.341,38.51,25.064C330.964,220.134,338.302,206.684,338.302,206.684"/>
		<path clip-path="url(#SVGID_36_)" fill-rule="evenodd" clip-rule="evenodd" d="M196.273,187.737    c4.639-55.083-29.181-79.346-68.721-76.614c-40.635,2.709-68.45,38.985-67.629,79.075c0.802,37.097,19.623,66.277,59.447,67.63    c13.912,0.56,25.903-2.452,35.727-7.907c-7.357-6.546-12.546-16.084-12.546-16.084c-7.101,3.828-14.733,5.739-22.094,5.45    c-22.915-1.077-36.547-19.642-37.638-43.349c-1.357-31.097,16.91-57,43.092-60.552c35.727-4.91,50.45,17.464,48.809,48.552    c-1.357,27.796-11.437,30.258-12.546,20.984c-1.623-15.809,0-41.992,0.289-53.983c-9.548-0.555-21.273-2.741-21.273-2.741    c0.266,2.187,0.541,4.364,0.802,6.83c-4.625-3.277-10.35-4.918-16.35-4.644c-16.91,0.811-29.987,16.089-32.183,36.817    c-1.637,15.814,4.35,38.174,25.092,40.36c9.805,1.091,17.996-2.732,24.271-8.993c2.728,9.264,12.546,14.458,21.265,13.902    C182.091,231.379,193.826,213.383,196.273,187.737 M141.19,190.198c-1.646,7.907-9.007,14.448-16.369,12.816    s-10.098-11.716-6.807-21.81c2.443-7.637,10.63-12.812,17.437-9.823C141.73,173.834,142.821,182.025,141.19,190.198"/>
		<path clip-path="url(#SVGID_36_)" fill-rule="evenodd" clip-rule="evenodd" d="M400.142,115.799    c-15.265,1.184-33.512,3.954-33.512,3.954c3.562,29.549,3.963,74.949,1.594,103.318c0,0,15.88-3.581,29.54-2.578    C394.985,190.539,396.971,144.146,400.142,115.799 M399.349,247.067c1.193-7.343-4.941-15.669-15.46-16.462    c-9.921-0.983-17.455,4.765-17.847,12.695c-0.392,8.504,5.968,16.653,16.467,16.653    C391.423,259.954,398.155,254.602,399.349,247.067"/>
		<path clip-path="url(#SVGID_36_)" d="M0,484.438h484.443V0H0V484.438z M474.746,474.75H9.684V9.693h465.063V474.75z"/>
		<rect y="406.925" clip-path="url(#SVGID_36_)" width="484.443" height="77.514"/>
		<path clip-path="url(#SVGID_36_)" fill="#FFFFFF" d="M47.541,418.506h15.133c10.765,0,14.546,4.513,14.546,12.942    c0,8-3.058,10.48-5.455,11.562v0.149c2.695,0.224,6.905,4.588,6.905,12.803c0,10.116-4.793,14.778-14.248,14.778H47.541V418.506z     M59.327,439.598h1.524c2.988,0,4.583-1.529,4.583-5.819c0-3.99-1.086-5.809-4-5.809h-2.107V439.598z M59.327,460.987h2.615    c3.133,0,4.219-1.753,4.219-6.117c0-4.662-0.867-6.396-4.364-6.396h-2.471V460.987z"/>
		<path clip-path="url(#SVGID_36_)" fill="#FFFFFF" d="M113.338,470.731h-11.642l-1.021-6.555h-7.417l-1.012,6.555H80.604    l9.017-52.226h14.695L113.338,470.731z M93.915,454.003h6.112l-3.054-21.455H96.82L93.915,454.003z"/>
		<path clip-path="url(#SVGID_36_)" fill="#FFFFFF" d="M116.14,418.496h12.364c13.828,0,18.038,3.497,18.038,26.118    c0,20-2.979,26.107-18.038,26.107H116.14V418.496z M128.359,460.688c5.529,0,5.968-1.958,5.968-11.487v-9.455    c0-9.529-0.438-11.506-5.968-11.506V460.688z"/>
		<polygon clip-path="url(#SVGID_36_)" fill="#FFFFFF" points="168.608,470.731 168.608,418.506 180.828,418.506 180.828,459.532     196.535,459.532 196.535,470.731   "/>
		<path clip-path="url(#SVGID_36_)" fill="#FFFFFF" d="M230.321,470.731h-11.627l-1.026-6.555h-7.408l-1.021,6.555h-11.637    l9.012-52.226h14.695L230.321,470.731z M210.913,454.003h6.098l-3.044-21.455h-0.154L210.913,454.003z"/>
		<polygon clip-path="url(#SVGID_36_)" fill="#FFFFFF" points="233.137,470.731 233.137,418.506 244.854,418.506 252.77,441.63     252.919,441.63 252.919,418.506 263.399,418.506 263.399,470.731 252.052,470.731 243.753,443.672 243.608,443.672     243.608,470.731   "/>
		<path clip-path="url(#SVGID_36_)" fill="#FFFFFF" d="M281.106,456.624c0,3.123,1.314,4.363,3.198,4.363    c1.893,0,3.198-1.24,3.198-4.363v-5.166h-3.049v-9.754h15.273v29.036h-6.257l-1.744-2.778c-2.555,2.48-5.314,3.637-8.951,3.637    c-12.141,0-14.472-6.396-14.472-26.984c0-19.712,4.215-26.985,16.001-26.985c6.546,0,12.438,2.77,14.546,9.306    c0.653,2.033,0.877,4.662,0.877,8.877h-12.225v-3.049c0-3.124-1.306-4.364-3.198-4.364c-1.884,0-3.198,1.24-3.198,4.364V456.624z"/>
		<path clip-path="url(#SVGID_36_)" fill="#FFFFFF" d="M336.055,418.506v39.423c0,8.728-5.38,13.67-15.124,13.67    s-15.124-4.942-15.124-13.67v-39.423h12.206v37.969c0,2.61,0.671,4.074,2.918,4.074s2.909-1.464,2.909-4.074v-37.969H336.055z"/>
		<path clip-path="url(#SVGID_36_)" fill="#FFFFFF" d="M371.581,470.731h-11.628l-1.016-6.555h-7.413l-1.017,6.555h-11.646    l9.017-52.226h14.695L371.581,470.731z M352.168,454.003h6.107l-3.05-21.455h-0.148L352.168,454.003z"/>
		<path clip-path="url(#SVGID_36_)" fill="#FFFFFF" d="M386.033,456.624c0,3.123,1.306,4.363,3.208,4.363    c1.884,0,3.188-1.24,3.188-4.363v-5.166h-3.039v-9.754h15.264v29.036h-6.257l-1.743-2.778c-2.546,2.48-5.306,3.637-8.942,3.637    c-12.149,0-14.48-6.396-14.48-26.984c0-19.712,4.224-26.985,16.01-26.985c6.546,0,12.438,2.77,14.546,9.306    c0.652,2.033,0.867,4.662,0.867,8.877H392.43v-3.049c0-3.124-1.305-4.364-3.188-4.364c-1.902,0-3.208,1.24-3.208,4.364V456.624z"/>
		<polygon clip-path="url(#SVGID_36_)" fill="#FFFFFF" points="410.733,470.731 410.733,418.506 437.206,418.506 437.206,429.266     422.939,429.266 422.939,438.143 434.734,438.143 434.734,449.341 422.939,449.341 422.939,459.532 437.933,459.532     437.933,470.731   "/>
		<path clip-path="url(#SVGID_36_)" fill="#FFFFFF" d="M433.84,19.381v3.599h-7.674v24.271h-4.495V22.98h-7.664v-3.599H433.84z     M465.067,47.251h-4.514V25.302h-0.13l-7.721,21.949h-3.674l-7.348-21.949h-0.131v21.949h-4.494v-27.87h7.151l6.947,20.732h0.13    l6.77-20.732h7.013V47.251z"/>
	</g>
</g>
</svg>