<?xml version="1.0" encoding="UTF-8"?>
<!-- Generator: Adobe Illustrator 15.0.0, SVG Export Plug-In . SVG Version: 6.00 Build 0)  -->
<!DOCTYPE svg PUBLIC "-//W3C//DTD SVG 1.1//EN" "http://www.w3.org/Graphics/SVG/1.1/DTD/svg11.dtd">
<svg version="1.1" id="Ebene_1" xmlns="http://www.w3.org/2000/svg" xmlns:xlink="http://www.w3.org/1999/xlink" x="0px" y="0px" width="483.728px" height="483.732px" viewBox="0 0 483.728 483.732" enable-background="new 0 0 483.728 483.732" xml:space="preserve">
<g>
	<rect width="483.728" height="483.732"/>
	<polygon fill="#58585A" points="-0.004,98.983 7.841,93.081 -0.004,82.678  "/>
	<g>
		<defs>
			<rect id="SVGID_1_" width="483.728" height="483.732"/>
		</defs>
		<clipPath id="SVGID_2_">
			<use xlink:href="#SVGID_1_" overflow="visible"/>
		</clipPath>
		<path clip-path="url(#SVGID_2_)" fill="#58585A" d="M28.073,77.837L-3.373,36.096L9.01,26.764    c8.921-6.713,15.849-7.202,23.154,2.501c7.281,9.644,6.261,15.248-3.834,22.851l-1.91,1.439l12.262,16.269L28.073,77.837z     M20.554,45.771c3.541-2.674,4.636-4.496,1.137-9.149c-2.986-3.941-4.621-4.077-8.758-0.974L20.554,45.771z"/>
		<polygon clip-path="url(#SVGID_2_)" fill="#58585A" points="57.297,55.807 25.851,14.083 49.713,-3.904 56.189,4.705     43.34,14.386 48.679,21.467 59.301,13.473 66.056,22.422 55.434,30.426 61.56,38.564 75.07,28.385 81.816,37.335   "/>
		<path clip-path="url(#SVGID_2_)" fill="#58585A" d="M87.85,15.104c1.882,2.501,3.806,2.604,5.516,1.328    c1.71-1.291,2.138-3.168,0.256-5.679l-3.107-4.123l-2.758,2.073l-5.87-7.785L95.657-9.467l17.479,23.196l-5.642,4.244    l-3.243-1.011c-0.801,3.704-2.585,6.508-5.87,8.991c-10.953,8.232-16.897,4.701-29.299-11.745    C57.223-1.547,56.641-10.217,67.263-18.225c5.893-4.444,12.872-6.238,18.709-2.441c1.822,1.192,3.597,3.13,6.145,6.499    L81.094-5.87l-1.84-2.441c-1.877-2.487-3.806-2.585-5.506-1.295c-1.714,1.276-2.143,3.149-0.266,5.646L87.85,15.104z"/>
		<polygon clip-path="url(#SVGID_2_)" fill="#58585A" points="119.538,8.907 88.092,-32.825 99.1,-41.118 130.551,0.615   "/>
		<path clip-path="url(#SVGID_2_)" fill="#58585A" d="M9.215,180.478l-31.446-41.742l12.383-9.332    c8.922-6.727,15.849-7.202,23.168,2.502c7.258,9.644,6.238,15.248-3.857,22.851l-1.896,1.439l12.257,16.269L9.215,180.478z     M1.696,148.412c3.541-2.674,4.635-4.496,1.137-9.149c-2.977-3.941-4.617-4.077-8.749-0.974L1.696,148.412z"/>
	</g>
	<polygon fill="#58585A" points="38.439,158.447 6.993,116.714 30.845,98.736 37.321,107.332 24.481,117.017 29.834,124.117    40.452,116.113 47.197,125.063 36.58,133.066 42.702,141.206 56.203,131.026 62.949,139.976  "/>
	<g>
		<defs>
			<rect id="SVGID_3_" width="484.473" height="485.521"/>
		</defs>
		<clipPath id="SVGID_4_">
			<use xlink:href="#SVGID_3_" overflow="visible"/>
		</clipPath>
		<path clip-path="url(#SVGID_4_)" fill="#58585A" d="M68.991,117.744c1.892,2.492,3.811,2.604,5.516,1.328    c1.71-1.291,2.138-3.177,0.261-5.669l-3.121-4.132l-2.749,2.073l-5.87-7.785l13.771-10.384l17.479,23.196l-5.642,4.244    l-3.243-1.011c-0.801,3.694-2.585,6.508-5.87,8.991c-10.953,8.232-16.897,4.701-29.299-11.745    c-11.861-15.756-12.443-24.426-1.821-32.443c5.898-4.435,12.872-6.229,18.718-2.432c1.813,1.192,3.587,3.13,6.136,6.499    l-11.022,8.297l-1.84-2.441c-1.877-2.488-3.797-2.595-5.502-1.305c-1.709,1.276-2.147,3.159-0.261,5.656L68.991,117.744z"/>
		
			<rect x="64.33" y="79.639" transform="matrix(0.6017, 0.7987, -0.7987, 0.6017, 105.142, -37.7881)" clip-path="url(#SVGID_4_)" fill="#58585A" width="52.261" height="13.782"/>
		<path clip-path="url(#SVGID_4_)" fill="#58585A" d="M131.925,88.003l-31.441-41.742l12.387-9.332    c8.921-6.713,15.844-7.202,23.163,2.511c7.263,9.644,6.243,15.248-3.853,22.851l-1.901,1.43l12.262,16.268L131.925,88.003z     M124.416,55.937c3.541-2.66,4.626-4.496,1.127-9.15c-2.977-3.941-4.612-4.076-8.74-0.974L124.416,55.937z"/>
	</g>
	<g>
		<defs>
			<rect id="SVGID_5_" width="483.728" height="483.732"/>
		</defs>
		<clipPath id="SVGID_6_">
			<use xlink:href="#SVGID_5_" overflow="visible"/>
		</clipPath>
		<polygon clip-path="url(#SVGID_6_)" fill="#58585A" points="161.149,65.981 129.699,24.249 153.561,6.261 160.041,14.871     147.188,24.551 152.54,31.642 163.162,23.647 169.908,32.597 159.286,40.591 165.421,48.73 178.922,38.551 185.668,47.509   "/>
		<path clip-path="url(#SVGID_6_)" fill="#58585A" d="M191.71,25.269c1.892,2.502,3.806,2.604,5.507,1.328    c1.714-1.29,2.147-3.167,0.266-5.679l-3.122-4.118l-2.744,2.078l-5.87-7.785l13.767-10.38l17.47,23.191l-5.637,4.249l-3.233-1.02    c-0.801,3.699-2.595,6.503-5.879,8.986c-10.943,8.241-16.888,4.701-29.29-11.735C161.084,8.619,160.493-0.051,171.11-8.055    c5.907-4.449,12.881-6.233,18.723-2.437c1.822,1.184,3.587,3.131,6.131,6.49l-11.008,8.311l-1.84-2.455    c-1.882-2.488-3.806-2.585-5.506-1.295c-1.71,1.267-2.148,3.149-0.256,5.646L191.71,25.269z"/>
		<polygon clip-path="url(#SVGID_6_)" fill="#58585A" points="223.399,19.073 191.943,-22.669 202.961,-30.962 234.408,10.78   "/>
		<path clip-path="url(#SVGID_6_)" fill="#58585A" d="M-9.644,283.11l-31.446-41.738l12.383-9.331    c8.921-6.723,15.849-7.203,23.168,2.501c7.258,9.648,6.247,15.248-3.857,22.851l-1.896,1.436l12.266,16.268L-9.644,283.11z     M-17.163,251.048c3.541-2.674,4.64-4.491,1.137-9.15c-2.977-3.95-4.617-4.071-8.749-0.974L-17.163,251.048z"/>
		<polygon clip-path="url(#SVGID_6_)" fill="#58585A" points="19.581,261.083 -11.875,219.351 11.987,201.373 18.462,209.973     5.623,219.653 10.976,226.753 21.593,218.74 28.339,227.699 17.722,235.703 23.857,243.828 37.358,233.653 44.1,242.616   "/>
	</g>
	<g>
		<defs>
			<rect id="SVGID_7_" width="484.473" height="485.521"/>
		</defs>
		<clipPath id="SVGID_8_">
			<use xlink:href="#SVGID_7_" overflow="visible"/>
		</clipPath>
		<path clip-path="url(#SVGID_8_)" fill="#58585A" d="M50.137,220.38c1.887,2.493,3.806,2.595,5.502,1.319    c1.719-1.291,2.147-3.168,0.27-5.661l-3.121-4.127l-2.749,2.068l-5.865-7.785l13.767-10.379l17.479,23.191l-5.642,4.249    l-3.233-1.025c-0.811,3.704-2.595,6.518-5.875,8.991c-10.957,8.241-16.897,4.71-29.303-11.735    c-11.861-15.756-12.439-24.435-1.831-32.43c5.907-4.439,12.881-6.243,18.728-2.446c1.813,1.184,3.587,3.131,6.136,6.508    l-11.018,8.292l-1.845-2.446c-1.877-2.497-3.806-2.595-5.502-1.304c-1.719,1.276-2.147,3.149-0.261,5.655L50.137,220.38z"/>
		<polygon clip-path="url(#SVGID_8_)" fill="#58585A" points="81.831,214.184 50.384,172.451 61.388,164.149 92.843,205.892   "/>
		<path clip-path="url(#SVGID_8_)" fill="#58585A" d="M113.076,190.644l-31.451-41.742l12.387-9.331    c8.921-6.723,15.844-7.203,23.163,2.501c7.272,9.644,6.252,15.248-3.843,22.86l-1.91,1.43l12.271,16.268L113.076,190.644z     M105.557,158.578c3.541-2.669,4.635-4.496,1.132-9.15c-2.972-3.95-4.617-4.076-8.749-0.974L105.557,158.578z"/>
		<polygon clip-path="url(#SVGID_8_)" fill="#58585A" points="142.3,168.612 110.85,126.88 134.711,108.902 141.191,117.502     128.338,127.183 133.691,134.283 144.313,126.27 151.059,135.228 140.437,143.232 146.572,151.361 160.073,141.182     166.819,150.141   "/>
		<path clip-path="url(#SVGID_8_)" fill="#58585A" d="M172.852,127.909c1.892,2.493,3.806,2.595,5.516,1.318    c1.705-1.29,2.147-3.167,0.256-5.669l-3.107-4.118l-2.758,2.068l-5.87-7.785l13.767-10.379l17.479,23.191l-5.627,4.249    l-3.243-1.02c-0.811,3.699-2.595,6.513-5.879,8.986c-10.953,8.241-16.897,4.715-29.299-11.735    c-11.861-15.751-12.443-24.435-1.822-32.439c5.894-4.439,12.868-6.233,18.719-2.437c1.813,1.184,3.587,3.131,6.136,6.499    l-11.022,8.302l-1.831-2.441c-1.892-2.502-3.806-2.595-5.516-1.309c-1.705,1.276-2.148,3.149-0.256,5.655L172.852,127.909z"/>
		<polygon clip-path="url(#SVGID_8_)" fill="#58585A" points="204.541,121.713 173.094,79.971 184.103,71.679 215.563,113.412   "/>
		<path clip-path="url(#SVGID_8_)" fill="#58585A" d="M235.782,98.168l-31.437-41.742l12.383-9.332    c8.921-6.713,15.849-7.202,23.158,2.511c7.272,9.648,6.257,15.238-3.857,22.841l-1.887,1.44l12.262,16.268L235.782,98.168z     M228.263,66.102c3.55-2.66,4.631-4.496,1.137-9.149c-2.977-3.941-4.607-4.077-8.74-0.974L228.263,66.102z"/>
	</g>
	<g>
		<defs>
			<rect id="SVGID_9_" width="483.728" height="483.732"/>
		</defs>
		<clipPath id="SVGID_10_">
			<use xlink:href="#SVGID_9_" overflow="visible"/>
		</clipPath>
		<polygon clip-path="url(#SVGID_10_)" fill="#58585A" points="265.01,76.146 233.55,34.414 257.426,16.426 263.902,25.036     251.053,34.716 256.402,41.807 267.023,33.803 273.769,42.762 263.147,50.756 269.296,58.886 282.789,48.716 289.535,57.675   "/>
		<path clip-path="url(#SVGID_10_)" fill="#58585A" d="M295.572,35.434c1.882,2.501,3.802,2.595,5.497,1.328    c1.724-1.291,2.152-3.168,0.261-5.679l-3.111-4.118l-2.739,2.078l-5.88-7.794l13.78-10.379l17.479,23.2l-5.646,4.249l-3.243-1.034    c-0.811,3.713-2.59,6.518-5.87,8.991c-10.947,8.241-16.892,4.71-29.294-11.735c-11.86-15.756-12.447-24.426-1.835-32.443    c5.897-4.435,12.867-6.229,18.709-2.432c1.836,1.192,3.588,3.14,6.141,6.499l-11.014,8.312l-1.826-2.455    c-1.9-2.497-3.82-2.586-5.516-1.295c-1.715,1.267-2.143,3.149-0.252,5.646L295.572,35.434z"/>
		<polygon clip-path="url(#SVGID_10_)" fill="#58585A" points="327.26,29.238 295.795,-12.504 306.809,-20.796 338.283,20.945   "/>
		<path clip-path="url(#SVGID_10_)" fill="#58585A" d="M358.511,5.693l-31.456-41.742l12.393-9.327    c8.917-6.718,15.84-7.207,23.172,2.506c7.249,9.648,6.233,15.239-3.857,22.842l-1.91,1.439l12.271,16.277L358.511,5.693z     M350.992-26.373c3.531-2.66,4.622-4.491,1.137-9.15c-2.981-3.941-4.621-4.072-8.749-0.974L350.992-26.373z"/>
		<polygon clip-path="url(#SVGID_10_)" fill="#58585A" points="0.722,363.724 -30.715,321.991 -6.862,304.018 -0.382,312.609     -13.235,322.298 -7.882,329.399 2.735,321.385 9.48,330.339 -1.137,338.343 4.999,346.487 18.5,336.302 25.246,345.256   "/>
	</g>
	<g>
		<defs>
			<rect id="SVGID_11_" width="484.473" height="485.521"/>
		</defs>
		<clipPath id="SVGID_12_">
			<use xlink:href="#SVGID_11_" overflow="visible"/>
		</clipPath>
		<path clip-path="url(#SVGID_12_)" fill="#58585A" d="M31.288,323.025c1.877,2.488,3.797,2.6,5.502,1.323    c1.709-1.285,2.147-3.177,0.261-5.665l-3.112-4.137l-2.758,2.068l-5.865-7.779l13.776-10.38l17.47,23.19l-5.637,4.249    l-3.238-1.006c-0.811,3.689-2.595,6.503-5.875,8.981c-10.943,8.237-16.888,4.705-29.294-11.739    c-11.866-15.756-12.448-24.431-1.831-32.435c5.898-4.444,12.872-6.242,18.719-2.45c1.822,1.192,3.587,3.131,6.136,6.504    l-11.018,8.302l-1.831-2.441c-1.892-2.488-3.811-2.6-5.516-1.313c-1.71,1.285-2.138,3.168-0.261,5.665L31.288,323.025z"/>
		<polygon clip-path="url(#SVGID_12_)" fill="#58585A" points="62.967,316.82 31.521,275.078 42.539,266.786 73.985,308.528   "/>
		<path clip-path="url(#SVGID_12_)" fill="#58585A" d="M94.218,293.285l-31.437-41.742l12.383-9.336    c8.912-6.723,15.849-7.202,23.154,2.498c7.272,9.652,6.261,15.252-3.843,22.855l-1.901,1.444l12.262,16.268L94.218,293.285z     M86.708,261.213c3.541-2.664,4.626-4.491,1.127-9.149c-2.977-3.941-4.622-4.071-8.749-0.969L86.708,261.213z"/>
		<polygon clip-path="url(#SVGID_12_)" fill="#58585A" points="123.442,271.249 92.005,229.516 115.857,211.542 122.333,220.138     109.484,229.823 114.833,236.909 125.455,228.915 132.2,237.855 121.579,245.868 127.714,254.001 141.215,243.828 147.96,252.772       "/>
		<path clip-path="url(#SVGID_12_)" fill="#58585A" d="M154.003,230.545c1.882,2.492,3.806,2.604,5.507,1.328    c1.719-1.286,2.147-3.177,0.256-5.679l-3.107-4.119l-2.758,2.068l-5.87-7.785l13.78-10.379l17.465,23.191l-5.627,4.249    l-3.243-1.011c-0.811,3.699-2.595,6.504-5.879,8.987c-10.934,8.227-16.888,4.706-29.289-11.745    c-11.871-15.751-12.453-24.426-1.831-32.438c5.903-4.44,12.868-6.233,18.719-2.437c1.822,1.192,3.587,3.13,6.136,6.499    l-11.022,8.302l-1.831-2.441c-1.887-2.492-3.806-2.6-5.507-1.309c-1.714,1.276-2.143,3.159-0.265,5.656L154.003,230.545z"/>
		<polygon clip-path="url(#SVGID_12_)" fill="#58585A" points="185.682,224.349 154.245,182.617 165.245,174.315 196.705,216.057       "/>
		<path clip-path="url(#SVGID_12_)" fill="#58585A" d="M216.938,200.799l-31.451-41.728l12.396-9.331    c8.912-6.718,15.844-7.207,23.154,2.506c7.263,9.648,6.252,15.248-3.843,22.851l-1.901,1.431l12.252,16.268L216.938,200.799z     M209.428,168.743c3.531-2.66,4.626-4.491,1.123-9.14c-2.977-3.951-4.617-4.081-8.749-0.983L209.428,168.743z"/>
		<polygon clip-path="url(#SVGID_12_)" fill="#58585A" points="246.152,178.787 214.71,137.054 238.563,119.072 245.043,127.676     232.19,137.362 237.543,144.438 248.165,136.454 254.911,145.394 244.289,153.397 250.419,161.536 263.93,151.356     270.675,160.315   "/>
		<path clip-path="url(#SVGID_12_)" fill="#58585A" d="M276.713,138.075c1.882,2.501,3.82,2.604,5.516,1.328    c1.705-1.286,2.134-3.168,0.242-5.679l-3.093-4.119l-2.758,2.078l-5.88-7.785l13.78-10.379L302,136.714l-5.646,4.244l-3.243-1.021    c-0.811,3.699-2.59,6.504-5.87,8.987c-10.947,8.241-16.892,4.705-29.294-11.735c-11.86-15.76-12.447-24.435-1.835-32.438    c5.897-4.449,12.867-6.233,18.728-2.437c1.817,1.183,3.588,3.13,6.122,6.49l-11.014,8.311l-1.826-2.451    c-1.9-2.492-3.802-2.585-5.516-1.3c-1.715,1.267-2.144,3.149-0.252,5.646L276.713,138.075z"/>
		<polygon clip-path="url(#SVGID_12_)" fill="#58585A" points="308.402,131.878 276.965,90.137 287.951,81.844 319.424,123.586       "/>
		<path clip-path="url(#SVGID_12_)" fill="#58585A" d="M339.653,108.333l-31.456-41.742l12.393-9.327    c8.917-6.718,15.858-7.207,23.172,2.506c7.268,9.648,6.233,15.248-3.857,22.851l-1.891,1.43l12.262,16.268L339.653,108.333z     M332.133,76.268c3.531-2.66,4.631-4.491,1.137-9.15c-2.981-3.941-4.621-4.071-8.749-0.974L332.133,76.268z"/>
		<polygon clip-path="url(#SVGID_12_)" fill="#58585A" points="368.863,86.312 337.425,44.579 361.297,26.592 367.763,35.201     354.924,44.882 360.272,51.972 370.894,43.978 377.64,52.927 367.018,60.922 373.139,69.061 386.65,58.881 393.395,67.84   "/>
	</g>
	<g>
		<defs>
			<rect id="SVGID_13_" width="483.728" height="483.732"/>
		</defs>
		<clipPath id="SVGID_14_">
			<use xlink:href="#SVGID_13_" overflow="visible"/>
		</clipPath>
		<path clip-path="url(#SVGID_14_)" fill="#58585A" d="M399.443,45.599c1.863,2.502,3.801,2.604,5.497,1.328    c1.705-1.291,2.152-3.168,0.261-5.679l-3.112-4.118l-2.758,2.078l-5.87-7.785l13.771-10.379l17.479,23.191l-5.637,4.249    l-3.233-1.02c-0.811,3.699-2.609,6.503-5.88,8.986c-10.947,8.242-16.893,4.701-29.284-11.735    c-11.889-15.765-12.457-24.435-1.836-32.439c5.898-4.449,12.868-6.233,18.71-2.437c1.835,1.184,3.587,3.131,6.14,6.49    l-11.013,8.311l-1.836-2.455c-1.892-2.488-3.811-2.581-5.516-1.295c-1.705,1.267-2.134,3.149-0.271,5.646L399.443,45.599z"/>
		<polygon clip-path="url(#SVGID_14_)" fill="#58585A" points="431.103,39.403 399.667,-2.33 410.679,-10.631 442.135,31.111   "/>
		<path clip-path="url(#SVGID_14_)" fill="#58585A" d="M462.354,15.863l-31.438-41.742l12.383-9.331    c8.917-6.709,15.85-7.203,23.163,2.506c7.277,9.648,6.262,15.248-3.848,22.851l-1.901,1.44l12.262,16.268L462.354,15.863z     M454.844-16.208c3.54-2.66,4.64-4.481,1.137-9.14c-2.973-3.946-4.612-4.081-8.759-0.974L454.844-16.208z"/>
		<polygon clip-path="url(#SVGID_14_)" fill="#58585A" points="-18.127,466.365 -49.573,424.632 -25.721,406.659 -19.24,415.25     -32.094,424.939 -26.741,432.021 -16.124,424.026 -9.378,432.971 -19.995,440.984 -13.859,449.109 -0.358,438.943 6.387,447.897       "/>
		<path clip-path="url(#SVGID_14_)" fill="#58585A" d="M12.43,425.667c1.877,2.497,3.797,2.59,5.506,1.313    c1.705-1.295,2.143-3.168,0.256-5.656l-3.112-4.137l-2.758,2.068l-5.865-7.779l13.767-10.371l17.479,23.182l-5.628,4.249    l-3.247-1.016c-0.811,3.699-2.595,6.513-5.875,8.982c-10.943,8.246-16.888,4.705-29.294-11.73    c-11.866-15.766-12.448-24.44-1.831-32.435c5.898-4.444,12.881-6.242,18.719-2.45c1.826,1.192,3.587,3.131,6.136,6.504    l-11.018,8.302l-1.831-2.451c-1.891-2.479-3.811-2.59-5.516-1.304c-1.71,1.285-2.138,3.168-0.256,5.665L12.43,425.667z"/>
	</g>
	<g>
		<defs>
			<rect id="SVGID_15_" width="484.473" height="485.521"/>
		</defs>
		<clipPath id="SVGID_16_">
			<use xlink:href="#SVGID_15_" overflow="visible"/>
		</clipPath>
		<polygon clip-path="url(#SVGID_16_)" fill="#58585A" points="44.118,419.46 12.672,377.718 23.68,369.426 55.136,411.168   "/>
		<path clip-path="url(#SVGID_16_)" fill="#58585A" d="M75.359,395.925l-31.446-41.742l12.392-9.336    c8.912-6.728,15.849-7.203,23.159,2.497c7.268,9.652,6.247,15.252-3.848,22.855l-1.896,1.444l12.257,16.268L75.359,395.925z     M67.85,363.854c3.541-2.664,4.626-4.49,1.127-9.149c-2.977-3.95-4.617-4.071-8.749-0.969L67.85,363.854z"/>
		<polygon clip-path="url(#SVGID_16_)" fill="#58585A" points="104.593,373.889 73.146,332.157 96.999,314.183 103.475,322.783     90.626,332.464 95.979,339.554 106.596,331.56 113.342,340.496 102.725,348.508 108.855,356.643 122.356,346.468 129.102,355.413       "/>
		<path clip-path="url(#SVGID_16_)" fill="#58585A" d="M135.145,333.191c1.882,2.487,3.802,2.6,5.507,1.313    c1.709-1.286,2.147-3.168,0.256-5.665l-3.107-4.118l-2.758,2.068l-5.87-7.789l13.78-10.38l17.479,23.2l-5.642,4.239l-3.243-1.016    c-0.811,3.69-2.595,6.514-5.879,8.982c-10.934,8.246-16.888,4.715-29.289-11.74c-11.871-15.746-12.453-24.43-1.831-32.434    c5.907-4.436,12.881-6.233,18.719-2.432c1.822,1.183,3.587,3.131,6.136,6.494l-11.022,8.302l-1.831-2.441    c-1.887-2.497-3.806-2.59-5.516-1.305c-1.705,1.277-2.133,3.149-0.256,5.656L135.145,333.191z"/>
		<polygon clip-path="url(#SVGID_16_)" fill="#58585A" points="166.833,326.995 135.377,285.252 146.396,276.96 177.855,318.702       "/>
		<path clip-path="url(#SVGID_16_)" fill="#58585A" d="M198.083,303.45l-31.446-41.742l12.388-9.327    c8.917-6.727,15.844-7.211,23.154,2.497c7.282,9.644,6.261,15.243-3.843,22.847l-1.901,1.444l12.262,16.259L198.083,303.45z     M190.569,271.379c3.536-2.675,4.626-4.491,1.123-9.15c-2.977-3.95-4.607-4.071-8.749-0.979L190.569,271.379z"/>
		<polygon clip-path="url(#SVGID_16_)" fill="#58585A" points="227.303,281.414 195.861,239.681 219.714,221.708 226.194,230.303     213.341,239.989 218.694,247.088 229.306,239.08 236.052,248.03 225.439,256.033 231.575,264.176 245.072,253.993     251.836,262.947   "/>
		<path clip-path="url(#SVGID_16_)" fill="#58585A" d="M257.855,240.71c1.892,2.492,3.82,2.595,5.516,1.319    c1.705-1.286,2.134-3.168,0.261-5.665l-3.111-4.123l-2.758,2.068l-5.861-7.785l13.762-10.379l17.479,23.195l-5.627,4.245    l-3.262-1.007c-0.811,3.689-2.581,6.504-5.87,8.973c-10.938,8.246-16.893,4.715-29.293-11.735    c-11.861-15.751-12.443-24.435-1.835-32.439c5.916-4.439,12.886-6.233,18.737-2.432c1.808,1.179,3.578,3.126,6.112,6.494    l-10.995,8.302l-1.845-2.441c-1.882-2.493-3.802-2.595-5.502-1.309c-1.728,1.281-2.157,3.159-0.266,5.66L257.855,240.71z"/>
		<polygon clip-path="url(#SVGID_16_)" fill="#58585A" points="289.543,234.515 258.107,192.772 269.092,184.48 300.566,226.222       "/>
		<path clip-path="url(#SVGID_16_)" fill="#58585A" d="M320.794,210.969l-31.456-41.732l12.393-9.332    c8.916-6.718,15.858-7.202,23.172,2.506c7.268,9.648,6.233,15.239-3.857,22.842l-1.892,1.439l12.253,16.268L320.794,210.969z     M313.275,178.908c3.531-2.66,4.621-4.491,1.137-9.14c-2.981-3.946-4.621-4.081-8.749-0.983L313.275,178.908z"/>
		<polygon clip-path="url(#SVGID_16_)" fill="#58585A" points="350.004,188.953 318.567,147.22 342.439,129.237 348.915,137.842     336.065,147.527 341.414,154.613 352.036,146.619 358.782,155.568 348.16,163.563 354.291,171.701 367.792,161.522     374.537,170.48   "/>
		<path clip-path="url(#SVGID_16_)" fill="#58585A" d="M380.584,148.24c1.863,2.502,3.801,2.6,5.497,1.328    c1.695-1.286,2.152-3.168,0.261-5.674l-3.112-4.123l-2.758,2.078l-5.86-7.794l13.762-10.379l17.479,23.205l-5.628,4.244    l-3.242-1.02c-0.811,3.699-2.609,6.508-5.87,8.977c-10.948,8.241-16.893,4.715-29.294-11.735    c-11.88-15.751-12.448-24.426-1.836-32.439c5.898-4.439,12.867-6.233,18.71-2.437c1.835,1.193,3.587,3.14,6.14,6.499    l-11.013,8.311l-1.826-2.45c-1.901-2.493-3.82-2.586-5.517-1.3c-1.714,1.272-2.143,3.149-0.27,5.651L380.584,148.24z"/>
		<polygon clip-path="url(#SVGID_16_)" fill="#58585A" points="412.273,142.044 380.807,100.302 391.821,92.009 423.277,133.751       "/>
	</g>
	<g>
		<defs>
			<rect id="SVGID_17_" width="483.728" height="483.732"/>
		</defs>
		<clipPath id="SVGID_18_">
			<use xlink:href="#SVGID_17_" overflow="visible"/>
		</clipPath>
		<path clip-path="url(#SVGID_18_)" fill="#58585A" d="M443.504,118.503l-31.437-41.742l12.392-9.331    c8.898-6.718,15.83-7.207,23.145,2.506c7.277,9.648,6.262,15.238-3.829,22.841l-1.91,1.44l12.252,16.277L443.504,118.503z     M436.004,86.433c3.531-2.66,4.621-4.491,1.118-9.15c-2.964-3.941-4.612-4.072-8.749-0.974L436.004,86.433z"/>
		<polygon clip-path="url(#SVGID_18_)" fill="#58585A" points="472.733,96.477 441.296,54.744 465.149,36.762 471.615,45.366     458.776,55.052 464.124,62.138 474.746,54.144 481.492,63.093 470.87,71.087 477.01,79.226 490.501,69.046 497.248,78.005   "/>
		<path clip-path="url(#SVGID_18_)" fill="#58585A" d="M503.294,55.765c1.882,2.501,3.82,2.595,5.516,1.328    c1.705-1.286,2.134-3.168,0.242-5.679l-3.093-4.119l-2.758,2.078l-5.889-7.794l13.789-10.379l17.479,23.205l-5.655,4.244    l-3.233-1.021c-0.811,3.699-2.59,6.504-5.879,8.987c-10.948,8.232-16.893,4.705-29.285-11.745    c-11.87-15.751-12.457-24.426-1.835-32.438c5.897-4.44,12.886-6.233,18.728-2.437c1.817,1.192,3.587,3.14,6.122,6.499    l-11.014,8.311l-1.835-2.451c-1.892-2.492-3.793-2.585-5.517-1.3c-1.705,1.267-2.134,3.149-0.251,5.646L503.294,55.765z"/>
		<polygon clip-path="url(#SVGID_18_)" fill="#58585A" points="25.26,522.101 -6.187,480.378 4.822,472.067 36.268,513.809   "/>
		<path clip-path="url(#SVGID_18_)" fill="#58585A" d="M56.501,498.566l-31.437-41.742l12.383-9.336    c8.921-6.709,15.849-7.203,23.168,2.497c7.258,9.652,6.247,15.252-3.857,22.855l-1.896,1.444l12.257,16.268L56.501,498.566z     M48.991,466.495c3.541-2.664,4.64-4.49,1.137-9.149c-2.977-3.95-4.617-4.071-8.749-0.969L48.991,466.495z"/>
	</g>
	<g>
		<defs>
			<rect id="SVGID_19_" width="484.473" height="485.521"/>
		</defs>
		<clipPath id="SVGID_20_">
			<use xlink:href="#SVGID_19_" overflow="visible"/>
		</clipPath>
		<polygon clip-path="url(#SVGID_20_)" fill="#58585A" points="85.734,476.53 54.279,434.806 78.141,416.824 84.616,425.423     71.777,435.114 77.13,442.195 87.747,434.201 94.493,443.146 83.875,451.159 90.001,459.292 103.498,449.109 110.244,458.053       "/>
		<path clip-path="url(#SVGID_20_)" fill="#58585A" d="M116.291,435.822c1.887,2.507,3.806,2.609,5.501,1.333    c1.719-1.286,2.148-3.168,0.271-5.675l-3.122-4.118l-2.749,2.068l-5.865-7.789l13.767-10.38l17.479,23.2l-5.642,4.239    l-3.243-1.016c-0.801,3.709-2.585,6.514-5.865,8.992c-10.958,8.227-16.897,4.705-29.303-11.75    c-11.861-15.746-12.439-24.421-1.831-32.434c5.907-4.444,12.881-6.233,18.728-2.432c1.812,1.192,3.587,3.131,6.136,6.494    l-11.018,8.302l-1.845-2.441c-1.877-2.497-3.806-2.59-5.502-1.305c-1.719,1.286-2.148,3.149-0.261,5.656L116.291,435.822z"/>
		<polygon clip-path="url(#SVGID_20_)" fill="#58585A" points="147.979,429.635 116.519,387.893 127.542,379.601 158.997,421.343       "/>
		<path clip-path="url(#SVGID_20_)" fill="#58585A" d="M179.23,406.09l-31.451-41.742l12.388-9.327    c8.921-6.727,15.844-7.211,23.163,2.497c7.272,9.644,6.252,15.244-3.853,22.847l-1.901,1.444l12.262,16.259L179.23,406.09z     M171.711,374.02c3.541-2.675,4.635-4.491,1.132-9.15c-2.972-3.941-4.617-4.071-8.749-0.978L171.711,374.02z"/>
		<polygon clip-path="url(#SVGID_20_)" fill="#58585A" points="208.454,384.054 177.008,342.332 200.86,324.348 207.336,332.958     194.497,342.638 199.85,349.71 210.467,341.716 217.212,350.661 206.59,358.673 212.717,366.817 226.218,356.633 232.954,365.587       "/>
		<path clip-path="url(#SVGID_20_)" fill="#58585A" d="M238.997,343.356c1.892,2.497,3.815,2.609,5.516,1.323    c1.705-1.286,2.144-3.168,0.261-5.665l-3.112-4.137l-2.758,2.068l-5.861-7.78l13.762-10.38l17.479,23.191l-5.627,4.249    l-3.262-1.007c-0.782,3.69-2.581,6.504-5.852,8.982c-10.966,8.236-16.911,4.705-29.303-11.74    c-11.861-15.756-12.443-24.431-1.822-32.443c5.894-4.435,12.867-6.233,18.709-2.432c1.812,1.192,3.587,3.121,6.145,6.494    l-11.022,8.302l-1.849-2.441c-1.868-2.487-3.788-2.58-5.498-1.295c-1.705,1.276-2.147,3.149-0.256,5.646L238.997,343.356z"/>
		<polygon clip-path="url(#SVGID_20_)" fill="#58585A" points="270.685,337.151 239.239,295.427 250.252,287.134 281.708,328.858       "/>
		<path clip-path="url(#SVGID_20_)" fill="#58585A" d="M301.936,313.615l-31.438-41.732l12.374-9.346    c8.916-6.708,15.858-7.193,23.172,2.516c7.268,9.644,6.252,15.243-3.857,22.847l-1.892,1.435l12.262,16.269L301.936,313.615z     M294.417,281.544c3.55-2.665,4.631-4.491,1.137-9.149c-2.981-3.951-4.603-4.072-8.749-0.97L294.417,281.544z"/>
		<polygon clip-path="url(#SVGID_20_)" fill="#58585A" points="331.146,291.588 299.708,249.856 323.58,231.882 330.055,240.487     317.207,250.164 322.555,257.245 333.177,249.25 339.922,258.205 329.301,266.199 335.432,274.333 348.942,264.158     355.688,273.122   "/>
		<path clip-path="url(#SVGID_20_)" fill="#58585A" d="M361.725,250.872c1.883,2.516,3.802,2.608,5.498,1.332    c1.724-1.286,2.152-3.168,0.261-5.674l-3.112-4.119l-2.739,2.069l-5.879-7.78l13.78-10.38l17.461,23.191l-5.628,4.248    l-3.242-1.024c-0.811,3.708-2.609,6.513-5.87,8.991c-10.948,8.246-16.893,4.705-29.294-11.73    c-11.861-15.765-12.448-24.44-1.836-32.443c5.898-4.449,12.867-6.233,18.71-2.432c1.835,1.178,3.587,3.126,6.14,6.485    l-11.013,8.311l-1.826-2.441c-1.901-2.501-3.82-2.595-5.517-1.309c-1.714,1.281-2.143,3.149-0.251,5.661L361.725,250.872z"/>
		<polygon clip-path="url(#SVGID_20_)" fill="#58585A" points="393.415,244.684 361.949,202.947 372.962,194.659 404.418,236.392       "/>
		<path clip-path="url(#SVGID_20_)" fill="#58585A" d="M424.646,221.135l-31.437-41.723l12.392-9.341    c8.917-6.708,15.84-7.203,23.173,2.506c7.249,9.648,6.233,15.248-3.857,22.851l-1.91,1.425l12.252,16.273L424.646,221.135z     M417.146,189.074c3.531-2.66,4.621-4.491,1.117-9.15c-2.963-3.946-4.603-4.072-8.729-0.969L417.146,189.074z"/>
	</g>
	<g>
		<defs>
			<rect id="SVGID_21_" width="483.728" height="483.732"/>
		</defs>
		<clipPath id="SVGID_22_">
			<use xlink:href="#SVGID_21_" overflow="visible"/>
		</clipPath>
		<polygon clip-path="url(#SVGID_22_)" fill="#58585A" points="453.875,199.113 422.438,157.39 446.291,139.407 452.756,148.012     439.936,157.688 445.284,164.774 455.887,156.779 462.633,165.729 452.03,173.737 458.152,181.862 471.643,171.692     478.389,180.65   "/>
		<path clip-path="url(#SVGID_22_)" fill="#58585A" d="M484.436,158.405c1.882,2.511,3.811,2.609,5.516,1.328    c1.705-1.286,2.134-3.168,0.261-5.679l-3.111-4.119l-2.759,2.078l-5.869-7.785l13.771-10.38l17.471,23.196l-5.646,4.244    l-3.233-1.021c-0.792,3.699-2.59,6.504-5.86,8.987c-10.948,8.241-16.911,4.705-29.304-11.735    c-11.87-15.76-12.457-24.435-1.835-32.429c5.916-4.458,12.886-6.243,18.728-2.446c1.817,1.183,3.587,3.131,6.122,6.49    l-10.995,8.311l-1.854-2.441c-1.873-2.501-3.793-2.595-5.498-1.309c-1.705,1.277-2.152,3.149-0.27,5.661L484.436,158.405z"/>
		<path clip-path="url(#SVGID_22_)" fill="#58585A" d="M160.362,508.731l-31.451-41.742l12.397-9.327    c8.912-6.727,15.849-7.211,23.154,2.507c7.282,9.644,6.252,15.243-3.843,22.847l-1.91,1.443l12.271,16.269L160.362,508.731z     M152.843,476.661c3.541-2.656,4.635-4.491,1.137-9.15c-2.977-3.94-4.622-4.071-8.75-0.959L152.843,476.661z"/>
		<polygon clip-path="url(#SVGID_22_)" fill="#58585A" points="189.586,486.705 158.131,444.972 182.002,426.999 188.478,435.598     175.629,445.279 180.981,452.379 191.599,444.375 198.345,453.311 187.728,461.315 193.849,469.458 207.359,459.274     214.105,468.228   "/>
	</g>
	<g>
		<defs>
			<rect id="SVGID_23_" width="484.473" height="485.521"/>
		</defs>
		<clipPath id="SVGID_24_">
			<use xlink:href="#SVGID_23_" overflow="visible"/>
		</clipPath>
		<path clip-path="url(#SVGID_24_)" fill="#58585A" d="M220.152,445.997c1.877,2.497,3.797,2.609,5.502,1.323    c1.71-1.286,2.139-3.168,0.261-5.675l-3.112-4.108l-2.758,2.068l-5.87-7.789l13.771-10.38l17.479,23.2l-5.632,4.239l-3.251-1.016    c-0.811,3.699-2.586,6.504-5.879,8.982c-10.943,8.246-16.888,4.715-29.29-11.74c-11.861-15.756-12.443-24.43-1.821-32.425    c5.898-4.453,12.881-6.242,18.719-2.44c1.821,1.183,3.587,3.13,6.135,6.494l-11.022,8.302l-1.831-2.451    c-1.887-2.487-3.806-2.58-5.511-1.295c-1.71,1.276-2.139,3.149-0.261,5.646L220.152,445.997z"/>
		<polygon clip-path="url(#SVGID_24_)" fill="#58585A" points="251.827,439.792 220.39,398.068 231.379,389.766 262.849,431.508       "/>
		<path clip-path="url(#SVGID_24_)" fill="#58585A" d="M283.078,416.255l-31.456-41.742l12.393-9.336    c8.916-6.708,15.857-7.193,23.172,2.516c7.268,9.644,6.233,15.243-3.857,22.855l-1.91,1.436l12.28,16.268L283.078,416.255z     M275.558,384.185c3.531-2.665,4.631-4.491,1.137-9.149c-2.981-3.933-4.621-4.072-8.749-0.96L275.558,384.185z"/>
		<polygon clip-path="url(#SVGID_24_)" fill="#58585A" points="312.288,394.229 280.85,352.497 304.721,334.523 311.197,343.114     298.348,352.804 303.697,359.904 314.319,351.891 321.064,360.845 310.443,368.839 316.574,376.992 330.083,366.798     336.83,375.762   "/>
		<path clip-path="url(#SVGID_24_)" fill="#58585A" d="M342.867,353.521c1.864,2.497,3.802,2.6,5.498,1.323    c1.705-1.286,2.152-3.168,0.261-5.674l-3.112-4.118l-2.758,2.068l-5.86-7.78l13.762-10.38l17.479,23.191l-5.628,4.248    l-3.242-1.006c-0.811,3.689-2.609,6.494-5.87,8.973c-10.948,8.246-16.893,4.715-29.294-11.73    c-11.88-15.766-12.448-24.439-1.836-32.443c5.898-4.444,12.867-6.224,18.71-2.432c1.835,1.184,3.587,3.121,6.14,6.494    l-11.013,8.302l-1.826-2.45c-1.901-2.497-3.82-2.591-5.517-1.305c-1.714,1.286-2.143,3.149-0.27,5.655L342.867,353.521z"/>
		<polygon clip-path="url(#SVGID_24_)" fill="#58585A" points="374.537,347.326 343.1,305.583 354.104,297.3 385.559,339.033   "/>
		<path clip-path="url(#SVGID_24_)" fill="#58585A" d="M405.788,323.78l-31.437-41.732l12.373-9.336    c8.917-6.709,15.858-7.212,23.163,2.506c7.277,9.653,6.262,15.244-3.848,22.856l-1.892,1.435l12.252,16.269L405.788,323.78z     M398.288,291.709c3.531-2.655,4.621-4.491,1.117-9.149c-2.963-3.941-4.603-4.072-8.749-0.96L398.288,291.709z"/>
	</g>
	<g>
		<defs>
			<rect id="SVGID_25_" width="483.728" height="483.732"/>
		</defs>
		<clipPath id="SVGID_26_">
			<use xlink:href="#SVGID_25_" overflow="visible"/>
		</clipPath>
		<polygon clip-path="url(#SVGID_26_)" fill="#58585A" points="435.016,301.763 403.561,260.021 427.432,242.048 433.898,250.648     421.059,260.329 426.407,267.419 437.029,259.424 443.775,268.37 433.153,276.364 439.274,284.507 452.785,274.324     459.531,283.277   "/>
		<path clip-path="url(#SVGID_26_)" fill="#58585A" d="M465.578,261.055c1.882,2.497,3.802,2.6,5.497,1.313    c1.724-1.285,2.152-3.158,0.261-5.655l-3.112-4.128l-2.739,2.068l-5.888-7.779l13.789-10.38l17.479,23.191l-5.655,4.248    l-3.233-1.024c-0.811,3.708-2.59,6.513-5.879,8.981c-10.93,8.256-16.893,4.715-29.285-11.739    c-11.87-15.756-12.457-24.431-1.835-32.416c5.897-4.454,12.867-6.238,18.728-2.441c1.817,1.174,3.587,3.117,6.122,6.485    l-11.014,8.312l-1.836-2.451c-1.891-2.502-3.811-2.595-5.516-1.309c-1.705,1.281-2.134,3.149-0.251,5.66L465.578,261.055z"/>
		<polygon clip-path="url(#SVGID_26_)" fill="#58585A" points="497.256,254.859 465.82,213.112 476.814,204.825 508.289,246.557       "/>
		<path clip-path="url(#SVGID_26_)" fill="#58585A" d="M264.228,518.896l-31.465-41.742l12.401-9.336    c8.917-6.708,15.849-7.193,23.163,2.516c7.268,9.644,6.243,15.243-3.857,22.837l-1.892,1.444l12.262,16.277L264.228,518.896z     M256.7,486.826c3.541-2.665,4.631-4.491,1.137-9.149c-2.981-3.933-4.621-4.072-8.749-0.96L256.7,486.826z"/>
		<polygon clip-path="url(#SVGID_26_)" fill="#58585A" points="293.438,496.87 261.992,455.137 285.863,437.164 292.338,445.754     279.49,455.445 284.838,462.535 295.46,454.532 302.206,463.476 291.584,471.489 297.715,479.624 311.207,469.439     317.971,478.403   "/>
	</g>
	<g>
		<defs>
			<rect id="SVGID_27_" width="484.473" height="485.521"/>
		</defs>
		<clipPath id="SVGID_28_">
			<use xlink:href="#SVGID_27_" overflow="visible"/>
		</clipPath>
		<path clip-path="url(#SVGID_28_)" fill="#58585A" d="M324.008,456.162c1.864,2.497,3.802,2.6,5.498,1.323    c1.724-1.286,2.152-3.168,0.261-5.665l-3.112-4.127l-2.739,2.077l-5.879-7.789l13.762-10.38l17.479,23.191l-5.628,4.249    l-3.242-1.025c-0.812,3.708-2.609,6.513-5.87,8.991c-10.948,8.236-16.893,4.705-29.294-11.73    c-11.861-15.765-12.448-24.439-1.836-32.434c5.898-4.454,12.867-6.233,18.71-2.451c1.835,1.193,3.587,3.141,6.14,6.504    l-11.013,8.302l-1.826-2.45c-1.901-2.497-3.82-2.591-5.517-1.305c-1.714,1.286-2.143,3.149-0.27,5.655L324.008,456.162z"/>
		<polygon clip-path="url(#SVGID_28_)" fill="#58585A" points="355.678,449.966 324.232,408.224 335.246,399.941 366.701,441.673       "/>
		<path clip-path="url(#SVGID_28_)" fill="#58585A" d="M386.929,426.42l-31.437-41.732l12.373-9.336    c8.917-6.709,15.858-7.212,23.173,2.507c7.268,9.652,6.252,15.243-3.839,22.855l-1.91,1.425l12.252,16.278L386.929,426.42z     M379.428,394.36c3.531-2.665,4.631-4.501,1.118-9.15c-2.963-3.95-4.603-4.081-8.749-0.969L379.428,394.36z"/>
		<polygon clip-path="url(#SVGID_28_)" fill="#58585A" points="416.158,404.404 384.703,362.662 408.574,344.688 415.04,353.289     402.201,362.969 407.548,370.05 418.17,362.065 424.917,371.01 414.294,379.004 420.444,387.148 433.926,376.964 440.672,385.917       "/>
	</g>
	<g>
		<defs>
			<rect id="SVGID_29_" width="483.728" height="483.732"/>
		</defs>
		<clipPath id="SVGID_30_">
			<use xlink:href="#SVGID_29_" overflow="visible"/>
		</clipPath>
		<path clip-path="url(#SVGID_30_)" fill="#58585A" d="M446.719,363.687c1.882,2.506,3.82,2.608,5.516,1.322    c1.705-1.285,2.134-3.158,0.242-5.665l-3.093-4.118l-2.759,2.078l-5.879-7.799l13.78-10.38l17.479,23.201l-5.655,4.248    l-3.233-1.024c-0.811,3.699-2.59,6.503-5.879,8.981c-10.948,8.246-16.884,4.706-29.285-11.739    c-11.87-15.756-12.457-24.431-1.835-32.425c5.897-4.454,12.867-6.243,18.728-2.441c1.817,1.184,3.587,3.131,6.121,6.494    l-11.013,8.312l-1.836-2.451c-1.891-2.496-3.811-2.59-5.506-1.304c-1.715,1.276-2.144,3.149-0.261,5.655L446.719,363.687z"/>
		<polygon clip-path="url(#SVGID_30_)" fill="#58585A" points="478.408,357.5 446.943,315.757 457.956,307.465 489.43,349.189   "/>
		<path clip-path="url(#SVGID_30_)" fill="#58585A" d="M509.659,333.946l-31.466-41.733l12.401-9.345    c8.917-6.709,15.85-7.193,23.164,2.516c7.258,9.652,6.261,15.243-3.849,22.846l-1.9,1.436l12.262,16.277L509.659,333.946z     M502.139,301.875c3.531-2.664,4.621-4.49,1.137-9.149c-2.991-3.932-4.631-4.071-8.759-0.96L502.139,301.875z"/>
		<path clip-path="url(#SVGID_30_)" fill="#58585A" d="M375.199,523.704l-31.438-41.741l12.374-9.337    c8.917-6.708,15.858-7.192,23.163,2.507c7.268,9.652,6.242,15.243-3.857,22.855l-1.882,1.435l12.262,16.278L375.199,523.704z     M367.679,491.633c3.55-2.665,4.631-4.481,1.128-9.131c-2.981-3.95-4.622-4.091-8.74-0.987L367.679,491.633z"/>
		<polygon clip-path="url(#SVGID_30_)" fill="#58585A" points="404.427,501.677 372.971,459.935 396.833,441.971 403.319,450.562     390.46,460.243 395.809,467.343 406.43,459.348 413.176,468.284 402.554,476.297 408.685,484.431 422.196,474.248     428.942,483.201   "/>
	</g>
	<g>
		<defs>
			<rect id="SVGID_31_" width="484.473" height="485.521"/>
		</defs>
		<clipPath id="SVGID_32_">
			<use xlink:href="#SVGID_31_" overflow="visible"/>
		</clipPath>
		<path clip-path="url(#SVGID_32_)" fill="#58585A" d="M434.979,460.979c1.873,2.497,3.802,2.591,5.497,1.323    c1.715-1.295,2.162-3.168,0.271-5.665l-3.121-4.137l-2.758,2.077l-5.852-7.779l13.771-10.39l17.479,23.191l-5.646,4.249    l-3.243-1.025c-0.801,3.709-2.6,6.522-5.87,9.001c-10.938,8.236-16.883,4.705-29.294-11.749    c-11.87-15.756-12.447-24.421-1.826-32.435c5.889-4.435,12.868-6.224,18.71-2.432c1.826,1.184,3.578,3.121,6.14,6.494    l-11.022,8.302l-1.826-2.441c-1.892-2.497-3.82-2.6-5.516-1.313c-1.715,1.276-2.143,3.159-0.271,5.665L434.979,460.979z"/>
	</g>
	<g>
		<defs>
			<rect id="SVGID_33_" width="483.728" height="483.732"/>
		</defs>
		<clipPath id="SVGID_34_">
			<use xlink:href="#SVGID_33_" overflow="visible"/>
		</clipPath>
		<polygon clip-path="url(#SVGID_34_)" fill="#58585A" points="466.677,454.783 435.212,413.041 446.225,404.749 477.671,446.481       "/>
		<path clip-path="url(#SVGID_34_)" fill="#58585A" d="M497.927,431.229l-31.465-41.733l12.401-9.336    c8.917-6.727,15.831-7.212,23.145,2.497c7.277,9.653,6.262,15.243-3.839,22.865l-1.909,1.426l12.28,16.277L497.927,431.229z     M490.399,399.167c3.541-2.684,4.631-4.491,1.118-9.149c-2.963-3.951-4.603-4.081-8.721-0.979L490.399,399.167z"/>
	</g>
	<g>
		<defs>
			<rect id="SVGID_35_" width="484.473" height="485.521"/>
		</defs>
		<clipPath id="SVGID_36_">
			<use xlink:href="#SVGID_35_" overflow="visible"/>
		</clipPath>
		<path clip-path="url(#SVGID_36_)" fill="#FFFFFF" d="M275.26,300.943v-3.224V300.943z M208.724,291.309    c0.028,0.019,0.075,0.056,0.103,0.074v-0.037C208.808,291.328,208.724,291.309,208.724,291.309 M400.151,370.824    c0.019,0.54,0.037,1.229,0.037,2.031C400.188,372.482,400.169,371.755,400.151,370.824 M184.233,219.747    c-0.163-1.747-0.27-2.865-0.27-2.968C183.963,220.431,184.201,219.993,184.233,219.747 M208.696,296.331    c-0.154,0.941-0.242,2.265-0.242,4.109C208.58,296.759,208.626,297.467,208.696,296.331 M256.084,120.306    c0-7.449,5.031-13.538,5.031-17.871c0-6.21-1.677-7.221-5.916-5.511c0,10.673-3.718,19.082-4.771,22.734    C251.622,119.659,256.084,119.077,256.084,120.306 M410.493,51.632c0,2.315-44.751,51.376-44.751,54.423    c0,0.401-6.867,14.959-29.248,9.206c0,11.964-65.948,26.159-67.626,23.042c8.246-7.994,43.289-47.784,43.289-50.263    c0-0.736,12.038-16.324,6.02-20.666c0-13.254-20.647-40.377-20.647-38.22c0,6.354,24.858,27.342-1.724,54.772    c0-4.043-36.366,39.828-36.366,39.655c-0.578-3.723-1.034,2.166-1.249,3.778c0-12.891-3.857,1.393-7.845-7.338    c-0.131,0.447-0.215,0.82-0.215,1.095c-2.45-3.815-4.929,0.965-6.545,5.414c0-2.818-3.461,5.427-3.461-3.466    c-1.612,2.939-4.077-2.586-6.545-0.955c-0.266-0.419-0.517-0.769-0.773-1.058c0.457,0.019,0.773,0.019,0.773,0.019    c0,0.088-5.069-16.878-5.069-17.153c-4.244-6.564-5.931,1.011-5.931,0.783c0,0.182,5.036,15.896,5.073,16.044    c-1.295,0.354-2.147-0.275-2.147-6.038c-0.172,3.396-0.554,6.089-0.992,8.045c0,0.713-35.816-36.468-35.816-37.442    c-18.435-19.254-12.126-40.158-6.527-53.407c-6.093,11.102-15.849,24.481-15.849,24.244c-6,13.748,6.033,25.101,6.033,26.34    c0,2.241,36.063,38.22,36.063,46.797c0-1.561,6.354,9.182,7.538,4.323c-0.447,4.197-0.792,6.41-1.174,6.261    c0,4.589-67.589-19.361-67.589-18.961c-22.353-1.286-29.233-11.917-29.233-13.692c0-3.853-44.728-49.993-44.728-59.431    c-3.461,18.873-0.876,15.919-0.876,20.517c0-7.072,31.819,36.626,31.819,41.052c8.633,20.191,30.98,23.806,30.98,19.618    c4.31,1.756,74.008,21.97,74.008,21.542v8.577c0-6.476-110.141,7.328-110.141,3.932c0.848,6.145,10.342,4.142,10.342,11.517    c0,0.247,96.104-2.306,96.104,4.705c-1.449,0.256-9.732,11.437-12.718,12.509c0.023-0.438,0.051-0.811,0.051-1.491    c0,0.699-0.219,1.174-0.554,1.574c-0.354-0.056-0.573-0.4-0.573-1.113c0,0.568-0.009,1.001-0.019,1.533    c-2.814,1.719-11.67,0.801-31.535,8.777c0,2.94-24.081,33.618-24.081,36.962c0-8.604-49.909,53.333-49.909,53.37    c0,10.809-2.138,71.223-2.53,71.754c0.308,9.289,3.056,18.346,11.116,23.479c0,3.718,0.862-68.716,6.033-91.097    c0,7.864,37.856-35.518,49.909-60.787c0,11.945,18.048-15.076,33.542-18.56c0-3.597,0.233-7.594,0.233,1.346    c-0.135-10.352-0.172-2.022-0.2,2.204c0,0,0,0.028,0,0.042c0.792,8.623,3.154,34.199,3.154,49.136    c0-3.756,0.261-16.911,0.261-14.881c0,14.35,0.028,6.374,0.028,4.864c3.55,17.386,12.029,27.374,21.15,32.462v0.019    c0.308,0.056,2.227,0.587,2.227,0.615c-0.251,0.224-0.28,0.475-0.573,0.689c-0.61-0.447-1.127-0.839-1.654-1.268    c-0.056,3.038-0.093,4.305-0.13,4.947c0.512-3.158,1.84-1.425,3.699,4.948c4.677-1.51,9.35,4.416,13.529-1.621    c5.642,5.199,11.535,2.329,15.938,10.687c0.759-8.265,1.705-2.068,2.563-0.111c-0.275-8.19-0.56-0.587-0.839-4.342    c0-4.007,0.755-2.675,2.092,1.929c0.736-4.417,1.519,3.503,2.366-8.852c5.944,2.403,16.93,2.124,27.086-3.28    c0-4.771,0.084-5.441,0.131,1.621c0-3.718-0.028-8.591-0.028-9.057c8.982-1.603,17.321-12.317,20.824-29.694    c0,4.221,3.429-48.097,3.429-38.537c0-0.629,0-0.955-0.074-2.176c0.047-0.238,0.074-0.746,0.074-1.793    c15.495-5.772,33.599,16.352,33.599,22.986c12.011,15.504,49.867,67.337,49.867,58.97c5.189,15.625,6.038,86.251,6.038,86.363    c8.068-4.221,10.845-21.607,11.162-13.548c-0.299-13.38-2.544-80.688-2.544-78.369c0-1.481-49.913-60.563-49.913-58.569    c0,4.752-24.095-29.951-24.095-28.083c-19.063-10.636-30.972-13.986-35.556-14.06c-3.829-13.026-9.149-9.793-9.988-12.406    c0-10.324,96.305-8.787,96.305-4.37c0-1.957,9.467,0.08,10.324-7.976c0-0.955-110.113-5.325-110.113-6.336v-13.137    c0-0.629,69.666-22.087,73.979-13.492c0-12.108,22.353-12.21,30.99-27.37c0,4.435,31.81-45.874,31.81-37.405    C411.35,55.084,413.95,61.868,410.493,51.632 M191.226,197.925c0-3.294,0.182-4.258,0.419-4.486    C191.529,202.789,191.38,202.868,191.226,197.925 M273.592,292.809c-0.094-0.037-0.094-0.103-0.177-0.177l0.708-0.196    C273.918,292.576,273.769,292.725,273.592,292.809 M182.169,31.903c2.786-5.069,4.817-9.676,4.817-12.299    C186.987,21.672,184.644,26.033,182.169,31.903 M83.601,363.119c-0.028-0.588-0.065-1.193-0.065-1.799    C83.536,362.625,83.563,363.174,83.601,363.119 M250.13,119.622c0.065,0.154,0.141,0.256,0.215,0.4    c0.019-0.098,0.056-0.237,0.084-0.363C250.252,119.668,250.13,119.64,250.13,119.622"/>
		<path clip-path="url(#SVGID_36_)" d="M0,483.732h483.728V0H0V483.732z M474.056,474.061H9.671V9.676h464.385V474.061z"/>
		<rect y="406.333" clip-path="url(#SVGID_36_)" width="483.728" height="77.399"/>
		<polygon clip-path="url(#SVGID_36_)" fill="#FFFFFF" points="178.438,470.036 178.438,417.895 205.896,417.895 205.896,428.648     190.639,428.648 190.639,438.086 202.84,438.086 202.84,449.257 190.639,449.257 190.639,470.036   "/>
		<polygon clip-path="url(#SVGID_36_)" fill="#FFFFFF" points="210.653,470.036 210.653,417.895 237.091,417.895 237.091,428.648     222.85,428.648 222.85,437.5 234.622,437.5 234.622,448.689 222.85,448.689 222.85,458.855 237.818,458.855 237.818,470.036   "/>
		<path clip-path="url(#SVGID_36_)" fill="#FFFFFF" d="M272.279,470.036H260.66l-1.016-6.531h-7.398l-1.024,6.531h-11.619    l9.001-52.141h14.675L272.279,470.036z M252.898,453.338h6.104l-3.047-21.43h-0.159L252.898,453.338z"/>
		<path clip-path="url(#SVGID_36_)" fill="#FFFFFF" d="M275.092,470.036v-52.141h15.112c10.454,0,14.955,3.485,14.955,14.666    c0,8.349-3.494,10.892-5.823,11.693v0.14c4.379,0.802,5.665,8.218,5.665,14.759c0,5.218,0.596,8.852,1.611,10.883h-11.917    c-1.016-4.286-1.453-7.109-1.453-10.809c0-8.795-0.727-10.397-4.641-10.397h-1.751v21.206H275.092z M286.851,439.829h2.18    c3.336,0,4.51-2.031,4.51-6.252c0-4.202-1.174-6.233-4.51-6.233h-2.18V439.829z"/>
		<path clip-path="url(#SVGID_36_)" fill="#FFFFFF" d="M433.19,19.352v3.597h-7.64v24.234h-4.501V22.949H413.4v-3.597H433.19z     M464.375,47.183h-4.5V25.269h-0.131l-7.705,21.915h-3.662l-7.342-21.915h-0.131v21.915h-4.491V19.352h7.138l6.932,20.694h0.131    l6.765-20.694h6.997V47.183z"/>
	</g>
</g>
</svg>